<svg width="68" height="77" viewBox="0 0 68 77" fill="none" xmlns="http://www.w3.org/2000/svg">
<g clip-path="url(#clip0_829_1840)">
<path d="M66.9315 57.4645V19.4385L33.9999 0.425331L1.06836 19.4385V57.4645L33.9999 76.4776L66.9315 57.4645Z" fill="#3C4043" stroke="white" stroke-width="0.736821" stroke-miterlimit="10"/>
<path d="M29.1466 46.5179L12.675 37.0078L4.43913 41.7218V51.3351L20.9108 60.8454L29.1466 56.1314V46.5179Z" fill="#231F20"/>
<path d="M20.9108 51.2319L4.43913 41.7218V51.3351L20.9108 60.8454V51.2319Z" fill="#2A56C6"/>
<path d="M51.2089 17.669L34.3193 7.91733L7.08414 23.6422V32.3391L15.4937 37.1946L34.3193 26.3252L42.7993 31.2211L51.2089 26.3657V17.669Z" fill="#231F20"/>
<path d="M15.4937 28.4977L34.3193 17.6283L42.7993 22.5244L51.2089 17.669L34.3193 7.91733L7.08414 23.6422L15.4937 28.4977Z" fill="#9C27B0"/>
<path d="M63.5608 23.6627L55.135 18.777L46.7463 23.6199V23.6415V32.3074V32.3288L55.1536 37.1933L63.5608 32.35V23.6627Z" fill="#231F20"/>
<path d="M46.7463 23.6199V23.6415L55.1535 28.506L63.5608 23.6627L55.135 18.777L46.7463 23.6199Z" fill="#EA80FC"/>
<path d="M18.9029 28.9534L34.8319 38.1504V29.4432L26.4434 24.5999L18.9029 28.9534Z" fill="#5E97F6"/>
<path d="M50.7944 28.9341V37.6414L34.8319 46.8578V38.1504L50.7944 28.9341Z" fill="#2A56C6"/>
<path d="M43.2543 24.5804L34.8319 29.4432V38.1504L50.7944 28.9341V28.9339L43.2543 24.5804Z" fill="#5E97F6"/>
<path d="M18.9029 28.9534V37.6608L34.8319 46.8578V38.1504L18.9029 28.9534Z" fill="#2A56C6"/>
<path d="M36.5975 58.3734V68.9856L45.8455 63.6579V53.0458L36.5975 58.3734Z" fill="#00796B"/>
<path d="M36.5975 58.3734L27.3497 53.0226V63.6111V63.6347L36.5975 68.9856L45.8455 63.6579L36.5975 68.9856V58.3734Z" fill="#26A69A"/>
<path d="M27.3497 52.9988V53.0226L36.5975 58.3734L45.8455 53.0458L36.5773 47.6716L27.3497 52.9988Z" fill="#231F20"/>
<path d="M54.583 38.6938L46.3472 43.5023L54.583 48.3022L62.8188 43.5023L54.583 38.6938Z" fill="#231F20"/>
<path d="M46.3472 43.5023V53.1106L54.583 57.9107V48.3021L46.3472 43.5023Z" fill="#231F20"/>
<path d="M54.583 48.3021V57.9107L62.8188 53.1106V43.5023L54.583 48.3021Z" fill="#9C27B0"/>
</g>
<defs>
<clipPath id="clip0_829_1840">
<rect width="66.6" height="76.903" fill="white" transform="translate(0.699951)"/>
</clipPath>
</defs>
</svg>
