<svg xmlns="http://www.w3.org/2000/svg" xmlns:xlink="http://www.w3.org/1999/xlink" xmlns:lucid="lucid" width="1662" height="642"><g transform="translate(-179 -339)" lucid:page-tab-id="PGF7P08eNGsg"><path d="M180 346a6 6 0 0 1 6-6h1648a6 6 0 0 1 6 6v628a6 6 0 0 1-6 6H186a6 6 0 0 1-6-6z" stroke="#000" stroke-opacity="0" stroke-width="2" fill="#193057"/><path d="M200 369.1a6 6 0 0 1 6-6h583a6 6 0 0 1 6 6V394a6 6 0 0 1-6 6H206a6 6 0 0 1-6-6z" fill="none"/><use xlink:href="#a" transform="matrix(1,0,0,1,205.0000000000001,368.1019791666667) translate(0 21.58376736111111)"/><use xlink:href="#b" transform="matrix(1,0,0,1,205.0000000000001,368.1019791666667) translate(164.05164930555551 21.58376736111111)"/><use xlink:href="#c" transform="matrix(1,0,0,1,205.0000000000001,368.1019791666667) translate(324.9565972222222 21.58376736111111)"/><use xlink:href="#d" transform="matrix(1,0,0,1,205.0000000000001,368.1019791666667) translate(340.6141493055555 21.58376736111111)"/><use xlink:href="#e" transform="matrix(1,0,0,1,205.0000000000001,368.1019791666667) translate(523.6436631944443 21.58376736111111)"/><path d="M569.1 580h61.53v40H569.1z" stroke="#00c2a8" stroke-width="4" fill-opacity="0"/><use xlink:href="#f" transform="matrix(1,0,0,1,574.1139240506329,585) translate(2.9476996527777786 23.40277777777778)"/><path d="M630.63 580h164.05v40H630.63z" stroke="#9391ff" stroke-width="4" fill-opacity="0"/><use xlink:href="#g" transform="matrix(1,0,0,1,635.632911392405,585) translate(5.717230902777786 23.40277777777778)"/><use xlink:href="#h" transform="matrix(1,0,0,1,635.632911392405,585) translate(94.03103298611111 23.40277777777778)"/><path d="M1389.37 580h61.52v40h-61.53z" stroke="#00c2a8" stroke-width="4" fill-opacity="0"/><use xlink:href="#f" transform="matrix(1,0,0,1,1394.3670886075947,585) translate(2.9476996527777786 23.40277777777778)"/><path d="M1450.9 580h164.04v40H1450.9z" stroke="#9391ff" stroke-width="4" fill-opacity="0"/><use xlink:href="#g" transform="matrix(1,0,0,1,1455.8860759493668,585) translate(5.717230902777786 23.40277777777778)"/><use xlink:href="#h" transform="matrix(1,0,0,1,1455.8860759493668,585) translate(94.03103298611111 23.40277777777778)"/><path d="M200 520h184.56v40H200z" stroke="#ced4db" stroke-width="4" fill-opacity="0"/><use xlink:href="#i" transform="matrix(1,0,0,1,205,525) translate(39.98969184027778 25.618055555555557)"/><path d="M384.56 520H569.1v40H384.57z" stroke="#ced4db" stroke-width="4" fill-opacity="0"/><use xlink:href="#j" transform="matrix(1,0,0,1,389.5569620253164,525) translate(30.202365451388886 25.618055555555557)"/><g fill="none"><path d="M206 500a6 6 0 0 1-6-6v-68a6 6 0 0 1 6-6h357.1a6 6 0 0 1 6 6v68a6 6 0 0 1-6 6z"/><path d="M569.1 500c0-5.52-4.46-10-10-10H394.57c-5.53 0-10-4.48-10-10 0 5.52-4.48 10-10 10H210c-5.52 0-10 4.48-10 10" stroke="#ced4db" stroke-width="2"/></g><use xlink:href="#k" transform="matrix(1,0,0,1,205.00000000000003,425.00000000000006) translate(144.56705729166669 28.58376736111111)"/><use xlink:href="#l" transform="matrix(1,0,0,1,205.00000000000003,425.00000000000006) translate(198.69032118055557 28.58376736111111)"/><path d="M1450.9 520h184.54v40H1450.9z" stroke="#ced4db" stroke-width="4" fill-opacity="0"/><use xlink:href="#i" transform="matrix(1,0,0,1,1455.886075949367,525) translate(39.98969184027778 25.618055555555557)"/><path d="M1635.44 520H1820v40h-184.56z" stroke="#ced4db" stroke-width="4" fill-opacity="0"/><use xlink:href="#j" transform="matrix(1,0,0,1,1640.4430379746836,525) translate(30.202365451388886 25.618055555555557)"/><g fill="none"><path d="M1456.9 500a6 6 0 0 1-6-6v-68a6 6 0 0 1 6-6H1814a6 6 0 0 1 6 6v68a6 6 0 0 1-6 6z"/><path d="M1820 500c0-5.52-4.48-10-10-10h-164.56c-5.52 0-10-4.48-10-10 0 5.52-4.47 10-10 10H1460.9c-5.54 0-10 4.48-10 10" stroke="#ced4db" stroke-width="2"/></g><use xlink:href="#k" transform="matrix(1,0,0,1,1455.886075949367,425.0000000000005) translate(130.47743055555554 28.58376736111111)"/><use xlink:href="#m" transform="matrix(1,0,0,1,1455.886075949367,425.0000000000005) translate(184.60069444444443 28.58376736111111)"/><path d="M630.63 520H815.2v40H630.62z" stroke="#ced4db" stroke-width="4" fill-opacity="0"/><use xlink:href="#i" transform="matrix(1,0,0,1,635.632911392405,525) translate(39.98969184027778 25.618055555555557)"/><path d="M815.2 520h184.55v40H815.2z" stroke="#ced4db" stroke-width="4" fill-opacity="0"/><use xlink:href="#j" transform="matrix(1,0,0,1,820.1898734177214,525) translate(30.202365451388886 25.618055555555557)"/><g fill="none"><path d="M636.63 500a6 6 0 0 1-6-6v-68a6 6 0 0 1 6-6h357.12a6 6 0 0 1 6 6v68a6 6 0 0 1-6 6z"/><path d="M999.75 500c0-5.52-4.48-10-10-10H825.2c-5.53 0-10-4.48-10-10 0 5.52-4.5 10-10 10H640.62c-5.52 0-10 4.48-10 10" stroke="#ced4db" stroke-width="2"/></g><use xlink:href="#k" transform="matrix(1,0,0,1,635.632911392405,425.00000000000006) translate(132.69639756944446 28.58376736111111)"/><use xlink:href="#n" transform="matrix(1,0,0,1,635.632911392405,425.00000000000006) translate(186.81966145833334 28.58376736111111)"/><path d="M1020.25 520h184.56v40h-184.55z" stroke="#ced4db" stroke-width="4" fill-opacity="0"/><use xlink:href="#i" transform="matrix(1,0,0,1,1025.253164556962,525) translate(39.98969184027778 25.618055555555557)"/><path d="M1204.8 520h184.57v40H1204.8z" stroke="#ced4db" stroke-width="4" fill-opacity="0"/><use xlink:href="#j" transform="matrix(1,0,0,1,1209.8101265822784,525) translate(30.202365451388886 25.618055555555557)"/><g fill="none"><path d="M1026.25 500a6 6 0 0 1-6-6v-68a6 6 0 0 1 6-6h357.12a6 6 0 0 1 6 6v68a6 6 0 0 1-6 6z"/><path d="M1389.37 500c0-5.52-4.48-10-10-10H1214.8c-5.5 0-10-4.48-10-10 0 5.52-4.47 10-10 10h-164.55c-5.52 0-10 4.48-10 10" stroke="#ced4db" stroke-width="2"/></g><use xlink:href="#k" transform="matrix(1,0,0,1,1025.253164556962,425.00000000000006) translate(130.81380208333334 28.58376736111111)"/><use xlink:href="#o" transform="matrix(1,0,0,1,1025.253164556962,425.00000000000006) translate(184.93706597222223 28.58376736111111)"/><path d="M200 646a6 6 0 0 1 6-6h697.1a6 6 0 0 1 6 6v24.9a6 6 0 0 1-6 6H206a6 6 0 0 1-6-6z" fill="none"/><use xlink:href="#a" transform="matrix(1,0,0,1,205.00000000000006,645) translate(0 21.58376736111111)"/><use xlink:href="#b" transform="matrix(1,0,0,1,205.00000000000006,645) translate(164.05164930555551 21.58376736111111)"/><use xlink:href="#c" transform="matrix(1,0,0,1,205.00000000000006,645) translate(324.9565972222222 21.58376736111111)"/><use xlink:href="#p" transform="matrix(1,0,0,1,205.00000000000006,645) translate(340.6141493055555 21.58376736111111)"/><use xlink:href="#q" transform="matrix(1,0,0,1,205.00000000000006,645) translate(392.5238715277777 21.58376736111111)"/><use xlink:href="#r" transform="matrix(1,0,0,1,205.00000000000006,645) translate(491.9487847222222 21.58376736111111)"/><use xlink:href="#s" transform="matrix(1,0,0,1,205.00000000000006,645) translate(582.6931423611111 21.58376736111111)"/><use xlink:href="#t" transform="matrix(1,0,0,1,205.00000000000006,645) translate(639.9739583333333 21.58376736111111)"/><path d="M569.1 856.9h61.53v40H569.1z" stroke="#00c2a8" stroke-width="4" fill-opacity="0"/><use xlink:href="#f" transform="matrix(1,0,0,1,574.1139240506329,861.8980208333334) translate(2.9476996527777786 23.40277777777778)"/><path d="M630.63 856.9h164.05v40H630.63z" stroke="#9391ff" stroke-width="4" fill-opacity="0"/><use xlink:href="#g" transform="matrix(1,0,0,1,635.632911392405,861.8980208333334) translate(5.717230902777786 23.40277777777778)"/><use xlink:href="#h" transform="matrix(1,0,0,1,635.632911392405,861.8980208333334) translate(94.03103298611111 23.40277777777778)"/><path d="M200 796.9h184.56v40H200z" stroke="#ced4db" stroke-width="4" fill-opacity="0"/><use xlink:href="#i" transform="matrix(1,0,0,1,205,801.8980208333334) translate(39.98969184027778 25.618055555555557)"/><path d="M384.56 796.9H569.1v40H384.57z" stroke="#ced4db" stroke-width="4" fill-opacity="0"/><use xlink:href="#j" transform="matrix(1,0,0,1,389.5569620253164,801.8980208333334) translate(30.202365451388886 25.618055555555557)"/><g fill="none"><path d="M206 776.9a6 6 0 0 1-6-6v-68a6 6 0 0 1 6-6h357.1a6 6 0 0 1 6 6v68a6 6 0 0 1-6 6z"/><path d="M569.1 776.9c0-5.53-4.46-10-10-10H394.57c-5.53 0-10-4.48-10-10 0 5.52-4.48 10-10 10H210c-5.52 0-10 4.47-10 10" stroke="#ced4db" stroke-width="2"/></g><use xlink:href="#k" transform="matrix(1,0,0,1,205.00000000000006,701.8980208333332) translate(144.56705729166669 28.08376736111111)"/><use xlink:href="#l" transform="matrix(1,0,0,1,205.00000000000006,701.8980208333332) translate(198.69032118055557 28.08376736111111)"/><path d="M1332.72 856.9h61.52v40h-61.52z" stroke="#00c2a8" stroke-width="4" fill-opacity="0"/><use xlink:href="#f" transform="matrix(1,0,0,1,1337.7192556404163,861.8980208333334) translate(2.9476996527777786 23.40277777777778)"/><path d="M1394.24 856.9h164.05v40h-164.06z" stroke="#9391ff" stroke-width="4" fill-opacity="0"/><use xlink:href="#g" transform="matrix(1,0,0,1,1399.2382429821885,861.8980208333334) translate(5.717230902777786 23.40277777777778)"/><use xlink:href="#h" transform="matrix(1,0,0,1,1399.2382429821885,861.8980208333334) translate(94.03103298611111 23.40277777777778)"/><path d="M1345.4 796.9h184.56v40H1345.4z" stroke="#ced4db" stroke-width="4" fill-opacity="0"/><g><use xlink:href="#i" transform="matrix(1,0,0,1,1350.407997384675,801.8980208333334) translate(39.98969184027778 25.618055555555557)"/></g><path d="M1529.96 796.9h184.56v40h-184.56z" stroke="#ced4db" stroke-width="4" fill-opacity="0"/><g><use xlink:href="#j" transform="matrix(1,0,0,1,1534.9649594099915,801.8980208333334) translate(30.202365451388886 25.618055555555557)"/></g><g fill="none"><path d="M1351.4 776.9a6 6 0 0 1-6-6v-68a6 6 0 0 1 6-6h357.12a6 6 0 0 1 6 6v68a6 6 0 0 1-6 6z"/><path d="M1714.52 776.9c0-5.53-4.48-10-10-10h-164.56c-5.52 0-10-4.48-10-10 0 5.52-4.47 10-10 10H1355.4c-5.52 0-10 4.47-10 10" stroke="#ced4db" stroke-width="2"/></g><g><use xlink:href="#k" transform="matrix(1,0,0,1,1350.4079973846751,701.8980208333332) translate(130.47743055555554 28.08376736111111)"/><use xlink:href="#m" transform="matrix(1,0,0,1,1350.4079973846751,701.8980208333332) translate(184.60069444444443 28.08376736111111)"/></g><path d="M581.8 796.9h184.56v40H581.8z" stroke="#ced4db" stroke-width="4" fill-opacity="0"/><g><use xlink:href="#i" transform="matrix(1,0,0,1,586.8026657948915,801.8980208333334) translate(39.98969184027778 25.618055555555557)"/></g><path d="M766.36 796.9h184.56v40H766.36z" stroke="#ced4db" stroke-width="4" fill-opacity="0"/><g><use xlink:href="#j" transform="matrix(1,0,0,1,771.3596278202081,801.8980208333334) translate(30.202365451388886 25.618055555555557)"/></g><g fill="none"><path d="M587.8 776.9a6 6 0 0 1-6-6v-68a6 6 0 0 1 6-6h357.12a6 6 0 0 1 6 6v68a6 6 0 0 1-6 6z"/><path d="M950.92 776.9c0-5.52-4.48-10-10-10H776.36c-5.52 0-10-4.48-10-10 0 5.52-4.48 10-10 10H591.8c-5.52 0-10 4.48-10 10" stroke="#ced4db" stroke-width="2"/></g><g><use xlink:href="#k" transform="matrix(1,0,0,1,586.8026657948916,701.8980208333332) translate(132.69639756944446 28.08376736111111)"/><use xlink:href="#n" transform="matrix(1,0,0,1,586.8026657948916,701.8980208333332) translate(186.81966145833334 28.08376736111111)"/></g><path d="M963.6 796.9h184.56v40H963.6z" stroke="#ced4db" stroke-width="4" fill-opacity="0"/><g><use xlink:href="#i" transform="matrix(1,0,0,1,968.6053315897834,801.8980208333334) translate(39.98969184027778 25.618055555555557)"/></g><path d="M1148.16 796.9h184.56v40h-184.56z" stroke="#ced4db" stroke-width="4" fill-opacity="0"/><g><use xlink:href="#j" transform="matrix(1,0,0,1,1153.1622936150998,801.8980208333334) translate(30.202365451388886 25.618055555555557)"/></g><g fill="none"><path d="M969.6 776.9a6 6 0 0 1-6-6v-68a6 6 0 0 1 6-6h357.12a6 6 0 0 1 6 6v68a6 6 0 0 1-6 6z"/><path d="M1332.72 776.9c0-5.52-4.48-10-10-10h-164.56c-5.52 0-10-4.48-10-10 0 5.52-4.47 10-10 10H973.6c-5.52 0-10 4.48-10 10" stroke="#ced4db" stroke-width="2"/></g><g><use xlink:href="#k" transform="matrix(1,0,0,1,968.6053315897834,701.8980208333332) translate(130.81380208333334 28.08376736111111)"/><use xlink:href="#o" transform="matrix(1,0,0,1,968.6053315897834,701.8980208333332) translate(184.93706597222223 28.08376736111111)"/></g><path d="M200 926a6 6 0 0 1 6-6h329.78a6 6 0 0 1 6 6v24.9a6 6 0 0 1-6 6H206a6 6 0 0 1-6-6z" fill="none"/><g><use xlink:href="#u" transform="matrix(1,0,0,1,205.00000000000003,925) translate(0 21.58376736111111)"/><use xlink:href="#v" transform="matrix(1,0,0,1,205.00000000000003,925) translate(52.35460069444444 21.58376736111111)"/><use xlink:href="#w" transform="matrix(1,0,0,1,205.00000000000003,925) translate(73.30729166666666 21.58376736111111)"/></g><defs><path fill="#fff" d="M49 0l509-1490h400L1480 0h-339l-115-346H497L386 0H49zm524-585h374c-75-213-124-402-192-666-66 268-110 453-182 666" id="x"/><path fill="#fff" d="M572 22C302 22 117-98 78-306l279-48c29 105 101 156 224 156 114 0 185-48 185-115 0-118-228-130-337-155-215-49-322-150-322-317 0-215 187-347 470-347 265 0 424 116 466 298l-266 47c-24-76-87-130-196-130-98 0-174 46-174 113 0 56 38 95 144 117l201 40c216 44 320 143 320 302 0 220-207 367-500 367" id="y"/><path fill="#fff" d="M120 396l69-226c123 42 245 23 254-107l8-60L31-1118h319c87 288 199 559 259 872 72-308 185-583 277-872h315L726 132c-68 181-186 294-410 294-79 0-153-13-196-30" id="z"/><path fill="#fff" d="M428-647V0H128v-1118h283l4 231c63-156 176-245 348-245 232 0 384 159 384 421V0H847v-659c0-139-76-222-202-222-128 0-217 86-217 234" id="A"/><path fill="#fff" d="M628 22C291 22 81-210 81-554c0-346 210-578 547-578 265 0 455 142 497 372l-279 52c-25-116-99-188-215-188-160 0-244 139-244 341 0 200 84 341 244 341 116 0 193-74 217-195l279 51C1085-123 896 22 628 22" id="B"/><path fill="#fff" d="M428-647V0H128v-1490h294v586c65-146 175-228 341-228 232 0 385 159 385 421V0H847v-659c0-139-76-222-202-222-128 0-217 86-217 234" id="C"/><path fill="#fff" d="M128 0v-1118h290v195h12c54-169 184-238 367-200v268c-27-8-86-15-130-15-138 0-239 95-239 234V0H128" id="D"/><path fill="#fff" d="M628 22C291 22 81-210 81-554c0-346 210-578 547-578 336 0 547 232 547 578 0 344-211 576-547 576zm0-236c160 0 242-146 242-341 0-197-82-341-242-341S387-753 387-555c0 195 81 341 241 341" id="E"/><path fill="#fff" d="M513 14c-232 0-385-159-385-421v-711h300v659c0 139 76 222 202 222 127 0 217-86 217-234v-647h301V0H864l-4-232C797-74 683 14 513 14" id="F"/><g id="a"><use transform="matrix(0.010850694444444444,0,0,0.010850694444444444,0,0)" xlink:href="#x"/><use transform="matrix(0.010850694444444444,0,0,0.010850694444444444,16.341145833333332,0)" xlink:href="#y"/><use transform="matrix(0.010850694444444444,0,0,0.010850694444444444,28.786892361111104,0)" xlink:href="#z"/><use transform="matrix(0.010850694444444444,0,0,0.010850694444444444,42.16579861111111,0)" xlink:href="#A"/><use transform="matrix(0.010850694444444444,0,0,0.010850694444444444,56.00043402777778,0)" xlink:href="#B"/><use transform="matrix(0.010850694444444444,0,0,0.010850694444444444,69.07552083333333,0)" xlink:href="#C"/><use transform="matrix(0.010850694444444444,0,0,0.010850694444444444,82.91015625,0)" xlink:href="#D"/><use transform="matrix(0.010850694444444444,0,0,0.010850694444444444,91.41710069444444,0)" xlink:href="#E"/><use transform="matrix(0.010850694444444444,0,0,0.010850694444444444,105.04557291666666,0)" xlink:href="#A"/><use transform="matrix(0.010850694444444444,0,0,0.010850694444444444,118.88020833333333,0)" xlink:href="#E"/><use transform="matrix(0.010850694444444444,0,0,0.010850694444444444,132.50868055555554,0)" xlink:href="#F"/><use transform="matrix(0.010850694444444444,0,0,0.010850694444444444,146.3433159722222,0)" xlink:href="#y"/></g><path fill="#fff" d="M633 22C291 22 81-200 81-553c0-345 210-579 537-579 292 0 525 185 525 567v84H378c7 183 109 277 260 277 105 0 184-46 216-132l272 51C1071-99 893 22 633 22zM380-669h474c-15-146-94-237-233-237-143 0-229 99-241 237" id="G"/><path fill="#fff" d="M128 0v-1490h300v802h17l366-430h347L740-633 1179 0H826L514-456l-86 97V0H128" id="H"/><path fill="#fff" d="M128 418v-1536h295v188h14c41-89 129-202 319-202 248 0 453 193 453 575 0 372-197 576-455 576-183 0-275-108-317-198h-9v597H128zm534-640c156 0 240-139 240-336 0-196-83-334-240-334-154 0-241 131-241 334 0 202 88 336 241 336" id="I"/><path fill="#fff" d="M128 0v-1118h300V0H128zm150-1264c-91 0-165-68-165-154 0-85 74-154 165-154 90 0 165 69 165 154 0 86-75 154-165 154" id="J"/><path fill="#fff" d="M683-1118v229H474v562c0 71 29 104 102 104 23 0 73-7 95-13l43 225C647 9 580 16 520 16 296 16 174-96 174-301v-588H20v-229h154v-266h300v266h209" id="K"/><path fill="#fff" d="M625 442c-280 0-454-114-503-274l258-72c28 63 97 128 243 128 153 0 246-69 246-216v-206h-23C805-108 717-16 536-16 284-16 81-191 81-561c0-378 208-571 456-571 188 0 280 113 321 202h13v-188h295V-9c0 303-226 451-541 451zm5-686c153 0 240-119 240-319 0-198-86-329-240-329-158 0-241 137-241 329 0 195 85 319 241 319" id="L"/><g id="b"><use transform="matrix(0.010850694444444444,0,0,0.010850694444444444,0,0)" xlink:href="#B"/><use transform="matrix(0.010850694444444444,0,0,0.010850694444444444,13.075086805555555,0)" xlink:href="#C"/><use transform="matrix(0.010850694444444444,0,0,0.010850694444444444,26.90972222222222,0)" xlink:href="#G"/><use transform="matrix(0.010850694444444444,0,0,0.010850694444444444,40.14756944444444,0)" xlink:href="#B"/><use transform="matrix(0.010850694444444444,0,0,0.010850694444444444,53.22265625,0)" xlink:href="#H"/><use transform="matrix(0.010850694444444444,0,0,0.010850694444444444,66.11328125,0)" xlink:href="#I"/><use transform="matrix(0.010850694444444444,0,0,0.010850694444444444,80.12152777777777,0)" xlink:href="#E"/><use transform="matrix(0.010850694444444444,0,0,0.010850694444444444,93.75,0)" xlink:href="#J"/><use transform="matrix(0.010850694444444444,0,0,0.010850694444444444,99.77213541666666,0)" xlink:href="#A"/><use transform="matrix(0.010850694444444444,0,0,0.010850694444444444,113.60677083333334,0)" xlink:href="#K"/><use transform="matrix(0.010850694444444444,0,0,0.010850694444444444,121.74479166666666,0)" xlink:href="#J"/><use transform="matrix(0.010850694444444444,0,0,0.010850694444444444,127.76692708333334,0)" xlink:href="#A"/><use transform="matrix(0.010850694444444444,0,0,0.010850694444444444,141.6015625,0)" xlink:href="#L"/></g><path fill="#fff" d="M818-733v240H140v-240h678" id="M"/><use transform="matrix(0.010850694444444444,0,0,0.010850694444444444,0,0)" xlink:href="#M" id="c"/><path fill="#fff" d="M135 0v-1490h340l471 754c59 97 122 210 187 365-32-387-14-721-19-1119h312V0h-341C855-382 627-689 427-1113c32 420 16 695 20 1113H135" id="N"/><path fill="#fff" d="M443 0L31-1118h319c90 293 199 572 268 885 66-313 175-593 264-885h315L784 0H443" id="O"/><path fill="#fff" d="M428-1490V0H128v-1490h300" id="P"/><path fill="#fff" d="M440 22C227 22 68-92 68-313c0-250 202-322 422-343 195-21 271-24 271-105 0-95-63-149-175-149-116 0-187 57-211 129l-275-46c57-194 237-305 487-305 240 0 474 108 474 379V0H777v-155h-10C713-51 605 22 440 22zm85-211c140 0 238-93 238-211v-121c-37 26-156 42-222 51-111 16-185 59-185 149 0 87 70 132 169 132" id="Q"/><path fill="#fff" d="M537 19C279 19 81-185 81-557c0-382 206-575 454-575 190 0 278 113 318 202h10v-560h300V0H868v-179h-15C812-89 719 19 537 19zm92-241c153 0 240-134 240-336 0-203-86-334-240-334-158 0-240 138-240 334 0 197 84 336 240 336" id="R"/><g id="d"><use transform="matrix(0.010850694444444444,0,0,0.010850694444444444,0,0)" xlink:href="#N"/><use transform="matrix(0.010850694444444444,0,0,0.010850694444444444,16.93793402777778,0)" xlink:href="#E"/><use transform="matrix(0.010850694444444444,0,0,0.010850694444444444,30.56640625,0)" xlink:href="#A"/><use transform="matrix(0.010850694444444444,0,0,0.010850694444444444,44.401041666666664,0)" xlink:href="#M"/><use transform="matrix(0.010850694444444444,0,0,0.010850694444444444,54.79600694444444,0)" xlink:href="#E"/><use transform="matrix(0.010850694444444444,0,0,0.010850694444444444,68.02300347222223,0)" xlink:href="#O"/><use transform="matrix(0.010850694444444444,0,0,0.010850694444444444,80.94618055555556,0)" xlink:href="#G"/><use transform="matrix(0.010850694444444444,0,0,0.010850694444444444,94.18402777777777,0)" xlink:href="#D"/><use transform="matrix(0.010850694444444444,0,0,0.010850694444444444,103.58072916666666,0)" xlink:href="#P"/><use transform="matrix(0.010850694444444444,0,0,0.010850694444444444,109.60286458333334,0)" xlink:href="#Q"/><use transform="matrix(0.010850694444444444,0,0,0.010850694444444444,122.5043402777778,0)" xlink:href="#I"/><use transform="matrix(0.010850694444444444,0,0,0.010850694444444444,136.51258680555557,0)" xlink:href="#I"/><use transform="matrix(0.010850694444444444,0,0,0.010850694444444444,150.52083333333334,0)" xlink:href="#G"/><use transform="matrix(0.010850694444444444,0,0,0.010850694444444444,163.75868055555557,0)" xlink:href="#R"/></g><path fill="#fff" d="M659 0H135v-1490h529c448 0 721 280 721 744 0 466-273 746-726 746zM440-263h204c287 0 437-148 437-483 0-333-150-481-435-481H440v964" id="S"/><path fill="#fff" d="M124 0v-220l528-495c135-132 210-216 210-336 0-133-98-215-231-215-139 0-229 88-229 233H110c0-290 214-477 523-477 315 0 525 182 525 440 0 167-80 305-385 586L548-262v11h630V0H124" id="T"/><path fill="#fff" d="M135 0v-1490h305v602h649v-602h306V0h-306v-635H440V0H135" id="U"/><g id="e"><use transform="matrix(0.010850694444444444,0,0,0.010850694444444444,0,0)" xlink:href="#S"/><use transform="matrix(0.010850694444444444,0,0,0.010850694444444444,16.048177083333332,0)" xlink:href="#T"/><use transform="matrix(0.010850694444444444,0,0,0.010850694444444444,30.045572916666664,0)" xlink:href="#U"/></g><path fill="#fff" d="M645 0H180v-1490h484c435 0 692 280 692 742 0 466-257 748-711 748zM370-168h263c363 0 539-218 539-580 0-358-176-574-521-574H370v1154" id="V"/><path fill="#fff" d="M154 0v-137l495-537c165-179 249-281 249-418 0-156-121-253-280-253-170 0-278 110-278 278H158c0-264 200-443 465-443 266 0 455 183 455 416 0 161-73 288-336 568L416-179v12h687V0H154" id="W"/><path fill="#fff" d="M180 0v-1490h190v644h782v-644h190V0h-190v-678H370V0H180" id="X"/><g id="f"><use transform="matrix(0.010850694444444444,0,0,0.010850694444444444,0,0)" xlink:href="#V"/><use transform="matrix(0.010850694444444444,0,0,0.010850694444444444,16.03732638888889,0)" xlink:href="#W"/><use transform="matrix(0.010850694444444444,0,0,0.010850694444444444,29.58984375,0)" xlink:href="#X"/></g><path fill="#fff" d="M657 26c-323 0-524-166-541-416h195c15 169 171 246 346 246 202 0 356-106 356-265 5-203-294-238-475-293-239-73-380-191-380-389 0-252 224-419 512-419 294 0 499 171 508 396H992c-17-145-151-228-328-228-193 0-321 102-321 242 0 156 175 211 284 241l149 41c160 44 422 134 422 412 0 244-197 432-541 432" id="Y"/><path fill="#fff" d="M598-1118v154H368v674c0 100 37 144 132 144 23 0 62-6 92-12L629-6c-37 13-88 20-134 20-193 0-307-107-307-290v-688H20v-154h168v-266h180v266h230" id="Z"/><path fill="#fff" d="M613 24c-304 0-509-231-509-576 0-350 205-580 509-580 305 0 511 230 511 580 0 345-206 576-511 576zm0-161c226 0 329-195 329-415 0-222-103-419-329-419-223 0-326 196-326 419 0 220 103 415 326 415" id="aa"/><path fill="#fff" d="M158 0v-1118h174v172h12c41-113 157-188 290-188 26 0 70 2 91 3v181c-11-2-60-10-108-10-161 0-279 109-279 260V0H158" id="ab"/><path fill="#fff" d="M471 26C259 26 90-98 90-318c0-256 228-303 435-329 202-27 287-16 287-108 0-139-79-219-234-219-161 0-248 86-283 164l-173-57c86-203 278-265 451-265 150 0 419 46 419 395V0H815v-152h-12C765-73 660 26 471 26zm31-159c199 0 310-134 310-271v-155c-30 35-226 55-295 64-131 17-246 59-246 186 0 116 97 176 231 176" id="ac"/><path fill="#fff" d="M611 442c-248 0-391-105-460-228l146-94c47 65 117 165 314 165 178 0 307-82 307-266v-224h-17C863-141 792-18 576-18c-268 0-472-195-472-546 0-346 197-568 476-568 216 0 288 133 326 193h17v-179h175V29c0 289-215 413-487 413zm-5-620c203 0 314-146 314-390 0-237-108-403-314-403-213 0-319 180-319 403 0 230 109 390 319 390" id="ad"/><path fill="#fff" d="M628 24c-324 0-524-230-524-574 0-343 198-582 503-582 237 0 487 146 487 559v75H286c9 234 145 362 343 362 132 0 231-58 273-172l174 48C1024-91 857 24 628 24zM287-650h624c-17-190-120-322-304-322-192 0-309 151-320 322" id="ae"/><g id="g"><use transform="matrix(0.010850694444444444,0,0,0.010850694444444444,0,0)" xlink:href="#Y"/><use transform="matrix(0.010850694444444444,0,0,0.010850694444444444,14.2578125,0)" xlink:href="#Z"/><use transform="matrix(0.010850694444444444,0,0,0.010850694444444444,21.31076388888889,0)" xlink:href="#aa"/><use transform="matrix(0.010850694444444444,0,0,0.010850694444444444,34.635416666666664,0)" xlink:href="#ab"/><use transform="matrix(0.010850694444444444,0,0,0.010850694444444444,43.00130208333333,0)" xlink:href="#ac"/><use transform="matrix(0.010850694444444444,0,0,0.010850694444444444,55.47960069444444,0)" xlink:href="#ad"/><use transform="matrix(0.010850694444444444,0,0,0.010850694444444444,69.10807291666666,0)" xlink:href="#ae"/></g><path fill="#fff" d="M458 0L52-1490h194c108 439 233 855 324 1313 92-459 221-873 331-1313h216c110 438 234 854 330 1307 92-455 216-869 323-1307h196L1558 0h-221l-256-944c-26-95-50-200-73-331-22 122-44 223-73 331L680 0H458" id="af"/><path fill="#fff" d="M158 0v-1118h180V0H158zm91-1301c-68 0-125-53-125-119s57-119 125-119c69 0 126 53 126 119s-57 119-126 119" id="ag"/><g id="h"><use transform="matrix(0.010850694444444444,0,0,0.010850694444444444,0,0)" xlink:href="#af"/><use transform="matrix(0.010850694444444444,0,0,0.010850694444444444,21.14800347222222,0)" xlink:href="#ab"/><use transform="matrix(0.010850694444444444,0,0,0.010850694444444444,29.861111111111104,0)" xlink:href="#ag"/><use transform="matrix(0.010850694444444444,0,0,0.010850694444444444,35.24305555555555,0)" xlink:href="#Z"/><use transform="matrix(0.010850694444444444,0,0,0.010850694444444444,42.29600694444444,0)" xlink:href="#ae"/></g><path fill="#fff" d="M180 0v-1490h901v168H370v510h643v168H370V0H180" id="ah"/><path fill="#fff" d="M409 0L70-1118h191c89 329 165 560 243 925 75-353 154-601 240-925h192c85 325 161 564 235 922 77-354 157-598 244-922h191L1267 0h-179c-86-307-176-590-250-913C763-588 675-308 588 0H409" id="ai"/><path fill="#fff" d="M577 24c-279 0-473-224-473-580 0-354 195-576 474-576 218 0 287 134 324 193h14v-551h180V0H922v-173h-20C865-111 790 24 577 24zm27-161c203 0 314-172 314-421 0-247-108-413-314-413-212 0-317 181-317 413 0 235 108 421 317 421" id="aj"/><g id="i"><use transform="matrix(0.01193576388888889,0,0,0.01193576388888889,0,0)" xlink:href="#ah"/><use transform="matrix(0.01193576388888889,0,0,0.01193576388888889,13.463541666666668,0)" xlink:href="#aa"/><use transform="matrix(0.01193576388888889,0,0,0.01193576388888889,28.120659722222225,0)" xlink:href="#ab"/><use transform="matrix(0.01193576388888889,0,0,0.01193576388888889,37.52604166666667,0)" xlink:href="#ai"/><use transform="matrix(0.01193576388888889,0,0,0.01193576388888889,57.53038194444445,0)" xlink:href="#ac"/><use transform="matrix(0.01193576388888889,0,0,0.01193576388888889,71.25651041666667,0)" xlink:href="#ab"/><use transform="matrix(0.01193576388888889,0,0,0.01193576388888889,80.05316840277777,0)" xlink:href="#aj"/></g><path fill="#fff" d="M180 0v-1490h528c311 0 458 177 458 395 0 191-114 278-244 313v14c139 9 302 137 302 371 0 225-148 397-499 397H180zm190-168h350c232 0 321-102 321-231 0-149-120-277-311-277H370v508zm0-668h328c160 0 286-101 286-255 0-129-87-231-280-231H370v486" id="ak"/><path fill="#fff" d="M613 24c-304 0-509-231-509-576 0-350 205-580 509-580 216 0 392 114 453 309l-173 49c-33-115-133-197-280-197-223 0-326 196-326 419 0 220 103 415 326 415 150 0 252-85 285-206l172 49C1010-95 832 24 613 24" id="al"/><path fill="#fff" d="M158 0v-1490h180v865h22l478-493h223L593-638 1096 0H865L456-523 338-412V0H158" id="am"/><g id="j"><use transform="matrix(0.01193576388888889,0,0,0.01193576388888889,0,0)" xlink:href="#ak"/><use transform="matrix(0.01193576388888889,0,0,0.01193576388888889,15.993923611111112,0)" xlink:href="#ac"/><use transform="matrix(0.01193576388888889,0,0,0.01193576388888889,29.720052083333336,0)" xlink:href="#al"/><use transform="matrix(0.01193576388888889,0,0,0.01193576388888889,43.684895833333336,0)" xlink:href="#am"/><use transform="matrix(0.01193576388888889,0,0,0.01193576388888889,57.10069444444445,0)" xlink:href="#ai"/><use transform="matrix(0.01193576388888889,0,0,0.01193576388888889,77.10503472222223,0)" xlink:href="#ac"/><use transform="matrix(0.01193576388888889,0,0,0.01193576388888889,90.83116319444446,0)" xlink:href="#ab"/><use transform="matrix(0.01193576388888889,0,0,0.01193576388888889,99.62782118055556,0)" xlink:href="#aj"/></g><path fill="#fff" d="M158 418v-1536h174v179h20c37-59 106-193 324-193 279 0 474 222 474 576 0 356-194 580-473 580-213 0-288-135-325-197h-14v591H158zm492-555c209 0 317-186 317-421 0-232-105-413-317-413-206 0-314 166-314 413 0 249 111 421 314 421" id="an"/><g id="k"><use transform="matrix(0.010850694444444444,0,0,0.010850694444444444,0,0)" xlink:href="#Y"/><use transform="matrix(0.010850694444444444,0,0,0.010850694444444444,14.2578125,0)" xlink:href="#Z"/><use transform="matrix(0.010850694444444444,0,0,0.010850694444444444,21.31076388888889,0)" xlink:href="#ae"/><use transform="matrix(0.010850694444444444,0,0,0.010850694444444444,34.26649305555556,0)" xlink:href="#an"/></g><path fill="#fff" d="M180 0v-1490h224l606 953c40 63 108 177 176 312-27-437-7-821-13-1265h190V0h-226C860-448 622-778 356-1262c27 476 11 792 15 1262H180" id="ao"/><use transform="matrix(0.010850694444444444,0,0,0.010850694444444444,0,0)" xlink:href="#ao" id="l"/><path fill="#fff" d="M593-100v-404H195v-159h398v-403h169v403h398v159H762v404H593" id="ap"/><path fill="#fff" d="M635 20c-292 0-500-160-510-396h192c11 142 145 229 315 229 187 0 323-105 323-260 0-161-125-274-346-274H488v-165h121c174 0 294-100 294-254 0-148-104-245-266-245-152 0-291 85-297 230H157c8-234 222-395 484-395 278 0 448 188 448 400 0 168-95 291-247 336v12c190 31 301 169 301 357 0 244-216 425-508 425" id="aq"/><g id="m"><use transform="matrix(0.010850694444444444,0,0,0.010850694444444444,0,0)" xlink:href="#ao"/><use transform="matrix(0.010850694444444444,0,0,0.010850694444444444,16.74262152777778,0)" xlink:href="#ap"/><use transform="matrix(0.010850694444444444,0,0,0.010850694444444444,31.195746527777775,0)" xlink:href="#aq"/></g><path fill="#fff" d="M653-1490V0H466v-1314h-10L96-1047v-204l324-239h233" id="ar"/><g id="n"><use transform="matrix(0.010850694444444444,0,0,0.010850694444444444,0,0)" xlink:href="#ao"/><use transform="matrix(0.010850694444444444,0,0,0.010850694444444444,16.74262152777778,0)" xlink:href="#ap"/><use transform="matrix(0.010850694444444444,0,0,0.010850694444444444,31.4453125,0)" xlink:href="#ar"/></g><g id="o"><use transform="matrix(0.010850694444444444,0,0,0.010850694444444444,0,0)" xlink:href="#ao"/><use transform="matrix(0.010850694444444444,0,0,0.010850694444444444,16.74262152777778,0)" xlink:href="#ap"/><use transform="matrix(0.010850694444444444,0,0,0.010850694444444444,30.696614583333336,0)" xlink:href="#W"/></g><g id="p"><use transform="matrix(0.010850694444444444,0,0,0.010850694444444444,0,0)" xlink:href="#S"/><use transform="matrix(0.010850694444444444,0,0,0.010850694444444444,16.048177083333332,0)" xlink:href="#T"/><use transform="matrix(0.010850694444444444,0,0,0.010850694444444444,30.045572916666664,0)" xlink:href="#U"/></g><g id="q"><use transform="matrix(0.010850694444444444,0,0,0.010850694444444444,0,0)" xlink:href="#E"/><use transform="matrix(0.010850694444444444,0,0,0.010850694444444444,13.226996527777777,0)" xlink:href="#O"/><use transform="matrix(0.010850694444444444,0,0,0.010850694444444444,26.150173611111104,0)" xlink:href="#G"/><use transform="matrix(0.010850694444444444,0,0,0.010850694444444444,39.38802083333333,0)" xlink:href="#D"/><use transform="matrix(0.010850694444444444,0,0,0.010850694444444444,48.78472222222221,0)" xlink:href="#P"/><use transform="matrix(0.010850694444444444,0,0,0.010850694444444444,54.80685763888888,0)" xlink:href="#Q"/><use transform="matrix(0.010850694444444444,0,0,0.010850694444444444,67.70833333333333,0)" xlink:href="#I"/><use transform="matrix(0.010850694444444444,0,0,0.010850694444444444,81.7165798611111,0)" xlink:href="#y"/></g><path fill="#fff" d="M750-1118v229H516V0H217v-889H20v-229h197v-86c0-238 156-356 363-356 94 0 178 20 215 31l-54 226c-25-7-61-15-100-15-123-3-131 84-125 200h234" id="as"/><path fill="#fff" d="M361 0L31-1118h315c68 295 127 523 188 845 63-317 128-551 199-845h276c71 296 131 525 196 846 57-321 119-552 186-846h319L1378 0h-305c-73-261-148-486-204-771C813-484 740-261 666 0H361" id="at"/><g id="r"><use transform="matrix(0.010850694444444444,0,0,0.010850694444444444,0,0)" xlink:href="#as"/><use transform="matrix(0.010850694444444444,0,0,0.010850694444444444,8.365885416666666,0)" xlink:href="#E"/><use transform="matrix(0.010850694444444444,0,0,0.010850694444444444,21.994357638888886,0)" xlink:href="#D"/><use transform="matrix(0.010850694444444444,0,0,0.010850694444444444,31.228298611111104,0)" xlink:href="#at"/><use transform="matrix(0.010850694444444444,0,0,0.010850694444444444,50.065104166666664,0)" xlink:href="#Q"/><use transform="matrix(0.010850694444444444,0,0,0.010850694444444444,62.96657986111111,0)" xlink:href="#D"/><use transform="matrix(0.010850694444444444,0,0,0.010850694444444444,71.47352430555556,0)" xlink:href="#R"/></g><g id="s"><use transform="matrix(0.010850694444444444,0,0,0.010850694444444444,0,0)" xlink:href="#I"/><use transform="matrix(0.010850694444444444,0,0,0.010850694444444444,14.225260416666666,0)" xlink:href="#Q"/><use transform="matrix(0.010850694444444444,0,0,0.010850694444444444,27.12673611111111,0)" xlink:href="#y"/><use transform="matrix(0.010850694444444444,0,0,0.010850694444444444,39.572482638888886,0)" xlink:href="#y"/></g><path fill="#fff" d="M568-82v-393H183v-240h385v-393h254v393h386v240H822v393H568" id="au"/><path fill="#fff" d="M749-1490V0H444v-1221h-10L93-980v-279l329-231h327" id="av"/><g id="t"><use transform="matrix(0.010850694444444444,0,0,0.010850694444444444,0,0)" xlink:href="#N"/><use transform="matrix(0.010850694444444444,0,0,0.010850694444444444,16.93793402777778,0)" xlink:href="#au"/><use transform="matrix(0.010850694444444444,0,0,0.010850694444444444,32.02039930555556,0)" xlink:href="#av"/></g><g id="u"><use transform="matrix(0.010850694444444444,0,0,0.010850694444444444,0,0)" xlink:href="#V"/><use transform="matrix(0.010850694444444444,0,0,0.010850694444444444,16.03732638888889,0)" xlink:href="#W"/><use transform="matrix(0.010850694444444444,0,0,0.010850694444444444,29.58984375,0)" xlink:href="#X"/></g><path fill="#fff" d="M226-283v-166h904v166H226zm0-434v-166h904v166H226" id="aw"/><use transform="matrix(0.010850694444444444,0,0,0.010850694444444444,0,0)" xlink:href="#aw" id="v"/><path fill="#fff" d="M481 0L54-1118h197c107 314 236 620 325 951 87-331 217-637 324-951h197L670 0H481" id="ax"/><path fill="#fff" d="M798-719v166H144v-166h654" id="ay"/><path fill="#fff" d="M338-670V0H158v-1490h180v566c73-149 190-208 336-208 226 0 379 139 379 422V0H872v-695c0-172-96-275-252-275-161 0-282 109-282 300" id="az"/><path fill="#fff" d="M538 24C308 24 148-78 108-271l171-41c32 123 123 178 257 178 156 0 256-77 256-169 0-77-54-128-164-154l-186-44c-203-48-300-148-300-305 0-192 176-326 414-326 230 0 351 112 402 269l-163 42c-31-80-94-158-238-158-133 0-233 69-233 162 0 83 57 129 188 160l169 40c203 48 298 149 298 302 0 196-179 339-441 339" id="aA"/><path fill="#fff" d="M338-670V0H158v-1118h173l1 207c72-158 192-221 342-221 226 0 378 139 378 422V0H872v-695c0-172-96-275-252-275-161 0-282 109-282 300" id="aB"/><path fill="#fff" d="M678-1118v154H420V0H240v-964H20v-154h220v-149c0-194 155-293 318-293 85 0 141 18 168 30l-50 154c-19-6-47-17-97-17-111 0-159 58-159 166v109h258" id="aC"/><g id="w"><use transform="matrix(0.010850694444444444,0,0,0.010850694444444444,0,0)" xlink:href="#V"/><use transform="matrix(0.010850694444444444,0,0,0.010850694444444444,16.03732638888889,0)" xlink:href="#ae"/><use transform="matrix(0.010850694444444444,0,0,0.010850694444444444,28.559027777777775,0)" xlink:href="#ax"/><use transform="matrix(0.010850694444444444,0,0,0.010850694444444444,41.048177083333336,0)" xlink:href="#ag"/><use transform="matrix(0.010850694444444444,0,0,0.010850694444444444,46.43012152777778,0)" xlink:href="#al"/><use transform="matrix(0.010850694444444444,0,0,0.010850694444444444,59.12543402777778,0)" xlink:href="#ae"/><use transform="matrix(0.010850694444444444,0,0,0.010850694444444444,72.08116319444444,0)" xlink:href="#ay"/><use transform="matrix(0.010850694444444444,0,0,0.010850694444444444,82.30251736111111,0)" xlink:href="#Z"/><use transform="matrix(0.010850694444444444,0,0,0.010850694444444444,89.35546875,0)" xlink:href="#aa"/><use transform="matrix(0.010850694444444444,0,0,0.010850694444444444,102.68012152777777,0)" xlink:href="#ay"/><use transform="matrix(0.010850694444444444,0,0,0.010850694444444444,112.90147569444444,0)" xlink:href="#az"/><use transform="matrix(0.010850694444444444,0,0,0.010850694444444444,126.04166666666666,0)" xlink:href="#aa"/><use transform="matrix(0.010850694444444444,0,0,0.010850694444444444,139.36631944444443,0)" xlink:href="#aA"/><use transform="matrix(0.010850694444444444,0,0,0.010850694444444444,151.09592013888889,0)" xlink:href="#Z"/><use transform="matrix(0.010850694444444444,0,0,0.010850694444444444,157.93185763888889,0)" xlink:href="#ay"/><use transform="matrix(0.010850694444444444,0,0,0.010850694444444444,168.15321180555554,0)" xlink:href="#Z"/><use transform="matrix(0.010850694444444444,0,0,0.010850694444444444,175.42317708333331,0)" xlink:href="#ab"/><use transform="matrix(0.010850694444444444,0,0,0.010850694444444444,183.78906249999994,0)" xlink:href="#ac"/><use transform="matrix(0.010850694444444444,0,0,0.010850694444444444,196.26736111111111,0)" xlink:href="#aB"/><use transform="matrix(0.010850694444444444,0,0,0.010850694444444444,209.39670138888883,0)" xlink:href="#aA"/><use transform="matrix(0.010850694444444444,0,0,0.010850694444444444,221.12630208333331,0)" xlink:href="#aC"/><use transform="matrix(0.010850694444444444,0,0,0.010850694444444444,228.70008680555554,0)" xlink:href="#ae"/><use transform="matrix(0.010850694444444444,0,0,0.010850694444444444,241.6558159722222,0)" xlink:href="#ab"/></g></defs></g></svg>
