<svg width="598" height="340" viewBox="0 0 598 340" fill="none" xmlns="http://www.w3.org/2000/svg">
<g clip-path="url(#clip0_491_159)">
<rect width="598" height="340" rx="24" fill="#202124"/>
<circle cx="529.5" cy="60.5" r="469.5" fill="url(#paint0_radial_491_159)" fill-opacity="0.2"/>
<path d="M518.516 157.113L527.739 152H502.223H251.74H226.224L217 157.007H518.516V157.113Z" fill="#5D97F6"/>
<path d="M527.739 152L518.516 157.113V187.007L527.74 182V152H527.739Z" fill="#2A56C6"/>
<path d="M518.516 157H217V187H518.516V157Z" fill="#E8F0FE"/>
<path d="M356.704 167.047L358.817 170.677L360.929 167.047H362.904L359.897 171.976L362.98 177H360.984L358.817 173.302L356.65 177H354.647L357.737 171.976L354.722 167.047H356.704ZM370.679 175.64V177H365.682V175.64H370.679ZM366.16 167.047V177H364.444V167.047H366.16ZM376.218 168.373L373.244 177H371.446L375.192 167.047H376.341L376.218 168.373ZM378.706 177L375.725 168.373L375.596 167.047H376.751L380.511 177H378.706ZM378.562 173.309V174.669H373.148V173.309H378.562Z" fill="#202124"/>
<g filter="url(#filter0_dd_491_159)">
<path d="M78.334 173.76H80.043C79.9883 174.411 79.806 174.993 79.4961 175.503C79.1862 176.009 78.751 176.408 78.1904 176.699C77.6299 176.991 76.9486 177.137 76.1465 177.137C75.5312 177.137 74.9775 177.027 74.4854 176.809C73.9932 176.585 73.5716 176.271 73.2207 175.865C72.8698 175.455 72.6009 174.961 72.4141 174.382C72.2318 173.803 72.1406 173.156 72.1406 172.44V171.613C72.1406 170.898 72.234 170.251 72.4209 169.672C72.6123 169.093 72.8857 168.599 73.2412 168.188C73.5967 167.774 74.0228 167.457 74.5195 167.238C75.0208 167.02 75.5837 166.91 76.208 166.91C77.001 166.91 77.6709 167.056 78.2178 167.348C78.7646 167.639 79.1885 168.043 79.4893 168.558C79.7946 169.073 79.9814 169.663 80.0498 170.328H78.3408C78.2952 169.9 78.195 169.533 78.04 169.228C77.8896 168.922 77.6663 168.69 77.3701 168.53C77.0739 168.366 76.6865 168.284 76.208 168.284C75.8161 168.284 75.4743 168.357 75.1826 168.503C74.891 168.649 74.6471 168.863 74.4512 169.146C74.2552 169.428 74.1071 169.777 74.0068 170.191C73.9111 170.602 73.8633 171.071 73.8633 171.6V172.44C73.8633 172.942 73.9066 173.397 73.9932 173.808C74.0843 174.213 74.221 174.562 74.4033 174.854C74.5902 175.145 74.8271 175.371 75.1143 175.53C75.4014 175.69 75.7454 175.77 76.1465 175.77C76.6341 175.77 77.0283 175.692 77.3291 175.537C77.6344 175.382 77.8646 175.157 78.0195 174.86C78.179 174.56 78.2839 174.193 78.334 173.76ZM81.323 173.384V173.227C81.323 172.693 81.4005 172.199 81.5555 171.743C81.7104 171.283 81.9337 170.884 82.2254 170.547C82.5216 170.205 82.8816 169.941 83.3055 169.754C83.7339 169.562 84.2169 169.467 84.7547 169.467C85.297 169.467 85.7801 169.562 86.2039 169.754C86.6323 169.941 86.9946 170.205 87.2908 170.547C87.587 170.884 87.8126 171.283 87.9676 171.743C88.1225 172.199 88.2 172.693 88.2 173.227V173.384C88.2 173.917 88.1225 174.411 87.9676 174.867C87.8126 175.323 87.587 175.722 87.2908 176.063C86.9946 176.401 86.6346 176.665 86.2107 176.856C85.7869 177.043 85.3061 177.137 84.7684 177.137C84.226 177.137 83.7407 177.043 83.3123 176.856C82.8885 176.665 82.5285 176.401 82.2322 176.063C81.936 175.722 81.7104 175.323 81.5555 174.867C81.4005 174.411 81.323 173.917 81.323 173.384ZM82.9705 173.227V173.384C82.9705 173.716 83.0047 174.031 83.073 174.327C83.1414 174.623 83.2485 174.883 83.3943 175.106C83.5402 175.33 83.727 175.505 83.9549 175.633C84.1827 175.76 84.4539 175.824 84.7684 175.824C85.0737 175.824 85.338 175.76 85.5613 175.633C85.7892 175.505 85.976 175.33 86.1219 175.106C86.2677 174.883 86.3748 174.623 86.4432 174.327C86.5161 174.031 86.5525 173.716 86.5525 173.384V173.227C86.5525 172.898 86.5161 172.589 86.4432 172.297C86.3748 172.001 86.2654 171.739 86.115 171.511C85.9692 171.283 85.7824 171.105 85.5545 170.978C85.3312 170.845 85.0646 170.779 84.7547 170.779C84.4448 170.779 84.1759 170.845 83.948 170.978C83.7247 171.105 83.5402 171.283 83.3943 171.511C83.2485 171.739 83.1414 172.001 83.073 172.297C83.0047 172.589 82.9705 172.898 82.9705 173.227ZM91.4283 171.107V177H89.7809V169.604H91.3326L91.4283 171.107ZM91.1617 173.028L90.6012 173.021C90.6012 172.511 90.665 172.039 90.7926 171.606C90.9202 171.174 91.107 170.798 91.3531 170.479C91.5992 170.155 91.9046 169.907 92.2691 169.733C92.6383 169.556 93.0644 169.467 93.5475 169.467C93.8847 169.467 94.1923 169.517 94.4703 169.617C94.7529 169.713 94.9967 169.866 95.2018 170.075C95.4114 170.285 95.5709 170.554 95.6803 170.882C95.7942 171.21 95.8512 171.606 95.8512 172.071V177H94.2037V172.215C94.2037 171.855 94.149 171.572 94.0396 171.367C93.9348 171.162 93.7822 171.016 93.5816 170.93C93.3857 170.839 93.151 170.793 92.8775 170.793C92.5676 170.793 92.3033 170.852 92.0846 170.971C91.8704 171.089 91.6949 171.251 91.5582 171.456C91.4215 171.661 91.3212 171.898 91.2574 172.167C91.1936 172.436 91.1617 172.723 91.1617 173.028ZM95.7486 172.591L94.9762 172.762C94.9762 172.315 95.0377 171.894 95.1607 171.497C95.2883 171.096 95.4729 170.745 95.7145 170.444C95.9605 170.139 96.2636 169.9 96.6236 169.727C96.9837 169.553 97.3961 169.467 97.8609 169.467C98.2392 169.467 98.5764 169.519 98.8727 169.624C99.1734 169.724 99.4286 169.884 99.6383 170.103C99.8479 170.321 100.007 170.606 100.117 170.957C100.226 171.303 100.281 171.723 100.281 172.215V177H98.6266V172.208C98.6266 171.834 98.5719 171.545 98.4625 171.34C98.3577 171.135 98.2073 170.993 98.0113 170.916C97.8154 170.834 97.5807 170.793 97.3072 170.793C97.052 170.793 96.8264 170.841 96.6305 170.937C96.4391 171.028 96.2773 171.158 96.1451 171.326C96.013 171.49 95.9127 171.679 95.8443 171.894C95.7805 172.108 95.7486 172.34 95.7486 172.591ZM103.83 171.025V179.844H102.183V169.604H103.701L103.83 171.025ZM108.65 173.233V173.377C108.65 173.915 108.586 174.414 108.458 174.874C108.335 175.33 108.151 175.729 107.905 176.07C107.663 176.408 107.365 176.67 107.009 176.856C106.654 177.043 106.244 177.137 105.779 177.137C105.318 177.137 104.915 177.052 104.569 176.884C104.227 176.711 103.938 176.467 103.701 176.152C103.464 175.838 103.272 175.469 103.126 175.045C102.985 174.617 102.885 174.147 102.826 173.637V173.083C102.885 172.541 102.985 172.049 103.126 171.606C103.272 171.164 103.464 170.784 103.701 170.465C103.938 170.146 104.227 169.9 104.569 169.727C104.911 169.553 105.309 169.467 105.765 169.467C106.23 169.467 106.642 169.558 107.002 169.74C107.362 169.918 107.665 170.173 107.912 170.506C108.158 170.834 108.342 171.23 108.465 171.695C108.588 172.156 108.65 172.668 108.65 173.233ZM107.002 173.377V173.233C107.002 172.892 106.97 172.575 106.907 172.283C106.843 171.987 106.743 171.727 106.606 171.504C106.469 171.281 106.294 171.107 106.079 170.984C105.87 170.857 105.617 170.793 105.321 170.793C105.029 170.793 104.778 170.843 104.569 170.943C104.359 171.039 104.184 171.174 104.042 171.347C103.901 171.52 103.792 171.723 103.714 171.955C103.637 172.183 103.582 172.431 103.55 172.7V174.026C103.605 174.354 103.698 174.655 103.83 174.929C103.963 175.202 104.149 175.421 104.391 175.585C104.637 175.744 104.952 175.824 105.334 175.824C105.631 175.824 105.884 175.76 106.093 175.633C106.303 175.505 106.474 175.33 106.606 175.106C106.743 174.879 106.843 174.617 106.907 174.32C106.97 174.024 107.002 173.71 107.002 173.377ZM112.015 169.604V177H110.361V169.604H112.015ZM110.251 167.662C110.251 167.411 110.333 167.204 110.497 167.04C110.666 166.871 110.898 166.787 111.195 166.787C111.486 166.787 111.716 166.871 111.885 167.04C112.054 167.204 112.138 167.411 112.138 167.662C112.138 167.908 112.054 168.113 111.885 168.277C111.716 168.441 111.486 168.523 111.195 168.523C110.898 168.523 110.666 168.441 110.497 168.277C110.333 168.113 110.251 167.908 110.251 167.662ZM115.783 166.5V177H114.129V166.5H115.783ZM121.049 177.137C120.502 177.137 120.007 177.048 119.565 176.87C119.128 176.688 118.754 176.435 118.444 176.111C118.139 175.788 117.904 175.407 117.74 174.97C117.576 174.532 117.494 174.061 117.494 173.555V173.281C117.494 172.702 117.578 172.178 117.747 171.709C117.915 171.24 118.15 170.839 118.451 170.506C118.752 170.169 119.107 169.911 119.517 169.733C119.928 169.556 120.372 169.467 120.85 169.467C121.379 169.467 121.842 169.556 122.238 169.733C122.635 169.911 122.963 170.162 123.222 170.485C123.487 170.804 123.683 171.185 123.81 171.627C123.943 172.069 124.009 172.557 124.009 173.09V173.794H118.294V172.611H122.382V172.481C122.373 172.185 122.313 171.907 122.204 171.647C122.099 171.388 121.937 171.178 121.719 171.019C121.5 170.859 121.208 170.779 120.844 170.779C120.57 170.779 120.326 170.839 120.112 170.957C119.902 171.071 119.727 171.237 119.586 171.456C119.444 171.675 119.335 171.939 119.258 172.249C119.185 172.554 119.148 172.898 119.148 173.281V173.555C119.148 173.878 119.192 174.179 119.278 174.457C119.369 174.73 119.501 174.97 119.675 175.175C119.848 175.38 120.057 175.542 120.304 175.66C120.55 175.774 120.83 175.831 121.144 175.831C121.541 175.831 121.894 175.751 122.204 175.592C122.514 175.432 122.783 175.207 123.011 174.915L123.879 175.756C123.719 175.988 123.512 176.212 123.257 176.426C123.001 176.635 122.689 176.806 122.32 176.938C121.956 177.071 121.532 177.137 121.049 177.137ZM127.148 171.012V177H125.501V169.604H127.073L127.148 171.012ZM129.411 169.556L129.397 171.087C129.297 171.069 129.187 171.055 129.069 171.046C128.955 171.037 128.841 171.032 128.727 171.032C128.445 171.032 128.196 171.073 127.982 171.155C127.768 171.233 127.588 171.347 127.442 171.497C127.301 171.643 127.191 171.821 127.114 172.03C127.036 172.24 126.991 172.475 126.977 172.734L126.601 172.762C126.601 172.297 126.647 171.866 126.738 171.47C126.829 171.073 126.966 170.725 127.148 170.424C127.335 170.123 127.567 169.888 127.845 169.72C128.128 169.551 128.454 169.467 128.823 169.467C128.923 169.467 129.03 169.476 129.144 169.494C129.263 169.512 129.351 169.533 129.411 169.556ZM134.97 167.047L131.094 177.854H129.802L133.685 167.047H134.97ZM136.476 167.047H139.996C140.753 167.047 141.398 167.161 141.931 167.389C142.464 167.617 142.872 167.954 143.154 168.4C143.442 168.842 143.585 169.389 143.585 170.041C143.585 170.538 143.494 170.975 143.312 171.354C143.129 171.732 142.872 172.051 142.539 172.311C142.207 172.566 141.81 172.764 141.35 172.905L140.83 173.158H137.665L137.652 171.798H140.024C140.434 171.798 140.776 171.725 141.049 171.579C141.322 171.433 141.528 171.235 141.664 170.984C141.806 170.729 141.876 170.442 141.876 170.123C141.876 169.777 141.808 169.476 141.671 169.221C141.539 168.961 141.334 168.763 141.056 168.626C140.778 168.485 140.425 168.414 139.996 168.414H138.192V177H136.476V167.047ZM142.156 177L139.819 172.529L141.616 172.522L143.988 176.911V177H142.156ZM149.78 175.257V169.604H151.435V177H149.876L149.78 175.257ZM150.013 173.719L150.566 173.705C150.566 174.202 150.512 174.66 150.402 175.079C150.293 175.494 150.124 175.856 149.896 176.166C149.669 176.471 149.377 176.711 149.021 176.884C148.666 177.052 148.24 177.137 147.743 177.137C147.383 177.137 147.053 177.084 146.752 176.979C146.451 176.875 146.191 176.713 145.973 176.494C145.758 176.275 145.592 175.991 145.474 175.64C145.355 175.289 145.296 174.869 145.296 174.382V169.604H146.943V174.396C146.943 174.664 146.975 174.89 147.039 175.072C147.103 175.25 147.189 175.394 147.299 175.503C147.408 175.612 147.536 175.69 147.682 175.735C147.827 175.781 147.982 175.804 148.146 175.804C148.616 175.804 148.985 175.713 149.254 175.53C149.527 175.343 149.721 175.093 149.835 174.778C149.953 174.464 150.013 174.111 150.013 173.719ZM154.957 171.183V177H153.309V169.604H154.861L154.957 171.183ZM154.663 173.028L154.13 173.021C154.134 172.497 154.207 172.017 154.348 171.579C154.494 171.142 154.695 170.766 154.95 170.451C155.21 170.137 155.52 169.895 155.88 169.727C156.24 169.553 156.641 169.467 157.083 169.467C157.438 169.467 157.76 169.517 158.047 169.617C158.338 169.713 158.587 169.87 158.792 170.089C159.001 170.308 159.161 170.592 159.27 170.943C159.38 171.29 159.434 171.716 159.434 172.222V177H157.78V172.215C157.78 171.859 157.728 171.579 157.623 171.374C157.523 171.164 157.374 171.016 157.179 170.93C156.987 170.839 156.748 170.793 156.461 170.793C156.178 170.793 155.925 170.852 155.702 170.971C155.479 171.089 155.29 171.251 155.135 171.456C154.984 171.661 154.868 171.898 154.786 172.167C154.704 172.436 154.663 172.723 154.663 173.028ZM164.707 169.604V170.807H160.537V169.604H164.707ZM161.74 167.792H163.387V174.956C163.387 175.184 163.419 175.359 163.483 175.482C163.551 175.601 163.645 175.681 163.763 175.722C163.882 175.763 164.021 175.783 164.18 175.783C164.294 175.783 164.404 175.776 164.508 175.763C164.613 175.749 164.698 175.735 164.761 175.722L164.768 176.979C164.631 177.021 164.472 177.057 164.29 177.089C164.112 177.121 163.907 177.137 163.674 177.137C163.296 177.137 162.961 177.071 162.67 176.938C162.378 176.802 162.15 176.581 161.986 176.275C161.822 175.97 161.74 175.564 161.74 175.059V167.792ZM167.942 169.604V177H166.287V169.604H167.942ZM166.178 167.662C166.178 167.411 166.26 167.204 166.424 167.04C166.593 166.871 166.825 166.787 167.121 166.787C167.413 166.787 167.643 166.871 167.812 167.04C167.981 167.204 168.065 167.411 168.065 167.662C168.065 167.908 167.981 168.113 167.812 168.277C167.643 168.441 167.413 168.523 167.121 168.523C166.825 168.523 166.593 168.441 166.424 168.277C166.26 168.113 166.178 167.908 166.178 167.662ZM171.594 171.107V177H169.946V169.604H171.498L171.594 171.107ZM171.327 173.028L170.767 173.021C170.767 172.511 170.831 172.039 170.958 171.606C171.086 171.174 171.273 170.798 171.519 170.479C171.765 170.155 172.07 169.907 172.435 169.733C172.804 169.556 173.23 169.467 173.713 169.467C174.05 169.467 174.358 169.517 174.636 169.617C174.918 169.713 175.162 169.866 175.367 170.075C175.577 170.285 175.737 170.554 175.846 170.882C175.96 171.21 176.017 171.606 176.017 172.071V177H174.369V172.215C174.369 171.855 174.315 171.572 174.205 171.367C174.1 171.162 173.948 171.016 173.747 170.93C173.551 170.839 173.317 170.793 173.043 170.793C172.733 170.793 172.469 170.852 172.25 170.971C172.036 171.089 171.861 171.251 171.724 171.456C171.587 171.661 171.487 171.898 171.423 172.167C171.359 172.436 171.327 172.723 171.327 173.028ZM175.914 172.591L175.142 172.762C175.142 172.315 175.203 171.894 175.326 171.497C175.454 171.096 175.639 170.745 175.88 170.444C176.126 170.139 176.429 169.9 176.789 169.727C177.149 169.553 177.562 169.467 178.027 169.467C178.405 169.467 178.742 169.519 179.038 169.624C179.339 169.724 179.594 169.884 179.804 170.103C180.014 170.321 180.173 170.606 180.282 170.957C180.392 171.303 180.446 171.723 180.446 172.215V177H178.792V172.208C178.792 171.834 178.738 171.545 178.628 171.34C178.523 171.135 178.373 170.993 178.177 170.916C177.981 170.834 177.746 170.793 177.473 170.793C177.218 170.793 176.992 170.841 176.796 170.937C176.605 171.028 176.443 171.158 176.311 171.326C176.179 171.49 176.078 171.679 176.01 171.894C175.946 172.108 175.914 172.34 175.914 172.591ZM185.603 177.137C185.056 177.137 184.561 177.048 184.119 176.87C183.682 176.688 183.308 176.435 182.998 176.111C182.693 175.788 182.458 175.407 182.294 174.97C182.13 174.532 182.048 174.061 182.048 173.555V173.281C182.048 172.702 182.132 172.178 182.301 171.709C182.469 171.24 182.704 170.839 183.005 170.506C183.306 170.169 183.661 169.911 184.071 169.733C184.481 169.556 184.926 169.467 185.404 169.467C185.933 169.467 186.396 169.556 186.792 169.733C187.188 169.911 187.517 170.162 187.776 170.485C188.041 170.804 188.237 171.185 188.364 171.627C188.496 172.069 188.562 172.557 188.562 173.09V173.794H182.848V172.611H186.936V172.481C186.926 172.185 186.867 171.907 186.758 171.647C186.653 171.388 186.491 171.178 186.272 171.019C186.054 170.859 185.762 170.779 185.397 170.779C185.124 170.779 184.88 170.839 184.666 170.957C184.456 171.071 184.281 171.237 184.14 171.456C183.998 171.675 183.889 171.939 183.812 172.249C183.739 172.554 183.702 172.898 183.702 173.281V173.555C183.702 173.878 183.745 174.179 183.832 174.457C183.923 174.73 184.055 174.97 184.229 175.175C184.402 175.38 184.611 175.542 184.857 175.66C185.104 175.774 185.384 175.831 185.698 175.831C186.095 175.831 186.448 175.751 186.758 175.592C187.068 175.432 187.337 175.207 187.564 174.915L188.433 175.756C188.273 175.988 188.066 176.212 187.811 176.426C187.555 176.635 187.243 176.806 186.874 176.938C186.509 177.071 186.086 177.137 185.603 177.137Z" fill="white"/>
</g>
</g>
<defs>
<filter id="filter0_dd_491_159" x="68.1406" y="163.5" width="124.422" height="21.3438" filterUnits="userSpaceOnUse" color-interpolation-filters="sRGB">
<feFlood flood-opacity="0" result="BackgroundImageFix"/>
<feColorMatrix in="SourceAlpha" type="matrix" values="0 0 0 0 0 0 0 0 0 0 0 0 0 0 0 0 0 0 127 0" result="hardAlpha"/>
<feOffset dy="1"/>
<feGaussianBlur stdDeviation="1"/>
<feColorMatrix type="matrix" values="0 0 0 0 0 0 0 0 0 0 0 0 0 0 0 0 0 0 0.3 0"/>
<feBlend mode="normal" in2="BackgroundImageFix" result="effect1_dropShadow_491_159"/>
<feColorMatrix in="SourceAlpha" type="matrix" values="0 0 0 0 0 0 0 0 0 0 0 0 0 0 0 0 0 0 127 0" result="hardAlpha"/>
<feMorphology radius="1" operator="dilate" in="SourceAlpha" result="effect2_dropShadow_491_159"/>
<feOffset dy="1"/>
<feGaussianBlur stdDeviation="1.5"/>
<feColorMatrix type="matrix" values="0 0 0 0 0 0 0 0 0 0 0 0 0 0 0 0 0 0 0.15 0"/>
<feBlend mode="normal" in2="effect1_dropShadow_491_159" result="effect2_dropShadow_491_159"/>
<feBlend mode="normal" in="SourceGraphic" in2="effect2_dropShadow_491_159" result="shape"/>
</filter>
<radialGradient id="paint0_radial_491_159" cx="0" cy="0" r="1" gradientUnits="userSpaceOnUse" gradientTransform="translate(529.5 60.5) rotate(90) scale(469.5)">
<stop stop-color="#5E97F6"/>
<stop offset="1" stop-color="#5E97F6" stop-opacity="0"/>
</radialGradient>
<clipPath id="clip0_491_159">
<rect width="598" height="340" rx="24" fill="white"/>
</clipPath>
</defs>
</svg>
