<svg width="598" height="340" viewBox="0 0 598 340" fill="none" xmlns="http://www.w3.org/2000/svg">
<g clip-path="url(#clip0_671_90)">
<rect width="598" height="340" rx="24" fill="#202124"/>
<circle cx="163.5" cy="307.5" r="469.5" fill="url(#paint0_radial_671_90)" fill-opacity="0.2"/>
<g filter="url(#filter0_dd_671_90)">
<path d="M82.334 171.76H84.043C83.9883 172.411 83.806 172.993 83.4961 173.503C83.1862 174.009 82.751 174.408 82.1904 174.699C81.6299 174.991 80.9486 175.137 80.1465 175.137C79.5312 175.137 78.9775 175.027 78.4854 174.809C77.9932 174.585 77.5716 174.271 77.2207 173.865C76.8698 173.455 76.6009 172.961 76.4141 172.382C76.2318 171.803 76.1406 171.156 76.1406 170.44V169.613C76.1406 168.898 76.234 168.251 76.4209 167.672C76.6123 167.093 76.8857 166.599 77.2412 166.188C77.5967 165.774 78.0228 165.457 78.5195 165.238C79.0208 165.02 79.5837 164.91 80.208 164.91C81.001 164.91 81.6709 165.056 82.2178 165.348C82.7646 165.639 83.1885 166.043 83.4893 166.558C83.7946 167.073 83.9814 167.663 84.0498 168.328H82.3408C82.2952 167.9 82.195 167.533 82.04 167.228C81.8896 166.922 81.6663 166.69 81.3701 166.53C81.0739 166.366 80.6865 166.284 80.208 166.284C79.8161 166.284 79.4743 166.357 79.1826 166.503C78.891 166.649 78.6471 166.863 78.4512 167.146C78.2552 167.428 78.1071 167.777 78.0068 168.191C77.9111 168.602 77.8633 169.071 77.8633 169.6V170.44C77.8633 170.942 77.9066 171.397 77.9932 171.808C78.0843 172.213 78.221 172.562 78.4033 172.854C78.5902 173.145 78.8271 173.371 79.1143 173.53C79.4014 173.69 79.7454 173.77 80.1465 173.77C80.6341 173.77 81.0283 173.692 81.3291 173.537C81.6344 173.382 81.8646 173.157 82.0195 172.86C82.179 172.56 82.2839 172.193 82.334 171.76ZM85.323 171.384V171.227C85.323 170.693 85.4005 170.199 85.5555 169.743C85.7104 169.283 85.9337 168.884 86.2254 168.547C86.5216 168.205 86.8816 167.941 87.3055 167.754C87.7339 167.562 88.2169 167.467 88.7547 167.467C89.297 167.467 89.7801 167.562 90.2039 167.754C90.6323 167.941 90.9946 168.205 91.2908 168.547C91.587 168.884 91.8126 169.283 91.9676 169.743C92.1225 170.199 92.2 170.693 92.2 171.227V171.384C92.2 171.917 92.1225 172.411 91.9676 172.867C91.8126 173.323 91.587 173.722 91.2908 174.063C90.9946 174.401 90.6346 174.665 90.2107 174.856C89.7869 175.043 89.3061 175.137 88.7684 175.137C88.226 175.137 87.7407 175.043 87.3123 174.856C86.8885 174.665 86.5285 174.401 86.2322 174.063C85.936 173.722 85.7104 173.323 85.5555 172.867C85.4005 172.411 85.323 171.917 85.323 171.384ZM86.9705 171.227V171.384C86.9705 171.716 87.0047 172.031 87.073 172.327C87.1414 172.623 87.2485 172.883 87.3943 173.106C87.5402 173.33 87.727 173.505 87.9549 173.633C88.1827 173.76 88.4539 173.824 88.7684 173.824C89.0737 173.824 89.338 173.76 89.5613 173.633C89.7892 173.505 89.976 173.33 90.1219 173.106C90.2677 172.883 90.3748 172.623 90.4432 172.327C90.5161 172.031 90.5525 171.716 90.5525 171.384V171.227C90.5525 170.898 90.5161 170.589 90.4432 170.297C90.3748 170.001 90.2654 169.739 90.115 169.511C89.9692 169.283 89.7824 169.105 89.5545 168.978C89.3312 168.845 89.0646 168.779 88.7547 168.779C88.4448 168.779 88.1759 168.845 87.948 168.978C87.7247 169.105 87.5402 169.283 87.3943 169.511C87.2485 169.739 87.1414 170.001 87.073 170.297C87.0047 170.589 86.9705 170.898 86.9705 171.227ZM95.4283 169.107V175H93.7809V167.604H95.3326L95.4283 169.107ZM95.1617 171.028L94.6012 171.021C94.6012 170.511 94.665 170.039 94.7926 169.606C94.9202 169.174 95.107 168.798 95.3531 168.479C95.5992 168.155 95.9046 167.907 96.2691 167.733C96.6383 167.556 97.0644 167.467 97.5475 167.467C97.8847 167.467 98.1923 167.517 98.4703 167.617C98.7529 167.713 98.9967 167.866 99.2018 168.075C99.4114 168.285 99.5709 168.554 99.6803 168.882C99.7942 169.21 99.8512 169.606 99.8512 170.071V175H98.2037V170.215C98.2037 169.855 98.149 169.572 98.0396 169.367C97.9348 169.162 97.7822 169.016 97.5816 168.93C97.3857 168.839 97.151 168.793 96.8775 168.793C96.5676 168.793 96.3033 168.852 96.0846 168.971C95.8704 169.089 95.6949 169.251 95.5582 169.456C95.4215 169.661 95.3212 169.898 95.2574 170.167C95.1936 170.436 95.1617 170.723 95.1617 171.028ZM99.7486 170.591L98.9762 170.762C98.9762 170.315 99.0377 169.894 99.1607 169.497C99.2883 169.096 99.4729 168.745 99.7145 168.444C99.9605 168.139 100.264 167.9 100.624 167.727C100.984 167.553 101.396 167.467 101.861 167.467C102.239 167.467 102.576 167.519 102.873 167.624C103.173 167.724 103.429 167.884 103.638 168.103C103.848 168.321 104.007 168.606 104.117 168.957C104.226 169.303 104.281 169.723 104.281 170.215V175H102.627V170.208C102.627 169.834 102.572 169.545 102.462 169.34C102.358 169.135 102.207 168.993 102.011 168.916C101.815 168.834 101.581 168.793 101.307 168.793C101.052 168.793 100.826 168.841 100.63 168.937C100.439 169.028 100.277 169.158 100.145 169.326C100.013 169.49 99.9127 169.679 99.8443 169.894C99.7805 170.108 99.7486 170.34 99.7486 170.591ZM107.83 169.025V177.844H106.183V167.604H107.701L107.83 169.025ZM112.65 171.233V171.377C112.65 171.915 112.586 172.414 112.458 172.874C112.335 173.33 112.151 173.729 111.905 174.07C111.663 174.408 111.365 174.67 111.009 174.856C110.654 175.043 110.244 175.137 109.779 175.137C109.318 175.137 108.915 175.052 108.569 174.884C108.227 174.711 107.938 174.467 107.701 174.152C107.464 173.838 107.272 173.469 107.126 173.045C106.985 172.617 106.885 172.147 106.826 171.637V171.083C106.885 170.541 106.985 170.049 107.126 169.606C107.272 169.164 107.464 168.784 107.701 168.465C107.938 168.146 108.227 167.9 108.569 167.727C108.911 167.553 109.309 167.467 109.765 167.467C110.23 167.467 110.642 167.558 111.002 167.74C111.362 167.918 111.665 168.173 111.912 168.506C112.158 168.834 112.342 169.23 112.465 169.695C112.588 170.156 112.65 170.668 112.65 171.233ZM111.002 171.377V171.233C111.002 170.892 110.97 170.575 110.907 170.283C110.843 169.987 110.743 169.727 110.606 169.504C110.469 169.281 110.294 169.107 110.079 168.984C109.87 168.857 109.617 168.793 109.321 168.793C109.029 168.793 108.778 168.843 108.569 168.943C108.359 169.039 108.184 169.174 108.042 169.347C107.901 169.52 107.792 169.723 107.714 169.955C107.637 170.183 107.582 170.431 107.55 170.7V172.026C107.605 172.354 107.698 172.655 107.83 172.929C107.963 173.202 108.149 173.421 108.391 173.585C108.637 173.744 108.952 173.824 109.334 173.824C109.631 173.824 109.884 173.76 110.093 173.633C110.303 173.505 110.474 173.33 110.606 173.106C110.743 172.879 110.843 172.617 110.907 172.32C110.97 172.024 111.002 171.71 111.002 171.377ZM116.015 167.604V175H114.361V167.604H116.015ZM114.251 165.662C114.251 165.411 114.333 165.204 114.497 165.04C114.666 164.871 114.898 164.787 115.195 164.787C115.486 164.787 115.716 164.871 115.885 165.04C116.054 165.204 116.138 165.411 116.138 165.662C116.138 165.908 116.054 166.113 115.885 166.277C115.716 166.441 115.486 166.523 115.195 166.523C114.898 166.523 114.666 166.441 114.497 166.277C114.333 166.113 114.251 165.908 114.251 165.662ZM119.783 164.5V175H118.129V164.5H119.783ZM125.049 175.137C124.502 175.137 124.007 175.048 123.565 174.87C123.128 174.688 122.754 174.435 122.444 174.111C122.139 173.788 121.904 173.407 121.74 172.97C121.576 172.532 121.494 172.061 121.494 171.555V171.281C121.494 170.702 121.578 170.178 121.747 169.709C121.915 169.24 122.15 168.839 122.451 168.506C122.752 168.169 123.107 167.911 123.517 167.733C123.928 167.556 124.372 167.467 124.85 167.467C125.379 167.467 125.842 167.556 126.238 167.733C126.635 167.911 126.963 168.162 127.222 168.485C127.487 168.804 127.683 169.185 127.81 169.627C127.943 170.069 128.009 170.557 128.009 171.09V171.794H122.294V170.611H126.382V170.481C126.373 170.185 126.313 169.907 126.204 169.647C126.099 169.388 125.937 169.178 125.719 169.019C125.5 168.859 125.208 168.779 124.844 168.779C124.57 168.779 124.326 168.839 124.112 168.957C123.902 169.071 123.727 169.237 123.586 169.456C123.444 169.675 123.335 169.939 123.258 170.249C123.185 170.554 123.148 170.898 123.148 171.281V171.555C123.148 171.878 123.192 172.179 123.278 172.457C123.369 172.73 123.501 172.97 123.675 173.175C123.848 173.38 124.057 173.542 124.304 173.66C124.55 173.774 124.83 173.831 125.144 173.831C125.541 173.831 125.894 173.751 126.204 173.592C126.514 173.432 126.783 173.207 127.011 172.915L127.879 173.756C127.719 173.988 127.512 174.212 127.257 174.426C127.001 174.635 126.689 174.806 126.32 174.938C125.956 175.071 125.532 175.137 125.049 175.137ZM131.148 169.012V175H129.501V167.604H131.073L131.148 169.012ZM133.411 167.556L133.397 169.087C133.297 169.069 133.187 169.055 133.069 169.046C132.955 169.037 132.841 169.032 132.727 169.032C132.445 169.032 132.196 169.073 131.982 169.155C131.768 169.233 131.588 169.347 131.442 169.497C131.301 169.643 131.191 169.821 131.114 170.03C131.036 170.24 130.991 170.475 130.977 170.734L130.601 170.762C130.601 170.297 130.647 169.866 130.738 169.47C130.829 169.073 130.966 168.725 131.148 168.424C131.335 168.123 131.567 167.888 131.845 167.72C132.128 167.551 132.454 167.467 132.823 167.467C132.923 167.467 133.03 167.476 133.144 167.494C133.263 167.512 133.351 167.533 133.411 167.556ZM138.97 165.047L135.094 175.854H133.802L137.685 165.047H138.97ZM140.476 165.047H143.996C144.753 165.047 145.398 165.161 145.931 165.389C146.464 165.617 146.872 165.954 147.154 166.4C147.442 166.842 147.585 167.389 147.585 168.041C147.585 168.538 147.494 168.975 147.312 169.354C147.129 169.732 146.872 170.051 146.539 170.311C146.207 170.566 145.81 170.764 145.35 170.905L144.83 171.158H141.665L141.652 169.798H144.024C144.434 169.798 144.776 169.725 145.049 169.579C145.322 169.433 145.528 169.235 145.664 168.984C145.806 168.729 145.876 168.442 145.876 168.123C145.876 167.777 145.808 167.476 145.671 167.221C145.539 166.961 145.334 166.763 145.056 166.626C144.778 166.485 144.425 166.414 143.996 166.414H142.192V175H140.476V165.047ZM146.156 175L143.819 170.529L145.616 170.522L147.988 174.911V175H146.156ZM153.78 173.257V167.604H155.435V175H153.876L153.78 173.257ZM154.013 171.719L154.566 171.705C154.566 172.202 154.512 172.66 154.402 173.079C154.293 173.494 154.124 173.856 153.896 174.166C153.669 174.471 153.377 174.711 153.021 174.884C152.666 175.052 152.24 175.137 151.743 175.137C151.383 175.137 151.053 175.084 150.752 174.979C150.451 174.875 150.191 174.713 149.973 174.494C149.758 174.275 149.592 173.991 149.474 173.64C149.355 173.289 149.296 172.869 149.296 172.382V167.604H150.943V172.396C150.943 172.664 150.975 172.89 151.039 173.072C151.103 173.25 151.189 173.394 151.299 173.503C151.408 173.612 151.536 173.69 151.682 173.735C151.827 173.781 151.982 173.804 152.146 173.804C152.616 173.804 152.985 173.713 153.254 173.53C153.527 173.343 153.721 173.093 153.835 172.778C153.953 172.464 154.013 172.111 154.013 171.719ZM158.957 169.183V175H157.309V167.604H158.861L158.957 169.183ZM158.663 171.028L158.13 171.021C158.134 170.497 158.207 170.017 158.348 169.579C158.494 169.142 158.695 168.766 158.95 168.451C159.21 168.137 159.52 167.895 159.88 167.727C160.24 167.553 160.641 167.467 161.083 167.467C161.438 167.467 161.76 167.517 162.047 167.617C162.338 167.713 162.587 167.87 162.792 168.089C163.001 168.308 163.161 168.592 163.27 168.943C163.38 169.29 163.434 169.716 163.434 170.222V175H161.78V170.215C161.78 169.859 161.728 169.579 161.623 169.374C161.523 169.164 161.374 169.016 161.179 168.93C160.987 168.839 160.748 168.793 160.461 168.793C160.178 168.793 159.925 168.852 159.702 168.971C159.479 169.089 159.29 169.251 159.135 169.456C158.984 169.661 158.868 169.898 158.786 170.167C158.704 170.436 158.663 170.723 158.663 171.028ZM168.707 167.604V168.807H164.537V167.604H168.707ZM165.74 165.792H167.387V172.956C167.387 173.184 167.419 173.359 167.483 173.482C167.551 173.601 167.645 173.681 167.763 173.722C167.882 173.763 168.021 173.783 168.18 173.783C168.294 173.783 168.404 173.776 168.508 173.763C168.613 173.749 168.698 173.735 168.761 173.722L168.768 174.979C168.631 175.021 168.472 175.057 168.29 175.089C168.112 175.121 167.907 175.137 167.674 175.137C167.296 175.137 166.961 175.071 166.67 174.938C166.378 174.802 166.15 174.581 165.986 174.275C165.822 173.97 165.74 173.564 165.74 173.059V165.792ZM171.942 167.604V175H170.287V167.604H171.942ZM170.178 165.662C170.178 165.411 170.26 165.204 170.424 165.04C170.593 164.871 170.825 164.787 171.121 164.787C171.413 164.787 171.643 164.871 171.812 165.04C171.981 165.204 172.065 165.411 172.065 165.662C172.065 165.908 171.981 166.113 171.812 166.277C171.643 166.441 171.413 166.523 171.121 166.523C170.825 166.523 170.593 166.441 170.424 166.277C170.26 166.113 170.178 165.908 170.178 165.662ZM175.594 169.107V175H173.946V167.604H175.498L175.594 169.107ZM175.327 171.028L174.767 171.021C174.767 170.511 174.831 170.039 174.958 169.606C175.086 169.174 175.273 168.798 175.519 168.479C175.765 168.155 176.07 167.907 176.435 167.733C176.804 167.556 177.23 167.467 177.713 167.467C178.05 167.467 178.358 167.517 178.636 167.617C178.918 167.713 179.162 167.866 179.367 168.075C179.577 168.285 179.737 168.554 179.846 168.882C179.96 169.21 180.017 169.606 180.017 170.071V175H178.369V170.215C178.369 169.855 178.315 169.572 178.205 169.367C178.1 169.162 177.948 169.016 177.747 168.93C177.551 168.839 177.317 168.793 177.043 168.793C176.733 168.793 176.469 168.852 176.25 168.971C176.036 169.089 175.861 169.251 175.724 169.456C175.587 169.661 175.487 169.898 175.423 170.167C175.359 170.436 175.327 170.723 175.327 171.028ZM179.914 170.591L179.142 170.762C179.142 170.315 179.203 169.894 179.326 169.497C179.454 169.096 179.639 168.745 179.88 168.444C180.126 168.139 180.429 167.9 180.789 167.727C181.149 167.553 181.562 167.467 182.027 167.467C182.405 167.467 182.742 167.519 183.038 167.624C183.339 167.724 183.594 167.884 183.804 168.103C184.014 168.321 184.173 168.606 184.282 168.957C184.392 169.303 184.446 169.723 184.446 170.215V175H182.792V170.208C182.792 169.834 182.738 169.545 182.628 169.34C182.523 169.135 182.373 168.993 182.177 168.916C181.981 168.834 181.746 168.793 181.473 168.793C181.218 168.793 180.992 168.841 180.796 168.937C180.605 169.028 180.443 169.158 180.311 169.326C180.179 169.49 180.078 169.679 180.01 169.894C179.946 170.108 179.914 170.34 179.914 170.591ZM189.603 175.137C189.056 175.137 188.561 175.048 188.119 174.87C187.682 174.688 187.308 174.435 186.998 174.111C186.693 173.788 186.458 173.407 186.294 172.97C186.13 172.532 186.048 172.061 186.048 171.555V171.281C186.048 170.702 186.132 170.178 186.301 169.709C186.469 169.24 186.704 168.839 187.005 168.506C187.306 168.169 187.661 167.911 188.071 167.733C188.481 167.556 188.926 167.467 189.404 167.467C189.933 167.467 190.396 167.556 190.792 167.733C191.188 167.911 191.517 168.162 191.776 168.485C192.041 168.804 192.237 169.185 192.364 169.627C192.496 170.069 192.562 170.557 192.562 171.09V171.794H186.848V170.611H190.936V170.481C190.926 170.185 190.867 169.907 190.758 169.647C190.653 169.388 190.491 169.178 190.272 169.019C190.054 168.859 189.762 168.779 189.397 168.779C189.124 168.779 188.88 168.839 188.666 168.957C188.456 169.071 188.281 169.237 188.14 169.456C187.998 169.675 187.889 169.939 187.812 170.249C187.739 170.554 187.702 170.898 187.702 171.281V171.555C187.702 171.878 187.745 172.179 187.832 172.457C187.923 172.73 188.055 172.97 188.229 173.175C188.402 173.38 188.611 173.542 188.857 173.66C189.104 173.774 189.384 173.831 189.698 173.831C190.095 173.831 190.448 173.751 190.758 173.592C191.068 173.432 191.337 173.207 191.564 172.915L192.433 173.756C192.273 173.988 192.066 174.212 191.811 174.426C191.555 174.635 191.243 174.806 190.874 174.938C190.509 175.071 190.086 175.137 189.603 175.137Z" fill="white"/>
</g>
<rect x="222" y="156" width="300" height="28" rx="3" stroke="#669DF6" stroke-width="2"/>
<path d="M361.204 165.047L363.317 168.677L365.429 165.047H367.404L364.397 169.976L367.48 175H365.484L363.317 171.302L361.15 175H359.147L362.237 169.976L359.222 165.047H361.204ZM375.179 173.64V175H370.182V173.64H375.179ZM370.66 165.047V175H368.944V165.047H370.66ZM380.718 166.373L377.744 175H375.946L379.692 165.047H380.841L380.718 166.373ZM383.206 175L380.225 166.373L380.096 165.047H381.251L385.011 175H383.206ZM383.062 171.309V172.669H377.648V171.309H383.062Z" fill="white"/>
</g>
<defs>
<filter id="filter0_dd_671_90" x="72.1406" y="161.5" width="124.422" height="21.3438" filterUnits="userSpaceOnUse" color-interpolation-filters="sRGB">
<feFlood flood-opacity="0" result="BackgroundImageFix"/>
<feColorMatrix in="SourceAlpha" type="matrix" values="0 0 0 0 0 0 0 0 0 0 0 0 0 0 0 0 0 0 127 0" result="hardAlpha"/>
<feOffset dy="1"/>
<feGaussianBlur stdDeviation="1"/>
<feColorMatrix type="matrix" values="0 0 0 0 0 0 0 0 0 0 0 0 0 0 0 0 0 0 0.3 0"/>
<feBlend mode="normal" in2="BackgroundImageFix" result="effect1_dropShadow_671_90"/>
<feColorMatrix in="SourceAlpha" type="matrix" values="0 0 0 0 0 0 0 0 0 0 0 0 0 0 0 0 0 0 127 0" result="hardAlpha"/>
<feMorphology radius="1" operator="dilate" in="SourceAlpha" result="effect2_dropShadow_671_90"/>
<feOffset dy="1"/>
<feGaussianBlur stdDeviation="1.5"/>
<feColorMatrix type="matrix" values="0 0 0 0 0 0 0 0 0 0 0 0 0 0 0 0 0 0 0.15 0"/>
<feBlend mode="normal" in2="effect1_dropShadow_671_90" result="effect2_dropShadow_671_90"/>
<feBlend mode="normal" in="SourceGraphic" in2="effect2_dropShadow_671_90" result="shape"/>
</filter>
<radialGradient id="paint0_radial_671_90" cx="0" cy="0" r="1" gradientUnits="userSpaceOnUse" gradientTransform="translate(163.5 307.5) rotate(90) scale(469.5)">
<stop stop-color="#5E97F6"/>
<stop offset="1" stop-color="#5E97F6" stop-opacity="0"/>
</radialGradient>
<clipPath id="clip0_671_90">
<rect width="598" height="340" rx="24" fill="white"/>
</clipPath>
</defs>
</svg>
