<svg width="598" height="340" viewBox="0 0 598 340" fill="none" xmlns="http://www.w3.org/2000/svg">
<g clip-path="url(#clip0_671_50)">
<rect width="598" height="340" rx="24" fill="#202124"/>
<circle cx="163.5" cy="307.5" r="469.5" fill="url(#paint0_radial_671_50)" fill-opacity="0.2"/>
<g filter="url(#filter0_dd_671_50)">
<path d="M97.6272 172.513V165.547H99.3361V172.513C99.3361 173.174 99.1949 173.736 98.9123 174.201C98.6298 174.666 98.2447 175.021 97.757 175.268C97.2694 175.514 96.7157 175.637 96.0959 175.637C95.4624 175.637 94.8996 175.53 94.4074 175.315C93.9198 175.101 93.537 174.773 93.259 174.331C92.981 173.889 92.842 173.328 92.842 172.649H94.5647C94.5647 173.041 94.6262 173.358 94.7492 173.6C94.8768 173.837 95.0546 174.01 95.2824 174.119C95.5148 174.224 95.786 174.276 96.0959 174.276C96.3921 174.276 96.6542 174.21 96.882 174.078C97.1145 173.941 97.2967 173.743 97.4289 173.483C97.5611 173.219 97.6272 172.896 97.6272 172.513ZM105.237 166.873L102.264 175.5H100.466L104.212 165.547H105.36L105.237 166.873ZM107.726 175.5L104.745 166.873L104.615 165.547H105.771L109.53 175.5H107.726ZM107.582 171.809V173.169H102.168V171.809H107.582ZM112.15 165.547L114.263 169.177L116.375 165.547H118.35L115.343 170.476L118.426 175.5H116.429L114.263 171.802L112.096 175.5H110.093L113.182 170.476L110.168 165.547H112.15ZM127.453 166.873L124.479 175.5H122.681L126.427 165.547H127.576L127.453 166.873ZM129.941 175.5L126.96 166.873L126.83 165.547H127.986L131.746 175.5H129.941ZM129.797 171.809V173.169H124.383V171.809H129.797ZM134.892 165.547V175.5H133.176V165.547H134.892ZM146.147 172.937C146.147 172.731 146.115 172.549 146.052 172.39C145.992 172.23 145.885 172.084 145.73 171.952C145.575 171.82 145.357 171.692 145.074 171.569C144.796 171.442 144.441 171.312 144.008 171.18C143.534 171.034 143.096 170.872 142.695 170.694C142.299 170.512 141.952 170.302 141.656 170.065C141.36 169.824 141.13 169.548 140.966 169.238C140.802 168.924 140.72 168.562 140.72 168.151C140.72 167.746 140.804 167.377 140.972 167.044C141.146 166.711 141.389 166.424 141.704 166.183C142.023 165.937 142.399 165.747 142.832 165.615C143.265 165.479 143.743 165.41 144.267 165.41C145.006 165.41 145.641 165.547 146.175 165.82C146.712 166.094 147.125 166.461 147.412 166.921C147.704 167.381 147.849 167.889 147.849 168.445H146.147C146.147 168.117 146.077 167.828 145.935 167.577C145.799 167.322 145.589 167.121 145.306 166.976C145.028 166.83 144.675 166.757 144.247 166.757C143.841 166.757 143.504 166.818 143.235 166.941C142.966 167.064 142.766 167.231 142.634 167.44C142.501 167.65 142.435 167.887 142.435 168.151C142.435 168.338 142.479 168.509 142.565 168.664C142.652 168.814 142.784 168.956 142.962 169.088C143.139 169.215 143.363 169.336 143.632 169.45C143.901 169.564 144.217 169.674 144.582 169.778C145.133 169.942 145.614 170.125 146.024 170.325C146.434 170.521 146.776 170.744 147.05 170.995C147.323 171.246 147.528 171.531 147.665 171.85C147.802 172.164 147.87 172.522 147.87 172.923C147.87 173.342 147.786 173.72 147.617 174.058C147.448 174.39 147.207 174.675 146.892 174.912C146.582 175.145 146.209 175.325 145.771 175.452C145.338 175.575 144.855 175.637 144.322 175.637C143.844 175.637 143.372 175.573 142.907 175.445C142.447 175.318 142.027 175.124 141.649 174.864C141.271 174.6 140.97 174.272 140.747 173.88C140.524 173.483 140.412 173.021 140.412 172.492H142.128C142.128 172.816 142.182 173.091 142.292 173.319C142.406 173.547 142.563 173.734 142.763 173.88C142.964 174.021 143.196 174.126 143.461 174.194C143.73 174.263 144.017 174.297 144.322 174.297C144.723 174.297 145.058 174.24 145.327 174.126C145.6 174.012 145.805 173.853 145.942 173.647C146.079 173.442 146.147 173.205 146.147 172.937ZM152.814 168.104V169.307H148.644V168.104H152.814ZM149.847 166.292H151.495V173.456C151.495 173.684 151.527 173.859 151.59 173.982C151.659 174.101 151.752 174.181 151.871 174.222C151.989 174.263 152.128 174.283 152.288 174.283C152.402 174.283 152.511 174.276 152.616 174.263C152.721 174.249 152.805 174.235 152.869 174.222L152.876 175.479C152.739 175.521 152.579 175.557 152.397 175.589C152.219 175.621 152.014 175.637 151.782 175.637C151.404 175.637 151.069 175.571 150.777 175.438C150.485 175.302 150.257 175.081 150.093 174.775C149.929 174.47 149.847 174.064 149.847 173.559V166.292ZM158.455 174.017V170.489C158.455 170.225 158.408 169.997 158.312 169.806C158.216 169.614 158.07 169.466 157.874 169.361C157.683 169.257 157.441 169.204 157.15 169.204C156.881 169.204 156.649 169.25 156.453 169.341C156.257 169.432 156.104 169.555 155.995 169.71C155.885 169.865 155.83 170.04 155.83 170.236H154.19C154.19 169.945 154.26 169.662 154.402 169.389C154.543 169.115 154.748 168.871 155.017 168.657C155.286 168.443 155.607 168.274 155.981 168.151C156.355 168.028 156.774 167.967 157.239 167.967C157.795 167.967 158.287 168.06 158.715 168.247C159.148 168.434 159.488 168.716 159.734 169.095C159.984 169.468 160.11 169.938 160.11 170.503V173.791C160.11 174.128 160.133 174.431 160.178 174.7C160.228 174.965 160.299 175.195 160.39 175.391V175.5H158.702C158.624 175.322 158.563 175.097 158.517 174.823C158.476 174.545 158.455 174.276 158.455 174.017ZM158.695 171.002L158.708 172.021H157.526C157.22 172.021 156.952 172.05 156.719 172.109C156.487 172.164 156.293 172.246 156.138 172.355C155.983 172.465 155.867 172.597 155.789 172.752C155.712 172.907 155.673 173.082 155.673 173.278C155.673 173.474 155.719 173.654 155.81 173.818C155.901 173.978 156.033 174.103 156.206 174.194C156.384 174.285 156.598 174.331 156.849 174.331C157.186 174.331 157.48 174.263 157.731 174.126C157.986 173.985 158.187 173.814 158.332 173.613C158.478 173.408 158.556 173.215 158.565 173.032L159.098 173.764C159.043 173.951 158.95 174.151 158.818 174.365C158.686 174.579 158.512 174.785 158.298 174.98C158.089 175.172 157.836 175.329 157.539 175.452C157.248 175.575 156.911 175.637 156.528 175.637C156.045 175.637 155.614 175.541 155.236 175.35C154.857 175.154 154.561 174.892 154.347 174.563C154.133 174.231 154.026 173.855 154.026 173.436C154.026 173.044 154.099 172.697 154.245 172.396C154.395 172.091 154.614 171.836 154.901 171.631C155.192 171.426 155.548 171.271 155.967 171.166C156.386 171.057 156.865 171.002 157.403 171.002H158.695ZM165.054 174.324C165.323 174.324 165.564 174.272 165.779 174.167C165.997 174.058 166.173 173.907 166.305 173.716C166.442 173.524 166.517 173.303 166.53 173.053H168.082C168.073 173.531 167.932 173.966 167.658 174.358C167.385 174.75 167.023 175.062 166.571 175.295C166.12 175.523 165.621 175.637 165.074 175.637C164.509 175.637 164.017 175.541 163.598 175.35C163.179 175.154 162.83 174.885 162.552 174.543C162.274 174.201 162.064 173.807 161.923 173.36C161.786 172.914 161.718 172.435 161.718 171.925V171.686C161.718 171.175 161.786 170.697 161.923 170.25C162.064 169.799 162.274 169.402 162.552 169.061C162.83 168.719 163.179 168.452 163.598 168.261C164.017 168.065 164.507 167.967 165.068 167.967C165.66 167.967 166.18 168.085 166.626 168.322C167.073 168.555 167.424 168.881 167.679 169.3C167.939 169.715 168.073 170.198 168.082 170.749H166.53C166.517 170.476 166.448 170.229 166.325 170.011C166.207 169.787 166.038 169.61 165.82 169.478C165.605 169.345 165.348 169.279 165.047 169.279C164.714 169.279 164.439 169.348 164.22 169.484C164.001 169.617 163.83 169.799 163.707 170.031C163.584 170.259 163.495 170.517 163.441 170.804C163.39 171.086 163.365 171.38 163.365 171.686V171.925C163.365 172.23 163.39 172.526 163.441 172.813C163.491 173.101 163.577 173.358 163.7 173.586C163.828 173.809 164.001 173.989 164.22 174.126C164.439 174.258 164.717 174.324 165.054 174.324ZM171.208 165V175.5H169.554V165H171.208ZM175.802 168.104L172.582 171.672L170.818 173.477L170.388 172.082L171.721 170.435L173.812 168.104H175.802ZM174.168 175.5L171.769 172.027L172.808 170.872L176.075 175.5H174.168Z" fill="white"/>
</g>
<path d="M210 120H503.516C505.173 120 506.516 121.343 506.516 123V218C506.516 219.657 505.173 221 503.516 221H210C208.343 221 207 219.657 207 218V123C207 121.343 208.343 120 210 120Z" stroke="#5BB974" stroke-width="2"/>
<rect x="216.5" y="134.942" width="90" height="31" rx="3.5" stroke="#81C995"/>
<path d="M250.994 145.489V155.442H249.278V145.489H250.994ZM255.054 149.843V151.204H250.556V149.843H255.054ZM255.622 145.489V146.856H250.556V145.489H255.622ZM258.789 144.942V155.442H257.134V144.942H258.789ZM264.963 153.958V150.431C264.963 150.167 264.915 149.939 264.82 149.748C264.724 149.556 264.578 149.408 264.382 149.303C264.191 149.198 263.949 149.146 263.658 149.146C263.389 149.146 263.156 149.192 262.96 149.283C262.764 149.374 262.612 149.497 262.502 149.652C262.393 149.807 262.338 149.982 262.338 150.178H260.698C260.698 149.887 260.768 149.604 260.91 149.331C261.051 149.057 261.256 148.813 261.525 148.599C261.794 148.385 262.115 148.216 262.489 148.093C262.862 147.97 263.282 147.909 263.746 147.909C264.302 147.909 264.795 148.002 265.223 148.189C265.656 148.376 265.996 148.658 266.242 149.037C266.492 149.41 266.618 149.88 266.618 150.445V153.733C266.618 154.07 266.64 154.373 266.686 154.642C266.736 154.906 266.807 155.137 266.898 155.333V155.442H265.209C265.132 155.264 265.07 155.039 265.025 154.765C264.984 154.487 264.963 154.218 264.963 153.958ZM265.203 150.944L265.216 151.962H264.034C263.728 151.962 263.459 151.992 263.227 152.051C262.995 152.106 262.801 152.188 262.646 152.297C262.491 152.407 262.375 152.539 262.297 152.694C262.22 152.849 262.181 153.024 262.181 153.22C262.181 153.416 262.227 153.596 262.318 153.76C262.409 153.92 262.541 154.045 262.714 154.136C262.892 154.227 263.106 154.273 263.357 154.273C263.694 154.273 263.988 154.205 264.239 154.068C264.494 153.927 264.694 153.756 264.84 153.555C264.986 153.35 265.064 153.156 265.073 152.974L265.606 153.706C265.551 153.892 265.458 154.093 265.326 154.307C265.193 154.521 265.02 154.726 264.806 154.922C264.596 155.114 264.343 155.271 264.047 155.394C263.756 155.517 263.418 155.579 263.036 155.579C262.552 155.579 262.122 155.483 261.744 155.292C261.365 155.096 261.069 154.833 260.855 154.505C260.641 154.173 260.534 153.797 260.534 153.377C260.534 152.986 260.607 152.639 260.752 152.338C260.903 152.033 261.121 151.778 261.409 151.573C261.7 151.368 262.056 151.213 262.475 151.108C262.894 150.999 263.373 150.944 263.911 150.944H265.203ZM269.798 148.045L271.206 150.5L272.642 148.045H274.453L272.211 151.675L274.542 155.442H272.731L271.227 152.885L269.723 155.442H267.904L270.229 151.675L267.993 148.045H269.798Z" fill="white"/>
<rect x="216.5" y="175.942" width="90" height="31" rx="3.5" stroke="#81C995"/>
<path d="M233.233 193.455V186.489H234.942V193.455C234.942 194.115 234.801 194.678 234.518 195.143C234.236 195.608 233.851 195.963 233.363 196.209C232.875 196.456 232.322 196.579 231.702 196.579C231.068 196.579 230.506 196.472 230.013 196.257C229.526 196.043 229.143 195.715 228.865 195.273C228.587 194.831 228.448 194.27 228.448 193.591H230.171C230.171 193.983 230.232 194.3 230.355 194.542C230.483 194.778 230.661 194.952 230.888 195.061C231.121 195.166 231.392 195.218 231.702 195.218C231.998 195.218 232.26 195.152 232.488 195.02C232.721 194.883 232.903 194.685 233.035 194.425C233.167 194.161 233.233 193.837 233.233 193.455ZM240.214 196.579C239.668 196.579 239.173 196.49 238.731 196.312C238.294 196.13 237.92 195.877 237.61 195.553C237.305 195.23 237.07 194.849 236.906 194.412C236.742 193.974 236.66 193.502 236.66 192.997V192.723C236.66 192.144 236.744 191.62 236.913 191.151C237.081 190.681 237.316 190.28 237.617 189.948C237.918 189.611 238.273 189.353 238.683 189.175C239.093 188.998 239.538 188.909 240.016 188.909C240.545 188.909 241.007 188.998 241.404 189.175C241.8 189.353 242.129 189.604 242.388 189.927C242.653 190.246 242.849 190.627 242.976 191.069C243.108 191.511 243.174 191.999 243.174 192.532V193.236H237.46V192.053H241.547V191.923C241.538 191.627 241.479 191.349 241.37 191.089C241.265 190.83 241.103 190.62 240.884 190.46C240.666 190.301 240.374 190.221 240.009 190.221C239.736 190.221 239.492 190.28 239.278 190.399C239.068 190.513 238.893 190.679 238.752 190.898C238.61 191.117 238.501 191.381 238.423 191.691C238.351 191.996 238.314 192.34 238.314 192.723V192.997C238.314 193.32 238.357 193.621 238.444 193.899C238.535 194.172 238.667 194.412 238.84 194.617C239.014 194.822 239.223 194.984 239.469 195.102C239.715 195.216 239.996 195.273 240.31 195.273C240.707 195.273 241.06 195.193 241.37 195.034C241.68 194.874 241.949 194.649 242.176 194.357L243.045 195.198C242.885 195.43 242.678 195.653 242.422 195.868C242.167 196.077 241.855 196.248 241.486 196.38C241.121 196.513 240.698 196.579 240.214 196.579ZM248.05 189.045V190.249H243.88V189.045H248.05ZM245.083 187.234H246.731V194.398C246.731 194.626 246.763 194.801 246.827 194.924C246.895 195.043 246.988 195.123 247.107 195.164C247.225 195.205 247.364 195.225 247.524 195.225C247.638 195.225 247.747 195.218 247.852 195.205C247.957 195.191 248.041 195.177 248.105 195.164L248.112 196.421C247.975 196.462 247.815 196.499 247.633 196.531C247.455 196.563 247.25 196.579 247.018 196.579C246.64 196.579 246.305 196.513 246.013 196.38C245.721 196.244 245.494 196.023 245.329 195.717C245.165 195.412 245.083 195.006 245.083 194.5V187.234ZM254.922 193.878C254.922 193.673 254.89 193.491 254.826 193.332C254.767 193.172 254.66 193.026 254.505 192.894C254.35 192.762 254.131 192.634 253.849 192.511C253.571 192.384 253.215 192.254 252.782 192.122C252.308 191.976 251.871 191.814 251.47 191.636C251.073 191.454 250.727 191.244 250.431 191.007C250.135 190.766 249.904 190.49 249.74 190.18C249.576 189.866 249.494 189.503 249.494 189.093C249.494 188.688 249.579 188.319 249.747 187.986C249.92 187.653 250.164 187.366 250.479 187.125C250.798 186.878 251.174 186.689 251.607 186.557C252.04 186.42 252.518 186.352 253.042 186.352C253.78 186.352 254.416 186.489 254.949 186.762C255.487 187.036 255.9 187.403 256.187 187.863C256.478 188.323 256.624 188.831 256.624 189.387H254.922C254.922 189.059 254.851 188.77 254.71 188.519C254.573 188.264 254.364 188.063 254.081 187.917C253.803 187.772 253.45 187.699 253.022 187.699C252.616 187.699 252.279 187.76 252.01 187.883C251.741 188.006 251.541 188.173 251.408 188.382C251.276 188.592 251.21 188.829 251.21 189.093C251.21 189.28 251.253 189.451 251.34 189.606C251.427 189.756 251.559 189.898 251.737 190.03C251.914 190.157 252.138 190.278 252.406 190.392C252.675 190.506 252.992 190.615 253.357 190.72C253.908 190.884 254.389 191.067 254.799 191.267C255.209 191.463 255.551 191.686 255.824 191.937C256.098 192.188 256.303 192.472 256.44 192.792C256.576 193.106 256.645 193.464 256.645 193.865C256.645 194.284 256.56 194.662 256.392 195C256.223 195.332 255.982 195.617 255.667 195.854C255.357 196.086 254.984 196.266 254.546 196.394C254.113 196.517 253.63 196.579 253.097 196.579C252.618 196.579 252.147 196.515 251.682 196.387C251.222 196.26 250.802 196.066 250.424 195.806C250.046 195.542 249.745 195.214 249.522 194.822C249.298 194.425 249.187 193.963 249.187 193.434H250.903C250.903 193.758 250.957 194.033 251.067 194.261C251.181 194.489 251.338 194.676 251.538 194.822C251.739 194.963 251.971 195.068 252.236 195.136C252.504 195.205 252.792 195.239 253.097 195.239C253.498 195.239 253.833 195.182 254.102 195.068C254.375 194.954 254.58 194.794 254.717 194.589C254.854 194.384 254.922 194.147 254.922 193.878ZM261.589 189.045V190.249H257.419V189.045H261.589ZM258.622 187.234H260.27V194.398C260.27 194.626 260.301 194.801 260.365 194.924C260.434 195.043 260.527 195.123 260.646 195.164C260.764 195.205 260.903 195.225 261.062 195.225C261.176 195.225 261.286 195.218 261.391 195.205C261.495 195.191 261.58 195.177 261.644 195.164L261.65 196.421C261.514 196.462 261.354 196.499 261.172 196.531C260.994 196.563 260.789 196.579 260.557 196.579C260.178 196.579 259.843 196.513 259.552 196.38C259.26 196.244 259.032 196.023 258.868 195.717C258.704 195.412 258.622 195.006 258.622 194.5V187.234ZM264.715 190.454V196.442H263.067V189.045H264.639L264.715 190.454ZM266.977 188.998L266.964 190.529C266.863 190.511 266.754 190.497 266.636 190.488C266.522 190.479 266.408 190.474 266.294 190.474C266.011 190.474 265.763 190.515 265.549 190.597C265.334 190.675 265.154 190.789 265.009 190.939C264.867 191.085 264.758 191.263 264.68 191.472C264.603 191.682 264.557 191.917 264.544 192.176L264.168 192.204C264.168 191.739 264.213 191.308 264.304 190.912C264.396 190.515 264.532 190.167 264.715 189.866C264.901 189.565 265.134 189.33 265.412 189.162C265.694 188.993 266.02 188.909 266.389 188.909C266.49 188.909 266.597 188.918 266.711 188.936C266.829 188.954 266.918 188.975 266.977 188.998ZM271.334 196.579C270.787 196.579 270.292 196.49 269.85 196.312C269.413 196.13 269.039 195.877 268.729 195.553C268.424 195.23 268.189 194.849 268.025 194.412C267.861 193.974 267.779 193.502 267.779 192.997V192.723C267.779 192.144 267.863 191.62 268.032 191.151C268.2 190.681 268.435 190.28 268.736 189.948C269.037 189.611 269.392 189.353 269.802 189.175C270.213 188.998 270.657 188.909 271.135 188.909C271.664 188.909 272.127 188.998 272.523 189.175C272.92 189.353 273.248 189.604 273.507 189.927C273.772 190.246 273.968 190.627 274.095 191.069C274.227 191.511 274.294 191.999 274.294 192.532V193.236H268.579V192.053H272.667V191.923C272.657 191.627 272.598 191.349 272.489 191.089C272.384 190.83 272.222 190.62 272.004 190.46C271.785 190.301 271.493 190.221 271.129 190.221C270.855 190.221 270.611 190.28 270.397 190.399C270.187 190.513 270.012 190.679 269.871 190.898C269.729 191.117 269.62 191.381 269.543 191.691C269.47 191.996 269.433 192.34 269.433 192.723V192.997C269.433 193.32 269.476 193.621 269.563 193.899C269.654 194.172 269.786 194.412 269.96 194.617C270.133 194.822 270.342 194.984 270.588 195.102C270.835 195.216 271.115 195.273 271.429 195.273C271.826 195.273 272.179 195.193 272.489 195.034C272.799 194.874 273.068 194.649 273.296 194.357L274.164 195.198C274.004 195.43 273.797 195.653 273.542 195.868C273.286 196.077 272.974 196.248 272.605 196.38C272.24 196.513 271.817 196.579 271.334 196.579ZM279.949 194.958V191.431C279.949 191.167 279.901 190.939 279.805 190.748C279.709 190.556 279.564 190.408 279.368 190.303C279.176 190.198 278.935 190.146 278.643 190.146C278.374 190.146 278.142 190.192 277.946 190.283C277.75 190.374 277.597 190.497 277.488 190.652C277.378 190.807 277.324 190.982 277.324 191.178H275.683C275.683 190.887 275.754 190.604 275.895 190.331C276.036 190.057 276.241 189.813 276.51 189.599C276.779 189.385 277.1 189.216 277.474 189.093C277.848 188.97 278.267 188.909 278.732 188.909C279.288 188.909 279.78 189.002 280.208 189.189C280.641 189.376 280.981 189.658 281.227 190.037C281.478 190.41 281.603 190.88 281.603 191.445V194.733C281.603 195.07 281.626 195.373 281.671 195.642C281.721 195.906 281.792 196.137 281.883 196.333V196.442H280.195C280.117 196.264 280.056 196.039 280.01 195.765C279.969 195.487 279.949 195.218 279.949 194.958ZM280.188 191.944L280.202 192.962H279.019C278.714 192.962 278.445 192.992 278.212 193.051C277.98 193.106 277.786 193.188 277.631 193.297C277.476 193.407 277.36 193.539 277.283 193.694C277.205 193.849 277.166 194.024 277.166 194.22C277.166 194.416 277.212 194.596 277.303 194.76C277.394 194.92 277.526 195.045 277.7 195.136C277.877 195.227 278.092 195.273 278.342 195.273C278.679 195.273 278.973 195.205 279.224 195.068C279.479 194.927 279.68 194.756 279.826 194.555C279.971 194.35 280.049 194.156 280.058 193.974L280.591 194.706C280.537 194.892 280.443 195.093 280.311 195.307C280.179 195.521 280.006 195.726 279.791 195.922C279.582 196.114 279.329 196.271 279.033 196.394C278.741 196.517 278.404 196.579 278.021 196.579C277.538 196.579 277.107 196.483 276.729 196.292C276.351 196.096 276.054 195.833 275.84 195.505C275.626 195.173 275.519 194.797 275.519 194.377C275.519 193.986 275.592 193.639 275.738 193.338C275.888 193.033 276.107 192.778 276.394 192.573C276.686 192.368 277.041 192.213 277.46 192.108C277.88 191.999 278.358 191.944 278.896 191.944H280.188ZM285.173 190.549V196.442H283.526V189.045H285.077L285.173 190.549ZM284.906 192.47L284.346 192.463C284.346 191.953 284.41 191.481 284.537 191.048C284.665 190.615 284.852 190.239 285.098 189.92C285.344 189.597 285.649 189.348 286.014 189.175C286.383 188.998 286.809 188.909 287.292 188.909C287.629 188.909 287.937 188.959 288.215 189.059C288.498 189.155 288.741 189.307 288.946 189.517C289.156 189.727 289.316 189.996 289.425 190.324C289.539 190.652 289.596 191.048 289.596 191.513V196.442H287.948V191.657C287.948 191.297 287.894 191.014 287.784 190.809C287.68 190.604 287.527 190.458 287.326 190.372C287.13 190.28 286.896 190.235 286.622 190.235C286.312 190.235 286.048 190.294 285.829 190.413C285.615 190.531 285.44 190.693 285.303 190.898C285.166 191.103 285.066 191.34 285.002 191.609C284.938 191.878 284.906 192.165 284.906 192.47ZM289.493 192.033L288.721 192.204C288.721 191.757 288.782 191.335 288.905 190.939C289.033 190.538 289.218 190.187 289.459 189.886C289.705 189.581 290.008 189.342 290.368 189.168C290.728 188.995 291.141 188.909 291.606 188.909C291.984 188.909 292.321 188.961 292.617 189.066C292.918 189.166 293.173 189.326 293.383 189.544C293.593 189.763 293.752 190.048 293.862 190.399C293.971 190.745 294.026 191.165 294.026 191.657V196.442H292.371V191.65C292.371 191.276 292.317 190.987 292.207 190.782C292.102 190.577 291.952 190.435 291.756 190.358C291.56 190.276 291.325 190.235 291.052 190.235C290.797 190.235 290.571 190.283 290.375 190.378C290.184 190.47 290.022 190.599 289.89 190.768C289.758 190.932 289.657 191.121 289.589 191.335C289.525 191.55 289.493 191.782 289.493 192.033Z" fill="white"/>
<rect x="311.5" y="134.942" width="90" height="31" rx="3.5" stroke="#81C995"/>
<path d="M339.562 148.045V149.249H335.392V148.045H339.562ZM336.595 146.234H338.243V153.398C338.243 153.626 338.275 153.801 338.338 153.924C338.407 154.043 338.5 154.123 338.619 154.164C338.737 154.205 338.876 154.225 339.036 154.225C339.15 154.225 339.259 154.218 339.364 154.205C339.469 154.191 339.553 154.177 339.617 154.164L339.624 155.421C339.487 155.462 339.327 155.499 339.145 155.531C338.967 155.563 338.762 155.579 338.53 155.579C338.152 155.579 337.817 155.513 337.525 155.38C337.233 155.244 337.005 155.023 336.841 154.717C336.677 154.412 336.595 154.006 336.595 153.5V146.234ZM343.262 155.442H341.615V147.334C341.615 146.783 341.717 146.32 341.922 145.947C342.132 145.569 342.43 145.284 342.818 145.092C343.205 144.896 343.663 144.798 344.192 144.798C344.356 144.798 344.518 144.81 344.677 144.833C344.837 144.851 344.992 144.88 345.142 144.921L345.101 146.193C345.01 146.17 344.91 146.154 344.8 146.145C344.695 146.136 344.581 146.131 344.458 146.131C344.208 146.131 343.991 146.179 343.809 146.275C343.631 146.366 343.495 146.5 343.399 146.678C343.308 146.856 343.262 147.075 343.262 147.334V155.442ZM344.787 148.045V149.249H340.48V148.045H344.787ZM346.251 154.622C346.251 154.366 346.338 154.152 346.511 153.979C346.684 153.801 346.919 153.712 347.215 153.712C347.516 153.712 347.751 153.801 347.919 153.979C348.092 154.152 348.179 154.366 348.179 154.622C348.179 154.877 348.092 155.091 347.919 155.264C347.751 155.437 347.516 155.524 347.215 155.524C346.919 155.524 346.684 155.437 346.511 155.264C346.338 155.091 346.251 154.877 346.251 154.622ZM354.791 153.911V144.942H356.445V155.442H354.948L354.791 153.911ZM349.979 151.826V151.682C349.979 151.122 350.045 150.611 350.177 150.151C350.309 149.686 350.5 149.287 350.751 148.955C351.002 148.617 351.307 148.36 351.667 148.182C352.027 148 352.433 147.909 352.884 147.909C353.33 147.909 353.722 147.995 354.06 148.168C354.397 148.342 354.684 148.59 354.921 148.914C355.158 149.233 355.347 149.615 355.488 150.062C355.63 150.504 355.73 150.996 355.789 151.539V151.997C355.73 152.525 355.63 153.008 355.488 153.446C355.347 153.883 355.158 154.262 354.921 154.581C354.684 154.9 354.395 155.146 354.053 155.319C353.715 155.492 353.321 155.579 352.87 155.579C352.424 155.579 352.02 155.485 351.66 155.298C351.305 155.111 351.002 154.849 350.751 154.512C350.5 154.175 350.309 153.778 350.177 153.323C350.045 152.862 349.979 152.363 349.979 151.826ZM351.626 151.682V151.826C351.626 152.163 351.656 152.477 351.715 152.769C351.779 153.061 351.877 153.318 352.009 153.542C352.141 153.76 352.312 153.933 352.521 154.061C352.736 154.184 352.991 154.246 353.287 154.246C353.661 154.246 353.968 154.164 354.21 154C354.451 153.835 354.641 153.614 354.777 153.336C354.919 153.054 355.014 152.739 355.064 152.393V151.156C355.037 150.887 354.98 150.636 354.894 150.404C354.812 150.171 354.7 149.969 354.559 149.795C354.417 149.618 354.242 149.481 354.032 149.385C353.827 149.285 353.583 149.235 353.301 149.235C353 149.235 352.745 149.299 352.535 149.426C352.326 149.554 352.152 149.729 352.016 149.953C351.883 150.176 351.785 150.436 351.722 150.732C351.658 151.028 351.626 151.345 351.626 151.682ZM362.538 153.958V150.431C362.538 150.167 362.49 149.939 362.394 149.748C362.299 149.556 362.153 149.408 361.957 149.303C361.765 149.198 361.524 149.146 361.232 149.146C360.963 149.146 360.731 149.192 360.535 149.283C360.339 149.374 360.186 149.497 360.077 149.652C359.968 149.807 359.913 149.982 359.913 150.178H358.272C358.272 149.887 358.343 149.604 358.484 149.331C358.625 149.057 358.831 148.813 359.099 148.599C359.368 148.385 359.69 148.216 360.063 148.093C360.437 147.97 360.856 147.909 361.321 147.909C361.877 147.909 362.369 148.002 362.798 148.189C363.231 148.376 363.57 148.658 363.816 149.037C364.067 149.41 364.192 149.88 364.192 150.445V153.733C364.192 154.07 364.215 154.373 364.261 154.642C364.311 154.906 364.381 155.137 364.472 155.333V155.442H362.784C362.707 155.264 362.645 155.039 362.599 154.765C362.558 154.487 362.538 154.218 362.538 153.958ZM362.777 150.944L362.791 151.962H361.608C361.303 151.962 361.034 151.992 360.802 152.051C360.569 152.106 360.375 152.188 360.221 152.297C360.066 152.407 359.949 152.539 359.872 152.694C359.794 152.849 359.756 153.024 359.756 153.22C359.756 153.416 359.801 153.596 359.892 153.76C359.984 153.92 360.116 154.045 360.289 154.136C360.467 154.227 360.681 154.273 360.931 154.273C361.269 154.273 361.563 154.205 361.813 154.068C362.068 153.927 362.269 153.756 362.415 153.555C362.561 153.35 362.638 153.156 362.647 152.974L363.18 153.706C363.126 153.892 363.032 154.093 362.9 154.307C362.768 154.521 362.595 154.726 362.381 154.922C362.171 155.114 361.918 155.271 361.622 155.394C361.33 155.517 360.993 155.579 360.61 155.579C360.127 155.579 359.696 155.483 359.318 155.292C358.94 155.096 358.644 154.833 358.429 154.505C358.215 154.173 358.108 153.797 358.108 153.377C358.108 152.986 358.181 152.639 358.327 152.338C358.477 152.033 358.696 151.778 358.983 151.573C359.275 151.368 359.63 151.213 360.05 151.108C360.469 150.999 360.947 150.944 361.485 150.944H362.777ZM369.505 148.045V149.249H365.336V148.045H369.505ZM366.539 146.234H368.186V153.398C368.186 153.626 368.218 153.801 368.282 153.924C368.35 154.043 368.444 154.123 368.562 154.164C368.681 154.205 368.82 154.225 368.979 154.225C369.093 154.225 369.202 154.218 369.307 154.205C369.412 154.191 369.496 154.177 369.56 154.164L369.567 155.421C369.43 155.462 369.271 155.499 369.088 155.531C368.911 155.563 368.706 155.579 368.473 155.579C368.095 155.579 367.76 155.513 367.468 155.38C367.177 155.244 366.949 155.023 366.785 154.717C366.621 154.412 366.539 154.006 366.539 153.5V146.234ZM375.147 153.958V150.431C375.147 150.167 375.099 149.939 375.003 149.748C374.908 149.556 374.762 149.408 374.566 149.303C374.374 149.198 374.133 149.146 373.841 149.146C373.572 149.146 373.34 149.192 373.144 149.283C372.948 149.374 372.795 149.497 372.686 149.652C372.577 149.807 372.522 149.982 372.522 150.178H370.881C370.881 149.887 370.952 149.604 371.093 149.331C371.234 149.057 371.44 148.813 371.708 148.599C371.977 148.385 372.299 148.216 372.672 148.093C373.046 147.97 373.465 147.909 373.93 147.909C374.486 147.909 374.978 148.002 375.407 148.189C375.84 148.376 376.179 148.658 376.425 149.037C376.676 149.41 376.801 149.88 376.801 150.445V153.733C376.801 154.07 376.824 154.373 376.87 154.642C376.92 154.906 376.99 155.137 377.081 155.333V155.442H375.393C375.315 155.264 375.254 155.039 375.208 154.765C375.167 154.487 375.147 154.218 375.147 153.958ZM375.386 150.944L375.4 151.962H374.217C373.912 151.962 373.643 151.992 373.411 152.051C373.178 152.106 372.984 152.188 372.829 152.297C372.675 152.407 372.558 152.539 372.481 152.694C372.403 152.849 372.365 153.024 372.365 153.22C372.365 153.416 372.41 153.596 372.501 153.76C372.593 153.92 372.725 154.045 372.898 154.136C373.076 154.227 373.29 154.273 373.54 154.273C373.878 154.273 374.172 154.205 374.422 154.068C374.677 153.927 374.878 153.756 375.024 153.555C375.17 153.35 375.247 153.156 375.256 152.974L375.789 153.706C375.735 153.892 375.641 154.093 375.509 154.307C375.377 154.521 375.204 154.726 374.99 154.922C374.78 155.114 374.527 155.271 374.231 155.394C373.939 155.517 373.602 155.579 373.219 155.579C372.736 155.579 372.305 155.483 371.927 155.292C371.549 155.096 371.253 154.833 371.038 154.505C370.824 154.173 370.717 153.797 370.717 153.377C370.717 152.986 370.79 152.639 370.936 152.338C371.086 152.033 371.305 151.778 371.592 151.573C371.884 151.368 372.239 151.213 372.659 151.108C373.078 150.999 373.556 150.944 374.094 150.944H375.386Z" fill="white"/>
<rect x="311.5" y="175.942" width="90" height="31" rx="3.5" stroke="#81C995"/>
<path d="M346.516 191.192V191.739C346.516 192.491 346.418 193.165 346.222 193.762C346.026 194.359 345.746 194.867 345.381 195.287C345.021 195.706 344.588 196.027 344.082 196.25C343.577 196.469 343.016 196.579 342.401 196.579C341.79 196.579 341.232 196.469 340.726 196.25C340.225 196.027 339.789 195.706 339.42 195.287C339.051 194.867 338.764 194.359 338.559 193.762C338.358 193.165 338.258 192.491 338.258 191.739V191.192C338.258 190.44 338.358 189.768 338.559 189.175C338.76 188.578 339.042 188.07 339.407 187.651C339.776 187.227 340.211 186.906 340.712 186.687C341.218 186.464 341.776 186.352 342.387 186.352C343.002 186.352 343.563 186.464 344.069 186.687C344.575 186.906 345.01 187.227 345.374 187.651C345.739 188.07 346.019 188.578 346.215 189.175C346.416 189.768 346.516 190.44 346.516 191.192ZM344.8 191.739V191.178C344.8 190.622 344.746 190.132 344.636 189.708C344.531 189.28 344.374 188.922 344.164 188.635C343.959 188.344 343.706 188.125 343.406 187.979C343.105 187.829 342.765 187.753 342.387 187.753C342.009 187.753 341.672 187.829 341.375 187.979C341.079 188.125 340.826 188.344 340.617 188.635C340.412 188.922 340.254 189.28 340.145 189.708C340.036 190.132 339.981 190.622 339.981 191.178V191.739C339.981 192.295 340.036 192.787 340.145 193.215C340.254 193.644 340.414 194.006 340.623 194.302C340.838 194.594 341.093 194.815 341.389 194.965C341.685 195.111 342.023 195.184 342.401 195.184C342.784 195.184 343.123 195.111 343.419 194.965C343.716 194.815 343.966 194.594 344.171 194.302C344.376 194.006 344.531 193.644 344.636 193.215C344.746 192.787 344.8 192.295 344.8 191.739ZM349.922 190.454V196.442H348.275V189.045H349.847L349.922 190.454ZM352.185 188.998L352.171 190.529C352.071 190.511 351.961 190.497 351.843 190.488C351.729 190.479 351.615 190.474 351.501 190.474C351.219 190.474 350.97 190.515 350.756 190.597C350.542 190.675 350.362 190.789 350.216 190.939C350.075 191.085 349.965 191.263 349.888 191.472C349.81 191.682 349.765 191.917 349.751 192.176L349.375 192.204C349.375 191.739 349.421 191.308 349.512 190.912C349.603 190.515 349.74 190.167 349.922 189.866C350.109 189.565 350.341 189.33 350.619 189.162C350.902 188.993 351.228 188.909 351.597 188.909C351.697 188.909 351.804 188.918 351.918 188.936C352.037 188.954 352.126 188.975 352.185 188.998ZM353.424 185.942H355.071V194.863L354.914 196.442H353.424V185.942ZM359.897 192.675V192.819C359.897 193.366 359.836 193.869 359.713 194.33C359.594 194.785 359.412 195.182 359.166 195.519C358.924 195.856 358.624 196.118 358.264 196.305C357.908 196.487 357.496 196.579 357.026 196.579C356.566 196.579 356.165 196.492 355.823 196.319C355.481 196.146 355.194 195.9 354.962 195.581C354.734 195.262 354.549 194.881 354.408 194.439C354.267 193.997 354.167 193.509 354.107 192.976V192.518C354.167 191.98 354.267 191.493 354.408 191.055C354.549 190.613 354.734 190.233 354.962 189.914C355.194 189.59 355.479 189.342 355.816 189.168C356.158 188.995 356.557 188.909 357.013 188.909C357.487 188.909 357.904 189 358.264 189.182C358.628 189.364 358.931 189.624 359.173 189.961C359.414 190.294 359.594 190.691 359.713 191.151C359.836 191.611 359.897 192.119 359.897 192.675ZM358.25 192.819V192.675C358.25 192.343 358.223 192.03 358.168 191.739C358.113 191.443 358.022 191.183 357.895 190.959C357.771 190.736 357.603 190.561 357.389 190.433C357.179 190.301 356.917 190.235 356.603 190.235C356.311 190.235 356.06 190.285 355.851 190.385C355.641 190.486 355.465 190.622 355.324 190.795C355.183 190.969 355.071 191.169 354.989 191.397C354.912 191.625 354.859 191.871 354.832 192.135V193.373C354.873 193.714 354.96 194.029 355.092 194.316C355.229 194.598 355.42 194.826 355.666 195C355.912 195.168 356.229 195.252 356.616 195.252C356.922 195.252 357.179 195.191 357.389 195.068C357.598 194.945 357.765 194.774 357.888 194.555C358.015 194.332 358.106 194.072 358.161 193.776C358.22 193.48 358.25 193.161 358.25 192.819ZM365.662 194.958V191.431C365.662 191.167 365.614 190.939 365.518 190.748C365.423 190.556 365.277 190.408 365.081 190.303C364.889 190.198 364.648 190.146 364.356 190.146C364.087 190.146 363.855 190.192 363.659 190.283C363.463 190.374 363.31 190.497 363.201 190.652C363.092 190.807 363.037 190.982 363.037 191.178H361.396C361.396 190.887 361.467 190.604 361.608 190.331C361.749 190.057 361.955 189.813 362.223 189.599C362.492 189.385 362.814 189.216 363.187 189.093C363.561 188.97 363.98 188.909 364.445 188.909C365.001 188.909 365.493 189.002 365.922 189.189C366.355 189.376 366.694 189.658 366.94 190.037C367.191 190.41 367.316 190.88 367.316 191.445V194.733C367.316 195.07 367.339 195.373 367.385 195.642C367.435 195.906 367.505 196.137 367.596 196.333V196.442H365.908C365.831 196.264 365.769 196.039 365.723 195.765C365.682 195.487 365.662 195.218 365.662 194.958ZM365.901 191.944L365.915 192.962H364.732C364.427 192.962 364.158 192.992 363.926 193.051C363.693 193.106 363.499 193.188 363.345 193.297C363.19 193.407 363.073 193.539 362.996 193.694C362.918 193.849 362.88 194.024 362.88 194.22C362.88 194.416 362.925 194.596 363.016 194.76C363.108 194.92 363.24 195.045 363.413 195.136C363.591 195.227 363.805 195.273 364.055 195.273C364.393 195.273 364.687 195.205 364.937 195.068C365.193 194.927 365.393 194.756 365.539 194.555C365.685 194.35 365.762 194.156 365.771 193.974L366.304 194.706C366.25 194.892 366.156 195.093 366.024 195.307C365.892 195.521 365.719 195.726 365.505 195.922C365.295 196.114 365.042 196.271 364.746 196.394C364.454 196.517 364.117 196.579 363.734 196.579C363.251 196.579 362.82 196.483 362.442 196.292C362.064 196.096 361.768 195.833 361.554 195.505C361.339 195.173 361.232 194.797 361.232 194.377C361.232 193.986 361.305 193.639 361.451 193.338C361.601 193.033 361.82 192.778 362.107 192.573C362.399 192.368 362.754 192.213 363.174 192.108C363.593 191.999 364.071 191.944 364.609 191.944H365.901ZM370.497 189.045L371.905 191.5L373.34 189.045H375.152L372.91 192.675L375.241 196.442H373.429L371.925 193.885L370.421 196.442H368.603L370.927 192.675L368.692 189.045H370.497Z" fill="white"/>
<rect x="406.5" y="134.942" width="90" height="31" rx="3.5" stroke="#81C995"/>
<path d="M441.66 150.192V150.739C441.66 151.491 441.562 152.165 441.366 152.762C441.17 153.359 440.889 153.867 440.525 154.287C440.165 154.706 439.732 155.027 439.226 155.25C438.72 155.469 438.16 155.579 437.544 155.579C436.934 155.579 436.375 155.469 435.87 155.25C435.368 155.027 434.933 154.706 434.564 154.287C434.195 153.867 433.908 153.359 433.703 152.762C433.502 152.165 433.402 151.491 433.402 150.739V150.192C433.402 149.44 433.502 148.768 433.703 148.175C433.903 147.578 434.186 147.07 434.55 146.651C434.919 146.227 435.355 145.906 435.856 145.687C436.362 145.464 436.92 145.352 437.531 145.352C438.146 145.352 438.706 145.464 439.212 145.687C439.718 145.906 440.153 146.227 440.518 146.651C440.883 147.07 441.163 147.578 441.359 148.175C441.559 148.768 441.66 149.44 441.66 150.192ZM439.944 150.739V150.178C439.944 149.622 439.889 149.132 439.78 148.708C439.675 148.28 439.518 147.922 439.308 147.635C439.103 147.344 438.85 147.125 438.549 146.979C438.248 146.829 437.909 146.753 437.531 146.753C437.152 146.753 436.815 146.829 436.519 146.979C436.223 147.125 435.97 147.344 435.76 147.635C435.555 147.922 435.398 148.28 435.288 148.708C435.179 149.132 435.124 149.622 435.124 150.178V150.739C435.124 151.295 435.179 151.787 435.288 152.215C435.398 152.644 435.557 153.006 435.767 153.302C435.981 153.594 436.236 153.815 436.533 153.965C436.829 154.111 437.166 154.184 437.544 154.184C437.927 154.184 438.267 154.111 438.563 153.965C438.859 153.815 439.11 153.594 439.315 153.302C439.52 153.006 439.675 152.644 439.78 152.215C439.889 151.787 439.944 151.295 439.944 150.739ZM445.066 149.467V158.286H443.418V148.045H444.936L445.066 149.467ZM449.885 151.675V151.819C449.885 152.357 449.821 152.856 449.694 153.316C449.571 153.772 449.386 154.17 449.14 154.512C448.898 154.849 448.6 155.111 448.244 155.298C447.889 155.485 447.479 155.579 447.014 155.579C446.554 155.579 446.15 155.494 445.804 155.326C445.462 155.153 445.173 154.909 444.936 154.594C444.699 154.28 444.507 153.911 444.362 153.487C444.22 153.058 444.12 152.589 444.061 152.079V151.525C444.12 150.983 444.22 150.49 444.362 150.048C444.507 149.606 444.699 149.226 444.936 148.907C445.173 148.588 445.462 148.342 445.804 148.168C446.146 147.995 446.544 147.909 447 147.909C447.465 147.909 447.877 148 448.238 148.182C448.598 148.36 448.901 148.615 449.147 148.948C449.393 149.276 449.577 149.672 449.7 150.137C449.823 150.597 449.885 151.11 449.885 151.675ZM448.238 151.819V151.675C448.238 151.333 448.206 151.017 448.142 150.725C448.078 150.429 447.978 150.169 447.841 149.946C447.704 149.722 447.529 149.549 447.315 149.426C447.105 149.299 446.852 149.235 446.556 149.235C446.264 149.235 446.014 149.285 445.804 149.385C445.594 149.481 445.419 149.615 445.278 149.789C445.136 149.962 445.027 150.165 444.949 150.397C444.872 150.625 444.817 150.873 444.785 151.142V152.468C444.84 152.796 444.933 153.097 445.066 153.371C445.198 153.644 445.385 153.863 445.626 154.027C445.872 154.186 446.187 154.266 446.57 154.266C446.866 154.266 447.119 154.202 447.328 154.075C447.538 153.947 447.709 153.772 447.841 153.548C447.978 153.32 448.078 153.058 448.142 152.762C448.206 152.466 448.238 152.152 448.238 151.819ZM454.877 148.045V149.249H450.707V148.045H454.877ZM451.91 146.234H453.558V153.398C453.558 153.626 453.59 153.801 453.653 153.924C453.722 154.043 453.815 154.123 453.934 154.164C454.052 154.205 454.191 154.225 454.351 154.225C454.465 154.225 454.574 154.218 454.679 154.205C454.784 154.191 454.868 154.177 454.932 154.164L454.938 155.421C454.802 155.462 454.642 155.499 454.46 155.531C454.282 155.563 454.077 155.579 453.845 155.579C453.466 155.579 453.132 155.513 452.84 155.38C452.548 155.244 452.32 155.023 452.156 154.717C451.992 154.412 451.91 154.006 451.91 153.5V146.234ZM460.518 153.958V150.431C460.518 150.167 460.471 149.939 460.375 149.748C460.279 149.556 460.133 149.408 459.937 149.303C459.746 149.198 459.504 149.146 459.213 149.146C458.944 149.146 458.711 149.192 458.515 149.283C458.319 149.374 458.167 149.497 458.057 149.652C457.948 149.807 457.893 149.982 457.893 150.178H456.253C456.253 149.887 456.323 149.604 456.465 149.331C456.606 149.057 456.811 148.813 457.08 148.599C457.349 148.385 457.67 148.216 458.044 148.093C458.417 147.97 458.837 147.909 459.302 147.909C459.858 147.909 460.35 148.002 460.778 148.189C461.211 148.376 461.551 148.658 461.797 149.037C462.047 149.41 462.173 149.88 462.173 150.445V153.733C462.173 154.07 462.195 154.373 462.241 154.642C462.291 154.906 462.362 155.137 462.453 155.333V155.442H460.764C460.687 155.264 460.625 155.039 460.58 154.765C460.539 154.487 460.518 154.218 460.518 153.958ZM460.758 150.944L460.771 151.962H459.589C459.283 151.962 459.014 151.992 458.782 152.051C458.55 152.106 458.356 152.188 458.201 152.297C458.046 152.407 457.93 152.539 457.852 152.694C457.775 152.849 457.736 153.024 457.736 153.22C457.736 153.416 457.782 153.596 457.873 153.76C457.964 153.92 458.096 154.045 458.269 154.136C458.447 154.227 458.661 154.273 458.912 154.273C459.249 154.273 459.543 154.205 459.794 154.068C460.049 153.927 460.249 153.756 460.395 153.555C460.541 153.35 460.619 153.156 460.628 152.974L461.161 153.706C461.106 153.892 461.013 154.093 460.881 154.307C460.749 154.521 460.575 154.726 460.361 154.922C460.151 155.114 459.899 155.271 459.602 155.394C459.311 155.517 458.973 155.579 458.591 155.579C458.108 155.579 457.677 155.483 457.299 155.292C456.92 155.096 456.624 154.833 456.41 154.505C456.196 154.173 456.089 153.797 456.089 153.377C456.089 152.986 456.162 152.639 456.307 152.338C456.458 152.033 456.677 151.778 456.964 151.573C457.255 151.368 457.611 151.213 458.03 151.108C458.449 150.999 458.928 150.944 459.466 150.944H460.758ZM465.353 148.045L466.761 150.5L468.197 148.045H470.008L467.766 151.675L470.097 155.442H468.286L466.782 152.885L465.278 155.442H463.46L465.784 151.675L463.548 148.045H465.353Z" fill="white"/>
<rect x="406.5" y="175.942" width="90" height="31" rx="3.5" stroke="#81C995"/>
<path d="M442.646 187.815L439.672 196.442H437.874L441.62 186.489H442.769L442.646 187.815ZM445.134 196.442L442.154 187.815L442.024 186.489H443.179L446.939 196.442H445.134ZM444.99 192.75V194.111H439.576V192.75H444.99ZM453.414 195.116L456.032 197.194L454.918 198.171L452.348 196.114L453.414 195.116ZM456.053 191.192V191.739C456.053 192.491 455.955 193.165 455.759 193.762C455.563 194.359 455.283 194.867 454.918 195.287C454.553 195.706 454.118 196.027 453.612 196.25C453.106 196.469 452.546 196.579 451.931 196.579C451.32 196.579 450.762 196.469 450.256 196.25C449.755 196.027 449.319 195.706 448.95 195.287C448.581 194.867 448.294 194.359 448.089 193.762C447.888 193.165 447.788 192.491 447.788 191.739V191.192C447.788 190.44 447.888 189.768 448.089 189.175C448.289 188.578 448.572 188.07 448.937 187.651C449.306 187.227 449.741 186.906 450.242 186.687C450.748 186.464 451.306 186.352 451.917 186.352C452.532 186.352 453.093 186.464 453.599 186.687C454.109 186.906 454.547 187.227 454.911 187.651C455.276 188.07 455.556 188.578 455.752 189.175C455.952 189.768 456.053 190.44 456.053 191.192ZM454.33 191.739V191.178C454.33 190.622 454.275 190.132 454.166 189.708C454.061 189.28 453.904 188.922 453.694 188.635C453.489 188.344 453.236 188.125 452.936 187.979C452.639 187.829 452.3 187.753 451.917 187.753C451.543 187.753 451.208 187.829 450.912 187.979C450.616 188.125 450.363 188.344 450.153 188.635C449.944 188.922 449.784 189.28 449.675 189.708C449.565 190.132 449.511 190.622 449.511 191.178V191.739C449.511 192.295 449.565 192.787 449.675 193.215C449.784 193.644 449.944 194.006 450.153 194.302C450.368 194.594 450.623 194.815 450.919 194.965C451.22 195.111 451.557 195.184 451.931 195.184C452.313 195.184 452.653 195.111 452.949 194.965C453.245 194.815 453.496 194.594 453.701 194.302C453.906 194.006 454.061 193.644 454.166 193.215C454.275 192.787 454.33 192.295 454.33 191.739ZM461.817 186.489V196.442H460.115V186.489H461.817ZM464.941 186.489V187.856H457.018V186.489H464.941Z" fill="white"/>
</g>
<defs>
<filter id="filter0_dd_671_50" x="88.842" y="162" width="91.2332" height="18.6367" filterUnits="userSpaceOnUse" color-interpolation-filters="sRGB">
<feFlood flood-opacity="0" result="BackgroundImageFix"/>
<feColorMatrix in="SourceAlpha" type="matrix" values="0 0 0 0 0 0 0 0 0 0 0 0 0 0 0 0 0 0 127 0" result="hardAlpha"/>
<feOffset dy="1"/>
<feGaussianBlur stdDeviation="1"/>
<feColorMatrix type="matrix" values="0 0 0 0 0 0 0 0 0 0 0 0 0 0 0 0 0 0 0.3 0"/>
<feBlend mode="normal" in2="BackgroundImageFix" result="effect1_dropShadow_671_50"/>
<feColorMatrix in="SourceAlpha" type="matrix" values="0 0 0 0 0 0 0 0 0 0 0 0 0 0 0 0 0 0 127 0" result="hardAlpha"/>
<feMorphology radius="1" operator="dilate" in="SourceAlpha" result="effect2_dropShadow_671_50"/>
<feOffset dy="1"/>
<feGaussianBlur stdDeviation="1.5"/>
<feColorMatrix type="matrix" values="0 0 0 0 0 0 0 0 0 0 0 0 0 0 0 0 0 0 0.15 0"/>
<feBlend mode="normal" in2="effect1_dropShadow_671_50" result="effect2_dropShadow_671_50"/>
<feBlend mode="normal" in="SourceGraphic" in2="effect2_dropShadow_671_50" result="shape"/>
</filter>
<radialGradient id="paint0_radial_671_50" cx="0" cy="0" r="1" gradientUnits="userSpaceOnUse" gradientTransform="translate(163.5 307.5) rotate(90) scale(469.5)">
<stop stop-color="#5E97F6"/>
<stop offset="1" stop-color="#5E97F6" stop-opacity="0"/>
</radialGradient>
<clipPath id="clip0_671_50">
<rect width="598" height="340" rx="24" fill="white"/>
</clipPath>
</defs>
</svg>
