<svg width="598" height="340" viewBox="0 0 598 340" fill="none" xmlns="http://www.w3.org/2000/svg">
<g clip-path="url(#clip0_491_287)">
<rect width="598" height="340" rx="24" fill="#202124"/>
<circle cx="529.5" cy="60.5" r="469.5" fill="url(#paint0_radial_491_287)" fill-opacity="0.2"/>
<path d="M498.223 116H247.74H222.223L213 121.007V224.007V121.007H514.516V121.114L523.74 116.001V116H498.223Z" fill="#26A69A"/>
<path d="M514.516 121.114V224.007L523.74 219V116.001L514.516 121.114Z" fill="#01695C"/>
<path d="M514.516 121.007H213V224.007H514.516V121.007Z" fill="#E6F4EA"/>
<rect width="91" height="32" transform="translate(223 136.449)" fill="#CEEAD6"/>
<path d="M257.994 147.496V157.449H256.278V147.496H257.994ZM262.054 151.85V153.211H257.556V151.85H262.054ZM262.622 147.496V148.863H257.556V147.496H262.622ZM265.789 146.949V157.449H264.134V146.949H265.789ZM271.963 155.966V152.438C271.963 152.174 271.915 151.946 271.82 151.755C271.724 151.563 271.578 151.415 271.382 151.31C271.191 151.205 270.949 151.153 270.658 151.153C270.389 151.153 270.156 151.199 269.96 151.29C269.764 151.381 269.612 151.504 269.502 151.659C269.393 151.814 269.338 151.989 269.338 152.185H267.698C267.698 151.894 267.768 151.611 267.91 151.338C268.051 151.064 268.256 150.82 268.525 150.606C268.794 150.392 269.115 150.223 269.489 150.1C269.862 149.977 270.282 149.916 270.746 149.916C271.302 149.916 271.795 150.009 272.223 150.196C272.656 150.383 272.996 150.665 273.242 151.044C273.492 151.417 273.618 151.887 273.618 152.452V155.74C273.618 156.077 273.64 156.38 273.686 156.649C273.736 156.913 273.807 157.144 273.898 157.34V157.449H272.209C272.132 157.271 272.07 157.046 272.025 156.772C271.984 156.494 271.963 156.225 271.963 155.966ZM272.203 152.951L272.216 153.969H271.034C270.728 153.969 270.459 153.999 270.227 154.058C269.995 154.113 269.801 154.195 269.646 154.304C269.491 154.414 269.375 154.546 269.297 154.701C269.22 154.856 269.181 155.031 269.181 155.227C269.181 155.423 269.227 155.603 269.318 155.767C269.409 155.927 269.541 156.052 269.714 156.143C269.892 156.234 270.106 156.28 270.357 156.28C270.694 156.28 270.988 156.212 271.239 156.075C271.494 155.934 271.694 155.763 271.84 155.562C271.986 155.357 272.064 155.163 272.073 154.981L272.606 155.713C272.551 155.899 272.458 156.1 272.326 156.314C272.193 156.528 272.02 156.733 271.806 156.929C271.596 157.121 271.343 157.278 271.047 157.401C270.756 157.524 270.418 157.586 270.036 157.586C269.552 157.586 269.122 157.49 268.744 157.299C268.365 157.103 268.069 156.841 267.855 156.512C267.641 156.18 267.534 155.804 267.534 155.385C267.534 154.993 267.607 154.646 267.752 154.345C267.903 154.04 268.121 153.785 268.409 153.58C268.7 153.375 269.056 153.22 269.475 153.115C269.894 153.006 270.373 152.951 270.911 152.951H272.203ZM276.798 150.052L278.206 152.507L279.642 150.052H281.453L279.211 153.682L281.542 157.449H279.731L278.227 154.892L276.723 157.449H274.904L277.229 153.682L274.993 150.052H276.798Z" fill="#202124"/>
<rect width="91" height="32" transform="translate(223 177.449)" fill="#CEEAD6"/>
<path d="M240.233 195.462V188.496H241.942V195.462C241.942 196.122 241.801 196.685 241.518 197.15C241.236 197.615 240.851 197.97 240.363 198.217C239.875 198.463 239.322 198.586 238.702 198.586C238.068 198.586 237.506 198.479 237.013 198.264C236.526 198.05 236.143 197.722 235.865 197.28C235.587 196.838 235.448 196.277 235.448 195.598H237.171C237.171 195.99 237.232 196.307 237.355 196.549C237.483 196.786 237.661 196.959 237.888 197.068C238.121 197.173 238.392 197.225 238.702 197.225C238.998 197.225 239.26 197.159 239.488 197.027C239.721 196.89 239.903 196.692 240.035 196.432C240.167 196.168 240.233 195.844 240.233 195.462ZM247.214 198.586C246.668 198.586 246.173 198.497 245.731 198.319C245.294 198.137 244.92 197.884 244.61 197.56C244.305 197.237 244.07 196.856 243.906 196.419C243.742 195.981 243.66 195.51 243.66 195.004V194.73C243.66 194.151 243.744 193.627 243.913 193.158C244.081 192.689 244.316 192.288 244.617 191.955C244.918 191.618 245.273 191.36 245.683 191.182C246.093 191.005 246.538 190.916 247.016 190.916C247.545 190.916 248.007 191.005 248.404 191.182C248.8 191.36 249.129 191.611 249.388 191.934C249.653 192.253 249.849 192.634 249.976 193.076C250.108 193.518 250.174 194.006 250.174 194.539V195.243H244.46V194.06H248.547V193.93C248.538 193.634 248.479 193.356 248.37 193.096C248.265 192.837 248.103 192.627 247.884 192.468C247.666 192.308 247.374 192.228 247.009 192.228C246.736 192.228 246.492 192.288 246.278 192.406C246.068 192.52 245.893 192.686 245.752 192.905C245.61 193.124 245.501 193.388 245.423 193.698C245.351 194.003 245.314 194.347 245.314 194.73V195.004C245.314 195.327 245.357 195.628 245.444 195.906C245.535 196.179 245.667 196.419 245.84 196.624C246.014 196.829 246.223 196.991 246.469 197.109C246.715 197.223 246.996 197.28 247.31 197.28C247.707 197.28 248.06 197.2 248.37 197.041C248.68 196.881 248.949 196.656 249.176 196.364L250.045 197.205C249.885 197.437 249.678 197.661 249.422 197.875C249.167 198.084 248.855 198.255 248.486 198.387C248.121 198.52 247.698 198.586 247.214 198.586ZM255.05 191.052V192.256H250.88V191.052H255.05ZM252.083 189.241H253.731V196.405C253.731 196.633 253.763 196.808 253.827 196.931C253.895 197.05 253.988 197.13 254.107 197.171C254.225 197.212 254.364 197.232 254.524 197.232C254.638 197.232 254.747 197.225 254.852 197.212C254.957 197.198 255.041 197.184 255.105 197.171L255.112 198.428C254.975 198.469 254.815 198.506 254.633 198.538C254.455 198.57 254.25 198.586 254.018 198.586C253.64 198.586 253.305 198.52 253.013 198.387C252.721 198.251 252.494 198.03 252.329 197.724C252.165 197.419 252.083 197.013 252.083 196.508V189.241ZM261.922 195.885C261.922 195.68 261.89 195.498 261.826 195.339C261.767 195.179 261.66 195.033 261.505 194.901C261.35 194.769 261.131 194.641 260.849 194.518C260.571 194.391 260.215 194.261 259.782 194.129C259.308 193.983 258.871 193.821 258.47 193.643C258.073 193.461 257.727 193.251 257.431 193.014C257.135 192.773 256.904 192.497 256.74 192.187C256.576 191.873 256.494 191.51 256.494 191.1C256.494 190.695 256.579 190.326 256.747 189.993C256.92 189.66 257.164 189.373 257.479 189.132C257.798 188.885 258.174 188.696 258.607 188.564C259.04 188.427 259.518 188.359 260.042 188.359C260.78 188.359 261.416 188.496 261.949 188.769C262.487 189.043 262.9 189.41 263.187 189.87C263.478 190.33 263.624 190.838 263.624 191.394H261.922C261.922 191.066 261.851 190.777 261.71 190.526C261.573 190.271 261.364 190.07 261.081 189.925C260.803 189.779 260.45 189.706 260.022 189.706C259.616 189.706 259.279 189.767 259.01 189.89C258.741 190.013 258.541 190.18 258.408 190.389C258.276 190.599 258.21 190.836 258.21 191.1C258.21 191.287 258.253 191.458 258.34 191.613C258.427 191.763 258.559 191.905 258.737 192.037C258.914 192.164 259.138 192.285 259.406 192.399C259.675 192.513 259.992 192.622 260.357 192.727C260.908 192.891 261.389 193.074 261.799 193.274C262.209 193.47 262.551 193.693 262.824 193.944C263.098 194.195 263.303 194.48 263.44 194.799C263.576 195.113 263.645 195.471 263.645 195.872C263.645 196.291 263.56 196.669 263.392 197.007C263.223 197.339 262.982 197.624 262.667 197.861C262.357 198.094 261.984 198.274 261.546 198.401C261.113 198.524 260.63 198.586 260.097 198.586C259.618 198.586 259.147 198.522 258.682 198.394C258.222 198.267 257.802 198.073 257.424 197.813C257.046 197.549 256.745 197.221 256.522 196.829C256.298 196.432 256.187 195.97 256.187 195.441H257.903C257.903 195.765 257.957 196.04 258.067 196.268C258.181 196.496 258.338 196.683 258.538 196.829C258.739 196.97 258.971 197.075 259.236 197.143C259.504 197.212 259.792 197.246 260.097 197.246C260.498 197.246 260.833 197.189 261.102 197.075C261.375 196.961 261.58 196.802 261.717 196.596C261.854 196.391 261.922 196.154 261.922 195.885ZM268.589 191.052V192.256H264.419V191.052H268.589ZM265.622 189.241H267.27V196.405C267.27 196.633 267.301 196.808 267.365 196.931C267.434 197.05 267.527 197.13 267.646 197.171C267.764 197.212 267.903 197.232 268.062 197.232C268.176 197.232 268.286 197.225 268.391 197.212C268.495 197.198 268.58 197.184 268.644 197.171L268.65 198.428C268.514 198.469 268.354 198.506 268.172 198.538C267.994 198.57 267.789 198.586 267.557 198.586C267.178 198.586 266.843 198.52 266.552 198.387C266.26 198.251 266.032 198.03 265.868 197.724C265.704 197.419 265.622 197.013 265.622 196.508V189.241ZM271.715 192.461V198.449H270.067V191.052H271.639L271.715 192.461ZM273.977 191.005L273.964 192.536C273.863 192.518 273.754 192.504 273.636 192.495C273.522 192.486 273.408 192.481 273.294 192.481C273.011 192.481 272.763 192.522 272.549 192.604C272.334 192.682 272.154 192.796 272.009 192.946C271.867 193.092 271.758 193.27 271.68 193.479C271.603 193.689 271.557 193.924 271.544 194.183L271.168 194.211C271.168 193.746 271.213 193.315 271.304 192.919C271.396 192.522 271.532 192.174 271.715 191.873C271.901 191.572 272.134 191.337 272.412 191.169C272.694 191 273.02 190.916 273.389 190.916C273.49 190.916 273.597 190.925 273.711 190.943C273.829 190.961 273.918 190.982 273.977 191.005ZM278.334 198.586C277.787 198.586 277.292 198.497 276.85 198.319C276.413 198.137 276.039 197.884 275.729 197.56C275.424 197.237 275.189 196.856 275.025 196.419C274.861 195.981 274.779 195.51 274.779 195.004V194.73C274.779 194.151 274.863 193.627 275.032 193.158C275.2 192.689 275.435 192.288 275.736 191.955C276.037 191.618 276.392 191.36 276.802 191.182C277.213 191.005 277.657 190.916 278.135 190.916C278.664 190.916 279.127 191.005 279.523 191.182C279.92 191.36 280.248 191.611 280.507 191.934C280.772 192.253 280.968 192.634 281.095 193.076C281.227 193.518 281.294 194.006 281.294 194.539V195.243H275.579V194.06H279.667V193.93C279.657 193.634 279.598 193.356 279.489 193.096C279.384 192.837 279.222 192.627 279.004 192.468C278.785 192.308 278.493 192.228 278.129 192.228C277.855 192.228 277.611 192.288 277.397 192.406C277.187 192.52 277.012 192.686 276.871 192.905C276.729 193.124 276.62 193.388 276.543 193.698C276.47 194.003 276.433 194.347 276.433 194.73V195.004C276.433 195.327 276.476 195.628 276.563 195.906C276.654 196.179 276.786 196.419 276.96 196.624C277.133 196.829 277.342 196.991 277.588 197.109C277.835 197.223 278.115 197.28 278.429 197.28C278.826 197.28 279.179 197.2 279.489 197.041C279.799 196.881 280.068 196.656 280.296 196.364L281.164 197.205C281.004 197.437 280.797 197.661 280.542 197.875C280.286 198.084 279.974 198.255 279.605 198.387C279.24 198.52 278.817 198.586 278.334 198.586ZM286.949 196.966V193.438C286.949 193.174 286.901 192.946 286.805 192.755C286.709 192.563 286.564 192.415 286.368 192.31C286.176 192.205 285.935 192.153 285.643 192.153C285.374 192.153 285.142 192.199 284.946 192.29C284.75 192.381 284.597 192.504 284.488 192.659C284.378 192.814 284.324 192.989 284.324 193.185H282.683C282.683 192.894 282.754 192.611 282.895 192.338C283.036 192.064 283.241 191.82 283.51 191.606C283.779 191.392 284.1 191.223 284.474 191.1C284.848 190.977 285.267 190.916 285.732 190.916C286.288 190.916 286.78 191.009 287.208 191.196C287.641 191.383 287.981 191.665 288.227 192.044C288.478 192.417 288.603 192.887 288.603 193.452V196.74C288.603 197.077 288.626 197.38 288.671 197.649C288.721 197.913 288.792 198.144 288.883 198.34V198.449H287.195C287.117 198.271 287.056 198.046 287.01 197.772C286.969 197.494 286.949 197.225 286.949 196.966ZM287.188 193.951L287.202 194.969H286.019C285.714 194.969 285.445 194.999 285.212 195.058C284.98 195.113 284.786 195.195 284.631 195.304C284.476 195.414 284.36 195.546 284.283 195.701C284.205 195.856 284.166 196.031 284.166 196.227C284.166 196.423 284.212 196.603 284.303 196.767C284.394 196.927 284.526 197.052 284.7 197.143C284.877 197.234 285.092 197.28 285.342 197.28C285.679 197.28 285.973 197.212 286.224 197.075C286.479 196.934 286.68 196.763 286.826 196.562C286.971 196.357 287.049 196.163 287.058 195.981L287.591 196.713C287.537 196.899 287.443 197.1 287.311 197.314C287.179 197.528 287.006 197.733 286.791 197.929C286.582 198.121 286.329 198.278 286.033 198.401C285.741 198.524 285.404 198.586 285.021 198.586C284.538 198.586 284.107 198.49 283.729 198.299C283.351 198.103 283.054 197.841 282.84 197.512C282.626 197.18 282.519 196.804 282.519 196.385C282.519 195.993 282.592 195.646 282.738 195.345C282.888 195.04 283.107 194.785 283.394 194.58C283.686 194.375 284.041 194.22 284.46 194.115C284.88 194.006 285.358 193.951 285.896 193.951H287.188ZM292.173 192.556V198.449H290.526V191.052H292.077L292.173 192.556ZM291.906 194.477L291.346 194.47C291.346 193.96 291.41 193.488 291.537 193.055C291.665 192.622 291.852 192.247 292.098 191.927C292.344 191.604 292.649 191.356 293.014 191.182C293.383 191.005 293.809 190.916 294.292 190.916C294.629 190.916 294.937 190.966 295.215 191.066C295.498 191.162 295.741 191.315 295.946 191.524C296.156 191.734 296.316 192.003 296.425 192.331C296.539 192.659 296.596 193.055 296.596 193.52V198.449H294.948V193.664C294.948 193.304 294.894 193.021 294.784 192.816C294.68 192.611 294.527 192.465 294.326 192.379C294.13 192.288 293.896 192.242 293.622 192.242C293.312 192.242 293.048 192.301 292.829 192.42C292.615 192.538 292.44 192.7 292.303 192.905C292.166 193.11 292.066 193.347 292.002 193.616C291.938 193.885 291.906 194.172 291.906 194.477ZM296.493 194.04L295.721 194.211C295.721 193.764 295.782 193.343 295.905 192.946C296.033 192.545 296.218 192.194 296.459 191.893C296.705 191.588 297.008 191.349 297.368 191.176C297.728 191.002 298.141 190.916 298.606 190.916C298.984 190.916 299.321 190.968 299.617 191.073C299.918 191.173 300.173 191.333 300.383 191.552C300.593 191.77 300.752 192.055 300.862 192.406C300.971 192.752 301.026 193.172 301.026 193.664V198.449H299.371V193.657C299.371 193.283 299.317 192.994 299.207 192.789C299.102 192.584 298.952 192.442 298.756 192.365C298.56 192.283 298.325 192.242 298.052 192.242C297.797 192.242 297.571 192.29 297.375 192.385C297.184 192.477 297.022 192.607 296.89 192.775C296.758 192.939 296.657 193.128 296.589 193.343C296.525 193.557 296.493 193.789 296.493 194.04Z" fill="#202124"/>
<rect width="91" height="32" transform="translate(318 136.449)" fill="#CEEAD6"/>
<path d="M346.562 150.052V151.256H342.392V150.052H346.562ZM343.595 148.241H345.243V155.405C345.243 155.633 345.275 155.808 345.338 155.931C345.407 156.05 345.5 156.13 345.619 156.171C345.737 156.212 345.876 156.232 346.036 156.232C346.15 156.232 346.259 156.225 346.364 156.212C346.469 156.198 346.553 156.184 346.617 156.171L346.624 157.428C346.487 157.469 346.327 157.506 346.145 157.538C345.967 157.57 345.762 157.586 345.53 157.586C345.152 157.586 344.817 157.52 344.525 157.387C344.233 157.251 344.005 157.03 343.841 156.724C343.677 156.419 343.595 156.013 343.595 155.508V148.241ZM350.262 157.449H348.615V149.342C348.615 148.79 348.717 148.328 348.922 147.954C349.132 147.576 349.43 147.291 349.818 147.099C350.205 146.903 350.663 146.805 351.192 146.805C351.356 146.805 351.518 146.817 351.677 146.84C351.837 146.858 351.992 146.887 352.142 146.928L352.101 148.2C352.01 148.177 351.91 148.161 351.8 148.152C351.695 148.143 351.581 148.138 351.458 148.138C351.208 148.138 350.991 148.186 350.809 148.282C350.631 148.373 350.495 148.508 350.399 148.685C350.308 148.863 350.262 149.082 350.262 149.342V157.449ZM351.787 150.052V151.256H347.48V150.052H351.787ZM353.251 156.629C353.251 156.373 353.338 156.159 353.511 155.986C353.684 155.808 353.919 155.719 354.215 155.719C354.516 155.719 354.751 155.808 354.919 155.986C355.092 156.159 355.179 156.373 355.179 156.629C355.179 156.884 355.092 157.098 354.919 157.271C354.751 157.444 354.516 157.531 354.215 157.531C353.919 157.531 353.684 157.444 353.511 157.271C353.338 157.098 353.251 156.884 353.251 156.629ZM361.791 155.918V146.949H363.445V157.449H361.948L361.791 155.918ZM356.979 153.833V153.689C356.979 153.129 357.045 152.618 357.177 152.158C357.309 151.693 357.5 151.294 357.751 150.962C358.002 150.624 358.307 150.367 358.667 150.189C359.027 150.007 359.433 149.916 359.884 149.916C360.33 149.916 360.722 150.002 361.06 150.176C361.397 150.349 361.684 150.597 361.921 150.921C362.158 151.24 362.347 151.622 362.488 152.069C362.63 152.511 362.73 153.003 362.789 153.546V154.004C362.73 154.532 362.63 155.015 362.488 155.453C362.347 155.89 362.158 156.269 361.921 156.588C361.684 156.907 361.395 157.153 361.053 157.326C360.715 157.499 360.321 157.586 359.87 157.586C359.424 157.586 359.02 157.492 358.66 157.305C358.305 157.119 358.002 156.857 357.751 156.519C357.5 156.182 357.309 155.786 357.177 155.33C357.045 154.87 356.979 154.371 356.979 153.833ZM358.626 153.689V153.833C358.626 154.17 358.656 154.484 358.715 154.776C358.779 155.068 358.877 155.325 359.009 155.549C359.141 155.767 359.312 155.941 359.521 156.068C359.736 156.191 359.991 156.253 360.287 156.253C360.661 156.253 360.968 156.171 361.21 156.007C361.451 155.843 361.641 155.622 361.777 155.344C361.919 155.061 362.014 154.747 362.064 154.4V153.163C362.037 152.894 361.98 152.643 361.894 152.411C361.812 152.178 361.7 151.976 361.559 151.802C361.417 151.625 361.242 151.488 361.032 151.392C360.827 151.292 360.583 151.242 360.301 151.242C360 151.242 359.745 151.306 359.535 151.433C359.326 151.561 359.152 151.736 359.016 151.96C358.883 152.183 358.785 152.443 358.722 152.739C358.658 153.035 358.626 153.352 358.626 153.689ZM369.538 155.966V152.438C369.538 152.174 369.49 151.946 369.394 151.755C369.299 151.563 369.153 151.415 368.957 151.31C368.765 151.205 368.524 151.153 368.232 151.153C367.963 151.153 367.731 151.199 367.535 151.29C367.339 151.381 367.186 151.504 367.077 151.659C366.968 151.814 366.913 151.989 366.913 152.185H365.272C365.272 151.894 365.343 151.611 365.484 151.338C365.625 151.064 365.831 150.82 366.099 150.606C366.368 150.392 366.69 150.223 367.063 150.1C367.437 149.977 367.856 149.916 368.321 149.916C368.877 149.916 369.369 150.009 369.798 150.196C370.231 150.383 370.57 150.665 370.816 151.044C371.067 151.417 371.192 151.887 371.192 152.452V155.74C371.192 156.077 371.215 156.38 371.261 156.649C371.311 156.913 371.381 157.144 371.472 157.34V157.449H369.784C369.707 157.271 369.645 157.046 369.599 156.772C369.558 156.494 369.538 156.225 369.538 155.966ZM369.777 152.951L369.791 153.969H368.608C368.303 153.969 368.034 153.999 367.802 154.058C367.569 154.113 367.375 154.195 367.221 154.304C367.066 154.414 366.949 154.546 366.872 154.701C366.794 154.856 366.756 155.031 366.756 155.227C366.756 155.423 366.801 155.603 366.892 155.767C366.984 155.927 367.116 156.052 367.289 156.143C367.467 156.234 367.681 156.28 367.931 156.28C368.269 156.28 368.563 156.212 368.813 156.075C369.068 155.934 369.269 155.763 369.415 155.562C369.561 155.357 369.638 155.163 369.647 154.981L370.18 155.713C370.126 155.899 370.032 156.1 369.9 156.314C369.768 156.528 369.595 156.733 369.381 156.929C369.171 157.121 368.918 157.278 368.622 157.401C368.33 157.524 367.993 157.586 367.61 157.586C367.127 157.586 366.696 157.49 366.318 157.299C365.94 157.103 365.644 156.841 365.429 156.512C365.215 156.18 365.108 155.804 365.108 155.385C365.108 154.993 365.181 154.646 365.327 154.345C365.477 154.04 365.696 153.785 365.983 153.58C366.275 153.375 366.63 153.22 367.05 153.115C367.469 153.006 367.947 152.951 368.485 152.951H369.777ZM376.505 150.052V151.256H372.336V150.052H376.505ZM373.539 148.241H375.186V155.405C375.186 155.633 375.218 155.808 375.282 155.931C375.35 156.05 375.444 156.13 375.562 156.171C375.681 156.212 375.82 156.232 375.979 156.232C376.093 156.232 376.202 156.225 376.307 156.212C376.412 156.198 376.496 156.184 376.56 156.171L376.567 157.428C376.43 157.469 376.271 157.506 376.088 157.538C375.911 157.57 375.706 157.586 375.473 157.586C375.095 157.586 374.76 157.52 374.468 157.387C374.177 157.251 373.949 157.03 373.785 156.724C373.621 156.419 373.539 156.013 373.539 155.508V148.241ZM382.147 155.966V152.438C382.147 152.174 382.099 151.946 382.003 151.755C381.908 151.563 381.762 151.415 381.566 151.31C381.374 151.205 381.133 151.153 380.841 151.153C380.572 151.153 380.34 151.199 380.144 151.29C379.948 151.381 379.795 151.504 379.686 151.659C379.577 151.814 379.522 151.989 379.522 152.185H377.881C377.881 151.894 377.952 151.611 378.093 151.338C378.234 151.064 378.44 150.82 378.708 150.606C378.977 150.392 379.299 150.223 379.672 150.1C380.046 149.977 380.465 149.916 380.93 149.916C381.486 149.916 381.978 150.009 382.407 150.196C382.84 150.383 383.179 150.665 383.425 151.044C383.676 151.417 383.801 151.887 383.801 152.452V155.74C383.801 156.077 383.824 156.38 383.87 156.649C383.92 156.913 383.99 157.144 384.081 157.34V157.449H382.393C382.315 157.271 382.254 157.046 382.208 156.772C382.167 156.494 382.147 156.225 382.147 155.966ZM382.386 152.951L382.4 153.969H381.217C380.912 153.969 380.643 153.999 380.411 154.058C380.178 154.113 379.984 154.195 379.829 154.304C379.675 154.414 379.558 154.546 379.481 154.701C379.403 154.856 379.365 155.031 379.365 155.227C379.365 155.423 379.41 155.603 379.501 155.767C379.593 155.927 379.725 156.052 379.898 156.143C380.076 156.234 380.29 156.28 380.54 156.28C380.878 156.28 381.172 156.212 381.422 156.075C381.677 155.934 381.878 155.763 382.024 155.562C382.17 155.357 382.247 155.163 382.256 154.981L382.789 155.713C382.735 155.899 382.641 156.1 382.509 156.314C382.377 156.528 382.204 156.733 381.99 156.929C381.78 157.121 381.527 157.278 381.231 157.401C380.939 157.524 380.602 157.586 380.219 157.586C379.736 157.586 379.305 157.49 378.927 157.299C378.549 157.103 378.253 156.841 378.038 156.512C377.824 156.18 377.717 155.804 377.717 155.385C377.717 154.993 377.79 154.646 377.936 154.345C378.086 154.04 378.305 153.785 378.592 153.58C378.884 153.375 379.239 153.22 379.659 153.115C380.078 153.006 380.556 152.951 381.094 152.951H382.386Z" fill="#202124"/>
<rect width="91" height="32" transform="translate(318 177.449)" fill="#CEEAD6"/>
<path d="M353.516 193.199V193.746C353.516 194.498 353.418 195.172 353.222 195.769C353.026 196.366 352.746 196.874 352.381 197.294C352.021 197.713 351.588 198.034 351.082 198.258C350.577 198.476 350.016 198.586 349.401 198.586C348.79 198.586 348.232 198.476 347.726 198.258C347.225 198.034 346.789 197.713 346.42 197.294C346.051 196.874 345.764 196.366 345.559 195.769C345.358 195.172 345.258 194.498 345.258 193.746V193.199C345.258 192.447 345.358 191.775 345.559 191.182C345.76 190.585 346.042 190.077 346.407 189.658C346.776 189.234 347.211 188.913 347.712 188.694C348.218 188.471 348.776 188.359 349.387 188.359C350.002 188.359 350.563 188.471 351.069 188.694C351.575 188.913 352.01 189.234 352.374 189.658C352.739 190.077 353.019 190.585 353.215 191.182C353.416 191.775 353.516 192.447 353.516 193.199ZM351.8 193.746V193.185C351.8 192.629 351.746 192.139 351.636 191.716C351.531 191.287 351.374 190.929 351.164 190.642C350.959 190.351 350.706 190.132 350.406 189.986C350.105 189.836 349.765 189.76 349.387 189.76C349.009 189.76 348.672 189.836 348.375 189.986C348.079 190.132 347.826 190.351 347.617 190.642C347.412 190.929 347.254 191.287 347.145 191.716C347.036 192.139 346.981 192.629 346.981 193.185V193.746C346.981 194.302 347.036 194.794 347.145 195.222C347.254 195.651 347.414 196.013 347.623 196.309C347.838 196.601 348.093 196.822 348.389 196.972C348.685 197.118 349.023 197.191 349.401 197.191C349.784 197.191 350.123 197.118 350.419 196.972C350.716 196.822 350.966 196.601 351.171 196.309C351.376 196.013 351.531 195.651 351.636 195.222C351.746 194.794 351.8 194.302 351.8 193.746ZM356.922 192.461V198.449H355.275V191.052H356.847L356.922 192.461ZM359.185 191.005L359.171 192.536C359.071 192.518 358.961 192.504 358.843 192.495C358.729 192.486 358.615 192.481 358.501 192.481C358.219 192.481 357.97 192.522 357.756 192.604C357.542 192.682 357.362 192.796 357.216 192.946C357.075 193.092 356.965 193.27 356.888 193.479C356.81 193.689 356.765 193.924 356.751 194.183L356.375 194.211C356.375 193.746 356.421 193.315 356.512 192.919C356.603 192.522 356.74 192.174 356.922 191.873C357.109 191.572 357.341 191.337 357.619 191.169C357.902 191 358.228 190.916 358.597 190.916C358.697 190.916 358.804 190.925 358.918 190.943C359.037 190.961 359.126 190.982 359.185 191.005ZM360.424 187.949H362.071V196.87L361.914 198.449H360.424V187.949ZM366.897 194.682V194.826C366.897 195.373 366.836 195.876 366.713 196.337C366.594 196.792 366.412 197.189 366.166 197.526C365.924 197.863 365.624 198.125 365.264 198.312C364.908 198.495 364.496 198.586 364.026 198.586C363.566 198.586 363.165 198.499 362.823 198.326C362.481 198.153 362.194 197.907 361.962 197.588C361.734 197.269 361.549 196.888 361.408 196.446C361.267 196.004 361.167 195.516 361.107 194.983V194.525C361.167 193.987 361.267 193.5 361.408 193.062C361.549 192.62 361.734 192.24 361.962 191.921C362.194 191.597 362.479 191.349 362.816 191.176C363.158 191.002 363.557 190.916 364.013 190.916C364.487 190.916 364.904 191.007 365.264 191.189C365.628 191.372 365.931 191.631 366.173 191.969C366.414 192.301 366.594 192.698 366.713 193.158C366.836 193.618 366.897 194.126 366.897 194.682ZM365.25 194.826V194.682C365.25 194.35 365.223 194.038 365.168 193.746C365.113 193.45 365.022 193.19 364.895 192.967C364.771 192.743 364.603 192.568 364.389 192.44C364.179 192.308 363.917 192.242 363.603 192.242C363.311 192.242 363.06 192.292 362.851 192.392C362.641 192.493 362.465 192.629 362.324 192.802C362.183 192.976 362.071 193.176 361.989 193.404C361.912 193.632 361.859 193.878 361.832 194.142V195.38C361.873 195.721 361.96 196.036 362.092 196.323C362.229 196.606 362.42 196.833 362.666 197.007C362.912 197.175 363.229 197.26 363.616 197.26C363.922 197.26 364.179 197.198 364.389 197.075C364.598 196.952 364.765 196.781 364.888 196.562C365.015 196.339 365.106 196.079 365.161 195.783C365.22 195.487 365.25 195.168 365.25 194.826ZM372.662 196.966V193.438C372.662 193.174 372.614 192.946 372.518 192.755C372.423 192.563 372.277 192.415 372.081 192.31C371.889 192.205 371.648 192.153 371.356 192.153C371.087 192.153 370.855 192.199 370.659 192.29C370.463 192.381 370.31 192.504 370.201 192.659C370.092 192.814 370.037 192.989 370.037 193.185H368.396C368.396 192.894 368.467 192.611 368.608 192.338C368.749 192.064 368.955 191.82 369.223 191.606C369.492 191.392 369.814 191.223 370.187 191.1C370.561 190.977 370.98 190.916 371.445 190.916C372.001 190.916 372.493 191.009 372.922 191.196C373.355 191.383 373.694 191.665 373.94 192.044C374.191 192.417 374.316 192.887 374.316 193.452V196.74C374.316 197.077 374.339 197.38 374.385 197.649C374.435 197.913 374.505 198.144 374.596 198.34V198.449H372.908C372.831 198.271 372.769 198.046 372.723 197.772C372.682 197.494 372.662 197.225 372.662 196.966ZM372.901 193.951L372.915 194.969H371.732C371.427 194.969 371.158 194.999 370.926 195.058C370.693 195.113 370.499 195.195 370.345 195.304C370.19 195.414 370.073 195.546 369.996 195.701C369.918 195.856 369.88 196.031 369.88 196.227C369.88 196.423 369.925 196.603 370.016 196.767C370.108 196.927 370.24 197.052 370.413 197.143C370.591 197.234 370.805 197.28 371.055 197.28C371.393 197.28 371.687 197.212 371.937 197.075C372.193 196.934 372.393 196.763 372.539 196.562C372.685 196.357 372.762 196.163 372.771 195.981L373.304 196.713C373.25 196.899 373.156 197.1 373.024 197.314C372.892 197.528 372.719 197.733 372.505 197.929C372.295 198.121 372.042 198.278 371.746 198.401C371.454 198.524 371.117 198.586 370.734 198.586C370.251 198.586 369.82 198.49 369.442 198.299C369.064 198.103 368.768 197.841 368.554 197.512C368.339 197.18 368.232 196.804 368.232 196.385C368.232 195.993 368.305 195.646 368.451 195.345C368.601 195.04 368.82 194.785 369.107 194.58C369.399 194.375 369.754 194.22 370.174 194.115C370.593 194.006 371.071 193.951 371.609 193.951H372.901ZM377.497 191.052L378.905 193.507L380.34 191.052H382.152L379.91 194.682L382.241 198.449H380.429L378.925 195.892L377.421 198.449H375.603L377.927 194.682L375.692 191.052H377.497Z" fill="#202124"/>
<rect width="91" height="32" transform="translate(413 136.449)" fill="#CEEAD6"/>
<path d="M448.66 152.199V152.746C448.66 153.498 448.562 154.172 448.366 154.769C448.17 155.366 447.889 155.874 447.525 156.294C447.165 156.713 446.732 157.034 446.226 157.258C445.72 157.476 445.16 157.586 444.544 157.586C443.934 157.586 443.375 157.476 442.87 157.258C442.368 157.034 441.933 156.713 441.564 156.294C441.195 155.874 440.908 155.366 440.703 154.769C440.502 154.172 440.402 153.498 440.402 152.746V152.199C440.402 151.447 440.502 150.775 440.703 150.182C440.903 149.585 441.186 149.077 441.55 148.658C441.919 148.234 442.355 147.913 442.856 147.694C443.362 147.471 443.92 147.359 444.531 147.359C445.146 147.359 445.706 147.471 446.212 147.694C446.718 147.913 447.153 148.234 447.518 148.658C447.883 149.077 448.163 149.585 448.359 150.182C448.559 150.775 448.66 151.447 448.66 152.199ZM446.944 152.746V152.185C446.944 151.629 446.889 151.139 446.78 150.716C446.675 150.287 446.518 149.929 446.308 149.642C446.103 149.351 445.85 149.132 445.549 148.986C445.248 148.836 444.909 148.76 444.531 148.76C444.152 148.76 443.815 148.836 443.519 148.986C443.223 149.132 442.97 149.351 442.76 149.642C442.555 149.929 442.398 150.287 442.288 150.716C442.179 151.139 442.124 151.629 442.124 152.185V152.746C442.124 153.302 442.179 153.794 442.288 154.222C442.398 154.651 442.557 155.013 442.767 155.309C442.981 155.601 443.236 155.822 443.533 155.972C443.829 156.118 444.166 156.191 444.544 156.191C444.927 156.191 445.267 156.118 445.563 155.972C445.859 155.822 446.11 155.601 446.315 155.309C446.52 155.013 446.675 154.651 446.78 154.222C446.889 153.794 446.944 153.302 446.944 152.746ZM452.066 151.474V160.293H450.418V150.052H451.936L452.066 151.474ZM456.885 153.682V153.826C456.885 154.364 456.821 154.863 456.694 155.323C456.571 155.779 456.386 156.177 456.14 156.519C455.898 156.857 455.6 157.119 455.244 157.305C454.889 157.492 454.479 157.586 454.014 157.586C453.554 157.586 453.15 157.501 452.804 157.333C452.462 157.16 452.173 156.916 451.936 156.601C451.699 156.287 451.507 155.918 451.362 155.494C451.22 155.066 451.12 154.596 451.061 154.086V153.532C451.12 152.99 451.22 152.497 451.362 152.055C451.507 151.613 451.699 151.233 451.936 150.914C452.173 150.595 452.462 150.349 452.804 150.176C453.146 150.002 453.544 149.916 454 149.916C454.465 149.916 454.877 150.007 455.238 150.189C455.598 150.367 455.901 150.622 456.147 150.955C456.393 151.283 456.577 151.679 456.7 152.144C456.823 152.605 456.885 153.117 456.885 153.682ZM455.238 153.826V153.682C455.238 153.341 455.206 153.024 455.142 152.732C455.078 152.436 454.978 152.176 454.841 151.953C454.704 151.73 454.529 151.556 454.315 151.433C454.105 151.306 453.852 151.242 453.556 151.242C453.264 151.242 453.014 151.292 452.804 151.392C452.594 151.488 452.419 151.622 452.278 151.796C452.136 151.969 452.027 152.172 451.949 152.404C451.872 152.632 451.817 152.88 451.785 153.149V154.475C451.84 154.803 451.933 155.104 452.066 155.378C452.198 155.651 452.385 155.87 452.626 156.034C452.872 156.193 453.187 156.273 453.57 156.273C453.866 156.273 454.119 156.209 454.328 156.082C454.538 155.954 454.709 155.779 454.841 155.555C454.978 155.328 455.078 155.066 455.142 154.769C455.206 154.473 455.238 154.159 455.238 153.826ZM461.877 150.052V151.256H457.707V150.052H461.877ZM458.91 148.241H460.558V155.405C460.558 155.633 460.59 155.808 460.653 155.931C460.722 156.05 460.815 156.13 460.934 156.171C461.052 156.212 461.191 156.232 461.351 156.232C461.465 156.232 461.574 156.225 461.679 156.212C461.784 156.198 461.868 156.184 461.932 156.171L461.938 157.428C461.802 157.469 461.642 157.506 461.46 157.538C461.282 157.57 461.077 157.586 460.845 157.586C460.466 157.586 460.132 157.52 459.84 157.387C459.548 157.251 459.32 157.03 459.156 156.724C458.992 156.419 458.91 156.013 458.91 155.508V148.241ZM467.518 155.966V152.438C467.518 152.174 467.471 151.946 467.375 151.755C467.279 151.563 467.133 151.415 466.937 151.31C466.746 151.205 466.504 151.153 466.213 151.153C465.944 151.153 465.711 151.199 465.515 151.29C465.319 151.381 465.167 151.504 465.057 151.659C464.948 151.814 464.893 151.989 464.893 152.185H463.253C463.253 151.894 463.323 151.611 463.465 151.338C463.606 151.064 463.811 150.82 464.08 150.606C464.349 150.392 464.67 150.223 465.044 150.1C465.417 149.977 465.837 149.916 466.302 149.916C466.858 149.916 467.35 150.009 467.778 150.196C468.211 150.383 468.551 150.665 468.797 151.044C469.047 151.417 469.173 151.887 469.173 152.452V155.74C469.173 156.077 469.195 156.38 469.241 156.649C469.291 156.913 469.362 157.144 469.453 157.34V157.449H467.764C467.687 157.271 467.625 157.046 467.58 156.772C467.539 156.494 467.518 156.225 467.518 155.966ZM467.758 152.951L467.771 153.969H466.589C466.283 153.969 466.014 153.999 465.782 154.058C465.55 154.113 465.356 154.195 465.201 154.304C465.046 154.414 464.93 154.546 464.852 154.701C464.775 154.856 464.736 155.031 464.736 155.227C464.736 155.423 464.782 155.603 464.873 155.767C464.964 155.927 465.096 156.052 465.269 156.143C465.447 156.234 465.661 156.28 465.912 156.28C466.249 156.28 466.543 156.212 466.794 156.075C467.049 155.934 467.249 155.763 467.395 155.562C467.541 155.357 467.619 155.163 467.628 154.981L468.161 155.713C468.106 155.899 468.013 156.1 467.881 156.314C467.749 156.528 467.575 156.733 467.361 156.929C467.151 157.121 466.899 157.278 466.602 157.401C466.311 157.524 465.973 157.586 465.591 157.586C465.108 157.586 464.677 157.49 464.299 157.299C463.92 157.103 463.624 156.841 463.41 156.512C463.196 156.18 463.089 155.804 463.089 155.385C463.089 154.993 463.162 154.646 463.307 154.345C463.458 154.04 463.677 153.785 463.964 153.58C464.255 153.375 464.611 153.22 465.03 153.115C465.449 153.006 465.928 152.951 466.466 152.951H467.758ZM472.353 150.052L473.761 152.507L475.197 150.052H477.008L474.766 153.682L477.097 157.449H475.286L473.782 154.892L472.278 157.449H470.46L472.784 153.682L470.548 150.052H472.353Z" fill="#202124"/>
<rect width="91" height="32" transform="translate(413 177.449)" fill="#CEEAD6"/>
<path d="M449.646 189.822L446.672 198.449H444.874L448.62 188.496H449.769L449.646 189.822ZM452.134 198.449L449.154 189.822L449.024 188.496H450.179L453.939 198.449H452.134ZM451.99 194.758V196.118H446.576V194.758H451.99ZM460.414 197.123L463.032 199.201L461.918 200.178L459.348 198.121L460.414 197.123ZM463.053 193.199V193.746C463.053 194.498 462.955 195.172 462.759 195.769C462.563 196.366 462.283 196.874 461.918 197.294C461.553 197.713 461.118 198.034 460.612 198.258C460.106 198.476 459.546 198.586 458.931 198.586C458.32 198.586 457.762 198.476 457.256 198.258C456.755 198.034 456.319 197.713 455.95 197.294C455.581 196.874 455.294 196.366 455.089 195.769C454.888 195.172 454.788 194.498 454.788 193.746V193.199C454.788 192.447 454.888 191.775 455.089 191.182C455.289 190.585 455.572 190.077 455.937 189.658C456.306 189.234 456.741 188.913 457.242 188.694C457.748 188.471 458.306 188.359 458.917 188.359C459.532 188.359 460.093 188.471 460.599 188.694C461.109 188.913 461.547 189.234 461.911 189.658C462.276 190.077 462.556 190.585 462.752 191.182C462.952 191.775 463.053 192.447 463.053 193.199ZM461.33 193.746V193.185C461.33 192.629 461.275 192.139 461.166 191.716C461.061 191.287 460.904 190.929 460.694 190.642C460.489 190.351 460.236 190.132 459.936 189.986C459.639 189.836 459.3 189.76 458.917 189.76C458.543 189.76 458.208 189.836 457.912 189.986C457.616 190.132 457.363 190.351 457.153 190.642C456.944 190.929 456.784 191.287 456.675 191.716C456.565 192.139 456.511 192.629 456.511 193.185V193.746C456.511 194.302 456.565 194.794 456.675 195.222C456.784 195.651 456.944 196.013 457.153 196.309C457.368 196.601 457.623 196.822 457.919 196.972C458.22 197.118 458.557 197.191 458.931 197.191C459.313 197.191 459.653 197.118 459.949 196.972C460.245 196.822 460.496 196.601 460.701 196.309C460.906 196.013 461.061 195.651 461.166 195.222C461.275 194.794 461.33 194.302 461.33 193.746ZM468.817 188.496V198.449H467.115V188.496H468.817ZM471.941 188.496V189.863H464.018V188.496H471.941Z" fill="#202124"/>
<g filter="url(#filter0_dd_491_287)">
<path d="M82.5793 174.76H84.2883C84.2336 175.411 84.0513 175.993 83.7414 176.503C83.4315 177.009 82.9963 177.408 82.4357 177.699C81.8752 177.991 81.1939 178.137 80.3918 178.137C79.7766 178.137 79.2229 178.027 78.7307 177.809C78.2385 177.585 77.8169 177.271 77.466 176.865C77.1151 176.455 76.8462 175.961 76.6594 175.382C76.4771 174.803 76.3859 174.156 76.3859 173.44V172.613C76.3859 171.898 76.4794 171.251 76.6662 170.672C76.8576 170.093 77.1311 169.599 77.4865 169.188C77.842 168.774 78.2681 168.457 78.7648 168.238C79.2661 168.02 79.829 167.91 80.4533 167.91C81.2463 167.91 81.9162 168.056 82.4631 168.348C83.01 168.639 83.4338 169.043 83.7346 169.558C84.0399 170.073 84.2268 170.663 84.2951 171.328H82.5861C82.5406 170.9 82.4403 170.533 82.2854 170.228C82.135 169.922 81.9117 169.69 81.6154 169.53C81.3192 169.366 80.9318 169.284 80.4533 169.284C80.0614 169.284 79.7196 169.357 79.4279 169.503C79.1363 169.649 78.8925 169.863 78.6965 170.146C78.5005 170.428 78.3524 170.777 78.2522 171.191C78.1564 171.602 78.1086 172.071 78.1086 172.6V173.44C78.1086 173.942 78.1519 174.397 78.2385 174.808C78.3296 175.213 78.4663 175.562 78.6486 175.854C78.8355 176.145 79.0725 176.371 79.3596 176.53C79.6467 176.69 79.9908 176.77 80.3918 176.77C80.8794 176.77 81.2736 176.692 81.5744 176.537C81.8798 176.382 82.1099 176.157 82.2648 175.86C82.4244 175.56 82.5292 175.193 82.5793 174.76ZM85.5684 174.384V174.227C85.5684 173.693 85.6458 173.199 85.8008 172.743C85.9557 172.283 86.179 171.884 86.4707 171.547C86.7669 171.205 87.127 170.941 87.5508 170.754C87.9792 170.562 88.4622 170.467 89 170.467C89.5423 170.467 90.0254 170.562 90.4492 170.754C90.8776 170.941 91.2399 171.205 91.5361 171.547C91.8324 171.884 92.0579 172.283 92.2129 172.743C92.3678 173.199 92.4453 173.693 92.4453 174.227V174.384C92.4453 174.917 92.3678 175.411 92.2129 175.867C92.0579 176.323 91.8324 176.722 91.5361 177.063C91.2399 177.401 90.8799 177.665 90.4561 177.856C90.0322 178.043 89.5514 178.137 89.0137 178.137C88.4714 178.137 87.986 178.043 87.5576 177.856C87.1338 177.665 86.7738 177.401 86.4775 177.063C86.1813 176.722 85.9557 176.323 85.8008 175.867C85.6458 175.411 85.5684 174.917 85.5684 174.384ZM87.2158 174.227V174.384C87.2158 174.716 87.25 175.031 87.3184 175.327C87.3867 175.623 87.4938 175.883 87.6397 176.106C87.7855 176.33 87.9723 176.505 88.2002 176.633C88.4281 176.76 88.6992 176.824 89.0137 176.824C89.319 176.824 89.5833 176.76 89.8066 176.633C90.0345 176.505 90.2214 176.33 90.3672 176.106C90.513 175.883 90.6201 175.623 90.6885 175.327C90.7614 175.031 90.7979 174.716 90.7979 174.384V174.227C90.7979 173.898 90.7614 173.589 90.6885 173.297C90.6201 173.001 90.5107 172.739 90.3604 172.511C90.2145 172.283 90.0277 172.105 89.7998 171.978C89.5765 171.845 89.3099 171.779 89 171.779C88.6901 171.779 88.4212 171.845 88.1934 171.978C87.9701 172.105 87.7855 172.283 87.6397 172.511C87.4938 172.739 87.3867 173.001 87.3184 173.297C87.25 173.589 87.2158 173.898 87.2158 174.227ZM95.6805 172.012V178H94.033V170.604H95.6053L95.6805 172.012ZM97.9432 170.556L97.9295 172.087C97.8292 172.069 97.7199 172.055 97.6014 172.046C97.4874 172.037 97.3735 172.032 97.2596 172.032C96.977 172.032 96.7286 172.073 96.5145 172.155C96.3003 172.233 96.1203 172.347 95.9744 172.497C95.8331 172.643 95.7238 172.821 95.6463 173.03C95.5688 173.24 95.5232 173.475 95.5096 173.734L95.1336 173.762C95.1336 173.297 95.1792 172.866 95.2703 172.47C95.3615 172.073 95.4982 171.725 95.6805 171.424C95.8673 171.123 96.0997 170.888 96.3777 170.72C96.6603 170.551 96.9861 170.467 97.3553 170.467C97.4555 170.467 97.5626 170.476 97.6766 170.494C97.7951 170.512 97.8839 170.533 97.9432 170.556ZM102.299 178.137C101.753 178.137 101.258 178.048 100.816 177.87C100.379 177.688 100.005 177.435 99.6949 177.111C99.3896 176.788 99.1549 176.407 98.9908 175.97C98.8268 175.532 98.7447 175.061 98.7447 174.555V174.281C98.7447 173.702 98.829 173.178 98.9977 172.709C99.1663 172.24 99.401 171.839 99.7018 171.506C100.003 171.169 100.358 170.911 100.768 170.733C101.178 170.556 101.623 170.467 102.101 170.467C102.63 170.467 103.092 170.556 103.489 170.733C103.885 170.911 104.213 171.162 104.473 171.485C104.738 171.804 104.934 172.185 105.061 172.627C105.193 173.069 105.259 173.557 105.259 174.09V174.794H99.5445V173.611H103.632V173.481C103.623 173.185 103.564 172.907 103.455 172.647C103.35 172.388 103.188 172.178 102.969 172.019C102.751 171.859 102.459 171.779 102.094 171.779C101.821 171.779 101.577 171.839 101.363 171.957C101.153 172.071 100.978 172.237 100.837 172.456C100.695 172.675 100.586 172.939 100.508 173.249C100.435 173.554 100.399 173.898 100.399 174.281V174.555C100.399 174.878 100.442 175.179 100.529 175.457C100.62 175.73 100.752 175.97 100.925 176.175C101.099 176.38 101.308 176.542 101.554 176.66C101.8 176.774 102.081 176.831 102.395 176.831C102.792 176.831 103.145 176.751 103.455 176.592C103.765 176.432 104.033 176.207 104.261 175.915L105.129 176.756C104.97 176.988 104.763 177.212 104.507 177.426C104.252 177.635 103.94 177.806 103.571 177.938C103.206 178.071 102.782 178.137 102.299 178.137ZM114.471 169.373L111.497 178H109.699L113.446 168.047H114.594L114.471 169.373ZM116.959 178L113.979 169.373L113.849 168.047H115.004L118.764 178H116.959ZM116.816 174.309V175.669H111.402V174.309H116.816ZM121.91 168.047V178H120.194V168.047H121.91ZM134.164 176.64V178H129.167V176.64H134.164ZM129.645 168.047V178H127.929V168.047H129.645ZM137.289 170.604V178H135.635V170.604H137.289ZM135.526 168.662C135.526 168.411 135.608 168.204 135.772 168.04C135.94 167.871 136.173 167.787 136.469 167.787C136.761 167.787 136.991 167.871 137.16 168.04C137.328 168.204 137.413 168.411 137.413 168.662C137.413 168.908 137.328 169.113 137.16 169.277C136.991 169.441 136.761 169.523 136.469 169.523C136.173 169.523 135.94 169.441 135.772 169.277C135.608 169.113 135.526 168.908 135.526 168.662ZM139.301 167.5H140.948V176.421L140.791 178H139.301V167.5ZM145.775 174.233V174.377C145.775 174.924 145.713 175.427 145.59 175.888C145.472 176.343 145.289 176.74 145.043 177.077C144.802 177.414 144.501 177.676 144.141 177.863C143.785 178.046 143.373 178.137 142.904 178.137C142.443 178.137 142.042 178.05 141.7 177.877C141.359 177.704 141.071 177.458 140.839 177.139C140.611 176.82 140.427 176.439 140.285 175.997C140.144 175.555 140.044 175.067 139.985 174.534V174.076C140.044 173.538 140.144 173.051 140.285 172.613C140.427 172.171 140.611 171.791 140.839 171.472C141.071 171.148 141.356 170.9 141.694 170.727C142.035 170.553 142.434 170.467 142.89 170.467C143.364 170.467 143.781 170.558 144.141 170.74C144.505 170.923 144.808 171.182 145.05 171.52C145.292 171.852 145.472 172.249 145.59 172.709C145.713 173.169 145.775 173.677 145.775 174.233ZM144.127 174.377V174.233C144.127 173.901 144.1 173.589 144.045 173.297C143.99 173.001 143.899 172.741 143.772 172.518C143.649 172.294 143.48 172.119 143.266 171.991C143.056 171.859 142.794 171.793 142.48 171.793C142.188 171.793 141.937 171.843 141.728 171.943C141.518 172.044 141.343 172.18 141.201 172.354C141.06 172.527 140.948 172.727 140.866 172.955C140.789 173.183 140.737 173.429 140.709 173.693V174.931C140.75 175.272 140.837 175.587 140.969 175.874C141.106 176.157 141.297 176.384 141.543 176.558C141.789 176.726 142.106 176.811 142.493 176.811C142.799 176.811 143.056 176.749 143.266 176.626C143.475 176.503 143.642 176.332 143.765 176.113C143.892 175.89 143.984 175.63 144.038 175.334C144.098 175.038 144.127 174.719 144.127 174.377ZM149.023 172.012V178H147.376V170.604H148.948L149.023 172.012ZM151.286 170.556L151.272 172.087C151.172 172.069 151.063 172.055 150.944 172.046C150.83 172.037 150.716 172.032 150.603 172.032C150.32 172.032 150.072 172.073 149.857 172.155C149.643 172.233 149.463 172.347 149.317 172.497C149.176 172.643 149.067 172.821 148.989 173.03C148.912 173.24 148.866 173.475 148.853 173.734L148.477 173.762C148.477 173.297 148.522 172.866 148.613 172.47C148.704 172.073 148.841 171.725 149.023 171.424C149.21 171.123 149.443 170.888 149.721 170.72C150.003 170.551 150.329 170.467 150.698 170.467C150.799 170.467 150.906 170.476 151.02 170.494C151.138 170.512 151.227 170.533 151.286 170.556ZM156.442 176.517V172.989C156.442 172.725 156.394 172.497 156.299 172.306C156.203 172.114 156.057 171.966 155.861 171.861C155.67 171.757 155.428 171.704 155.137 171.704C154.868 171.704 154.635 171.75 154.439 171.841C154.243 171.932 154.091 172.055 153.981 172.21C153.872 172.365 153.817 172.54 153.817 172.736H152.177C152.177 172.445 152.247 172.162 152.388 171.889C152.53 171.615 152.735 171.371 153.004 171.157C153.273 170.943 153.594 170.774 153.968 170.651C154.341 170.528 154.761 170.467 155.225 170.467C155.781 170.467 156.274 170.56 156.702 170.747C157.135 170.934 157.474 171.216 157.721 171.595C157.971 171.968 158.096 172.438 158.096 173.003V176.291C158.096 176.628 158.119 176.931 158.165 177.2C158.215 177.465 158.286 177.695 158.377 177.891V178H156.688C156.611 177.822 156.549 177.597 156.504 177.323C156.463 177.045 156.442 176.776 156.442 176.517ZM156.681 173.502L156.695 174.521H155.513C155.207 174.521 154.938 174.55 154.706 174.609C154.473 174.664 154.28 174.746 154.125 174.855C153.97 174.965 153.854 175.097 153.776 175.252C153.699 175.407 153.66 175.582 153.66 175.778C153.66 175.974 153.706 176.154 153.797 176.318C153.888 176.478 154.02 176.603 154.193 176.694C154.371 176.785 154.585 176.831 154.836 176.831C155.173 176.831 155.467 176.763 155.718 176.626C155.973 176.485 156.173 176.314 156.319 176.113C156.465 175.908 156.542 175.715 156.552 175.532L157.085 176.264C157.03 176.451 156.937 176.651 156.804 176.865C156.672 177.079 156.499 177.285 156.285 177.48C156.075 177.672 155.822 177.829 155.526 177.952C155.235 178.075 154.897 178.137 154.514 178.137C154.031 178.137 153.601 178.041 153.222 177.85C152.844 177.654 152.548 177.392 152.334 177.063C152.12 176.731 152.013 176.355 152.013 175.936C152.013 175.544 152.085 175.197 152.231 174.896C152.382 174.591 152.6 174.336 152.888 174.131C153.179 173.926 153.535 173.771 153.954 173.666C154.373 173.557 154.852 173.502 155.389 173.502H156.681ZM161.673 172.012V178H160.026V170.604H161.598L161.673 172.012ZM163.936 170.556L163.922 172.087C163.822 172.069 163.713 172.055 163.594 172.046C163.48 172.037 163.366 172.032 163.253 172.032C162.97 172.032 162.722 172.073 162.507 172.155C162.293 172.233 162.113 172.347 161.967 172.497C161.826 172.643 161.717 172.821 161.639 173.03C161.562 173.24 161.516 173.475 161.503 173.734L161.127 173.762C161.127 173.297 161.172 172.866 161.263 172.47C161.354 172.073 161.491 171.725 161.673 171.424C161.86 171.123 162.093 170.888 162.371 170.72C162.653 170.551 162.979 170.467 163.348 170.467C163.449 170.467 163.556 170.476 163.67 170.494C163.788 170.512 163.877 170.533 163.936 170.556ZM166.932 170.604V178H165.278V170.604H166.932ZM165.168 168.662C165.168 168.411 165.25 168.204 165.414 168.04C165.583 167.871 165.816 167.787 166.112 167.787C166.403 167.787 166.634 167.871 166.802 168.04C166.971 168.204 167.055 168.411 167.055 168.662C167.055 168.908 166.971 169.113 166.802 169.277C166.634 169.441 166.403 169.523 166.112 169.523C165.816 169.523 165.583 169.441 165.414 169.277C165.25 169.113 165.168 168.908 165.168 168.662ZM172.197 178.137C171.651 178.137 171.156 178.048 170.714 177.87C170.277 177.688 169.903 177.435 169.593 177.111C169.288 176.788 169.053 176.407 168.889 175.97C168.725 175.532 168.643 175.061 168.643 174.555V174.281C168.643 173.702 168.727 173.178 168.896 172.709C169.064 172.24 169.299 171.839 169.6 171.506C169.901 171.169 170.256 170.911 170.666 170.733C171.076 170.556 171.521 170.467 171.999 170.467C172.528 170.467 172.99 170.556 173.387 170.733C173.783 170.911 174.112 171.162 174.371 171.485C174.636 171.804 174.832 172.185 174.959 172.627C175.091 173.069 175.157 173.557 175.157 174.09V174.794H169.443V173.611H173.53V173.481C173.521 173.185 173.462 172.907 173.353 172.647C173.248 172.388 173.086 172.178 172.867 172.019C172.649 171.859 172.357 171.779 171.992 171.779C171.719 171.779 171.475 171.839 171.261 171.957C171.051 172.071 170.876 172.237 170.735 172.456C170.593 172.675 170.484 172.939 170.406 173.249C170.334 173.554 170.297 173.898 170.297 174.281V174.555C170.297 174.878 170.34 175.179 170.427 175.457C170.518 175.73 170.65 175.97 170.823 176.175C170.997 176.38 171.206 176.542 171.452 176.66C171.698 176.774 171.979 176.831 172.293 176.831C172.69 176.831 173.043 176.751 173.353 176.592C173.663 176.432 173.932 176.207 174.159 175.915L175.028 176.756C174.868 176.988 174.661 177.212 174.405 177.426C174.15 177.635 173.838 177.806 173.469 177.938C173.104 178.071 172.681 178.137 172.197 178.137ZM180.792 175.997C180.792 175.833 180.751 175.685 180.669 175.553C180.587 175.416 180.43 175.293 180.197 175.184C179.969 175.074 179.632 174.974 179.186 174.883C178.794 174.796 178.434 174.694 178.105 174.575C177.782 174.452 177.504 174.304 177.271 174.131C177.039 173.958 176.859 173.753 176.731 173.516C176.604 173.279 176.54 173.005 176.54 172.695C176.54 172.395 176.606 172.11 176.738 171.841C176.87 171.572 177.06 171.335 177.306 171.13C177.552 170.925 177.85 170.763 178.201 170.645C178.557 170.526 178.953 170.467 179.391 170.467C180.01 170.467 180.541 170.572 180.983 170.781C181.43 170.986 181.772 171.267 182.009 171.622C182.246 171.973 182.364 172.369 182.364 172.812H180.717C180.717 172.616 180.667 172.433 180.566 172.265C180.471 172.091 180.325 171.952 180.129 171.848C179.933 171.738 179.687 171.684 179.391 171.684C179.108 171.684 178.873 171.729 178.687 171.82C178.504 171.907 178.368 172.021 178.276 172.162C178.19 172.303 178.146 172.458 178.146 172.627C178.146 172.75 178.169 172.862 178.215 172.962C178.265 173.058 178.347 173.146 178.461 173.229C178.575 173.306 178.73 173.379 178.926 173.447C179.126 173.516 179.377 173.582 179.678 173.646C180.243 173.764 180.728 173.917 181.134 174.104C181.544 174.286 181.858 174.523 182.077 174.814C182.296 175.102 182.405 175.466 182.405 175.908C182.405 176.236 182.335 176.537 182.193 176.811C182.057 177.079 181.856 177.314 181.592 177.515C181.327 177.711 181.011 177.863 180.642 177.973C180.277 178.082 179.867 178.137 179.411 178.137C178.741 178.137 178.174 178.018 177.709 177.781C177.244 177.54 176.891 177.232 176.649 176.858C176.412 176.48 176.294 176.088 176.294 175.683H177.887C177.905 175.988 177.989 176.232 178.14 176.414C178.295 176.592 178.486 176.722 178.714 176.804C178.946 176.881 179.186 176.92 179.432 176.92C179.728 176.92 179.976 176.881 180.177 176.804C180.377 176.722 180.53 176.612 180.635 176.476C180.74 176.334 180.792 176.175 180.792 175.997Z" fill="white"/>
</g>
</g>
<defs>
<filter id="filter0_dd_491_287" x="72.3859" y="164.5" width="114.019" height="18.6367" filterUnits="userSpaceOnUse" color-interpolation-filters="sRGB">
<feFlood flood-opacity="0" result="BackgroundImageFix"/>
<feColorMatrix in="SourceAlpha" type="matrix" values="0 0 0 0 0 0 0 0 0 0 0 0 0 0 0 0 0 0 127 0" result="hardAlpha"/>
<feOffset dy="1"/>
<feGaussianBlur stdDeviation="1"/>
<feColorMatrix type="matrix" values="0 0 0 0 0 0 0 0 0 0 0 0 0 0 0 0 0 0 0.3 0"/>
<feBlend mode="normal" in2="BackgroundImageFix" result="effect1_dropShadow_491_287"/>
<feColorMatrix in="SourceAlpha" type="matrix" values="0 0 0 0 0 0 0 0 0 0 0 0 0 0 0 0 0 0 127 0" result="hardAlpha"/>
<feMorphology radius="1" operator="dilate" in="SourceAlpha" result="effect2_dropShadow_491_287"/>
<feOffset dy="1"/>
<feGaussianBlur stdDeviation="1.5"/>
<feColorMatrix type="matrix" values="0 0 0 0 0 0 0 0 0 0 0 0 0 0 0 0 0 0 0.15 0"/>
<feBlend mode="normal" in2="effect1_dropShadow_491_287" result="effect2_dropShadow_491_287"/>
<feBlend mode="normal" in="SourceGraphic" in2="effect2_dropShadow_491_287" result="shape"/>
</filter>
<radialGradient id="paint0_radial_491_287" cx="0" cy="0" r="1" gradientUnits="userSpaceOnUse" gradientTransform="translate(529.5 60.5) rotate(90) scale(469.5)">
<stop stop-color="#5E97F6"/>
<stop offset="1" stop-color="#5E97F6" stop-opacity="0"/>
</radialGradient>
<clipPath id="clip0_491_287">
<rect width="598" height="340" rx="24" fill="white"/>
</clipPath>
</defs>
</svg>
