<svg width="598" height="340" viewBox="0 0 598 340" fill="none" xmlns="http://www.w3.org/2000/svg">
<g clip-path="url(#clip0_671_76)">
<rect width="598" height="340" rx="24" fill="#202124"/>
<circle cx="529.5" cy="60.5" r="469.5" fill="url(#paint0_radial_671_76)" fill-opacity="0.2"/>
<g filter="url(#filter0_dd_671_76)">
<path d="M100.059 165.047V175H98.3434V165.047H100.059ZM104.12 169.401V170.762H99.6217V169.401H104.12ZM104.687 165.047V166.414H99.6217V165.047H104.687ZM107.567 169.012V175H105.919V167.604H107.492L107.567 169.012ZM109.829 167.556L109.816 169.087C109.716 169.069 109.606 169.055 109.488 169.046C109.374 169.037 109.26 169.032 109.146 169.032C108.863 169.032 108.615 169.073 108.401 169.155C108.187 169.233 108.007 169.347 107.861 169.497C107.719 169.643 107.61 169.821 107.533 170.03C107.455 170.24 107.41 170.475 107.396 170.734L107.02 170.762C107.02 170.297 107.065 169.866 107.157 169.47C107.248 169.073 107.385 168.725 107.567 168.424C107.754 168.123 107.986 167.888 108.264 167.72C108.547 167.551 108.872 167.467 109.242 167.467C109.342 167.467 109.449 167.476 109.563 167.494C109.681 167.512 109.77 167.533 109.829 167.556ZM114.986 173.517V169.989C114.986 169.725 114.938 169.497 114.842 169.306C114.746 169.114 114.6 168.966 114.404 168.861C114.213 168.757 113.972 168.704 113.68 168.704C113.411 168.704 113.179 168.75 112.983 168.841C112.787 168.932 112.634 169.055 112.525 169.21C112.415 169.365 112.361 169.54 112.361 169.736H110.72C110.72 169.445 110.791 169.162 110.932 168.889C111.073 168.615 111.278 168.371 111.547 168.157C111.816 167.943 112.137 167.774 112.511 167.651C112.885 167.528 113.304 167.467 113.769 167.467C114.325 167.467 114.817 167.56 115.245 167.747C115.678 167.934 116.018 168.216 116.264 168.595C116.515 168.968 116.64 169.438 116.64 170.003V173.291C116.64 173.628 116.663 173.931 116.708 174.2C116.758 174.465 116.829 174.695 116.92 174.891V175H115.232C115.154 174.822 115.093 174.597 115.047 174.323C115.006 174.045 114.986 173.776 114.986 173.517ZM115.225 170.502L115.238 171.521H114.056C113.751 171.521 113.482 171.55 113.249 171.609C113.017 171.664 112.823 171.746 112.668 171.855C112.513 171.965 112.397 172.097 112.32 172.252C112.242 172.407 112.203 172.582 112.203 172.778C112.203 172.974 112.249 173.154 112.34 173.318C112.431 173.478 112.563 173.603 112.737 173.694C112.914 173.785 113.128 173.831 113.379 173.831C113.716 173.831 114.01 173.763 114.261 173.626C114.516 173.485 114.717 173.314 114.863 173.113C115.008 172.908 115.086 172.715 115.095 172.532L115.628 173.264C115.573 173.451 115.48 173.651 115.348 173.865C115.216 174.079 115.043 174.285 114.828 174.48C114.619 174.672 114.366 174.829 114.07 174.952C113.778 175.075 113.441 175.137 113.058 175.137C112.575 175.137 112.144 175.041 111.766 174.85C111.388 174.654 111.091 174.392 110.877 174.063C110.663 173.731 110.556 173.355 110.556 172.936C110.556 172.544 110.629 172.197 110.775 171.896C110.925 171.591 111.144 171.336 111.431 171.131C111.723 170.926 112.078 170.771 112.497 170.666C112.917 170.557 113.395 170.502 113.933 170.502H115.225ZM120.21 169.107V175H118.563V167.604H120.114L120.21 169.107ZM119.943 171.028L119.383 171.021C119.383 170.511 119.447 170.039 119.574 169.606C119.702 169.174 119.889 168.798 120.135 168.479C120.381 168.155 120.686 167.907 121.051 167.733C121.42 167.556 121.846 167.467 122.329 167.467C122.666 167.467 122.974 167.517 123.252 167.617C123.535 167.713 123.778 167.866 123.983 168.075C124.193 168.285 124.353 168.554 124.462 168.882C124.576 169.21 124.633 169.606 124.633 170.071V175H122.985V170.215C122.985 169.855 122.931 169.572 122.821 169.367C122.716 169.162 122.564 169.016 122.363 168.93C122.167 168.839 121.933 168.793 121.659 168.793C121.349 168.793 121.085 168.852 120.866 168.971C120.652 169.089 120.477 169.251 120.34 169.456C120.203 169.661 120.103 169.898 120.039 170.167C119.975 170.436 119.943 170.723 119.943 171.028ZM124.53 170.591L123.758 170.762C123.758 170.315 123.819 169.894 123.942 169.497C124.07 169.096 124.255 168.745 124.496 168.444C124.742 168.139 125.045 167.9 125.405 167.727C125.765 167.553 126.178 167.467 126.643 167.467C127.021 167.467 127.358 167.519 127.654 167.624C127.955 167.724 128.21 167.884 128.42 168.103C128.63 168.321 128.789 168.606 128.898 168.957C129.008 169.303 129.063 169.723 129.063 170.215V175H127.408V170.208C127.408 169.834 127.354 169.545 127.244 169.34C127.139 169.135 126.989 168.993 126.793 168.916C126.597 168.834 126.362 168.793 126.089 168.793C125.834 168.793 125.608 168.841 125.412 168.937C125.221 169.028 125.059 169.158 124.927 169.326C124.795 169.49 124.694 169.679 124.626 169.894C124.562 170.108 124.53 170.34 124.53 170.591ZM134.219 175.137C133.672 175.137 133.177 175.048 132.735 174.87C132.298 174.688 131.924 174.435 131.614 174.111C131.309 173.788 131.074 173.407 130.91 172.97C130.746 172.532 130.664 172.061 130.664 171.555V171.281C130.664 170.702 130.748 170.178 130.917 169.709C131.085 169.24 131.32 168.839 131.621 168.506C131.922 168.169 132.277 167.911 132.687 167.733C133.097 167.556 133.542 167.467 134.02 167.467C134.549 167.467 135.012 167.556 135.408 167.733C135.804 167.911 136.133 168.162 136.392 168.485C136.657 168.804 136.853 169.185 136.98 169.627C137.112 170.069 137.179 170.557 137.179 171.09V171.794H131.464V170.611H135.552V170.481C135.542 170.185 135.483 169.907 135.374 169.647C135.269 169.388 135.107 169.178 134.888 169.019C134.67 168.859 134.378 168.779 134.013 168.779C133.74 168.779 133.496 168.839 133.282 168.957C133.072 169.071 132.897 169.237 132.756 169.456C132.614 169.675 132.505 169.939 132.428 170.249C132.355 170.554 132.318 170.898 132.318 171.281V171.555C132.318 171.878 132.361 172.179 132.448 172.457C132.539 172.73 132.671 172.97 132.845 173.175C133.018 173.38 133.227 173.542 133.473 173.66C133.72 173.774 134 173.831 134.314 173.831C134.711 173.831 135.064 173.751 135.374 173.592C135.684 173.432 135.953 173.207 136.18 172.915L137.049 173.756C136.889 173.988 136.682 174.212 136.427 174.426C136.171 174.635 135.859 174.806 135.49 174.938C135.125 175.071 134.702 175.137 134.219 175.137ZM140.673 173.359L142.382 167.604H143.435L143.148 169.326L141.425 175H140.482L140.673 173.359ZM139.669 167.604L141.002 173.387L141.111 175H140.058L138.055 167.604H139.669ZM145.035 173.318L146.327 167.604H147.933L145.937 175H144.884L145.035 173.318ZM143.613 167.604L145.301 173.291L145.513 175H144.57L142.827 169.319L142.54 167.604H143.613ZM148.94 171.384V171.227C148.94 170.693 149.017 170.199 149.172 169.743C149.327 169.283 149.551 168.884 149.842 168.547C150.138 168.205 150.498 167.941 150.922 167.754C151.351 167.562 151.834 167.467 152.371 167.467C152.914 167.467 153.397 167.562 153.821 167.754C154.249 167.941 154.611 168.205 154.908 168.547C155.204 168.884 155.429 169.283 155.584 169.743C155.739 170.199 155.817 170.693 155.817 171.227V171.384C155.817 171.917 155.739 172.411 155.584 172.867C155.429 173.323 155.204 173.722 154.908 174.063C154.611 174.401 154.251 174.665 153.828 174.856C153.404 175.043 152.923 175.137 152.385 175.137C151.843 175.137 151.357 175.043 150.929 174.856C150.505 174.665 150.145 174.401 149.849 174.063C149.553 173.722 149.327 173.323 149.172 172.867C149.017 172.411 148.94 171.917 148.94 171.384ZM150.587 171.227V171.384C150.587 171.716 150.621 172.031 150.69 172.327C150.758 172.623 150.865 172.883 151.011 173.106C151.157 173.33 151.344 173.505 151.572 173.633C151.8 173.76 152.071 173.824 152.385 173.824C152.69 173.824 152.955 173.76 153.178 173.633C153.406 173.505 153.593 173.33 153.739 173.106C153.885 172.883 153.992 172.623 154.06 172.327C154.133 172.031 154.169 171.716 154.169 171.384V171.227C154.169 170.898 154.133 170.589 154.06 170.297C153.992 170.001 153.882 169.739 153.732 169.511C153.586 169.283 153.399 169.105 153.171 168.978C152.948 168.845 152.681 168.779 152.371 168.779C152.062 168.779 151.793 168.845 151.565 168.978C151.342 169.105 151.157 169.283 151.011 169.511C150.865 169.739 150.758 170.001 150.69 170.297C150.621 170.589 150.587 170.898 150.587 171.227ZM159.052 169.012V175H157.404V167.604H158.977L159.052 169.012ZM161.315 167.556L161.301 169.087C161.201 169.069 161.091 169.055 160.973 169.046C160.859 169.037 160.745 169.032 160.631 169.032C160.349 169.032 160.1 169.073 159.886 169.155C159.672 169.233 159.492 169.347 159.346 169.497C159.205 169.643 159.095 169.821 159.018 170.03C158.94 170.24 158.895 170.475 158.881 170.734L158.505 170.762C158.505 170.297 158.551 169.866 158.642 169.47C158.733 169.073 158.87 168.725 159.052 168.424C159.239 168.123 159.471 167.888 159.749 167.72C160.032 167.551 160.358 167.467 160.727 167.467C160.827 167.467 160.934 167.476 161.048 167.494C161.167 167.512 161.255 167.533 161.315 167.556ZM164.208 164.5V175H162.554V164.5H164.208ZM168.802 167.604L165.582 171.172L163.818 172.977L163.388 171.582L164.721 169.935L166.812 167.604H168.802ZM167.168 175L164.769 171.527L165.808 170.372L169.075 175H167.168Z" fill="white"/>
</g>
<rect x="200" y="156" width="300" height="28" rx="3" stroke="#669DF6" stroke-width="2"/>
<path d="M342.028 172.013V165.047H343.737V172.013C343.737 172.674 343.595 173.236 343.313 173.701C343.03 174.166 342.645 174.521 342.157 174.768C341.67 175.014 341.116 175.137 340.496 175.137C339.863 175.137 339.3 175.03 338.808 174.815C338.32 174.601 337.937 174.273 337.659 173.831C337.381 173.389 337.242 172.828 337.242 172.149H338.965C338.965 172.541 339.027 172.858 339.15 173.1C339.277 173.337 339.455 173.51 339.683 173.619C339.915 173.724 340.186 173.776 340.496 173.776C340.793 173.776 341.055 173.71 341.282 173.578C341.515 173.441 341.697 173.243 341.829 172.983C341.961 172.719 342.028 172.396 342.028 172.013ZM349.638 166.373L346.664 175H344.866L348.612 165.047H349.761L349.638 166.373ZM352.126 175L349.146 166.373L349.016 165.047H350.171L353.931 175H352.126ZM351.982 171.309V172.669H346.568V171.309H351.982ZM356.551 165.047L358.663 168.677L360.775 165.047H362.751L359.743 169.976L362.826 175H360.83L358.663 171.302L356.496 175H354.493L357.583 169.976L354.568 165.047H356.551Z" fill="white"/>
</g>
<defs>
<filter id="filter0_dd_671_76" x="94.3434" y="161.5" width="78.7318" height="18.6367" filterUnits="userSpaceOnUse" color-interpolation-filters="sRGB">
<feFlood flood-opacity="0" result="BackgroundImageFix"/>
<feColorMatrix in="SourceAlpha" type="matrix" values="0 0 0 0 0 0 0 0 0 0 0 0 0 0 0 0 0 0 127 0" result="hardAlpha"/>
<feOffset dy="1"/>
<feGaussianBlur stdDeviation="1"/>
<feColorMatrix type="matrix" values="0 0 0 0 0 0 0 0 0 0 0 0 0 0 0 0 0 0 0.3 0"/>
<feBlend mode="normal" in2="BackgroundImageFix" result="effect1_dropShadow_671_76"/>
<feColorMatrix in="SourceAlpha" type="matrix" values="0 0 0 0 0 0 0 0 0 0 0 0 0 0 0 0 0 0 127 0" result="hardAlpha"/>
<feMorphology radius="1" operator="dilate" in="SourceAlpha" result="effect2_dropShadow_671_76"/>
<feOffset dy="1"/>
<feGaussianBlur stdDeviation="1.5"/>
<feColorMatrix type="matrix" values="0 0 0 0 0 0 0 0 0 0 0 0 0 0 0 0 0 0 0.15 0"/>
<feBlend mode="normal" in2="effect1_dropShadow_671_76" result="effect2_dropShadow_671_76"/>
<feBlend mode="normal" in="SourceGraphic" in2="effect2_dropShadow_671_76" result="shape"/>
</filter>
<radialGradient id="paint0_radial_671_76" cx="0" cy="0" r="1" gradientUnits="userSpaceOnUse" gradientTransform="translate(529.5 60.5) rotate(90) scale(469.5)">
<stop stop-color="#5E97F6"/>
<stop offset="1" stop-color="#5E97F6" stop-opacity="0"/>
</radialGradient>
<clipPath id="clip0_671_76">
<rect width="598" height="340" rx="24" fill="white"/>
</clipPath>
</defs>
</svg>
