<svg width="598" height="340" viewBox="0 0 598 340" fill="none" xmlns="http://www.w3.org/2000/svg">
<g clip-path="url(#clip0_491_223)">
<rect width="598" height="340" rx="24" fill="#202124"/>
<circle cx="529.5" cy="60.5" r="469.5" fill="url(#paint0_radial_491_223)" fill-opacity="0.2"/>
<path d="M496.516 157.113L505.739 152H480.223H229.74H204.224L195 157.007H496.516V157.113Z" fill="#5D97F6"/>
<path d="M505.739 152L496.516 157.113V187.007L505.74 182V152H505.739Z" fill="#2A56C6"/>
<path d="M496.516 157H195V187H496.516V157Z" fill="#E8F0FE"/>
<path d="M337.528 174.013V167.047H339.237V174.013C339.237 174.674 339.095 175.236 338.813 175.701C338.53 176.166 338.145 176.521 337.657 176.768C337.17 177.014 336.616 177.137 335.996 177.137C335.363 177.137 334.8 177.03 334.308 176.815C333.82 176.601 333.437 176.273 333.159 175.831C332.881 175.389 332.742 174.828 332.742 174.149H334.465C334.465 174.541 334.527 174.858 334.65 175.1C334.777 175.337 334.955 175.51 335.183 175.619C335.415 175.724 335.686 175.776 335.996 175.776C336.293 175.776 336.555 175.71 336.782 175.578C337.015 175.441 337.197 175.243 337.329 174.983C337.461 174.719 337.528 174.396 337.528 174.013ZM345.138 168.373L342.164 177H340.366L344.112 167.047H345.261L345.138 168.373ZM347.626 177L344.646 168.373L344.516 167.047H345.671L349.431 177H347.626ZM347.482 173.309V174.669H342.068V173.309H347.482ZM352.051 167.047L354.163 170.677L356.275 167.047H358.251L355.243 171.976L358.326 177H356.33L354.163 173.302L351.996 177H349.993L353.083 171.976L350.068 167.047H352.051Z" fill="#202124"/>
<g filter="url(#filter0_dd_491_223)">
<path d="M96.0592 167.047V177H94.3434V167.047H96.0592ZM100.12 171.401V172.762H95.6217V171.401H100.12ZM100.687 167.047V168.414H95.6217V167.047H100.687ZM103.567 171.012V177H101.919V169.604H103.492L103.567 171.012ZM105.829 169.556L105.816 171.087C105.716 171.069 105.606 171.055 105.488 171.046C105.374 171.037 105.26 171.032 105.146 171.032C104.863 171.032 104.615 171.073 104.401 171.155C104.187 171.233 104.007 171.347 103.861 171.497C103.719 171.643 103.61 171.821 103.533 172.03C103.455 172.24 103.41 172.475 103.396 172.734L103.02 172.762C103.02 172.297 103.065 171.866 103.157 171.47C103.248 171.073 103.385 170.725 103.567 170.424C103.754 170.123 103.986 169.888 104.264 169.72C104.547 169.551 104.872 169.467 105.242 169.467C105.342 169.467 105.449 169.476 105.563 169.494C105.681 169.512 105.77 169.533 105.829 169.556ZM110.986 175.517V171.989C110.986 171.725 110.938 171.497 110.842 171.306C110.746 171.114 110.6 170.966 110.404 170.861C110.213 170.757 109.972 170.704 109.68 170.704C109.411 170.704 109.179 170.75 108.983 170.841C108.787 170.932 108.634 171.055 108.525 171.21C108.415 171.365 108.361 171.54 108.361 171.736H106.72C106.72 171.445 106.791 171.162 106.932 170.889C107.073 170.615 107.278 170.371 107.547 170.157C107.816 169.943 108.137 169.774 108.511 169.651C108.885 169.528 109.304 169.467 109.769 169.467C110.325 169.467 110.817 169.56 111.245 169.747C111.678 169.934 112.018 170.216 112.264 170.595C112.515 170.968 112.64 171.438 112.64 172.003V175.291C112.64 175.628 112.663 175.931 112.708 176.2C112.758 176.465 112.829 176.695 112.92 176.891V177H111.232C111.154 176.822 111.093 176.597 111.047 176.323C111.006 176.045 110.986 175.776 110.986 175.517ZM111.225 172.502L111.238 173.521H110.056C109.751 173.521 109.482 173.55 109.249 173.609C109.017 173.664 108.823 173.746 108.668 173.855C108.513 173.965 108.397 174.097 108.32 174.252C108.242 174.407 108.203 174.582 108.203 174.778C108.203 174.974 108.249 175.154 108.34 175.318C108.431 175.478 108.563 175.603 108.737 175.694C108.914 175.785 109.128 175.831 109.379 175.831C109.716 175.831 110.01 175.763 110.261 175.626C110.516 175.485 110.717 175.314 110.863 175.113C111.008 174.908 111.086 174.715 111.095 174.532L111.628 175.264C111.573 175.451 111.48 175.651 111.348 175.865C111.216 176.079 111.043 176.285 110.828 176.48C110.619 176.672 110.366 176.829 110.07 176.952C109.778 177.075 109.441 177.137 109.058 177.137C108.575 177.137 108.144 177.041 107.766 176.85C107.388 176.654 107.091 176.392 106.877 176.063C106.663 175.731 106.556 175.355 106.556 174.936C106.556 174.544 106.629 174.197 106.775 173.896C106.925 173.591 107.144 173.336 107.431 173.131C107.723 172.926 108.078 172.771 108.497 172.666C108.917 172.557 109.395 172.502 109.933 172.502H111.225ZM116.21 171.107V177H114.563V169.604H116.114L116.21 171.107ZM115.943 173.028L115.383 173.021C115.383 172.511 115.447 172.039 115.574 171.606C115.702 171.174 115.889 170.798 116.135 170.479C116.381 170.155 116.686 169.907 117.051 169.733C117.42 169.556 117.846 169.467 118.329 169.467C118.666 169.467 118.974 169.517 119.252 169.617C119.535 169.713 119.778 169.866 119.983 170.075C120.193 170.285 120.353 170.554 120.462 170.882C120.576 171.21 120.633 171.606 120.633 172.071V177H118.985V172.215C118.985 171.855 118.931 171.572 118.821 171.367C118.716 171.162 118.564 171.016 118.363 170.93C118.167 170.839 117.933 170.793 117.659 170.793C117.349 170.793 117.085 170.852 116.866 170.971C116.652 171.089 116.477 171.251 116.34 171.456C116.203 171.661 116.103 171.898 116.039 172.167C115.975 172.436 115.943 172.723 115.943 173.028ZM120.53 172.591L119.758 172.762C119.758 172.315 119.819 171.894 119.942 171.497C120.07 171.096 120.255 170.745 120.496 170.444C120.742 170.139 121.045 169.9 121.405 169.727C121.765 169.553 122.178 169.467 122.643 169.467C123.021 169.467 123.358 169.519 123.654 169.624C123.955 169.724 124.21 169.884 124.42 170.103C124.63 170.321 124.789 170.606 124.898 170.957C125.008 171.303 125.063 171.723 125.063 172.215V177H123.408V172.208C123.408 171.834 123.354 171.545 123.244 171.34C123.139 171.135 122.989 170.993 122.793 170.916C122.597 170.834 122.362 170.793 122.089 170.793C121.834 170.793 121.608 170.841 121.412 170.937C121.221 171.028 121.059 171.158 120.927 171.326C120.795 171.49 120.694 171.679 120.626 171.894C120.562 172.108 120.53 172.34 120.53 172.591ZM130.219 177.137C129.672 177.137 129.177 177.048 128.735 176.87C128.298 176.688 127.924 176.435 127.614 176.111C127.309 175.788 127.074 175.407 126.91 174.97C126.746 174.532 126.664 174.061 126.664 173.555V173.281C126.664 172.702 126.748 172.178 126.917 171.709C127.085 171.24 127.32 170.839 127.621 170.506C127.922 170.169 128.277 169.911 128.687 169.733C129.097 169.556 129.542 169.467 130.02 169.467C130.549 169.467 131.012 169.556 131.408 169.733C131.804 169.911 132.133 170.162 132.392 170.485C132.657 170.804 132.853 171.185 132.98 171.627C133.112 172.069 133.179 172.557 133.179 173.09V173.794H127.464V172.611H131.552V172.481C131.542 172.185 131.483 171.907 131.374 171.647C131.269 171.388 131.107 171.178 130.888 171.019C130.67 170.859 130.378 170.779 130.013 170.779C129.74 170.779 129.496 170.839 129.282 170.957C129.072 171.071 128.897 171.237 128.756 171.456C128.614 171.675 128.505 171.939 128.428 172.249C128.355 172.554 128.318 172.898 128.318 173.281V173.555C128.318 173.878 128.361 174.179 128.448 174.457C128.539 174.73 128.671 174.97 128.845 175.175C129.018 175.38 129.227 175.542 129.473 175.66C129.72 175.774 130 175.831 130.314 175.831C130.711 175.831 131.064 175.751 131.374 175.592C131.684 175.432 131.953 175.207 132.18 174.915L133.049 175.756C132.889 175.988 132.682 176.212 132.427 176.426C132.171 176.635 131.859 176.806 131.49 176.938C131.125 177.071 130.702 177.137 130.219 177.137ZM136.673 175.359L138.382 169.604H139.435L139.148 171.326L137.425 177H136.482L136.673 175.359ZM135.669 169.604L137.002 175.387L137.111 177H136.058L134.055 169.604H135.669ZM141.035 175.318L142.327 169.604H143.933L141.937 177H140.884L141.035 175.318ZM139.613 169.604L141.301 175.291L141.513 177H140.57L138.827 171.319L138.54 169.604H139.613ZM144.94 173.384V173.227C144.94 172.693 145.017 172.199 145.172 171.743C145.327 171.283 145.551 170.884 145.842 170.547C146.138 170.205 146.498 169.941 146.922 169.754C147.351 169.562 147.834 169.467 148.371 169.467C148.914 169.467 149.397 169.562 149.821 169.754C150.249 169.941 150.611 170.205 150.908 170.547C151.204 170.884 151.429 171.283 151.584 171.743C151.739 172.199 151.817 172.693 151.817 173.227V173.384C151.817 173.917 151.739 174.411 151.584 174.867C151.429 175.323 151.204 175.722 150.908 176.063C150.611 176.401 150.251 176.665 149.828 176.856C149.404 177.043 148.923 177.137 148.385 177.137C147.843 177.137 147.357 177.043 146.929 176.856C146.505 176.665 146.145 176.401 145.849 176.063C145.553 175.722 145.327 175.323 145.172 174.867C145.017 174.411 144.94 173.917 144.94 173.384ZM146.587 173.227V173.384C146.587 173.716 146.621 174.031 146.69 174.327C146.758 174.623 146.865 174.883 147.011 175.106C147.157 175.33 147.344 175.505 147.572 175.633C147.8 175.76 148.071 175.824 148.385 175.824C148.69 175.824 148.955 175.76 149.178 175.633C149.406 175.505 149.593 175.33 149.739 175.106C149.885 174.883 149.992 174.623 150.06 174.327C150.133 174.031 150.169 173.716 150.169 173.384V173.227C150.169 172.898 150.133 172.589 150.06 172.297C149.992 172.001 149.882 171.739 149.732 171.511C149.586 171.283 149.399 171.105 149.171 170.978C148.948 170.845 148.681 170.779 148.371 170.779C148.062 170.779 147.793 170.845 147.565 170.978C147.342 171.105 147.157 171.283 147.011 171.511C146.865 171.739 146.758 172.001 146.69 172.297C146.621 172.589 146.587 172.898 146.587 173.227ZM155.052 171.012V177H153.404V169.604H154.977L155.052 171.012ZM157.315 169.556L157.301 171.087C157.201 171.069 157.091 171.055 156.973 171.046C156.859 171.037 156.745 171.032 156.631 171.032C156.349 171.032 156.1 171.073 155.886 171.155C155.672 171.233 155.492 171.347 155.346 171.497C155.205 171.643 155.095 171.821 155.018 172.03C154.94 172.24 154.895 172.475 154.881 172.734L154.505 172.762C154.505 172.297 154.551 171.866 154.642 171.47C154.733 171.073 154.87 170.725 155.052 170.424C155.239 170.123 155.471 169.888 155.749 169.72C156.032 169.551 156.358 169.467 156.727 169.467C156.827 169.467 156.934 169.476 157.048 169.494C157.167 169.512 157.255 169.533 157.315 169.556ZM160.208 166.5V177H158.554V166.5H160.208ZM164.802 169.604L161.582 173.172L159.818 174.977L159.388 173.582L160.721 171.935L162.812 169.604H164.802ZM163.168 177L160.769 173.527L161.808 172.372L165.075 177H163.168Z" fill="white"/>
</g>
</g>
<defs>
<filter id="filter0_dd_491_223" x="90.3434" y="163.5" width="78.7318" height="18.6367" filterUnits="userSpaceOnUse" color-interpolation-filters="sRGB">
<feFlood flood-opacity="0" result="BackgroundImageFix"/>
<feColorMatrix in="SourceAlpha" type="matrix" values="0 0 0 0 0 0 0 0 0 0 0 0 0 0 0 0 0 0 127 0" result="hardAlpha"/>
<feOffset dy="1"/>
<feGaussianBlur stdDeviation="1"/>
<feColorMatrix type="matrix" values="0 0 0 0 0 0 0 0 0 0 0 0 0 0 0 0 0 0 0.3 0"/>
<feBlend mode="normal" in2="BackgroundImageFix" result="effect1_dropShadow_491_223"/>
<feColorMatrix in="SourceAlpha" type="matrix" values="0 0 0 0 0 0 0 0 0 0 0 0 0 0 0 0 0 0 127 0" result="hardAlpha"/>
<feMorphology radius="1" operator="dilate" in="SourceAlpha" result="effect2_dropShadow_491_223"/>
<feOffset dy="1"/>
<feGaussianBlur stdDeviation="1.5"/>
<feColorMatrix type="matrix" values="0 0 0 0 0 0 0 0 0 0 0 0 0 0 0 0 0 0 0.15 0"/>
<feBlend mode="normal" in2="effect1_dropShadow_491_223" result="effect2_dropShadow_491_223"/>
<feBlend mode="normal" in="SourceGraphic" in2="effect2_dropShadow_491_223" result="shape"/>
</filter>
<radialGradient id="paint0_radial_491_223" cx="0" cy="0" r="1" gradientUnits="userSpaceOnUse" gradientTransform="translate(529.5 60.5) rotate(90) scale(469.5)">
<stop stop-color="#5E97F6"/>
<stop offset="1" stop-color="#5E97F6" stop-opacity="0"/>
</radialGradient>
<clipPath id="clip0_491_223">
<rect width="598" height="340" rx="24" fill="white"/>
</clipPath>
</defs>
</svg>
