<svg width="598" height="340" viewBox="0 0 598 340" fill="none" xmlns="http://www.w3.org/2000/svg">
<g clip-path="url(#clip0_671_105)">
<rect width="598" height="340" rx="24" fill="#202124"/>
<circle cx="529.5" cy="60.5" r="469.5" fill="url(#paint0_radial_671_105)" fill-opacity="0.2"/>
<g filter="url(#filter0_dd_671_105)">
<path d="M109.745 169.203V170.563H104.46V169.203H109.745ZM104.884 165.047V175H103.168V165.047H104.884ZM111.064 165.047V175H109.355V165.047H111.064ZM117.314 173.517V169.989C117.314 169.725 117.266 169.497 117.17 169.306C117.074 169.114 116.929 168.966 116.733 168.861C116.541 168.757 116.3 168.704 116.008 168.704C115.739 168.704 115.507 168.75 115.311 168.841C115.115 168.932 114.962 169.055 114.853 169.21C114.743 169.365 114.689 169.54 114.689 169.736H113.048C113.048 169.445 113.119 169.162 113.26 168.889C113.401 168.615 113.606 168.371 113.875 168.157C114.144 167.943 114.465 167.774 114.839 167.651C115.213 167.528 115.632 167.467 116.097 167.467C116.653 167.467 117.145 167.56 117.573 167.747C118.006 167.934 118.346 168.216 118.592 168.595C118.843 168.968 118.968 169.438 118.968 170.003V173.291C118.968 173.628 118.991 173.931 119.036 174.2C119.086 174.465 119.157 174.695 119.248 174.891V175H117.56C117.482 174.822 117.421 174.597 117.375 174.323C117.334 174.045 117.314 173.776 117.314 173.517ZM117.553 170.502L117.567 171.521H116.384C116.079 171.521 115.81 171.55 115.577 171.609C115.345 171.664 115.151 171.746 114.996 171.855C114.841 171.965 114.725 172.097 114.648 172.252C114.57 172.407 114.531 172.582 114.531 172.778C114.531 172.974 114.577 173.154 114.668 173.318C114.759 173.478 114.891 173.603 115.065 173.694C115.242 173.785 115.457 173.831 115.707 173.831C116.044 173.831 116.338 173.763 116.589 173.626C116.844 173.485 117.045 173.314 117.191 173.113C117.336 172.908 117.414 172.715 117.423 172.532L117.956 173.264C117.902 173.451 117.808 173.651 117.676 173.865C117.544 174.079 117.371 174.285 117.156 174.48C116.947 174.672 116.694 174.829 116.398 174.952C116.106 175.075 115.769 175.137 115.386 175.137C114.903 175.137 114.472 175.041 114.094 174.85C113.716 174.654 113.419 174.392 113.205 174.063C112.991 173.731 112.884 173.355 112.884 172.936C112.884 172.544 112.957 172.197 113.103 171.896C113.253 171.591 113.472 171.336 113.759 171.131C114.051 170.926 114.406 170.771 114.825 170.666C115.245 170.557 115.723 170.502 116.261 170.502H117.553ZM122.545 169.012V175H120.897V167.604H122.47L122.545 169.012ZM124.808 167.556L124.794 169.087C124.694 169.069 124.584 169.055 124.466 169.046C124.352 169.037 124.238 169.032 124.124 169.032C123.841 169.032 123.593 169.073 123.379 169.155C123.165 169.233 122.985 169.347 122.839 169.497C122.698 169.643 122.588 169.821 122.511 170.03C122.433 170.24 122.388 170.475 122.374 170.734L121.998 170.762C121.998 170.297 122.044 169.866 122.135 169.47C122.226 169.073 122.363 168.725 122.545 168.424C122.732 168.123 122.964 167.888 123.242 167.72C123.525 167.551 123.851 167.467 124.22 167.467C124.32 167.467 124.427 167.476 124.541 167.494C124.66 167.512 124.748 167.533 124.808 167.556ZM130.415 173.469V164.5H132.069V175H130.572L130.415 173.469ZM125.602 171.384V171.24C125.602 170.68 125.668 170.169 125.801 169.709C125.933 169.244 126.124 168.845 126.375 168.513C126.625 168.175 126.931 167.918 127.291 167.74C127.651 167.558 128.056 167.467 128.508 167.467C128.954 167.467 129.346 167.553 129.683 167.727C130.021 167.9 130.308 168.148 130.545 168.472C130.782 168.791 130.971 169.174 131.112 169.62C131.253 170.062 131.354 170.554 131.413 171.097V171.555C131.354 172.083 131.253 172.566 131.112 173.004C130.971 173.441 130.782 173.82 130.545 174.139C130.308 174.458 130.018 174.704 129.677 174.877C129.339 175.05 128.945 175.137 128.494 175.137C128.047 175.137 127.644 175.043 127.284 174.856C126.929 174.67 126.625 174.408 126.375 174.07C126.124 173.733 125.933 173.337 125.801 172.881C125.668 172.421 125.602 171.922 125.602 171.384ZM127.25 171.24V171.384C127.25 171.721 127.279 172.035 127.339 172.327C127.402 172.619 127.5 172.876 127.633 173.1C127.765 173.318 127.936 173.492 128.145 173.619C128.36 173.742 128.615 173.804 128.911 173.804C129.285 173.804 129.592 173.722 129.834 173.558C130.075 173.394 130.264 173.173 130.401 172.895C130.542 172.612 130.638 172.298 130.688 171.951V170.714C130.661 170.445 130.604 170.194 130.517 169.962C130.435 169.729 130.324 169.527 130.182 169.354C130.041 169.176 129.866 169.039 129.656 168.943C129.451 168.843 129.207 168.793 128.925 168.793C128.624 168.793 128.369 168.857 128.159 168.984C127.949 169.112 127.776 169.287 127.639 169.511C127.507 169.734 127.409 169.994 127.346 170.29C127.282 170.586 127.25 170.903 127.25 171.24ZM136.002 173.359L137.711 167.604H138.763L138.476 169.326L136.754 175H135.81L136.002 173.359ZM134.997 167.604L136.33 173.387L136.439 175H135.386L133.383 167.604H134.997ZM140.363 173.318L141.655 167.604H143.261L141.265 175H140.212L140.363 173.318ZM138.941 167.604L140.629 173.291L140.841 175H139.898L138.155 169.319L137.868 167.604H138.941ZM148.752 173.517V169.989C148.752 169.725 148.704 169.497 148.609 169.306C148.513 169.114 148.367 168.966 148.171 168.861C147.98 168.757 147.738 168.704 147.447 168.704C147.178 168.704 146.945 168.75 146.749 168.841C146.553 168.932 146.401 169.055 146.291 169.21C146.182 169.365 146.127 169.54 146.127 169.736H144.487C144.487 169.445 144.557 169.162 144.699 168.889C144.84 168.615 145.045 168.371 145.314 168.157C145.583 167.943 145.904 167.774 146.278 167.651C146.651 167.528 147.071 167.467 147.536 167.467C148.092 167.467 148.584 167.56 149.012 167.747C149.445 167.934 149.785 168.216 150.031 168.595C150.281 168.968 150.407 169.438 150.407 170.003V173.291C150.407 173.628 150.429 173.931 150.475 174.2C150.525 174.465 150.596 174.695 150.687 174.891V175H148.998C148.921 174.822 148.859 174.597 148.814 174.323C148.773 174.045 148.752 173.776 148.752 173.517ZM148.992 170.502L149.005 171.521H147.823C147.517 171.521 147.248 171.55 147.016 171.609C146.784 171.664 146.59 171.746 146.435 171.855C146.28 171.965 146.164 172.097 146.086 172.252C146.009 172.407 145.97 172.582 145.97 172.778C145.97 172.974 146.016 173.154 146.107 173.318C146.198 173.478 146.33 173.603 146.503 173.694C146.681 173.785 146.895 173.831 147.146 173.831C147.483 173.831 147.777 173.763 148.028 173.626C148.283 173.485 148.483 173.314 148.629 173.113C148.775 172.908 148.853 172.715 148.862 172.532L149.395 173.264C149.34 173.451 149.247 173.651 149.115 173.865C148.982 174.079 148.809 174.285 148.595 174.48C148.385 174.672 148.133 174.829 147.836 174.952C147.545 175.075 147.207 175.137 146.825 175.137C146.342 175.137 145.911 175.041 145.533 174.85C145.154 174.654 144.858 174.392 144.644 174.063C144.43 173.731 144.323 173.355 144.323 172.936C144.323 172.544 144.396 172.197 144.541 171.896C144.692 171.591 144.911 171.336 145.198 171.131C145.489 170.926 145.845 170.771 146.264 170.666C146.683 170.557 147.162 170.502 147.7 170.502H148.992ZM153.984 169.012V175H152.336V167.604H153.908L153.984 169.012ZM156.246 167.556L156.233 169.087C156.132 169.069 156.023 169.055 155.904 169.046C155.791 169.037 155.677 169.032 155.563 169.032C155.28 169.032 155.032 169.073 154.818 169.155C154.603 169.233 154.423 169.347 154.278 169.497C154.136 169.643 154.027 169.821 153.949 170.03C153.872 170.24 153.826 170.475 153.813 170.734L153.437 170.762C153.437 170.297 153.482 169.866 153.573 169.47C153.665 169.073 153.801 168.725 153.984 168.424C154.17 168.123 154.403 167.888 154.681 167.72C154.963 167.551 155.289 167.467 155.658 167.467C155.759 167.467 155.866 167.476 155.98 167.494C156.098 167.512 156.187 167.533 156.246 167.556ZM160.603 175.137C160.056 175.137 159.561 175.048 159.119 174.87C158.682 174.688 158.308 174.435 157.998 174.111C157.693 173.788 157.458 173.407 157.294 172.97C157.13 172.532 157.048 172.061 157.048 171.555V171.281C157.048 170.702 157.132 170.178 157.301 169.709C157.469 169.24 157.704 168.839 158.005 168.506C158.306 168.169 158.661 167.911 159.071 167.733C159.481 167.556 159.926 167.467 160.404 167.467C160.933 167.467 161.396 167.556 161.792 167.733C162.188 167.911 162.517 168.162 162.776 168.485C163.041 168.804 163.237 169.185 163.364 169.627C163.496 170.069 163.562 170.557 163.562 171.09V171.794H157.848V170.611H161.936V170.481C161.926 170.185 161.867 169.907 161.758 169.647C161.653 169.388 161.491 169.178 161.272 169.019C161.054 168.859 160.762 168.779 160.397 168.779C160.124 168.779 159.88 168.839 159.666 168.957C159.456 169.071 159.281 169.237 159.14 169.456C158.998 169.675 158.889 169.939 158.812 170.249C158.739 170.554 158.702 170.898 158.702 171.281V171.555C158.702 171.878 158.745 172.179 158.832 172.457C158.923 172.73 159.055 172.97 159.229 173.175C159.402 173.38 159.611 173.542 159.857 173.66C160.104 173.774 160.384 173.831 160.698 173.831C161.095 173.831 161.448 173.751 161.758 173.592C162.068 173.432 162.337 173.207 162.564 172.915L163.433 173.756C163.273 173.988 163.066 174.212 162.811 174.426C162.555 174.635 162.243 174.806 161.874 174.938C161.509 175.071 161.086 175.137 160.603 175.137Z" fill="white"/>
</g>
<rect x="195" y="154" width="92" height="32" rx="3" stroke="#AF5CF7" stroke-width="2"/>
<path d="M234.067 171.76H235.776C235.721 172.411 235.539 172.993 235.229 173.503C234.919 174.009 234.484 174.408 233.923 174.699C233.363 174.991 232.681 175.137 231.879 175.137C231.264 175.137 230.71 175.027 230.218 174.809C229.726 174.585 229.304 174.271 228.953 173.865C228.602 173.455 228.334 172.961 228.147 172.382C227.964 171.803 227.873 171.156 227.873 170.44V169.613C227.873 168.898 227.967 168.251 228.154 167.672C228.345 167.093 228.618 166.599 228.974 166.188C229.329 165.774 229.755 165.457 230.252 165.238C230.753 165.02 231.316 164.91 231.941 164.91C232.734 164.91 233.404 165.056 233.95 165.348C234.497 165.639 234.921 166.043 235.222 166.558C235.527 167.073 235.714 167.663 235.782 168.328H234.073C234.028 167.9 233.928 167.533 233.773 167.228C233.622 166.922 233.399 166.69 233.103 166.53C232.807 166.366 232.419 166.284 231.941 166.284C231.549 166.284 231.207 166.357 230.915 166.503C230.624 166.649 230.38 166.863 230.184 167.146C229.988 167.428 229.84 167.777 229.739 168.191C229.644 168.602 229.596 169.071 229.596 169.6V170.44C229.596 170.942 229.639 171.397 229.726 171.808C229.817 172.213 229.954 172.562 230.136 172.854C230.323 173.145 230.56 173.371 230.847 173.53C231.134 173.69 231.478 173.77 231.879 173.77C232.367 173.77 232.761 173.692 233.062 173.537C233.367 173.382 233.597 173.157 233.752 172.86C233.912 172.56 234.016 172.193 234.067 171.76ZM241.314 171.288H238.724V169.928H241.314C241.766 169.928 242.13 169.855 242.408 169.709C242.686 169.563 242.889 169.363 243.017 169.107C243.149 168.848 243.215 168.551 243.215 168.219C243.215 167.904 243.149 167.61 243.017 167.337C242.889 167.059 242.686 166.836 242.408 166.667C242.13 166.498 241.766 166.414 241.314 166.414H239.25V175H237.534V165.047H241.314C242.085 165.047 242.739 165.184 243.276 165.457C243.819 165.726 244.231 166.1 244.514 166.578C244.796 167.052 244.938 167.594 244.938 168.205C244.938 168.848 244.796 169.399 244.514 169.859C244.231 170.32 243.819 170.673 243.276 170.919C242.739 171.165 242.085 171.288 241.314 171.288ZM252.261 165.047H253.97V171.698C253.97 172.455 253.805 173.088 253.477 173.599C253.149 174.109 252.703 174.494 252.138 174.754C251.577 175.009 250.95 175.137 250.258 175.137C249.542 175.137 248.904 175.009 248.344 174.754C247.783 174.494 247.341 174.109 247.017 173.599C246.698 173.088 246.539 172.455 246.539 171.698V165.047H248.248V171.698C248.248 172.177 248.33 172.571 248.494 172.881C248.658 173.186 248.89 173.412 249.191 173.558C249.492 173.703 249.847 173.776 250.258 173.776C250.668 173.776 251.021 173.703 251.317 173.558C251.618 173.412 251.85 173.186 252.014 172.881C252.179 172.571 252.261 172.177 252.261 171.698V165.047Z" fill="white"/>
<rect x="299" y="154" width="92" height="32" rx="3" stroke="#AF5CF7" stroke-width="2"/>
<path d="M339.632 169.914V173.715C339.491 173.902 339.27 174.107 338.969 174.33C338.673 174.549 338.279 174.738 337.786 174.897C337.294 175.057 336.681 175.137 335.947 175.137C335.323 175.137 334.751 175.032 334.232 174.822C333.712 174.608 333.263 174.296 332.885 173.886C332.511 173.476 332.222 172.977 332.017 172.389C331.812 171.796 331.709 171.122 331.709 170.365V169.675C331.709 168.923 331.803 168.253 331.989 167.665C332.181 167.073 332.454 166.571 332.81 166.161C333.165 165.751 333.594 165.441 334.095 165.231C334.601 165.017 335.173 164.91 335.811 164.91C336.626 164.91 337.301 165.047 337.834 165.32C338.372 165.589 338.787 165.963 339.078 166.441C339.37 166.92 339.555 167.467 339.632 168.082H337.95C337.896 167.736 337.789 167.426 337.629 167.152C337.474 166.879 337.251 166.665 336.959 166.51C336.672 166.35 336.298 166.271 335.838 166.271C335.442 166.271 335.093 166.346 334.792 166.496C334.491 166.646 334.241 166.868 334.04 167.159C333.844 167.451 333.696 167.806 333.596 168.226C333.496 168.645 333.446 169.123 333.446 169.661V170.365C333.446 170.912 333.502 171.397 333.616 171.821C333.735 172.245 333.904 172.603 334.122 172.895C334.346 173.186 334.617 173.407 334.936 173.558C335.255 173.703 335.615 173.776 336.016 173.776C336.408 173.776 336.729 173.744 336.98 173.681C337.23 173.612 337.429 173.533 337.574 173.441C337.725 173.346 337.841 173.255 337.923 173.168V171.192H335.852V169.914H339.632ZM345.513 171.288H342.922V169.928H345.513C345.964 169.928 346.328 169.855 346.606 169.709C346.884 169.563 347.087 169.363 347.215 169.107C347.347 168.848 347.413 168.551 347.413 168.219C347.413 167.904 347.347 167.61 347.215 167.337C347.087 167.059 346.884 166.836 346.606 166.667C346.328 166.498 345.964 166.414 345.513 166.414H343.448V175H341.732V165.047H345.513C346.283 165.047 346.937 165.184 347.475 165.457C348.017 165.726 348.429 166.1 348.712 166.578C348.994 167.052 349.136 167.594 349.136 168.205C349.136 168.848 348.994 169.399 348.712 169.859C348.429 170.32 348.017 170.673 347.475 170.919C346.937 171.165 346.283 171.288 345.513 171.288ZM356.459 165.047H358.168V171.698C358.168 172.455 358.004 173.088 357.676 173.599C357.347 174.109 356.901 174.494 356.336 174.754C355.775 175.009 355.149 175.137 354.456 175.137C353.74 175.137 353.102 175.009 352.542 174.754C351.981 174.494 351.539 174.109 351.216 173.599C350.897 173.088 350.737 172.455 350.737 171.698V165.047H352.446V171.698C352.446 172.177 352.528 172.571 352.692 172.881C352.856 173.186 353.089 173.412 353.389 173.558C353.69 173.703 354.046 173.776 354.456 173.776C354.866 173.776 355.219 173.703 355.515 173.558C355.816 173.412 356.049 173.186 356.213 172.881C356.377 172.571 356.459 172.177 356.459 171.698V165.047Z" fill="white"/>
<rect x="403" y="154" width="92" height="32" rx="3" stroke="#AF5CF7" stroke-width="2"/>
<path d="M440.59 165.047V175H438.888V165.047H440.59ZM443.714 165.047V166.414H435.791V165.047H443.714ZM449.007 171.288H446.416V169.928H449.007C449.458 169.928 449.823 169.855 450.101 169.709C450.379 169.563 450.581 169.363 450.709 169.107C450.841 168.848 450.907 168.551 450.907 168.219C450.907 167.904 450.841 167.61 450.709 167.337C450.581 167.059 450.379 166.836 450.101 166.667C449.823 166.498 449.458 166.414 449.007 166.414H446.942V175H445.227V165.047H449.007C449.777 165.047 450.431 165.184 450.969 165.457C451.511 165.726 451.924 166.1 452.206 166.578C452.489 167.052 452.63 167.594 452.63 168.205C452.63 168.848 452.489 169.399 452.206 169.859C451.924 170.32 451.511 170.673 450.969 170.919C450.431 171.165 449.777 171.288 449.007 171.288ZM459.953 165.047H461.662V171.698C461.662 172.455 461.498 173.088 461.17 173.599C460.842 174.109 460.395 174.494 459.83 174.754C459.269 175.009 458.643 175.137 457.95 175.137C457.235 175.137 456.596 175.009 456.036 174.754C455.475 174.494 455.033 174.109 454.71 173.599C454.391 173.088 454.231 172.455 454.231 171.698V165.047H455.94V171.698C455.94 172.177 456.022 172.571 456.186 172.881C456.35 173.186 456.583 173.412 456.884 173.558C457.184 173.703 457.54 173.776 457.95 173.776C458.36 173.776 458.713 173.703 459.01 173.558C459.31 173.412 459.543 173.186 459.707 172.881C459.871 172.571 459.953 172.177 459.953 171.698V165.047Z" fill="white"/>
</g>
<defs>
<filter id="filter0_dd_671_105" x="99.1684" y="161.5" width="68.3941" height="18.6367" filterUnits="userSpaceOnUse" color-interpolation-filters="sRGB">
<feFlood flood-opacity="0" result="BackgroundImageFix"/>
<feColorMatrix in="SourceAlpha" type="matrix" values="0 0 0 0 0 0 0 0 0 0 0 0 0 0 0 0 0 0 127 0" result="hardAlpha"/>
<feOffset dy="1"/>
<feGaussianBlur stdDeviation="1"/>
<feColorMatrix type="matrix" values="0 0 0 0 0 0 0 0 0 0 0 0 0 0 0 0 0 0 0.3 0"/>
<feBlend mode="normal" in2="BackgroundImageFix" result="effect1_dropShadow_671_105"/>
<feColorMatrix in="SourceAlpha" type="matrix" values="0 0 0 0 0 0 0 0 0 0 0 0 0 0 0 0 0 0 127 0" result="hardAlpha"/>
<feMorphology radius="1" operator="dilate" in="SourceAlpha" result="effect2_dropShadow_671_105"/>
<feOffset dy="1"/>
<feGaussianBlur stdDeviation="1.5"/>
<feColorMatrix type="matrix" values="0 0 0 0 0 0 0 0 0 0 0 0 0 0 0 0 0 0 0.15 0"/>
<feBlend mode="normal" in2="effect1_dropShadow_671_105" result="effect2_dropShadow_671_105"/>
<feBlend mode="normal" in="SourceGraphic" in2="effect2_dropShadow_671_105" result="shape"/>
</filter>
<radialGradient id="paint0_radial_671_105" cx="0" cy="0" r="1" gradientUnits="userSpaceOnUse" gradientTransform="translate(529.5 60.5) rotate(90) scale(469.5)">
<stop stop-color="#5E97F6"/>
<stop offset="1" stop-color="#5E97F6" stop-opacity="0"/>
</radialGradient>
<clipPath id="clip0_671_105">
<rect width="598" height="340" rx="24" fill="white"/>
</clipPath>
</defs>
</svg>
