<svg width="598" height="340" viewBox="0 0 598 340" fill="none" xmlns="http://www.w3.org/2000/svg">
<g clip-path="url(#clip0_829_1735)">
<rect width="598" height="340" rx="24" fill="#202124"/>
<circle cx="529.5" cy="60.5" r="469.5" fill="url(#paint0_radial_829_1735)" fill-opacity="0.2"/>
<circle cx="163.5" cy="307.5" r="469.5" fill="url(#paint1_radial_829_1735)" fill-opacity="0.2"/>
<path d="M72 98H526C527.657 98 529 99.3431 529 101V239C529 240.657 527.657 242 526 242H72C70.3431 242 69 240.657 69 239V101C69 99.3431 70.3431 98 72 98Z" stroke="#5BB974" stroke-width="2"/>
<rect x="90" y="182" width="90.767" height="39.442" rx="3" stroke="#669DF6" stroke-width="2"/>
<path d="M128.45 203.481H130.159C130.104 204.132 129.922 204.713 129.612 205.224C129.302 205.73 128.867 206.128 128.307 206.42C127.746 206.712 127.065 206.858 126.263 206.858C125.647 206.858 125.094 206.748 124.601 206.53C124.109 206.306 123.688 205.992 123.337 205.586C122.986 205.176 122.717 204.682 122.53 204.103C122.348 203.524 122.257 202.877 122.257 202.161V201.334C122.257 200.619 122.35 199.972 122.537 199.393C122.728 198.814 123.002 198.32 123.357 197.909C123.713 197.495 124.139 197.178 124.636 196.959C125.137 196.74 125.7 196.631 126.324 196.631C127.117 196.631 127.787 196.777 128.334 197.069C128.881 197.36 129.305 197.764 129.605 198.279C129.911 198.794 130.098 199.384 130.166 200.049H128.457C128.411 199.621 128.311 199.254 128.156 198.948C128.006 198.643 127.782 198.411 127.486 198.251C127.19 198.087 126.803 198.005 126.324 198.005C125.932 198.005 125.59 198.078 125.299 198.224C125.007 198.37 124.763 198.584 124.567 198.866C124.371 199.149 124.223 199.498 124.123 199.912C124.027 200.323 123.979 200.792 123.979 201.321V202.161C123.979 202.663 124.023 203.118 124.109 203.529C124.2 203.934 124.337 204.283 124.519 204.574C124.706 204.866 124.943 205.092 125.23 205.251C125.517 205.411 125.862 205.49 126.263 205.49C126.75 205.49 127.144 205.413 127.445 205.258C127.751 205.103 127.981 204.878 128.136 204.581C128.295 204.281 128.4 203.914 128.45 203.481ZM135.698 203.009H133.107V201.649H135.698C136.149 201.649 136.514 201.576 136.792 201.43C137.07 201.284 137.272 201.084 137.4 200.828C137.532 200.569 137.598 200.272 137.598 199.94C137.598 199.625 137.532 199.331 137.4 199.058C137.272 198.78 137.07 198.557 136.792 198.388C136.514 198.219 136.149 198.135 135.698 198.135H133.633V206.721H131.918V196.768H135.698C136.468 196.768 137.122 196.905 137.66 197.178C138.202 197.447 138.615 197.821 138.897 198.299C139.18 198.773 139.321 199.315 139.321 199.926C139.321 200.569 139.18 201.12 138.897 201.58C138.615 202.041 138.202 202.394 137.66 202.64C137.122 202.886 136.468 203.009 135.698 203.009ZM146.644 196.768H148.353V203.419C148.353 204.176 148.189 204.809 147.861 205.32C147.533 205.83 147.086 206.215 146.521 206.475C145.96 206.73 145.334 206.858 144.641 206.858C143.926 206.858 143.288 206.73 142.727 206.475C142.167 206.215 141.724 205.83 141.401 205.32C141.082 204.809 140.922 204.176 140.922 203.419V196.768H142.631V203.419C142.631 203.898 142.713 204.292 142.877 204.602C143.042 204.907 143.274 205.133 143.575 205.279C143.875 205.424 144.231 205.497 144.641 205.497C145.051 205.497 145.404 205.424 145.701 205.279C146.001 205.133 146.234 204.907 146.398 204.602C146.562 204.292 146.644 203.898 146.644 203.419V196.768Z" fill="#DADCE0"/>
<rect x="199.078" y="182" width="90.767" height="39.442" rx="3" stroke="#669DF6" stroke-width="2"/>
<path d="M239.093 201.635V205.436C238.952 205.623 238.731 205.828 238.43 206.051C238.134 206.27 237.74 206.459 237.247 206.618C236.755 206.778 236.142 206.858 235.409 206.858C234.784 206.858 234.212 206.753 233.693 206.543C233.173 206.329 232.724 206.017 232.346 205.607C231.972 205.197 231.683 204.698 231.478 204.11C231.273 203.517 231.17 202.843 231.17 202.086V201.396C231.17 200.644 231.264 199.974 231.451 199.386C231.642 198.794 231.915 198.292 232.271 197.882C232.626 197.472 233.055 197.162 233.556 196.952C234.062 196.738 234.634 196.631 235.272 196.631C236.088 196.631 236.762 196.768 237.295 197.041C237.833 197.31 238.248 197.684 238.539 198.162C238.831 198.641 239.016 199.188 239.093 199.803H237.412C237.357 199.457 237.25 199.147 237.09 198.873C236.935 198.6 236.712 198.386 236.42 198.231C236.133 198.071 235.759 197.991 235.299 197.991C234.903 197.991 234.554 198.067 234.253 198.217C233.953 198.367 233.702 198.588 233.501 198.88C233.305 199.172 233.157 199.527 233.057 199.947C232.957 200.366 232.907 200.844 232.907 201.382V202.086C232.907 202.633 232.964 203.118 233.078 203.542C233.196 203.966 233.365 204.324 233.583 204.615C233.807 204.907 234.078 205.128 234.397 205.279C234.716 205.424 235.076 205.497 235.477 205.497C235.869 205.497 236.19 205.465 236.441 205.402C236.691 205.333 236.89 205.253 237.036 205.162C237.186 205.067 237.302 204.976 237.384 204.889V202.913H235.313V201.635H239.093ZM244.974 203.009H242.383V201.649H244.974C245.425 201.649 245.79 201.576 246.068 201.43C246.346 201.284 246.548 201.084 246.676 200.828C246.808 200.569 246.874 200.272 246.874 199.94C246.874 199.625 246.808 199.331 246.676 199.058C246.548 198.78 246.346 198.557 246.068 198.388C245.79 198.219 245.425 198.135 244.974 198.135H242.909V206.721H241.194V196.768H244.974C245.744 196.768 246.398 196.905 246.936 197.178C247.478 197.447 247.89 197.821 248.173 198.299C248.456 198.773 248.597 199.315 248.597 199.926C248.597 200.569 248.456 201.12 248.173 201.58C247.89 202.041 247.478 202.394 246.936 202.64C246.398 202.886 245.744 203.009 244.974 203.009ZM255.92 196.768H257.629V203.419C257.629 204.176 257.465 204.809 257.137 205.32C256.809 205.83 256.362 206.215 255.797 206.475C255.236 206.73 254.61 206.858 253.917 206.858C253.201 206.858 252.563 206.73 252.003 206.475C251.442 206.215 251 205.83 250.677 205.32C250.358 204.809 250.198 204.176 250.198 203.419V196.768H251.907V203.419C251.907 203.898 251.989 204.292 252.153 204.602C252.317 204.907 252.55 205.133 252.851 205.279C253.151 205.424 253.507 205.497 253.917 205.497C254.327 205.497 254.68 205.424 254.977 205.279C255.277 205.133 255.51 204.907 255.674 204.602C255.838 204.292 255.92 203.898 255.92 203.419V196.768Z" fill="#DADCE0"/>
<rect x="90" y="131" width="418" height="39.442" rx="3" stroke="#669DF6" stroke-width="2"/>
<path d="M288.204 145.768L290.317 149.398L292.429 145.768H294.404L291.397 150.697L294.48 155.721H292.484L290.317 152.023L288.15 155.721H286.147L289.237 150.697L286.222 145.768H288.204ZM302.179 154.361V155.721H297.182V154.361H302.179ZM297.66 145.768V155.721H295.944V145.768H297.66ZM307.718 147.094L304.744 155.721H302.946L306.692 145.768H307.841L307.718 147.094ZM310.206 155.721L307.225 147.094L307.096 145.768H308.251L312.011 155.721H310.206ZM310.062 152.03V153.39H304.648V152.03H310.062Z" fill="#DADCE0"/>
<rect x="308.155" y="182" width="90.767" height="39.442" rx="3" stroke="#669DF6" stroke-width="2"/>
<path d="M345.129 196.768V206.721H343.427V196.768H345.129ZM348.253 196.768V198.135H340.33V196.768H348.253ZM353.546 203.009H350.955V201.649H353.546C353.997 201.649 354.361 201.576 354.639 201.43C354.917 201.284 355.12 201.084 355.248 200.828C355.38 200.569 355.446 200.272 355.446 199.94C355.446 199.625 355.38 199.331 355.248 199.058C355.12 198.78 354.917 198.557 354.639 198.388C354.361 198.219 353.997 198.135 353.546 198.135H351.481V206.721H349.765V196.768H353.546C354.316 196.768 354.97 196.905 355.508 197.178C356.05 197.447 356.462 197.821 356.745 198.299C357.027 198.773 357.169 199.315 357.169 199.926C357.169 200.569 357.027 201.12 356.745 201.58C356.462 202.041 356.05 202.394 355.508 202.64C354.97 202.886 354.316 203.009 353.546 203.009ZM364.492 196.768H366.201V203.419C366.201 204.176 366.037 204.809 365.708 205.32C365.38 205.83 364.934 206.215 364.369 206.475C363.808 206.73 363.181 206.858 362.489 206.858C361.773 206.858 361.135 206.73 360.575 206.475C360.014 206.215 359.572 205.83 359.249 205.32C358.93 204.809 358.77 204.176 358.77 203.419V196.768H360.479V203.419C360.479 203.898 360.561 204.292 360.725 204.602C360.889 204.907 361.122 205.133 361.422 205.279C361.723 205.424 362.079 205.497 362.489 205.497C362.899 205.497 363.252 205.424 363.548 205.279C363.849 205.133 364.082 204.907 364.246 204.602C364.41 204.292 364.492 203.898 364.492 203.419V196.768Z" fill="#DADCE0"/>
<rect x="417.233" y="182" width="90.767" height="39.442" rx="3" stroke="#669DF6" stroke-width="2"/>
<path d="M457.488 205.901C457.488 205.645 457.574 205.431 457.747 205.258C457.921 205.08 458.155 204.991 458.452 204.991C458.752 204.991 458.987 205.08 459.156 205.258C459.329 205.431 459.415 205.645 459.415 205.901C459.415 206.156 459.329 206.37 459.156 206.543C458.987 206.716 458.752 206.803 458.452 206.803C458.155 206.803 457.921 206.716 457.747 206.543C457.574 206.37 457.488 206.156 457.488 205.901ZM461.584 205.901C461.584 205.645 461.671 205.431 461.844 205.258C462.017 205.08 462.252 204.991 462.548 204.991C462.849 204.991 463.084 205.08 463.252 205.258C463.425 205.431 463.512 205.645 463.512 205.901C463.512 206.156 463.425 206.37 463.252 206.543C463.084 206.716 462.849 206.803 462.548 206.803C462.252 206.803 462.017 206.716 461.844 206.543C461.671 206.37 461.584 206.156 461.584 205.901ZM465.681 205.901C465.681 205.645 465.767 205.431 465.94 205.258C466.114 205.08 466.348 204.991 466.645 204.991C466.945 204.991 467.18 205.08 467.349 205.258C467.522 205.431 467.608 205.645 467.608 205.901C467.608 206.156 467.522 206.37 467.349 206.543C467.18 206.716 466.945 206.803 466.645 206.803C466.348 206.803 466.114 206.716 465.94 206.543C465.767 206.37 465.681 206.156 465.681 205.901Z" fill="#DADCE0"/>
<path d="M291.028 116.013V109.047H292.737V116.013C292.737 116.674 292.595 117.236 292.313 117.701C292.03 118.166 291.645 118.521 291.157 118.768C290.67 119.014 290.116 119.137 289.496 119.137C288.863 119.137 288.3 119.03 287.808 118.815C287.32 118.601 286.937 118.273 286.659 117.831C286.381 117.389 286.242 116.828 286.242 116.149H287.965C287.965 116.541 288.027 116.858 288.15 117.1C288.277 117.337 288.455 117.51 288.683 117.619C288.915 117.724 289.186 117.776 289.496 117.776C289.793 117.776 290.055 117.71 290.282 117.578C290.515 117.441 290.697 117.243 290.829 116.983C290.961 116.719 291.028 116.396 291.028 116.013ZM298.638 110.373L295.664 119H293.866L297.612 109.047H298.761L298.638 110.373ZM301.126 119L298.146 110.373L298.016 109.047H299.171L302.931 119H301.126ZM300.982 115.309V116.669H295.568V115.309H300.982ZM305.551 109.047L307.663 112.677L309.775 109.047H311.751L308.743 113.976L311.826 119H309.83L307.663 115.302L305.496 119H303.493L306.583 113.976L303.568 109.047H305.551Z" fill="#DADCE0"/>
</g>
<defs>
<radialGradient id="paint0_radial_829_1735" cx="0" cy="0" r="1" gradientUnits="userSpaceOnUse" gradientTransform="translate(529.5 60.5) rotate(90) scale(469.5)">
<stop stop-color="#5E97F6"/>
<stop offset="1" stop-color="#5E97F6" stop-opacity="0"/>
</radialGradient>
<radialGradient id="paint1_radial_829_1735" cx="0" cy="0" r="1" gradientUnits="userSpaceOnUse" gradientTransform="translate(163.5 307.5) rotate(90) scale(469.5)">
<stop stop-color="#5E97F6"/>
<stop offset="1" stop-color="#5E97F6" stop-opacity="0"/>
</radialGradient>
<clipPath id="clip0_829_1735">
<rect width="598" height="340" rx="24" fill="white"/>
</clipPath>
</defs>
</svg>
