<svg width="598" height="340" viewBox="0 0 598 340" fill="none" xmlns="http://www.w3.org/2000/svg">
<g clip-path="url(#clip0_491_95)">
<rect width="598" height="340" rx="24" fill="#202124"/>
<circle cx="529.5" cy="60.5" r="469.5" fill="url(#paint0_radial_491_95)" fill-opacity="0.2"/>
<path d="M491 154.112L500.223 149H410.223L401 154.006H491V154.112Z" fill="#EB80FC"/>
<path d="M500.223 149L491 154.112V190.006L500.223 185V149Z" fill="#6A1B9A"/>
<path d="M491 154.005H401V190.005H491V154.005Z" fill="#F3E8FD"/>
<path d="M436.685 166.842V176.795H434.983V166.842H436.685ZM439.809 166.842V168.209H431.886V166.842H439.809ZM445.102 173.083H442.511V171.723H445.102C445.553 171.723 445.918 171.65 446.196 171.504C446.474 171.358 446.676 171.158 446.804 170.902C446.936 170.643 447.002 170.346 447.002 170.014C447.002 169.699 446.936 169.405 446.804 169.132C446.676 168.854 446.474 168.631 446.196 168.462C445.918 168.293 445.553 168.209 445.102 168.209H443.037V176.795H441.322V166.842H445.102C445.872 166.842 446.526 166.979 447.064 167.252C447.606 167.521 448.018 167.895 448.301 168.373C448.584 168.847 448.725 169.389 448.725 170C448.725 170.643 448.584 171.194 448.301 171.654C448.018 172.115 447.606 172.468 447.064 172.714C446.526 172.96 445.872 173.083 445.102 173.083ZM456.048 166.842H457.757V173.493C457.757 174.25 457.593 174.883 457.265 175.394C456.937 175.904 456.49 176.289 455.925 176.549C455.364 176.804 454.738 176.932 454.045 176.932C453.329 176.932 452.691 176.804 452.131 176.549C451.57 176.289 451.128 175.904 450.805 175.394C450.486 174.883 450.326 174.25 450.326 173.493V166.842H452.035V173.493C452.035 173.972 452.117 174.366 452.281 174.676C452.445 174.981 452.678 175.207 452.979 175.353C453.279 175.498 453.635 175.571 454.045 175.571C454.455 175.571 454.808 175.498 455.105 175.353C455.405 175.207 455.638 174.981 455.802 174.676C455.966 174.366 456.048 173.972 456.048 173.493V166.842Z" fill="#202124"/>
<path d="M385 154.112L394.223 149H304.223L295 154.006H385V154.112Z" fill="#EB80FC"/>
<path d="M394.223 149L385 154.112V190.006L394.223 185V149Z" fill="#6A1B9A"/>
<path d="M385 154.005H295V190.005H385V154.005Z" fill="#F3E8FD"/>
<path d="M334.227 171.709V175.51C334.086 175.697 333.865 175.902 333.564 176.125C333.268 176.344 332.873 176.533 332.381 176.693C331.889 176.852 331.276 176.932 330.542 176.932C329.918 176.932 329.346 176.827 328.827 176.617C328.307 176.403 327.858 176.091 327.48 175.681C327.106 175.271 326.817 174.772 326.612 174.184C326.407 173.591 326.304 172.917 326.304 172.16V171.47C326.304 170.718 326.398 170.048 326.584 169.46C326.776 168.868 327.049 168.366 327.405 167.956C327.76 167.546 328.189 167.236 328.69 167.026C329.196 166.812 329.768 166.705 330.406 166.705C331.221 166.705 331.896 166.842 332.429 167.115C332.967 167.384 333.382 167.758 333.673 168.236C333.965 168.715 334.15 169.262 334.227 169.877H332.545C332.491 169.531 332.384 169.221 332.224 168.947C332.069 168.674 331.846 168.46 331.554 168.305C331.267 168.145 330.893 168.066 330.433 168.066C330.037 168.066 329.688 168.141 329.387 168.291C329.086 168.442 328.836 168.663 328.635 168.954C328.439 169.246 328.291 169.601 328.191 170.021C328.091 170.44 328.04 170.918 328.04 171.456V172.16C328.04 172.707 328.097 173.193 328.211 173.616C328.33 174.04 328.498 174.398 328.717 174.69C328.941 174.981 329.212 175.202 329.531 175.353C329.85 175.498 330.21 175.571 330.611 175.571C331.003 175.571 331.324 175.54 331.575 175.476C331.825 175.407 332.024 175.328 332.169 175.236C332.32 175.141 332.436 175.05 332.518 174.963V172.987H330.447V171.709H334.227ZM340.108 173.083H337.517V171.723H340.108C340.559 171.723 340.923 171.65 341.201 171.504C341.479 171.358 341.682 171.158 341.81 170.902C341.942 170.643 342.008 170.346 342.008 170.014C342.008 169.699 341.942 169.405 341.81 169.132C341.682 168.854 341.479 168.631 341.201 168.462C340.923 168.293 340.559 168.209 340.108 168.209H338.043V176.795H336.327V166.842H340.108C340.878 166.842 341.532 166.979 342.07 167.252C342.612 167.521 343.024 167.895 343.307 168.373C343.589 168.847 343.731 169.389 343.731 170C343.731 170.643 343.589 171.194 343.307 171.654C343.024 172.115 342.612 172.468 342.07 172.714C341.532 172.96 340.878 173.083 340.108 173.083ZM351.054 166.842H352.763V173.493C352.763 174.25 352.599 174.883 352.271 175.394C351.942 175.904 351.496 176.289 350.931 176.549C350.37 176.804 349.744 176.932 349.051 176.932C348.335 176.932 347.697 176.804 347.137 176.549C346.576 176.289 346.134 175.904 345.811 175.394C345.492 174.883 345.332 174.25 345.332 173.493V166.842H347.041V173.493C347.041 173.972 347.123 174.366 347.287 174.676C347.451 174.981 347.684 175.207 347.984 175.353C348.285 175.498 348.641 175.571 349.051 175.571C349.461 175.571 349.814 175.498 350.11 175.353C350.411 175.207 350.644 174.981 350.808 174.676C350.972 174.366 351.054 173.972 351.054 173.493V166.842Z" fill="#202124"/>
<path d="M279 154.112L288.223 149H198.223L189 154.006H279V154.112Z" fill="#EB80FC"/>
<path d="M288.223 149L279 154.112V190.006L288.223 185V149Z" fill="#6A1B9A"/>
<path d="M279 154.005H189V190.005H279V154.005Z" fill="#F3E8FD"/>
<path d="M226.162 173.555H227.871C227.816 174.207 227.634 174.788 227.324 175.298C227.014 175.804 226.579 176.203 226.018 176.494C225.457 176.786 224.776 176.932 223.974 176.932C223.359 176.932 222.805 176.822 222.313 176.604C221.821 176.38 221.399 176.066 221.048 175.66C220.697 175.25 220.428 174.756 220.242 174.177C220.059 173.598 219.968 172.951 219.968 172.235V171.408C219.968 170.693 220.062 170.046 220.248 169.467C220.44 168.888 220.713 168.394 221.069 167.984C221.424 167.569 221.85 167.252 222.347 167.033C222.848 166.815 223.411 166.705 224.036 166.705C224.829 166.705 225.498 166.851 226.045 167.143C226.592 167.434 227.016 167.838 227.317 168.353C227.622 168.868 227.809 169.458 227.877 170.123H226.168C226.123 169.695 226.023 169.328 225.868 169.023C225.717 168.717 225.494 168.485 225.198 168.325C224.901 168.161 224.514 168.079 224.036 168.079C223.644 168.079 223.302 168.152 223.01 168.298C222.719 168.444 222.475 168.658 222.279 168.941C222.083 169.223 221.935 169.572 221.834 169.986C221.739 170.397 221.691 170.866 221.691 171.395V172.235C221.691 172.737 221.734 173.193 221.821 173.603C221.912 174.008 222.049 174.357 222.231 174.649C222.418 174.94 222.655 175.166 222.942 175.325C223.229 175.485 223.573 175.565 223.974 175.565C224.462 175.565 224.856 175.487 225.157 175.332C225.462 175.177 225.692 174.952 225.847 174.655C226.007 174.355 226.111 173.988 226.162 173.555ZM233.409 173.083H230.819V171.723H233.409C233.861 171.723 234.225 171.65 234.503 171.504C234.781 171.358 234.984 171.158 235.112 170.902C235.244 170.643 235.31 170.346 235.31 170.014C235.31 169.699 235.244 169.405 235.112 169.132C234.984 168.854 234.781 168.631 234.503 168.462C234.225 168.293 233.861 168.209 233.409 168.209H231.345V176.795H229.629V166.842H233.409C234.18 166.842 234.834 166.979 235.371 167.252C235.914 167.521 236.326 167.895 236.609 168.373C236.891 168.847 237.032 169.389 237.032 170C237.032 170.643 236.891 171.194 236.609 171.654C236.326 172.115 235.914 172.468 235.371 172.714C234.834 172.96 234.18 173.083 233.409 173.083ZM244.356 166.842H246.065V173.493C246.065 174.25 245.9 174.883 245.572 175.394C245.244 175.904 244.798 176.289 244.232 176.549C243.672 176.804 243.045 176.932 242.353 176.932C241.637 176.932 240.999 176.804 240.439 176.549C239.878 176.289 239.436 175.904 239.112 175.394C238.793 174.883 238.634 174.25 238.634 173.493V166.842H240.343V173.493C240.343 173.972 240.425 174.366 240.589 174.676C240.753 174.981 240.985 175.207 241.286 175.353C241.587 175.498 241.942 175.571 242.353 175.571C242.763 175.571 243.116 175.498 243.412 175.353C243.713 175.207 243.945 174.981 244.109 174.676C244.273 174.366 244.356 173.972 244.356 173.493V166.842Z" fill="#202124"/>
<g filter="url(#filter0_dd_491_95)">
<path d="M104.745 169.203V170.563H99.4604V169.203H104.745ZM99.8842 165.047V175H98.1684V165.047H99.8842ZM106.064 165.047V175H104.355V165.047H106.064ZM112.314 173.517V169.989C112.314 169.725 112.266 169.497 112.17 169.306C112.074 169.114 111.929 168.966 111.733 168.861C111.541 168.757 111.3 168.704 111.008 168.704C110.739 168.704 110.507 168.75 110.311 168.841C110.115 168.932 109.962 169.055 109.853 169.21C109.743 169.365 109.689 169.54 109.689 169.736H108.048C108.048 169.445 108.119 169.162 108.26 168.889C108.401 168.615 108.606 168.371 108.875 168.157C109.144 167.943 109.465 167.774 109.839 167.651C110.213 167.528 110.632 167.467 111.097 167.467C111.653 167.467 112.145 167.56 112.573 167.747C113.006 167.934 113.346 168.216 113.592 168.595C113.843 168.968 113.968 169.438 113.968 170.003V173.291C113.968 173.628 113.991 173.931 114.036 174.2C114.086 174.465 114.157 174.695 114.248 174.891V175H112.56C112.482 174.822 112.421 174.597 112.375 174.323C112.334 174.045 112.314 173.776 112.314 173.517ZM112.553 170.502L112.567 171.521H111.384C111.079 171.521 110.81 171.55 110.577 171.609C110.345 171.664 110.151 171.746 109.996 171.855C109.841 171.965 109.725 172.097 109.648 172.252C109.57 172.407 109.531 172.582 109.531 172.778C109.531 172.974 109.577 173.154 109.668 173.318C109.759 173.478 109.891 173.603 110.065 173.694C110.242 173.785 110.457 173.831 110.707 173.831C111.044 173.831 111.338 173.763 111.589 173.626C111.844 173.485 112.045 173.314 112.191 173.113C112.336 172.908 112.414 172.715 112.423 172.532L112.956 173.264C112.902 173.451 112.808 173.651 112.676 173.865C112.544 174.079 112.371 174.285 112.156 174.48C111.947 174.672 111.694 174.829 111.398 174.952C111.106 175.075 110.769 175.137 110.386 175.137C109.903 175.137 109.472 175.041 109.094 174.85C108.716 174.654 108.419 174.392 108.205 174.063C107.991 173.731 107.884 173.355 107.884 172.936C107.884 172.544 107.957 172.197 108.103 171.896C108.253 171.591 108.472 171.336 108.759 171.131C109.051 170.926 109.406 170.771 109.825 170.666C110.245 170.557 110.723 170.502 111.261 170.502H112.553ZM117.545 169.012V175H115.897V167.604H117.47L117.545 169.012ZM119.808 167.556L119.794 169.087C119.694 169.069 119.584 169.055 119.466 169.046C119.352 169.037 119.238 169.032 119.124 169.032C118.841 169.032 118.593 169.073 118.379 169.155C118.165 169.233 117.985 169.347 117.839 169.497C117.698 169.643 117.588 169.821 117.511 170.03C117.433 170.24 117.388 170.475 117.374 170.734L116.998 170.762C116.998 170.297 117.044 169.866 117.135 169.47C117.226 169.073 117.363 168.725 117.545 168.424C117.732 168.123 117.964 167.888 118.242 167.72C118.525 167.551 118.851 167.467 119.22 167.467C119.32 167.467 119.427 167.476 119.541 167.494C119.66 167.512 119.748 167.533 119.808 167.556ZM125.415 173.469V164.5H127.069V175H125.572L125.415 173.469ZM120.602 171.384V171.24C120.602 170.68 120.668 170.169 120.801 169.709C120.933 169.244 121.124 168.845 121.375 168.513C121.625 168.175 121.931 167.918 122.291 167.74C122.651 167.558 123.056 167.467 123.508 167.467C123.954 167.467 124.346 167.553 124.683 167.727C125.021 167.9 125.308 168.148 125.545 168.472C125.782 168.791 125.971 169.174 126.112 169.62C126.253 170.062 126.354 170.554 126.413 171.097V171.555C126.354 172.083 126.253 172.566 126.112 173.004C125.971 173.441 125.782 173.82 125.545 174.139C125.308 174.458 125.018 174.704 124.677 174.877C124.339 175.05 123.945 175.137 123.494 175.137C123.047 175.137 122.644 175.043 122.284 174.856C121.929 174.67 121.625 174.408 121.375 174.07C121.124 173.733 120.933 173.337 120.801 172.881C120.668 172.421 120.602 171.922 120.602 171.384ZM122.25 171.24V171.384C122.25 171.721 122.279 172.035 122.339 172.327C122.402 172.619 122.5 172.876 122.633 173.1C122.765 173.318 122.936 173.492 123.145 173.619C123.36 173.742 123.615 173.804 123.911 173.804C124.285 173.804 124.592 173.722 124.834 173.558C125.075 173.394 125.264 173.173 125.401 172.895C125.542 172.612 125.638 172.298 125.688 171.951V170.714C125.661 170.445 125.604 170.194 125.517 169.962C125.435 169.729 125.324 169.527 125.182 169.354C125.041 169.176 124.866 169.039 124.656 168.943C124.451 168.843 124.207 168.793 123.925 168.793C123.624 168.793 123.369 168.857 123.159 168.984C122.949 169.112 122.776 169.287 122.639 169.511C122.507 169.734 122.409 169.994 122.346 170.29C122.282 170.586 122.25 170.903 122.25 171.24ZM131.002 173.359L132.711 167.604H133.763L133.476 169.326L131.754 175H130.81L131.002 173.359ZM129.997 167.604L131.33 173.387L131.439 175H130.386L128.383 167.604H129.997ZM135.363 173.318L136.655 167.604H138.261L136.265 175H135.212L135.363 173.318ZM133.941 167.604L135.629 173.291L135.841 175H134.898L133.155 169.319L132.868 167.604H133.941ZM143.752 173.517V169.989C143.752 169.725 143.704 169.497 143.609 169.306C143.513 169.114 143.367 168.966 143.171 168.861C142.98 168.757 142.738 168.704 142.447 168.704C142.178 168.704 141.945 168.75 141.749 168.841C141.553 168.932 141.401 169.055 141.291 169.21C141.182 169.365 141.127 169.54 141.127 169.736H139.487C139.487 169.445 139.557 169.162 139.699 168.889C139.84 168.615 140.045 168.371 140.314 168.157C140.583 167.943 140.904 167.774 141.278 167.651C141.651 167.528 142.071 167.467 142.536 167.467C143.092 167.467 143.584 167.56 144.012 167.747C144.445 167.934 144.785 168.216 145.031 168.595C145.281 168.968 145.407 169.438 145.407 170.003V173.291C145.407 173.628 145.429 173.931 145.475 174.2C145.525 174.465 145.596 174.695 145.687 174.891V175H143.998C143.921 174.822 143.859 174.597 143.814 174.323C143.773 174.045 143.752 173.776 143.752 173.517ZM143.992 170.502L144.005 171.521H142.823C142.517 171.521 142.248 171.55 142.016 171.609C141.784 171.664 141.59 171.746 141.435 171.855C141.28 171.965 141.164 172.097 141.086 172.252C141.009 172.407 140.97 172.582 140.97 172.778C140.97 172.974 141.016 173.154 141.107 173.318C141.198 173.478 141.33 173.603 141.503 173.694C141.681 173.785 141.895 173.831 142.146 173.831C142.483 173.831 142.777 173.763 143.028 173.626C143.283 173.485 143.483 173.314 143.629 173.113C143.775 172.908 143.853 172.715 143.862 172.532L144.395 173.264C144.34 173.451 144.247 173.651 144.115 173.865C143.982 174.079 143.809 174.285 143.595 174.48C143.385 174.672 143.133 174.829 142.836 174.952C142.545 175.075 142.207 175.137 141.825 175.137C141.342 175.137 140.911 175.041 140.533 174.85C140.154 174.654 139.858 174.392 139.644 174.063C139.43 173.731 139.323 173.355 139.323 172.936C139.323 172.544 139.396 172.197 139.541 171.896C139.692 171.591 139.911 171.336 140.198 171.131C140.489 170.926 140.845 170.771 141.264 170.666C141.683 170.557 142.162 170.502 142.7 170.502H143.992ZM148.984 169.012V175H147.336V167.604H148.908L148.984 169.012ZM151.246 167.556L151.233 169.087C151.132 169.069 151.023 169.055 150.904 169.046C150.791 169.037 150.677 169.032 150.563 169.032C150.28 169.032 150.032 169.073 149.818 169.155C149.603 169.233 149.423 169.347 149.278 169.497C149.136 169.643 149.027 169.821 148.949 170.03C148.872 170.24 148.826 170.475 148.813 170.734L148.437 170.762C148.437 170.297 148.482 169.866 148.573 169.47C148.665 169.073 148.801 168.725 148.984 168.424C149.17 168.123 149.403 167.888 149.681 167.72C149.963 167.551 150.289 167.467 150.658 167.467C150.759 167.467 150.866 167.476 150.98 167.494C151.098 167.512 151.187 167.533 151.246 167.556ZM155.603 175.137C155.056 175.137 154.561 175.048 154.119 174.87C153.682 174.688 153.308 174.435 152.998 174.111C152.693 173.788 152.458 173.407 152.294 172.97C152.13 172.532 152.048 172.061 152.048 171.555V171.281C152.048 170.702 152.132 170.178 152.301 169.709C152.469 169.24 152.704 168.839 153.005 168.506C153.306 168.169 153.661 167.911 154.071 167.733C154.481 167.556 154.926 167.467 155.404 167.467C155.933 167.467 156.396 167.556 156.792 167.733C157.188 167.911 157.517 168.162 157.776 168.485C158.041 168.804 158.237 169.185 158.364 169.627C158.496 170.069 158.562 170.557 158.562 171.09V171.794H152.848V170.611H156.936V170.481C156.926 170.185 156.867 169.907 156.758 169.647C156.653 169.388 156.491 169.178 156.272 169.019C156.054 168.859 155.762 168.779 155.397 168.779C155.124 168.779 154.88 168.839 154.666 168.957C154.456 169.071 154.281 169.237 154.14 169.456C153.998 169.675 153.889 169.939 153.812 170.249C153.739 170.554 153.702 170.898 153.702 171.281V171.555C153.702 171.878 153.745 172.179 153.832 172.457C153.923 172.73 154.055 172.97 154.229 173.175C154.402 173.38 154.611 173.542 154.857 173.66C155.104 173.774 155.384 173.831 155.698 173.831C156.095 173.831 156.448 173.751 156.758 173.592C157.068 173.432 157.337 173.207 157.564 172.915L158.433 173.756C158.273 173.988 158.066 174.212 157.811 174.426C157.555 174.635 157.243 174.806 156.874 174.938C156.509 175.071 156.086 175.137 155.603 175.137Z" fill="white"/>
</g>
</g>
<defs>
<filter id="filter0_dd_491_95" x="94.1684" y="161.5" width="68.3941" height="18.6367" filterUnits="userSpaceOnUse" color-interpolation-filters="sRGB">
<feFlood flood-opacity="0" result="BackgroundImageFix"/>
<feColorMatrix in="SourceAlpha" type="matrix" values="0 0 0 0 0 0 0 0 0 0 0 0 0 0 0 0 0 0 127 0" result="hardAlpha"/>
<feOffset dy="1"/>
<feGaussianBlur stdDeviation="1"/>
<feColorMatrix type="matrix" values="0 0 0 0 0 0 0 0 0 0 0 0 0 0 0 0 0 0 0.3 0"/>
<feBlend mode="normal" in2="BackgroundImageFix" result="effect1_dropShadow_491_95"/>
<feColorMatrix in="SourceAlpha" type="matrix" values="0 0 0 0 0 0 0 0 0 0 0 0 0 0 0 0 0 0 127 0" result="hardAlpha"/>
<feMorphology radius="1" operator="dilate" in="SourceAlpha" result="effect2_dropShadow_491_95"/>
<feOffset dy="1"/>
<feGaussianBlur stdDeviation="1.5"/>
<feColorMatrix type="matrix" values="0 0 0 0 0 0 0 0 0 0 0 0 0 0 0 0 0 0 0.15 0"/>
<feBlend mode="normal" in2="effect1_dropShadow_491_95" result="effect2_dropShadow_491_95"/>
<feBlend mode="normal" in="SourceGraphic" in2="effect2_dropShadow_491_95" result="shape"/>
</filter>
<radialGradient id="paint0_radial_491_95" cx="0" cy="0" r="1" gradientUnits="userSpaceOnUse" gradientTransform="translate(529.5 60.5) rotate(90) scale(469.5)">
<stop stop-color="#5E97F6"/>
<stop offset="1" stop-color="#5E97F6" stop-opacity="0"/>
</radialGradient>
<clipPath id="clip0_491_95">
<rect width="598" height="340" rx="24" fill="white"/>
</clipPath>
</defs>
</svg>
