<svg width="598" height="340" viewBox="0 0 598 340" fill="none" xmlns="http://www.w3.org/2000/svg">
<g clip-path="url(#clip0_849_318)">
<rect width="598" height="340" rx="24" fill="#202124"/>
<circle cx="529.5" cy="60.5" r="469.5" fill="url(#paint0_radial_849_318)" fill-opacity="0.2"/>
<circle cx="163.5" cy="307.5" r="469.5" fill="url(#paint1_radial_849_318)" fill-opacity="0.2"/>
<rect x="56.5" y="272.5" width="80" height="43" rx="7.5" fill="white" fill-opacity="0.15"/>
<rect x="56.5" y="272.5" width="80" height="43" rx="7.5" stroke="white"/>
<path d="M89.5666 295.76H91.2756C91.2209 296.411 91.0386 296.993 90.7287 297.503C90.4188 298.009 89.9836 298.408 89.423 298.699C88.8625 298.991 88.1812 299.137 87.3791 299.137C86.7639 299.137 86.2102 299.027 85.718 298.809C85.2258 298.585 84.8042 298.271 84.4533 297.865C84.1024 297.455 83.8335 296.961 83.6467 296.382C83.4644 295.803 83.3732 295.156 83.3732 294.44V293.613C83.3732 292.898 83.4667 292.251 83.6535 291.672C83.8449 291.093 84.1184 290.599 84.4738 290.188C84.8293 289.774 85.2554 289.457 85.7521 289.238C86.2535 289.02 86.8163 288.91 87.4406 288.91C88.2336 288.91 88.9035 289.056 89.4504 289.348C89.9973 289.639 90.4211 290.043 90.7219 290.558C91.0272 291.073 91.2141 291.663 91.2824 292.328H89.5734C89.5279 291.9 89.4276 291.533 89.2727 291.228C89.1223 290.922 88.899 290.69 88.6027 290.53C88.3065 290.366 87.9191 290.284 87.4406 290.284C87.0487 290.284 86.7069 290.357 86.4152 290.503C86.1236 290.649 85.8798 290.863 85.6838 291.146C85.4878 291.428 85.3397 291.777 85.2395 292.191C85.1438 292.602 85.0959 293.071 85.0959 293.6V294.44C85.0959 294.942 85.1392 295.397 85.2258 295.808C85.3169 296.213 85.4536 296.562 85.6359 296.854C85.8228 297.145 86.0598 297.371 86.3469 297.53C86.634 297.69 86.9781 297.77 87.3791 297.77C87.8667 297.77 88.2609 297.692 88.5617 297.537C88.8671 297.382 89.0972 297.157 89.2521 296.86C89.4117 296.56 89.5165 296.193 89.5666 295.76ZM96.8145 295.288H94.2236V293.928H96.8145C97.2656 293.928 97.6302 293.855 97.9082 293.709C98.1862 293.563 98.389 293.363 98.5166 293.107C98.6488 292.848 98.7148 292.551 98.7148 292.219C98.7148 291.904 98.6488 291.61 98.5166 291.337C98.389 291.059 98.1862 290.836 97.9082 290.667C97.6302 290.498 97.2656 290.414 96.8145 290.414H94.75V299H93.0342V289.047H96.8145C97.5846 289.047 98.2386 289.184 98.7764 289.457C99.3187 289.726 99.7311 290.1 100.014 290.578C100.296 291.052 100.438 291.594 100.438 292.205C100.438 292.848 100.296 293.399 100.014 293.859C99.7311 294.32 99.3187 294.673 98.7764 294.919C98.2386 295.165 97.5846 295.288 96.8145 295.288ZM107.761 289.047H109.47V295.698C109.47 296.455 109.305 297.088 108.977 297.599C108.649 298.109 108.203 298.494 107.638 298.754C107.077 299.009 106.45 299.137 105.758 299.137C105.042 299.137 104.404 299.009 103.844 298.754C103.283 298.494 102.841 298.109 102.517 297.599C102.198 297.088 102.039 296.455 102.039 295.698V289.047H103.748V295.698C103.748 296.177 103.83 296.571 103.994 296.881C104.158 297.186 104.39 297.412 104.691 297.558C104.992 297.703 105.347 297.776 105.758 297.776C106.168 297.776 106.521 297.703 106.817 297.558C107.118 297.412 107.35 297.186 107.514 296.881C107.679 296.571 107.761 296.177 107.761 295.698V289.047Z" fill="white"/>
<rect x="157.5" y="272.5" width="80" height="43" rx="7.5" fill="white" fill-opacity="0.15"/>
<rect x="157.5" y="272.5" width="80" height="43" rx="7.5" stroke="white"/>
<path d="M189.09 289.047V299H187.388V289.047H189.09ZM192.214 289.047V290.414H184.291V289.047H192.214ZM197.507 295.288H194.916V293.928H197.507C197.958 293.928 198.323 293.855 198.601 293.709C198.879 293.563 199.081 293.363 199.209 293.107C199.341 292.848 199.407 292.551 199.407 292.219C199.407 291.904 199.341 291.61 199.209 291.337C199.081 291.059 198.879 290.836 198.601 290.667C198.323 290.498 197.958 290.414 197.507 290.414H195.442V299H193.727V289.047H197.507C198.277 289.047 198.931 289.184 199.469 289.457C200.011 289.726 200.424 290.1 200.706 290.578C200.989 291.052 201.13 291.594 201.13 292.205C201.13 292.848 200.989 293.399 200.706 293.859C200.424 294.32 200.011 294.673 199.469 294.919C198.931 295.165 198.277 295.288 197.507 295.288ZM208.453 289.047H210.162V295.698C210.162 296.455 209.998 297.088 209.67 297.599C209.342 298.109 208.895 298.494 208.33 298.754C207.769 299.009 207.143 299.137 206.45 299.137C205.735 299.137 205.096 299.009 204.536 298.754C203.975 298.494 203.533 298.109 203.21 297.599C202.891 297.088 202.731 296.455 202.731 295.698V289.047H204.44V295.698C204.44 296.177 204.522 296.571 204.686 296.881C204.85 297.186 205.083 297.412 205.384 297.558C205.684 297.703 206.04 297.776 206.45 297.776C206.86 297.776 207.213 297.703 207.51 297.558C207.81 297.412 208.043 297.186 208.207 296.881C208.371 296.571 208.453 296.177 208.453 295.698V289.047Z" fill="white"/>
<rect x="258.5" y="272.5" width="80" height="43" rx="7.5" fill="white" fill-opacity="0.15"/>
<rect x="258.5" y="272.5" width="80" height="43" rx="7.5" stroke="white"/>
<path d="M293.132 293.914V297.715C292.991 297.902 292.77 298.107 292.469 298.33C292.173 298.549 291.779 298.738 291.286 298.897C290.794 299.057 290.181 299.137 289.447 299.137C288.823 299.137 288.251 299.032 287.732 298.822C287.212 298.608 286.763 298.296 286.385 297.886C286.011 297.476 285.722 296.977 285.517 296.389C285.312 295.796 285.209 295.122 285.209 294.365V293.675C285.209 292.923 285.303 292.253 285.489 291.665C285.681 291.073 285.954 290.571 286.31 290.161C286.665 289.751 287.094 289.441 287.595 289.231C288.101 289.017 288.673 288.91 289.311 288.91C290.126 288.91 290.801 289.047 291.334 289.32C291.872 289.589 292.287 289.963 292.578 290.441C292.87 290.92 293.055 291.467 293.132 292.082H291.45C291.396 291.736 291.289 291.426 291.129 291.152C290.974 290.879 290.751 290.665 290.459 290.51C290.172 290.35 289.798 290.271 289.338 290.271C288.942 290.271 288.593 290.346 288.292 290.496C287.991 290.646 287.741 290.868 287.54 291.159C287.344 291.451 287.196 291.806 287.096 292.226C286.996 292.645 286.946 293.123 286.946 293.661V294.365C286.946 294.912 287.002 295.397 287.116 295.821C287.235 296.245 287.404 296.603 287.622 296.895C287.846 297.186 288.117 297.407 288.436 297.558C288.755 297.703 289.115 297.776 289.516 297.776C289.908 297.776 290.229 297.744 290.48 297.681C290.73 297.612 290.929 297.533 291.074 297.441C291.225 297.346 291.341 297.255 291.423 297.168V295.192H289.352V293.914H293.132ZM299.013 295.288H296.422V293.928H299.013C299.464 293.928 299.828 293.855 300.106 293.709C300.384 293.563 300.587 293.363 300.715 293.107C300.847 292.848 300.913 292.551 300.913 292.219C300.913 291.904 300.847 291.61 300.715 291.337C300.587 291.059 300.384 290.836 300.106 290.667C299.828 290.498 299.464 290.414 299.013 290.414H296.948V299H295.232V289.047H299.013C299.783 289.047 300.437 289.184 300.975 289.457C301.517 289.726 301.929 290.1 302.212 290.578C302.494 291.052 302.636 291.594 302.636 292.205C302.636 292.848 302.494 293.399 302.212 293.859C301.929 294.32 301.517 294.673 300.975 294.919C300.437 295.165 299.783 295.288 299.013 295.288ZM309.959 289.047H311.668V295.698C311.668 296.455 311.504 297.088 311.176 297.599C310.847 298.109 310.401 298.494 309.836 298.754C309.275 299.009 308.649 299.137 307.956 299.137C307.24 299.137 306.602 299.009 306.042 298.754C305.481 298.494 305.039 298.109 304.716 297.599C304.397 297.088 304.237 296.455 304.237 295.698V289.047H305.946V295.698C305.946 296.177 306.028 296.571 306.192 296.881C306.356 297.186 306.589 297.412 306.889 297.558C307.19 297.703 307.546 297.776 307.956 297.776C308.366 297.776 308.719 297.703 309.015 297.558C309.316 297.412 309.549 297.186 309.713 296.881C309.877 296.571 309.959 296.177 309.959 295.698V289.047Z" fill="white"/>
<rect x="359.5" y="272.5" width="80" height="43" rx="7.5" fill="white" fill-opacity="0.15"/>
<rect x="359.5" y="272.5" width="80" height="43" rx="7.5" stroke="white"/>
<path d="M376.303 289.047V299H374.601V289.047H376.303ZM379.427 289.047V290.414H371.504V289.047H379.427ZM381.937 293.012V299H380.29V291.604H381.862L381.937 293.012ZM384.2 291.556L384.187 293.087C384.086 293.069 383.977 293.055 383.858 293.046C383.744 293.037 383.631 293.032 383.517 293.032C383.234 293.032 382.986 293.073 382.771 293.155C382.557 293.233 382.377 293.347 382.231 293.497C382.09 293.643 381.981 293.821 381.903 294.03C381.826 294.24 381.78 294.475 381.767 294.734L381.391 294.762C381.391 294.297 381.436 293.866 381.527 293.47C381.618 293.073 381.755 292.725 381.937 292.424C382.124 292.123 382.357 291.888 382.635 291.72C382.917 291.551 383.243 291.467 383.612 291.467C383.713 291.467 383.82 291.476 383.934 291.494C384.052 291.512 384.141 291.533 384.2 291.556ZM389.356 297.517V293.989C389.356 293.725 389.308 293.497 389.213 293.306C389.117 293.114 388.971 292.966 388.775 292.861C388.584 292.757 388.342 292.704 388.051 292.704C387.782 292.704 387.549 292.75 387.353 292.841C387.157 292.932 387.005 293.055 386.895 293.21C386.786 293.365 386.731 293.54 386.731 293.736H385.091C385.091 293.445 385.161 293.162 385.303 292.889C385.444 292.615 385.649 292.371 385.918 292.157C386.187 291.943 386.508 291.774 386.882 291.651C387.255 291.528 387.675 291.467 388.139 291.467C388.695 291.467 389.188 291.56 389.616 291.747C390.049 291.934 390.388 292.216 390.635 292.595C390.885 292.968 391.011 293.438 391.011 294.003V297.291C391.011 297.628 391.033 297.931 391.079 298.2C391.129 298.465 391.2 298.695 391.291 298.891V299H389.602C389.525 298.822 389.463 298.597 389.418 298.323C389.377 298.045 389.356 297.776 389.356 297.517ZM389.596 294.502L389.609 295.521H388.427C388.121 295.521 387.852 295.55 387.62 295.609C387.387 295.664 387.194 295.746 387.039 295.855C386.884 295.965 386.768 296.097 386.69 296.252C386.613 296.407 386.574 296.582 386.574 296.778C386.574 296.974 386.62 297.154 386.711 297.318C386.802 297.478 386.934 297.603 387.107 297.694C387.285 297.785 387.499 297.831 387.75 297.831C388.087 297.831 388.381 297.763 388.632 297.626C388.887 297.485 389.087 297.314 389.233 297.113C389.379 296.908 389.457 296.715 389.466 296.532L389.999 297.264C389.944 297.451 389.851 297.651 389.719 297.865C389.586 298.079 389.413 298.285 389.199 298.48C388.989 298.672 388.736 298.829 388.44 298.952C388.149 299.075 387.811 299.137 387.429 299.137C386.945 299.137 386.515 299.041 386.137 298.85C385.758 298.654 385.462 298.392 385.248 298.063C385.034 297.731 384.927 297.355 384.927 296.936C384.927 296.544 384.999 296.197 385.145 295.896C385.296 295.591 385.514 295.336 385.802 295.131C386.093 294.926 386.449 294.771 386.868 294.666C387.287 294.557 387.766 294.502 388.304 294.502H389.596ZM394.697 291.604V299H393.043V291.604H394.697ZM392.933 289.662C392.933 289.411 393.015 289.204 393.179 289.04C393.348 288.871 393.58 288.787 393.877 288.787C394.168 288.787 394.398 288.871 394.567 289.04C394.736 289.204 394.82 289.411 394.82 289.662C394.82 289.908 394.736 290.113 394.567 290.277C394.398 290.441 394.168 290.523 393.877 290.523C393.58 290.523 393.348 290.441 393.179 290.277C393.015 290.113 392.933 289.908 392.933 289.662ZM398.335 293.183V299H396.688V291.604H398.24L398.335 293.183ZM398.041 295.028L397.508 295.021C397.513 294.497 397.586 294.017 397.727 293.579C397.873 293.142 398.073 292.766 398.329 292.451C398.588 292.137 398.898 291.895 399.258 291.727C399.618 291.553 400.019 291.467 400.461 291.467C400.817 291.467 401.138 291.517 401.425 291.617C401.717 291.713 401.965 291.87 402.17 292.089C402.38 292.308 402.539 292.592 402.649 292.943C402.758 293.29 402.813 293.716 402.813 294.222V299H401.159V294.215C401.159 293.859 401.106 293.579 401.001 293.374C400.901 293.164 400.753 293.016 400.557 292.93C400.366 292.839 400.126 292.793 399.839 292.793C399.557 292.793 399.304 292.852 399.08 292.971C398.857 293.089 398.668 293.251 398.513 293.456C398.363 293.661 398.246 293.898 398.164 294.167C398.082 294.436 398.041 294.723 398.041 295.028ZM406.458 291.604V299H404.804V291.604H406.458ZM404.695 289.662C404.695 289.411 404.777 289.204 404.941 289.04C405.109 288.871 405.342 288.787 405.638 288.787C405.93 288.787 406.16 288.871 406.328 289.04C406.497 289.204 406.581 289.411 406.581 289.662C406.581 289.908 406.497 290.113 406.328 290.277C406.16 290.441 405.93 290.523 405.638 290.523C405.342 290.523 405.109 290.441 404.941 290.277C404.777 290.113 404.695 289.908 404.695 289.662ZM412.913 297.257V291.604H414.567V299H413.009L412.913 297.257ZM413.146 295.719L413.699 295.705C413.699 296.202 413.645 296.66 413.535 297.079C413.426 297.494 413.257 297.856 413.029 298.166C412.801 298.471 412.51 298.711 412.154 298.884C411.799 299.052 411.373 299.137 410.876 299.137C410.516 299.137 410.186 299.084 409.885 298.979C409.584 298.875 409.324 298.713 409.105 298.494C408.891 298.275 408.725 297.991 408.606 297.64C408.488 297.289 408.429 296.869 408.429 296.382V291.604H410.076V296.396C410.076 296.664 410.108 296.89 410.172 297.072C410.236 297.25 410.322 297.394 410.432 297.503C410.541 297.612 410.669 297.69 410.814 297.735C410.96 297.781 411.115 297.804 411.279 297.804C411.749 297.804 412.118 297.713 412.387 297.53C412.66 297.343 412.854 297.093 412.968 296.778C413.086 296.464 413.146 296.111 413.146 295.719ZM418.103 293.107V299H416.456V291.604H418.008L418.103 293.107ZM417.837 295.028L417.276 295.021C417.276 294.511 417.34 294.039 417.468 293.606C417.595 293.174 417.782 292.798 418.028 292.479C418.274 292.155 418.58 291.907 418.944 291.733C419.313 291.556 419.739 291.467 420.222 291.467C420.56 291.467 420.867 291.517 421.145 291.617C421.428 291.713 421.672 291.866 421.877 292.075C422.086 292.285 422.246 292.554 422.355 292.882C422.469 293.21 422.526 293.606 422.526 294.071V299H420.879V294.215C420.879 293.855 420.824 293.572 420.715 293.367C420.61 293.162 420.457 293.016 420.257 292.93C420.061 292.839 419.826 292.793 419.553 292.793C419.243 292.793 418.978 292.852 418.76 292.971C418.545 293.089 418.37 293.251 418.233 293.456C418.096 293.661 417.996 293.898 417.932 294.167C417.869 294.436 417.837 294.723 417.837 295.028ZM422.424 294.591L421.651 294.762C421.651 294.315 421.713 293.894 421.836 293.497C421.963 293.096 422.148 292.745 422.389 292.444C422.636 292.139 422.939 291.9 423.299 291.727C423.659 291.553 424.071 291.467 424.536 291.467C424.914 291.467 425.251 291.519 425.548 291.624C425.848 291.724 426.104 291.884 426.313 292.103C426.523 292.321 426.682 292.606 426.792 292.957C426.901 293.303 426.956 293.723 426.956 294.215V299H425.302V294.208C425.302 293.834 425.247 293.545 425.138 293.34C425.033 293.135 424.882 292.993 424.686 292.916C424.49 292.834 424.256 292.793 423.982 292.793C423.727 292.793 423.501 292.841 423.305 292.937C423.114 293.028 422.952 293.158 422.82 293.326C422.688 293.49 422.588 293.679 422.519 293.894C422.456 294.108 422.424 294.34 422.424 294.591Z" fill="white"/>
<rect x="460.5" y="272.5" width="80" height="43" rx="7.5" fill="white" fill-opacity="0.15"/>
<rect x="460.5" y="272.5" width="80" height="43" rx="7.5" stroke="white"/>
<path d="M495.371 298.18C495.371 297.924 495.458 297.71 495.631 297.537C495.804 297.359 496.039 297.271 496.335 297.271C496.636 297.271 496.871 297.359 497.039 297.537C497.212 297.71 497.299 297.924 497.299 298.18C497.299 298.435 497.212 298.649 497.039 298.822C496.871 298.995 496.636 299.082 496.335 299.082C496.039 299.082 495.804 298.995 495.631 298.822C495.458 298.649 495.371 298.435 495.371 298.18ZM499.468 298.18C499.468 297.924 499.554 297.71 499.728 297.537C499.901 297.359 500.135 297.271 500.432 297.271C500.732 297.271 500.967 297.359 501.136 297.537C501.309 297.71 501.396 297.924 501.396 298.18C501.396 298.435 501.309 298.649 501.136 298.822C500.967 298.995 500.732 299.082 500.432 299.082C500.135 299.082 499.901 298.995 499.728 298.822C499.554 298.649 499.468 298.435 499.468 298.18ZM503.564 298.18C503.564 297.924 503.651 297.71 503.824 297.537C503.997 297.359 504.232 297.271 504.528 297.271C504.829 297.271 505.064 297.359 505.232 297.537C505.405 297.71 505.492 297.924 505.492 298.18C505.492 298.435 505.405 298.649 505.232 298.822C505.064 298.995 504.829 299.082 504.528 299.082C504.232 299.082 503.997 298.995 503.824 298.822C503.651 298.649 503.564 298.435 503.564 298.18Z" fill="white"/>
<rect x="225.5" y="148.5" width="147" height="95" rx="15.5" fill="white" fill-opacity="0.15"/>
<rect x="225.5" y="148.5" width="147" height="95" rx="15.5" stroke="white"/>
<path d="M249.437 204.189L239 185.786L249.437 167.382H272.452L282.889 185.786L272.452 204.189H249.437Z" fill="#15273B"/>
<path d="M265.082 185.786L271.204 174.977L272.589 177.399L267.828 185.786L271.204 191.738H268.458L265.082 185.786Z" fill="#3775E0"/>
<path d="M256.807 185.786L250.685 196.595L249.3 194.172L254.061 185.786L250.685 179.834H253.431L256.807 185.786Z" fill="#5EA8DA"/>
<path d="M267.073 194.172L262.323 185.786L268.458 174.977H265.7L263.697 178.506L261.694 174.977H258.947L262.323 180.929L260.939 183.351L256.189 174.977H250.685L249.3 177.399H254.816L259.565 185.786L253.431 196.595H256.189L258.192 193.066L260.195 196.595H262.941L259.565 190.643L260.939 188.209L265.7 196.595H271.204L272.589 194.172H267.073Z" fill="white"/>
<path d="M239.026 217.807C239.026 215.436 240.503 213.922 242.654 213.922C244.806 213.922 246.271 215.436 246.271 217.807C246.271 220.177 244.806 221.691 242.654 221.691C240.503 221.691 239.026 220.154 239.026 217.807ZM244.84 217.807C244.84 216.199 243.999 215.25 242.654 215.25C241.31 215.25 240.468 216.193 240.468 217.807C240.468 219.42 241.31 220.375 242.654 220.375C243.999 220.375 244.84 219.391 244.84 217.807Z" fill="#15273B"/>
<path d="M252.645 218.721C252.645 220.655 251.684 221.691 250.305 221.691C249.675 221.691 249.177 221.464 248.84 221.091V223.677H247.489V217.44L247.037 216.508L248.342 215.832L248.714 216.619C249.092 216.159 249.675 215.78 250.454 215.78C251.815 215.78 252.645 216.91 252.645 218.721ZM251.255 218.709C251.255 217.638 250.78 217.003 249.864 217.003C249.492 217.003 249.137 217.096 248.84 217.271V220.16C249.126 220.352 249.469 220.462 249.83 220.462C250.717 220.462 251.255 219.839 251.255 218.715V218.709Z" fill="#15273B"/>
<path d="M258.396 218.942H254.791C254.905 219.81 255.569 220.346 256.668 220.346C257.269 220.346 257.921 220.218 258.356 219.979L257.944 221.353C257.566 221.569 256.994 221.685 256.307 221.685C254.47 221.685 253.389 220.515 253.389 218.715C253.389 216.916 254.453 215.774 256.181 215.774C257.646 215.774 258.533 216.624 258.533 217.999C258.533 218.302 258.487 218.674 258.396 218.942ZM254.82 218.086H257.234C257.194 217.259 256.822 216.904 256.181 216.904C255.466 216.904 254.98 217.341 254.82 218.086Z" fill="#15273B"/>
<path d="M264.387 217.603V221.551H263.036V218.15C263.036 217.411 262.739 217.02 262.047 217.02C261.646 217.02 261.274 217.16 260.971 217.3V221.551H259.62V217.428L259.168 216.444L260.473 215.809L260.896 216.689C261.509 216.129 262.144 215.786 262.785 215.786C263.82 215.786 264.387 216.409 264.387 217.597V217.603Z" fill="#15273B"/>
<path d="M271.437 214.062L269.188 217.917L271.442 221.557H269.84L268.541 219.432L268.278 218.808H268.215L267.975 219.42L266.75 221.557H265.188L267.5 217.766L265.222 214.062H266.802L268.164 216.287L268.387 216.857H268.45L268.69 216.269L269.903 214.068H271.431L271.437 214.062Z" fill="#5EA8DA"/>
<path d="M273.794 220.34H276.386V221.551H272.421V214.062H273.794V220.34Z" fill="#5EA8DA"/>
<path d="M281.799 221.551L281.21 219.641H278.669L278.069 221.551H276.678L279.081 214.056H280.821L283.218 221.551H281.805H281.799ZM279.024 218.494H280.849L280.088 216.048L279.974 215.466H279.9L279.785 216.048L279.024 218.494Z" fill="#5EA8DA"/>
<path d="M306.483 177.844C306.483 177.645 306.452 177.469 306.389 177.316C306.331 177.16 306.225 177.02 306.073 176.895C305.925 176.77 305.718 176.65 305.452 176.537C305.19 176.424 304.858 176.309 304.456 176.191C304.034 176.066 303.653 175.928 303.313 175.775C302.973 175.619 302.682 175.441 302.44 175.242C302.198 175.043 302.013 174.814 301.884 174.557C301.755 174.299 301.69 174.004 301.69 173.672C301.69 173.34 301.759 173.033 301.895 172.752C302.032 172.471 302.227 172.227 302.481 172.02C302.739 171.809 303.046 171.645 303.401 171.527C303.757 171.41 304.153 171.352 304.591 171.352C305.231 171.352 305.774 171.475 306.22 171.721C306.669 171.963 307.011 172.281 307.245 172.676C307.479 173.066 307.596 173.484 307.596 173.93H306.471C306.471 173.609 306.403 173.326 306.266 173.08C306.13 172.83 305.923 172.635 305.645 172.494C305.368 172.35 305.016 172.277 304.591 172.277C304.188 172.277 303.856 172.338 303.595 172.459C303.333 172.58 303.138 172.744 303.009 172.951C302.884 173.158 302.821 173.395 302.821 173.66C302.821 173.84 302.858 174.004 302.932 174.152C303.011 174.297 303.13 174.432 303.29 174.557C303.454 174.682 303.661 174.797 303.911 174.902C304.165 175.008 304.468 175.109 304.819 175.207C305.304 175.344 305.721 175.496 306.073 175.664C306.425 175.832 306.714 176.021 306.94 176.232C307.171 176.439 307.341 176.676 307.45 176.941C307.563 177.203 307.62 177.5 307.62 177.832C307.62 178.18 307.55 178.494 307.409 178.775C307.268 179.057 307.067 179.297 306.805 179.496C306.544 179.695 306.229 179.85 305.862 179.959C305.499 180.064 305.093 180.117 304.643 180.117C304.249 180.117 303.86 180.062 303.477 179.953C303.098 179.844 302.753 179.68 302.44 179.461C302.132 179.242 301.884 178.973 301.696 178.652C301.513 178.328 301.421 177.953 301.421 177.527H302.546C302.546 177.82 302.602 178.072 302.716 178.283C302.829 178.49 302.983 178.662 303.179 178.799C303.378 178.936 303.602 179.037 303.852 179.104C304.106 179.166 304.37 179.197 304.643 179.197C305.038 179.197 305.372 179.143 305.645 179.033C305.919 178.924 306.126 178.768 306.266 178.564C306.411 178.361 306.483 178.121 306.483 177.844ZM311.752 173.66V174.492H308.324V173.66H311.752ZM309.484 172.119H310.568V178.43C310.568 178.645 310.601 178.807 310.668 178.916C310.734 179.025 310.82 179.098 310.925 179.133C311.031 179.168 311.144 179.186 311.265 179.186C311.355 179.186 311.449 179.178 311.546 179.162C311.648 179.143 311.724 179.127 311.775 179.115L311.781 180C311.695 180.027 311.582 180.053 311.441 180.076C311.304 180.104 311.138 180.117 310.943 180.117C310.677 180.117 310.433 180.064 310.211 179.959C309.988 179.854 309.81 179.678 309.677 179.432C309.548 179.182 309.484 178.846 309.484 178.424V172.119ZM316.961 178.916V175.652C316.961 175.402 316.911 175.186 316.809 175.002C316.711 174.814 316.563 174.67 316.364 174.568C316.164 174.467 315.918 174.416 315.625 174.416C315.352 174.416 315.112 174.463 314.905 174.557C314.702 174.65 314.541 174.773 314.424 174.926C314.311 175.078 314.254 175.242 314.254 175.418H313.17C313.17 175.191 313.229 174.967 313.346 174.744C313.463 174.521 313.631 174.32 313.85 174.141C314.073 173.957 314.338 173.812 314.647 173.707C314.959 173.598 315.307 173.543 315.69 173.543C316.151 173.543 316.557 173.621 316.909 173.777C317.264 173.934 317.541 174.17 317.741 174.486C317.944 174.799 318.045 175.191 318.045 175.664V178.617C318.045 178.828 318.063 179.053 318.098 179.291C318.137 179.529 318.194 179.734 318.268 179.906V180H317.137C317.082 179.875 317.039 179.709 317.008 179.502C316.977 179.291 316.961 179.096 316.961 178.916ZM317.149 176.156L317.161 176.918H316.065C315.756 176.918 315.481 176.943 315.239 176.994C314.996 177.041 314.793 177.113 314.629 177.211C314.465 177.309 314.34 177.432 314.254 177.58C314.168 177.725 314.125 177.895 314.125 178.09C314.125 178.289 314.17 178.471 314.26 178.635C314.35 178.799 314.485 178.93 314.664 179.027C314.848 179.121 315.073 179.168 315.338 179.168C315.67 179.168 315.963 179.098 316.217 178.957C316.471 178.816 316.672 178.645 316.821 178.441C316.973 178.238 317.055 178.041 317.067 177.85L317.53 178.371C317.502 178.535 317.428 178.717 317.307 178.916C317.186 179.115 317.024 179.307 316.821 179.49C316.621 179.67 316.383 179.82 316.106 179.941C315.832 180.059 315.524 180.117 315.18 180.117C314.75 180.117 314.373 180.033 314.049 179.865C313.729 179.697 313.479 179.473 313.299 179.191C313.123 178.906 313.036 178.588 313.036 178.236C313.036 177.896 313.102 177.598 313.235 177.34C313.368 177.078 313.559 176.861 313.809 176.689C314.059 176.514 314.36 176.381 314.711 176.291C315.063 176.201 315.455 176.156 315.889 176.156H317.149ZM319.945 171H321.034V178.77L320.941 180H319.945V171ZM325.318 176.777V176.9C325.318 177.361 325.263 177.789 325.154 178.184C325.044 178.574 324.884 178.914 324.673 179.203C324.462 179.492 324.204 179.717 323.9 179.877C323.595 180.037 323.245 180.117 322.851 180.117C322.448 180.117 322.095 180.049 321.79 179.912C321.489 179.771 321.236 179.57 321.029 179.309C320.821 179.047 320.655 178.73 320.53 178.359C320.409 177.988 320.325 177.57 320.279 177.105V176.566C320.325 176.098 320.409 175.678 320.53 175.307C320.655 174.936 320.821 174.619 321.029 174.357C321.236 174.092 321.489 173.891 321.79 173.754C322.091 173.613 322.441 173.543 322.839 173.543C323.238 173.543 323.591 173.621 323.9 173.777C324.208 173.93 324.466 174.148 324.673 174.434C324.884 174.719 325.044 175.061 325.154 175.459C325.263 175.854 325.318 176.293 325.318 176.777ZM324.228 176.9V176.777C324.228 176.461 324.198 176.164 324.14 175.887C324.081 175.605 323.988 175.359 323.859 175.148C323.73 174.934 323.56 174.766 323.349 174.645C323.138 174.52 322.878 174.457 322.57 174.457C322.296 174.457 322.058 174.504 321.855 174.598C321.655 174.691 321.486 174.818 321.345 174.979C321.204 175.135 321.089 175.314 320.999 175.518C320.913 175.717 320.849 175.924 320.806 176.139V177.551C320.868 177.824 320.97 178.088 321.111 178.342C321.255 178.592 321.446 178.797 321.685 178.957C321.927 179.117 322.226 179.197 322.581 179.197C322.874 179.197 323.124 179.139 323.331 179.021C323.542 178.9 323.712 178.734 323.841 178.523C323.974 178.312 324.071 178.068 324.134 177.791C324.196 177.514 324.228 177.217 324.228 176.9ZM328.066 171V180H326.977V171H328.066ZM332.638 180.117C332.196 180.117 331.796 180.043 331.436 179.895C331.081 179.742 330.774 179.529 330.516 179.256C330.263 178.982 330.067 178.658 329.93 178.283C329.794 177.908 329.725 177.498 329.725 177.053V176.807C329.725 176.291 329.802 175.832 329.954 175.43C330.106 175.023 330.313 174.68 330.575 174.398C330.837 174.117 331.134 173.904 331.466 173.76C331.798 173.615 332.141 173.543 332.497 173.543C332.95 173.543 333.341 173.621 333.669 173.777C334.001 173.934 334.272 174.152 334.483 174.434C334.694 174.711 334.85 175.039 334.952 175.418C335.054 175.793 335.104 176.203 335.104 176.648V177.135H330.37V176.25H334.02V176.168C334.005 175.887 333.946 175.613 333.845 175.348C333.747 175.082 333.591 174.863 333.376 174.691C333.161 174.52 332.868 174.434 332.497 174.434C332.251 174.434 332.024 174.486 331.817 174.592C331.61 174.693 331.432 174.846 331.284 175.049C331.136 175.252 331.02 175.5 330.938 175.793C330.856 176.086 330.815 176.424 330.815 176.807V177.053C330.815 177.354 330.856 177.637 330.938 177.902C331.024 178.164 331.147 178.395 331.307 178.594C331.471 178.793 331.669 178.949 331.899 179.062C332.134 179.176 332.399 179.232 332.696 179.232C333.079 179.232 333.403 179.154 333.669 178.998C333.934 178.842 334.167 178.633 334.366 178.371L335.022 178.893C334.886 179.1 334.712 179.297 334.501 179.484C334.29 179.672 334.03 179.824 333.721 179.941C333.417 180.059 333.055 180.117 332.638 180.117ZM342.306 175.137V176.057H337.689V175.137H342.306ZM337.865 171.469V180H336.734V171.469H337.865ZM343.291 171.469V180H342.166V171.469H343.291ZM350.674 179.08V180H346.409V179.08H350.674ZM346.631 171.469V180H345.5V171.469H346.631ZM358.351 175.465V176.004C358.351 176.645 358.271 177.219 358.111 177.727C357.95 178.234 357.72 178.666 357.419 179.021C357.118 179.377 356.757 179.648 356.335 179.836C355.917 180.023 355.448 180.117 354.929 180.117C354.425 180.117 353.962 180.023 353.54 179.836C353.122 179.648 352.759 179.377 352.45 179.021C352.146 178.666 351.909 178.234 351.741 177.727C351.573 177.219 351.489 176.645 351.489 176.004V175.465C351.489 174.824 351.571 174.252 351.736 173.748C351.904 173.24 352.14 172.809 352.445 172.453C352.749 172.094 353.111 171.82 353.529 171.633C353.95 171.445 354.413 171.352 354.917 171.352C355.437 171.352 355.905 171.445 356.323 171.633C356.745 171.82 357.107 172.094 357.407 172.453C357.712 172.809 357.945 173.24 358.105 173.748C358.269 174.252 358.351 174.824 358.351 175.465ZM357.232 176.004V175.453C357.232 174.945 357.179 174.496 357.073 174.105C356.972 173.715 356.821 173.387 356.622 173.121C356.423 172.855 356.179 172.654 355.89 172.518C355.605 172.381 355.28 172.312 354.917 172.312C354.566 172.312 354.247 172.381 353.962 172.518C353.681 172.654 353.439 172.855 353.236 173.121C353.036 173.387 352.882 173.715 352.773 174.105C352.663 174.496 352.609 174.945 352.609 175.453V176.004C352.609 176.516 352.663 176.969 352.773 177.363C352.882 177.754 353.038 178.084 353.241 178.354C353.448 178.619 353.693 178.82 353.974 178.957C354.259 179.094 354.577 179.162 354.929 179.162C355.296 179.162 355.622 179.094 355.907 178.957C356.193 178.82 356.433 178.619 356.628 178.354C356.827 178.084 356.978 177.754 357.079 177.363C357.181 176.969 357.232 176.516 357.232 176.004ZM320.554 191.469L322.605 194.738L324.655 191.469H325.974L323.279 195.693L326.038 200H324.708L322.605 196.666L320.501 200H319.171L321.931 195.693L319.236 191.469H320.554ZM332.719 199.08V200H328.453V199.08H332.719ZM328.676 191.469V200H327.545V191.469H328.676ZM337.489 192.225L334.665 200H333.511L336.762 191.469H337.507L337.489 192.225ZM339.856 200L337.026 192.225L337.009 191.469H337.753L341.016 200H339.856ZM339.71 196.842V197.768H334.917V196.842H339.71ZM320.284 216.654H318.005V215.734H320.284C320.725 215.734 321.083 215.664 321.356 215.523C321.63 215.383 321.829 215.188 321.954 214.938C322.083 214.688 322.147 214.402 322.147 214.082C322.147 213.789 322.083 213.514 321.954 213.256C321.829 212.998 321.63 212.791 321.356 212.635C321.083 212.475 320.725 212.395 320.284 212.395H318.268V220H317.138V211.469H320.284C320.929 211.469 321.473 211.58 321.919 211.803C322.364 212.025 322.702 212.334 322.932 212.729C323.163 213.119 323.278 213.566 323.278 214.07C323.278 214.617 323.163 215.084 322.932 215.471C322.702 215.857 322.364 216.152 321.919 216.355C321.473 216.555 320.929 216.654 320.284 216.654ZM327.316 217.51V211.469H328.441V217.51C328.441 218.072 328.326 218.547 328.095 218.934C327.865 219.32 327.546 219.615 327.14 219.818C326.738 220.018 326.275 220.117 325.752 220.117C325.228 220.117 324.763 220.027 324.357 219.848C323.951 219.668 323.632 219.395 323.402 219.027C323.171 218.66 323.056 218.197 323.056 217.639H324.187C324.187 217.998 324.254 218.293 324.386 218.523C324.519 218.754 324.703 218.924 324.937 219.033C325.175 219.143 325.447 219.197 325.752 219.197C326.048 219.197 326.314 219.135 326.548 219.01C326.787 218.881 326.974 218.691 327.111 218.441C327.248 218.188 327.316 217.877 327.316 217.51ZM330.557 211.469H333.381C334.022 211.469 334.563 211.566 335.004 211.762C335.45 211.957 335.788 212.246 336.018 212.629C336.252 213.008 336.37 213.475 336.37 214.029C336.37 214.42 336.289 214.777 336.129 215.102C335.973 215.422 335.746 215.695 335.45 215.922C335.157 216.145 334.805 216.311 334.395 216.42L334.079 216.543H331.424L331.413 215.623H333.416C333.823 215.623 334.161 215.553 334.43 215.412C334.7 215.268 334.903 215.074 335.039 214.832C335.176 214.59 335.245 214.322 335.245 214.029C335.245 213.701 335.18 213.414 335.051 213.168C334.922 212.922 334.719 212.732 334.442 212.6C334.168 212.463 333.815 212.395 333.381 212.395H331.688V220H330.557V211.469ZM335.543 220L333.469 216.133L334.647 216.127L336.75 219.93V220H335.543ZM340.835 211.469V220H339.722V211.469H340.835ZM343.577 211.469V212.395H336.986V211.469H343.577Z" fill="white"/>
<rect x="225.5" y="25.5" width="147" height="94" rx="15.5" fill="white" fill-opacity="0.15"/>
<rect x="225.5" y="25.5" width="147" height="94" rx="15.5" stroke="white"/>
<path d="M269.444 72.1247L265.222 79.4995H273.667L277.889 72.1247H269.444Z" fill="#5E97F6" stroke="#DCE0DF" stroke-width="0.0538889" stroke-linejoin="round"/>
<path d="M261 86.8744L265.222 79.4996H273.667L269.444 86.8744H261Z" fill="#5E97F6" stroke="#DCE0DF" stroke-width="0.0538889" stroke-linejoin="round"/>
<path d="M282.111 79.4996H273.666L269.444 86.8744H277.888L282.111 79.4996Z" fill="#5E97F6" stroke="#DCE0DF" stroke-width="0.0538889" stroke-linejoin="round"/>
<path d="M290.556 79.4996H282.111L277.889 86.8744H286.333L290.556 79.4996Z" fill="#5E97F6" stroke="#DCE0DF" stroke-width="0.0538889" stroke-linejoin="round"/>
<path d="M286.333 72.1247L282.111 79.4995H290.556L294.778 72.1247H286.333Z" fill="#5E97F6" stroke="#DCE0DF" stroke-width="0.0538889" stroke-linejoin="round"/>
<path d="M290.555 64.7498L286.333 72.1247H294.777L299 64.7498H290.555Z" fill="#5E97F6" stroke="#DCE0DF" stroke-width="0.0538889" stroke-linejoin="round"/>
<path d="M294.778 57.3749L290.556 64.7499H299L303.222 57.3749H294.778Z" fill="#5E97F6" stroke="#DCE0DF" stroke-width="0.0538889" stroke-linejoin="round"/>
<path d="M299 50L294.778 57.3749H303.222L307.444 50H299Z" fill="#5E97F6" stroke="#DCE0DF" stroke-width="0.0538889" stroke-linejoin="round"/>
<path d="M261 86.8744L265.222 94.2494H273.667L269.444 86.8744H261Z" fill="#2A56C6" stroke="#DCE0DF" stroke-width="0.0538889" stroke-linejoin="round"/>
<path d="M282.111 94.2494H273.666L269.444 86.8744H277.888L282.111 94.2494Z" fill="#2A56C6" stroke="#DCE0DF" stroke-width="0.0538889" stroke-linejoin="round"/>
<path d="M290.556 94.2494H282.111L277.889 86.8744H286.333L290.556 94.2494Z" fill="#2A56C6" stroke="#DCE0DF" stroke-width="0.0538889" stroke-linejoin="round"/>
<path d="M294.777 86.8744L290.555 79.4996L286.333 86.8744L290.555 94.2494L294.777 86.8744Z" fill="#00796B" stroke="#DCE0DF" stroke-width="0.0538889" stroke-linejoin="round"/>
<path d="M303.222 72.1247L299 64.7498L294.778 72.1247H303.222Z" fill="#00796B" stroke="#DCE0DF" stroke-width="0.0538889" stroke-linejoin="round"/>
<path d="M303.222 57.3749L299 64.7499L303.222 72.1248L307.444 64.7499L303.222 57.3749Z" fill="#00796B" stroke="#DCE0DF" stroke-width="0.0538889" stroke-linejoin="round"/>
<path d="M282.111 79.4995L277.889 72.1247L273.667 79.4995H282.111Z" fill="#3367D6" stroke="#DCE0DF" stroke-width="0.0538889" stroke-linejoin="round"/>
<path d="M303.222 72.1247H294.778L290.556 79.4995H299L303.222 72.1247Z" fill="#26A69A" stroke="#DCE0DF" stroke-width="0.0538889" stroke-linejoin="round"/>
<path d="M311.666 72.1247H303.222L299 79.4995H307.444L311.666 72.1247Z" fill="#26A69A" stroke="#DCE0DF" stroke-width="0.0538889" stroke-linejoin="round"/>
<path d="M320.111 57.3749L315.889 50L311.667 57.3749L315.889 64.7499L320.111 57.3749Z" fill="#9C27B0" stroke="#DCE0DF" stroke-width="0.0538889" stroke-linejoin="round"/>
<path d="M324.333 64.7499L320.111 57.3749L315.889 64.7499L320.111 72.1248L324.333 64.7499Z" fill="#9C27B0" stroke="#DCE0DF" stroke-width="0.0538889" stroke-linejoin="round"/>
<path d="M328.555 72.1247L324.333 64.7498L320.111 72.1247L324.333 79.4995L328.555 72.1247Z" fill="#9C27B0" stroke="#DCE0DF" stroke-width="0.0538889" stroke-linejoin="round"/>
<path d="M332.777 79.4995L328.555 72.1247L324.333 79.4995L328.555 86.8744L332.777 79.4995Z" fill="#9C27B0" stroke="#DCE0DF" stroke-width="0.0538889" stroke-linejoin="round"/>
<path d="M337 86.8744L332.778 79.4996L328.555 86.8744L332.778 94.2494L337 86.8744Z" fill="#9C27B0" stroke="#DCE0DF" stroke-width="0.0538889" stroke-linejoin="round"/>
<path d="M332.778 50L328.556 57.3749L332.778 64.7499L337 57.3749L332.778 50Z" fill="#9C27B0" stroke="#DCE0DF" stroke-width="0.0538889" stroke-linejoin="round"/>
<path d="M324.333 64.7499L328.555 57.3749L332.777 64.7499L328.555 72.1248L324.333 64.7499Z" fill="#9C27B0" stroke="#DCE0DF" stroke-width="0.0538889" stroke-linejoin="round"/>
<path d="M320.111 72.1247L315.889 79.4995L320.111 86.8744L324.333 79.4995L320.111 72.1247Z" fill="#9C27B0" stroke="#DCE0DF" stroke-width="0.0538889" stroke-linejoin="round"/>
<path d="M315.889 94.2494L311.667 86.8744L315.889 79.4996L320.111 86.8744L315.889 94.2494Z" fill="#9C27B0" stroke="#DCE0DF" stroke-width="0.0538889" stroke-linejoin="round"/>
<path d="M307.444 94.2494L303.222 86.8744H311.666L315.888 94.2494H307.444Z" fill="#6A1B9A" stroke="#DCE0DF" stroke-width="0.0538889" stroke-linejoin="round"/>
<path d="M299 79.4996H290.556L294.778 86.8744H303.222L299 79.4996Z" fill="#00695C" stroke="#DCE0DF" stroke-width="0.0538889" stroke-linejoin="round"/>
<path d="M307.444 79.4996H299L303.222 86.8744L307.444 79.4996Z" fill="#00695C" stroke="#DCE0DF" stroke-width="0.0538889" stroke-linejoin="round"/>
<path d="M307.444 64.7498L311.666 72.1247H320.11L315.888 64.7498H307.444Z" fill="#00695C" stroke="#DCE0DF" stroke-width="0.0538889" stroke-linejoin="round"/>
<path d="M311.666 57.3749H303.222L307.444 64.7499H315.888L311.666 57.3749Z" fill="#00695C" stroke="#DCE0DF" stroke-width="0.0538889" stroke-linejoin="round"/>
<path d="M332.777 94.2494L328.555 86.8744H320.111L324.333 94.2494H332.777Z" fill="#00695C" stroke="#DCE0DF" stroke-width="0.0538889" stroke-linejoin="round"/>
<path d="M324.333 79.4996L320.111 86.8744H328.555L324.333 79.4996Z" fill="#00695C" stroke="#DCE0DF" stroke-width="0.0538889" stroke-linejoin="round"/>
<path d="M315.888 50H307.444L303.222 57.3749H311.666L315.888 50Z" fill="#EA80FC" stroke="#DCE0DF" stroke-width="0.0538889" stroke-linejoin="round"/>
<path d="M315.888 79.4996H307.444L303.222 86.8744H311.666L315.888 79.4996Z" fill="#EA80FC" stroke="#DCE0DF" stroke-width="0.0538889" stroke-linejoin="round"/>
<path d="M320.11 72.1247H311.666L307.444 79.4995H315.888L320.11 72.1247Z" fill="#EA80FC" stroke="#DCE0DF" stroke-width="0.0538889" stroke-linejoin="round"/>
<path d="M332.777 50H324.333L320.111 57.3749H328.555L332.777 50Z" fill="#EA80FC" stroke="#DCE0DF" stroke-width="0.0538889" stroke-linejoin="round"/>
<path d="M324.333 64.7499L320.111 57.3749H328.555L324.333 64.7499Z" fill="#EA80FC" stroke="#DCE0DF" stroke-width="0.0538889" stroke-linejoin="round"/>
<line x1="298.5" y1="120" x2="298.5" y2="148" stroke="white"/>
<line x1="298.5" y1="244" x2="298.5" y2="272" stroke="white"/>
<line x1="96.5" y1="258" x2="96.5" y2="272" stroke="white"/>
<line x1="197.5" y1="257" x2="197.5" y2="272" stroke="white"/>
<line x1="399.5" y1="257" x2="399.5" y2="272" stroke="white"/>
<line x1="500.5" y1="257" x2="500.5" y2="272" stroke="white"/>
<line x1="501" y1="257.5" x2="96" y2="257.5" stroke="white"/>
</g>
<defs>
<radialGradient id="paint0_radial_849_318" cx="0" cy="0" r="1" gradientUnits="userSpaceOnUse" gradientTransform="translate(529.5 60.5) rotate(90) scale(469.5)">
<stop stop-color="#5E97F6"/>
<stop offset="1" stop-color="#5E97F6" stop-opacity="0"/>
</radialGradient>
<radialGradient id="paint1_radial_849_318" cx="0" cy="0" r="1" gradientUnits="userSpaceOnUse" gradientTransform="translate(163.5 307.5) rotate(90) scale(469.5)">
<stop stop-color="#5E97F6"/>
<stop offset="1" stop-color="#5E97F6" stop-opacity="0"/>
</radialGradient>
<clipPath id="clip0_849_318">
<rect width="598" height="340" rx="24" fill="white"/>
</clipPath>
</defs>
</svg>
