<svg width="568" height="319" viewBox="0 0 568 319" fill="none" xmlns="http://www.w3.org/2000/svg">
<g clip-path="url(#clip0_334_10309)">
<path d="M314.788 286.04L198.423 234.254L82.0689 286.035V286.045V289.183V289.192L198.423 340.974L314.788 289.187V286.04Z" fill="black"/>
<path d="M198.423 234.254L82.0689 286.035V286.045L198.423 337.826L314.788 286.04L198.423 234.254Z" fill="url(#paint0_linear_334_10309)"/>
<g filter="url(#filter0_d_334_10309)">
<path d="M339.443 242.234C339.443 241.886 339.183 241.486 338.866 241.344L259.687 206.034C259.369 205.893 258.85 205.893 258.533 206.034L157.747 250.979C157.43 251.121 157.171 251.521 157.171 251.869V252.501C157.171 252.849 157.43 253.249 157.747 253.391L236.927 288.701C237.244 288.842 237.763 288.842 238.08 288.701L338.866 243.756C339.183 243.614 339.443 243.214 339.443 242.866V242.234Z" fill="black"/>
</g>
<path d="M352.197 240.729C352.197 240.344 351.909 239.902 351.557 239.745L263.819 200.699C263.468 200.542 262.893 200.542 262.541 200.699L150.862 250.4C150.51 250.556 150.222 250.999 150.222 251.383V252.083C150.222 252.468 150.51 252.91 150.862 253.067L238.599 292.113C238.951 292.269 239.526 292.269 239.878 292.113L351.557 242.412C351.909 242.256 352.197 241.813 352.197 241.428V240.729Z" fill="black"/>
<path d="M150.862 250.4C150.51 250.556 150.51 250.812 150.862 250.969L238.6 290.015C238.951 290.171 239.526 290.171 239.878 290.015L351.557 240.314C351.909 240.158 351.909 239.901 351.557 239.745L263.82 200.699C263.468 200.542 262.893 200.542 262.541 200.699L150.862 250.4Z" fill="url(#paint1_linear_334_10309)"/>
<g filter="url(#filter1_d_334_10309)">
<path d="M295.133 215.483C294.199 215.899 292.669 216.581 291.734 216.998L249.851 235.671C248.916 236.088 247.386 236.088 246.452 235.671L204.568 216.998C203.633 216.581 202.104 215.899 201.169 215.483L178.811 205.515C177.876 205.098 177.112 205.595 177.112 206.62V234.036C177.112 235.061 177.877 236.24 178.811 236.656L246.452 266.813C247.386 267.23 248.916 267.23 249.851 266.813L317.801 236.518C318.736 236.102 319.501 234.922 319.501 233.898V206.482C319.501 205.457 318.736 204.96 317.801 205.377L295.133 215.483V215.483Z" fill="url(#paint2_linear_334_10309)"/>
</g>
<path d="M296.391 214.307C295.336 214.776 293.61 215.544 292.555 216.013L245.293 237.047C244.238 237.516 242.513 237.516 241.458 237.047L194.196 216.013C193.141 215.544 191.415 214.776 190.36 214.307L165.131 203.079C164.076 202.61 163.214 203.17 163.214 204.324V235.205C163.214 236.359 164.077 237.687 165.131 238.156L241.458 272.124C242.513 272.594 244.238 272.594 245.293 272.124L321.969 238.001C323.024 237.531 323.887 236.203 323.887 235.049V204.168C323.887 203.014 323.024 202.454 321.969 202.923L296.391 214.307V214.307Z" fill="url(#paint3_linear_334_10309)"/>
<path d="M351.755 151.609C351.403 151.453 350.828 151.453 350.477 151.609L278.119 183.811C277.767 183.967 277.192 184.224 276.84 184.38L240.14 200.713C239.788 200.869 239.501 201.312 239.501 201.697V202.046C239.501 202.431 239.788 202.874 240.14 203.03L310.85 234.499C311.202 234.655 311.777 234.655 312.129 234.499L422.465 185.395C422.817 185.239 423.105 184.796 423.105 184.411V184.062C423.105 183.677 422.817 183.234 422.465 183.078L351.755 151.609Z" fill="black"/>
<path d="M351.756 151.61C351.404 151.453 350.829 151.453 350.478 151.61L278.12 183.812C277.768 183.968 277.193 184.224 276.841 184.38L240.141 200.713C239.789 200.87 239.789 201.126 240.141 201.282L310.851 232.751C311.203 232.907 311.778 232.907 312.13 232.751L422.466 183.647C422.818 183.491 422.818 183.235 422.466 183.078L351.756 151.61Z" fill="#7F6EB2"/>
<path d="M288.669 156.582C288.317 156.425 287.742 156.425 287.39 156.582L183.792 202.686C183.44 202.843 183.153 203.285 183.153 203.67C183.153 204.054 183.44 204.497 183.792 204.653L243.301 231.136C243.652 231.293 244.228 231.293 244.579 231.136L348.177 185.032C348.528 184.876 348.816 184.433 348.816 184.048C348.816 183.663 348.528 183.221 348.177 183.064L288.669 156.582Z" fill="black"/>
<path d="M183.792 202.686C183.44 202.842 183.44 203.099 183.792 203.255L243.299 229.738C243.651 229.894 244.226 229.894 244.578 229.738L348.175 183.633C348.527 183.477 348.527 183.221 348.175 183.064L288.668 156.581C288.316 156.425 287.741 156.425 287.389 156.581L183.792 202.686Z" fill="url(#paint4_linear_334_10309)"/>
<path d="M318.505 214.457L278.597 196.697L213.867 167.89L177.623 184.019L134.607 203.163V203.168V206.66V206.665L239.24 253.23L318.505 217.954V214.457Z" fill="black"/>
<path d="M278.597 196.697L213.867 167.89L177.623 184.019L134.607 203.163V203.169L239.24 249.734L318.505 214.457L278.597 196.697Z" fill="url(#paint5_linear_334_10309)"/>
<path d="M347.472 168.646C347.472 168.358 347.184 167.994 346.832 167.837L263.222 130.628C262.871 130.472 262.296 130.472 261.944 130.628L178.334 167.837C177.982 167.994 177.695 168.358 177.695 168.646C177.695 168.935 177.982 169.299 178.334 169.455L261.944 206.664C262.296 206.82 262.871 206.82 263.222 206.664L346.832 169.455C347.184 169.299 347.472 168.935 347.472 168.646Z" fill="black"/>
<g filter="url(#filter2_d_334_10309)">
<path d="M257.4 142.676C257.156 142.566 256.757 142.566 256.513 142.676L198.539 168.623C198.296 168.732 198.296 168.91 198.539 169.019L256.513 194.966C256.757 195.075 257.156 195.075 257.4 194.966L315.374 169.019C315.617 168.91 315.617 168.732 315.374 168.623L257.4 142.676Z" fill="#495353"/>
</g>
<path d="M263.223 130.628C262.871 130.471 262.296 130.471 261.944 130.628L178.334 167.837C177.983 167.993 177.983 168.249 178.334 168.406L261.944 205.615C262.296 205.771 262.871 205.771 263.223 205.615L346.833 168.406C347.184 168.249 347.184 167.993 346.833 167.837L263.223 130.628Z" fill="url(#paint6_linear_334_10309)"/>
<path d="M280.024 142.712C278.617 143.338 276.316 144.362 274.91 144.987L228.926 165.452C227.52 166.078 225.219 166.078 223.813 165.452L177.829 144.987C176.423 144.362 174.122 143.338 172.715 142.712L148.765 132.053C147.358 131.427 146.208 132.174 146.208 133.713V163.195C146.208 164.733 147.359 166.504 148.765 167.13L223.813 200.529C225.219 201.155 227.52 201.155 228.926 200.529L304.324 166.975C305.731 166.349 306.881 164.578 306.881 163.039V133.557C306.881 132.018 305.73 131.271 304.324 131.897L280.024 142.712Z" fill="url(#paint7_linear_334_10309)"/>
<path d="M213.018 82.836C212.667 82.6797 212.091 82.6797 211.74 82.836L109.53 128.322C109.178 128.479 108.891 128.921 108.891 129.306V130.775C108.891 131.16 109.178 131.603 109.53 131.759L211.739 177.246C212.091 177.402 212.666 177.402 213.018 177.246L315.227 131.759C315.579 131.603 315.866 131.16 315.866 130.775V129.306C315.866 128.921 315.579 128.479 315.227 128.322L213.018 82.8357L213.018 82.836Z" fill="black"/>
<path d="M213.018 82.836C212.666 82.6797 212.091 82.6797 211.74 82.836L109.53 128.322C109.178 128.479 109.178 128.735 109.53 128.891L211.739 174.378C212.091 174.535 212.666 174.535 213.018 174.378L315.227 128.891C315.579 128.735 315.579 128.479 315.227 128.322L213.018 82.8357L213.018 82.836Z" fill="url(#paint8_linear_334_10309)"/>
<g filter="url(#filter3_d_334_10309)">
<path d="M250.497 48.6726C249.479 48.2189 247.813 48.2189 246.794 48.6726L188.176 74.7858C187.157 75.2395 186.324 75.711 186.324 75.8334V101.555C186.324 102.67 187.157 103.954 188.176 104.407L246.794 130.521C247.813 130.974 249.479 130.974 250.497 130.521L309.369 104.295C310.388 103.841 311.221 102.557 311.221 101.442V75.8337C311.221 75.7731 310.388 75.3526 309.369 74.8989L250.497 48.6726Z" fill="url(#paint9_linear_334_10309)"/>
</g>
<path d="M251.154 22.5735C249.748 21.9476 247.447 21.9476 246.04 22.5735L165.091 58.599C163.684 59.2249 162.534 59.8754 162.534 60.0443V95.5291C162.534 97.0677 163.685 98.8386 165.091 99.4645L246.04 135.49C247.447 136.116 249.748 136.116 251.154 135.49L332.453 99.3089C333.86 98.683 335.01 96.9121 335.01 95.3734V60.0446C335.01 59.961 333.859 59.3809 332.453 58.7549L251.154 22.5735Z" fill="url(#paint10_linear_334_10309)"/>
<path d="M251.154 22.5735C249.748 21.9476 247.447 21.9476 246.04 22.5735L165.091 58.5989C163.684 59.2248 162.534 59.8753 162.534 60.0442C162.534 60.2131 163.685 60.8639 165.091 61.4895L194.943 74.7748C196.35 75.4007 198.651 76.4247 200.057 77.0506L246.041 97.5148C247.447 98.1408 249.748 98.1408 251.154 97.5148L297.138 77.0506C298.544 76.4247 300.845 75.4007 302.252 74.7748L332.454 61.3339C333.86 60.7079 335.011 60.1278 335.011 60.0442C335.011 59.9606 333.86 59.3805 332.454 58.7545L251.154 22.5735Z" fill="url(#paint11_linear_334_10309)"/>
</g>
<defs>
<filter id="filter0_d_334_10309" x="149.53" y="205.928" width="197.554" height="106.787" filterUnits="userSpaceOnUse" color-interpolation-filters="sRGB">
<feFlood flood-opacity="0" result="BackgroundImageFix"/>
<feColorMatrix in="SourceAlpha" type="matrix" values="0 0 0 0 0 0 0 0 0 0 0 0 0 0 0 0 0 0 127 0" result="hardAlpha"/>
<feOffset dy="16.2681"/>
<feGaussianBlur stdDeviation="3.82052"/>
<feComposite in2="hardAlpha" operator="out"/>
<feColorMatrix type="matrix" values="0 0 0 0 0 0 0 0 0 0 0 0 0 0 0 0 0 0 0.34 0"/>
<feBlend mode="normal" in2="BackgroundImageFix" result="effect1_dropShadow_334_10309"/>
<feBlend mode="normal" in="SourceGraphic" in2="effect1_dropShadow_334_10309" result="shape"/>
</filter>
<filter id="filter1_d_334_10309" x="167.992" y="205.229" width="155.699" height="81.3686" filterUnits="userSpaceOnUse" color-interpolation-filters="sRGB">
<feFlood flood-opacity="0" result="BackgroundImageFix"/>
<feColorMatrix in="SourceAlpha" type="matrix" values="0 0 0 0 0 0 0 0 0 0 0 0 0 0 0 0 0 0 127 0" result="hardAlpha"/>
<feOffset dx="-2.46485" dy="12.8172"/>
<feGaussianBlur stdDeviation="3.32755"/>
<feComposite in2="hardAlpha" operator="out"/>
<feColorMatrix type="matrix" values="0 0 0 0 0 0 0 0 0 0 0 0 0 0 0 0 0 0 0.46 0"/>
<feBlend mode="normal" in2="BackgroundImageFix" result="effect1_dropShadow_334_10309"/>
<feBlend mode="normal" in="SourceGraphic" in2="effect1_dropShadow_334_10309" result="shape"/>
</filter>
<filter id="filter2_d_334_10309" x="181.842" y="142.594" width="150.229" height="88.1948" filterUnits="userSpaceOnUse" color-interpolation-filters="sRGB">
<feFlood flood-opacity="0" result="BackgroundImageFix"/>
<feColorMatrix in="SourceAlpha" type="matrix" values="0 0 0 0 0 0 0 0 0 0 0 0 0 0 0 0 0 0 127 0" result="hardAlpha"/>
<feOffset dy="19.2259"/>
<feGaussianBlur stdDeviation="8.25726"/>
<feComposite in2="hardAlpha" operator="out"/>
<feColorMatrix type="matrix" values="0 0 0 0 0 0 0 0 0 0 0 0 0 0 0 0 0 0 0.69 0"/>
<feBlend mode="normal" in2="BackgroundImageFix" result="effect1_dropShadow_334_10309"/>
<feBlend mode="normal" in="SourceGraphic" in2="effect1_dropShadow_334_10309" result="shape"/>
</filter>
<filter id="filter3_d_334_10309" x="175.725" y="48.3323" width="143.63" height="102.001" filterUnits="userSpaceOnUse" color-interpolation-filters="sRGB">
<feFlood flood-opacity="0" result="BackgroundImageFix"/>
<feColorMatrix in="SourceAlpha" type="matrix" values="0 0 0 0 0 0 0 0 0 0 0 0 0 0 0 0 0 0 127 0" result="hardAlpha"/>
<feOffset dx="-1.23243" dy="10.1059"/>
<feGaussianBlur stdDeviation="4.68323"/>
<feComposite in2="hardAlpha" operator="out"/>
<feColorMatrix type="matrix" values="0 0 0 0 0 0 0 0 0 0 0 0 0 0 0 0 0 0 0.79 0"/>
<feBlend mode="normal" in2="BackgroundImageFix" result="effect1_dropShadow_334_10309"/>
<feBlend mode="normal" in="SourceGraphic" in2="effect1_dropShadow_334_10309" result="shape"/>
</filter>
<linearGradient id="paint0_linear_334_10309" x1="162.884" y1="300.568" x2="237.05" y2="285.869" gradientUnits="userSpaceOnUse">
<stop stop-color="#FE48C4"/>
<stop offset="1" stop-color="#801CA5"/>
</linearGradient>
<linearGradient id="paint1_linear_334_10309" x1="312.853" y1="236.877" x2="167.506" y2="290.247" gradientUnits="userSpaceOnUse">
<stop stop-color="#EA74FF"/>
<stop offset="1" stop-color="#32248C"/>
</linearGradient>
<linearGradient id="paint2_linear_334_10309" x1="221.672" y1="251.354" x2="260.285" y2="236.332" gradientUnits="userSpaceOnUse">
<stop/>
<stop offset="0.9999" stop-color="#27073A"/>
</linearGradient>
<linearGradient id="paint3_linear_334_10309" x1="213.496" y1="254.712" x2="257.047" y2="237.739" gradientUnits="userSpaceOnUse">
<stop/>
<stop offset="0.9999" stop-color="#27073A"/>
</linearGradient>
<linearGradient id="paint4_linear_334_10309" x1="322.299" y1="204.005" x2="247.438" y2="177.933" gradientUnits="userSpaceOnUse">
<stop stop-color="#6BC2FB"/>
<stop offset="1" stop-color="#6BD3FB"/>
</linearGradient>
<linearGradient id="paint5_linear_334_10309" x1="258.102" y1="118.329" x2="192.024" y2="230.083" gradientUnits="userSpaceOnUse">
<stop stop-color="#50FFEF"/>
<stop offset="1" stop-color="#12655B"/>
</linearGradient>
<linearGradient id="paint6_linear_334_10309" x1="318.006" y1="141.195" x2="228.462" y2="189.486" gradientUnits="userSpaceOnUse">
<stop stop-color="#38FFF8"/>
<stop offset="1" stop-color="#348FFD"/>
</linearGradient>
<linearGradient id="paint7_linear_334_10309" x1="261.501" y1="170.988" x2="226.523" y2="190.409" gradientUnits="userSpaceOnUse">
<stop stop-color="#1E31EE"/>
<stop offset="1" stop-color="#070C4F"/>
</linearGradient>
<linearGradient id="paint8_linear_334_10309" x1="247.685" y1="72.1322" x2="164.454" y2="148.577" gradientUnits="userSpaceOnUse">
<stop stop-color="#34CEFE"/>
<stop offset="1" stop-color="#E7366A"/>
</linearGradient>
<linearGradient id="paint9_linear_334_10309" x1="297.646" y1="95.3529" x2="232.915" y2="108.773" gradientUnits="userSpaceOnUse">
<stop stop-color="#5771B9"/>
<stop offset="1" stop-color="#1A1919"/>
</linearGradient>
<linearGradient id="paint10_linear_334_10309" x1="347.255" y1="92.6264" x2="195.07" y2="86.7931" gradientUnits="userSpaceOnUse">
<stop stop-color="#5771B9"/>
<stop offset="0.399077" stop-color="#9B27AF"/>
<stop offset="1" stop-color="#310A49"/>
</linearGradient>
<linearGradient id="paint11_linear_334_10309" x1="248.772" y1="22.1041" x2="248.772" y2="97.9843" gradientUnits="userSpaceOnUse">
<stop stop-color="#EA80FC"/>
<stop offset="1" stop-color="#BE4CD2"/>
</linearGradient>
<clipPath id="clip0_334_10309">
<rect width="568" height="340" fill="white" transform="translate(0 -21)"/>
</clipPath>
</defs>
</svg>
