<svg xmlns="http://www.w3.org/2000/svg" xmlns:xlink="http://www.w3.org/1999/xlink" xmlns:lucid="lucid" width="1742.3" height="609.14"><g transform="translate(240.9999999999999 -971.8609690446071)" lucid:page-tab-id="0_0"><path d="M-240 986a6 6 0 0 1 6-6h1728.3a6 6 0 0 1 6 6v588a6 6 0 0 1-6 6H-234a6 6 0 0 1-6-6z" stroke="#000" stroke-opacity="0" stroke-width="2" fill="#193057"/><path d="M1145.07 1120.34a12 12 0 0 1 12-12h305.86a12 12 0 0 1 12 12v297.48a12 12 0 0 1-12 12h-305.86a12 12 0 0 1-12-12z" stroke="#979ea8" stroke-width="5" fill-opacity="0"/><path d="M1190.22 1204.44v-.17a16.93 16.93 0 0 1 16.93-16.93 16.93 16.93 0 0 1 16.92 16.93 16.93 16.93 0 0 1-16.92 16.93 16.93 16.93 0 0 1-16.93-16.93v-.17" stroke="#000" stroke-opacity=".25" fill="#9391ff"/><path d="M1190.22 1257.45v-.17a16.93 16.93 0 0 1 16.93-16.93 16.93 16.93 0 0 1 16.92 16.93 16.93 16.93 0 0 1-16.92 16.93 16.93 16.93 0 0 1-16.93-16.92v-.17" stroke="#000" stroke-opacity=".25" fill="#ba23f6"/><path d="M1190.22 1310.46v-.17a16.93 16.93 0 0 1 16.93-16.94 16.93 16.93 0 0 1 16.92 16.93 16.93 16.93 0 0 1-16.92 16.92 16.93 16.93 0 0 1-16.93-16.93v-.18" stroke="#000" stroke-opacity=".25" fill="#ced4db"/><path d="M1190.22 1363.47v-.17a16.93 16.93 0 0 1 16.93-16.93 16.93 16.93 0 0 1 16.92 16.93 16.93 16.93 0 0 1-16.92 16.93 16.93 16.93 0 0 1-16.93-16.93v-.17" stroke="#000" stroke-opacity=".25" fill="#00c2a8"/><use xlink:href="#a" transform="matrix(1,0,0,1,1190.2174549364554,1142.199815132932) translate(0 25.89214409722222)"/><use xlink:href="#b" transform="matrix(1,0,0,1,1190.2174549364554,1142.199815132932) translate(105.82248263888889 25.89214409722222)"/><use xlink:href="#c" transform="matrix(1,0,0,1,1241.0035018467202,1187.3429679420562) translate(0 29.89214409722222)"/><use xlink:href="#d" transform="matrix(1,0,0,1,1241.0035018467202,1187.3429679420562) translate(53.889973958333336 29.89214409722222)"/><use xlink:href="#e" transform="matrix(1,0,0,1,1241.0035018467202,1187.3429679420562) translate(84.19487847222223 29.89214409722222)"/><use xlink:href="#f" transform="matrix(1,0,0,1,1241.0035018467202,1240.3534760360715) translate(0 29.89214409722222)"/><use xlink:href="#g" transform="matrix(1,0,0,1,1241.0035018467202,1240.3534760360715) translate(53.889973958333336 29.89214409722222)"/><use xlink:href="#h" transform="matrix(1,0,0,1,1241.0035018467202,1293.3639841300867) translate(0 29.89214409722222)"/><use xlink:href="#i" transform="matrix(1,0,0,1,1241.0035018467202,1346.374492224102) translate(0 29.89214409722222)"/><use xlink:href="#j" transform="matrix(1,0,0,1,1241.0035018467202,1346.374492224102) translate(96.15451388888889 29.89214409722222)"/><path d="M-205.18 1081.9a6 6 0 0 1 6-6h107a6 6 0 0 1 6 6v309.48a6 6 0 0 1-6 6h-107a6 6 0 0 1-6-6z" stroke="#ba23f6" stroke-width="4" fill-opacity="0"/><use xlink:href="#k" transform="matrix(1,0,0,1,-200.17957185730398,1080.8980060816443) translate(22.106336805555557 165.05555555555554)"/><path d="M-56.45 1081.9a6 6 0 0 1 6-6h879.4a6 6 0 0 1 6 6v33.92a6 6 0 0 1-6 6h-879.4a6 6 0 0 1-6-6z" stroke="#ba23f6" stroke-width="4" fill-opacity="0"/><use xlink:href="#l" transform="matrix(1,0,0,1,-51.44894178047832,1080.8980060816443) translate(306.1318359375 25.930555555555557)"/><use xlink:href="#m" transform="matrix(1,0,0,1,-51.44894178047832,1080.8980060816443) translate(418.8293185763889 25.930555555555557)"/><path d="M-56.45 1158.97a6 6 0 0 1 6-6H26.8a6 6 0 0 1 6 6v33.93a6 6 0 0 1-6 6h-77.25a6 6 0 0 1-6-6z" stroke="#ba23f6" stroke-width="4" fill-opacity="0"/><use xlink:href="#n" transform="matrix(1,0,0,1,-51.448941780478556,1157.9720801557182) translate(11.019965277777775 25.930555555555557)"/><path d="M62.54 1158.97a6 6 0 0 1 6-6h374.7a6 6 0 0 1 6 6v33.93a6 6 0 0 1-6 6H68.54a6 6 0 0 1-6-6z" stroke="#ba23f6" stroke-width="4" fill-opacity="0"/><use xlink:href="#o" transform="matrix(1,0,0,1,67.53556228098174,1157.9720801557182) translate(157.43120659722223 25.930555555555557)"/><path d="M-56.45 1250.82a6 6 0 0 1 6-6H86.28a6 6 0 0 1 6 6v33.93a6 6 0 0 1-6 6H-50.45a6 6 0 0 1-6-6z" stroke="#9391ff" stroke-width="4" fill-opacity="0"/><use xlink:href="#p" transform="matrix(1,0,0,1,-51.44894178047856,1249.82393200757) translate(45.78960503472222 25.930555555555557)"/><path d="M129.34 1250.82a6 6 0 0 1 6-6h136.73a6 6 0 0 1 6 6v33.93a6 6 0 0 1-6 6H135.34a6 6 0 0 1-6-6z" stroke="#9391ff" stroke-width="4" fill-opacity="0"/><use xlink:href="#q" transform="matrix(1,0,0,1,134.34196105531072,1249.82393200757) translate(35.07725694444444 25.930555555555557)"/><path d="M315.13 1250.82a6 6 0 0 1 6-6h136.73a6 6 0 0 1 6 6v33.93a6 6 0 0 1-6 6H321.13a6 6 0 0 1-6-6z" stroke="#9391ff" stroke-width="4" fill-opacity="0"/><use xlink:href="#r" transform="matrix(1,0,0,1,320.13286389110004,1249.82393200757) translate(38.735568576388886 25.930555555555557)"/><path d="M500.92 1250.82a6 6 0 0 1 6-6h136.73a6 6 0 0 1 6 6v33.93a6 6 0 0 1-6 6H506.92a6 6 0 0 1-6-6z" stroke="#9391ff" stroke-width="4" fill-opacity="0"/><use xlink:href="#s" transform="matrix(1,0,0,1,505.92376672688937,1249.82393200757) translate(34.223849826388886 25.930555555555557)"/><path d="M686.7 1249.3a6 6 0 0 1 6-6h136.75a6 6 0 0 1 6 6v33.92a6 6 0 0 1-6 6H692.7a6 6 0 0 1-6-6z" stroke="#00c2a8" stroke-width="4" fill-opacity="0"/><use xlink:href="#t" transform="matrix(1,0,0,1,691.7146695626786,1248.2968949705332) translate(17.42426215277777 25.930555555555557)"/><path d="M-56.45 1342.68a6 6 0 0 1 6-6h879.4a6 6 0 0 1 6 6v33.92a6 6 0 0 1-6 6h-879.4a6 6 0 0 1-6-6z" stroke="#9391ff" stroke-width="4" fill-opacity="0"/><use xlink:href="#u" transform="matrix(1,0,0,1,-51.448941780478435,1341.6757838594222) translate(417.4925130208333 25.930555555555557)"/><path d="M211.27 1434.53a6 6 0 0 1 6-6H354a6 6 0 0 1 6 6v33.92a6 6 0 0 1-6 6H217.27a6 6 0 0 1-6-6z" stroke="#ba23f6" stroke-width="4" fill-opacity="0"/><use xlink:href="#v" transform="matrix(1,0,0,1,216.26619235780726,1433.527635711274) translate(45.81944444444444 25.930555555555557)"/><path d="M389.74 1434.53a6 6 0 0 1 6-6h136.73a6 6 0 0 1 6 6v33.92a6 6 0 0 1-6 6H395.74a6 6 0 0 1-6-6z" stroke="#ba23f6" stroke-width="4" fill-opacity="0"/><use xlink:href="#w" transform="matrix(1,0,0,1,394.742948449998,1433.527635711274) translate(13.598849826388879 25.930555555555557)"/><path d="M211.27 1526.38a6 6 0 0 1 6-6h77.23a6 6 0 0 1 6 6v33.92a6 6 0 0 1-6 6h-77.23a6 6 0 0 1-6-6z" stroke="#ced4db" stroke-width="4" fill-opacity="0"/><use xlink:href="#x" transform="matrix(1,0,0,1,216.2661923578072,1525.3794875631256) translate(15.209418402777779 25.930555555555557)"/><path d="M449.24 1526.38a6 6 0 0 1 6-6h77.23a6 6 0 0 1 6 6v33.92a6 6 0 0 1-6 6h-77.24a6 6 0 0 1-6-6z" stroke="#ced4db" stroke-width="4" fill-opacity="0"/><use xlink:href="#y" transform="matrix(1,0,0,1,454.2352004807283,1525.3794875631256) translate(14.171006944444443 25.930555555555557)"/><path d="M330.25 1526.38a6 6 0 0 1 6-6h77.24a6 6 0 0 1 6 6v33.92a6 6 0 0 1-6 6h-77.25a6 6 0 0 1-6-6z" stroke="#ced4db" stroke-width="4" fill-opacity="0"/><use xlink:href="#z" transform="matrix(1,0,0,1,335.25069641926757,1525.3794875631256) translate(13.980034722222221 25.930555555555557)"/><path d="M-234.93 977.86a6 6 0 0 1 6-6h166.48a6 6 0 0 1 6 6v56.9a6 6 0 0 1-6 6h-166.48a6 6 0 0 1-6-6z" fill="none"/><use xlink:href="#A" transform="matrix(1,0,0,1,-234.92569787266905,971.8609690446071) translate(45.34960937499999 43.39214409722222)"/><path d="M300 977.86a6 6 0 0 1 6-6h166.5a6 6 0 0 1 6 6v56.9a6 6 0 0 1-6 6H306a6 6 0 0 1-6-6z" fill="none"/><use xlink:href="#B" transform="matrix(1,0,0,1,300.0100410588972,971.8609690446071) translate(40.56336805555556 43.39214409722222)"/><path d="M901.6 977.86a6 6 0 0 1 6-6h166.47a6 6 0 0 1 6 6v56.9a6 6 0 0 1-6 6H907.6a6 6 0 0 1-6-6z" fill="none"/><use xlink:href="#C" transform="matrix(1,0,0,1,901.5893334022231,971.8609690446071) translate(32.53656684027777 43.39214409722222)"/><path d="M-72.8 1047.3v4.07m0 8.14v8.14m0 8.14v8.14m0 8.13v8.14m0 8.12v8.14m0 8.13v8.13m0 8.14v8.13m0 8.14v8.13m0 8.14v8.14m0 8.14v8.13m0 8.15v8.14m0 8.12v8.14m0 8.13v8.13m0 8.13v8.14m0 8.13v8.14m0 8.14v8.14m0 8.14v8.13m0 8.15v8.13m0 8.14v8.13m0 8.14v8.13m0 8.13v8.14m0 8.13v4.07M982.95 1311.42h-4m-8.02 0h-8m-8.02 0h-8m-8 0h-8.02m-8 0h-8.02m-8 0h-8.03m-8 0h-8.02m-8 0h-8m-8.02 0h-8m-8.02 0h-8m-8.02 0h-8m-8.02 0h-8m-8.02 0h-8m-8.02 0h-8m-8.02 0h-8.02m-8 0h-8.02m-8 0h-8.02m-8 0h-8.02m-8 0h-8.02m-8 0h-8.02m-8 0h-8.02m-8 0h-8.02m-8 0h-8.02m-8 0h-8.02m-8.02 0h-8m-8.02 0h-8m-8.02 0h-8m-8.02 0h-8m-8.02 0h-8m-8.02 0h-8m-8.02 0h-8m-8.02 0h-8m-8.02 0h-8m-8.02 0h-8.02m-8 0h-8.02m-8 0h-8.02m-8 0h-8.02m-8 0h-8.02m-8 0h-8.02m-8 0h-8.02m-8 0h-8.02m-8 0h-8.02m-8 0h-8.02m-8.02 0h-8m-8.02 0h-8m-8.02 0h-8m-8.02 0h-8m-8.02 0h-8m-8.02 0h-8m-8.02 0h-8m-8.02 0h-8m-8.02 0h-8m-8.02 0h-8.02m-8 0h-8.02m-8 0h-8.02m-8 0h-8.02m-8 0h-8.02m-8 0h-8.02m-8 0H49.7m-8 0H33.7m-8 0h-8.02m-8 0H1.64m-8 0h-8.02m-8 0h-8.02m-8 0h-8m-8.02 0h-4M1114.72 1407.86h-4.03m-8.05 0h-8.04m-8.03 0h-8.04m-8.05 0h-8.04m-8.04 0h-8.04m-8.04 0h-8.05m-8.04 0h-8.04m-8.05 0h-8.04m-8.04 0h-8.04m-8.04 0h-8.04m-8.04 0h-8.05m-8.04 0h-8.03m-8.04 0h-8.04m-8.06 0h-8.04m-8.04 0h-8.04m-8.05 0h-8.04m-8.04 0h-8.05m-8.04 0h-8.04m-8.04 0h-8.04m-8.04 0h-8.04m-8.05 0H789m-8.03 0h-8.04m-8.04 0h-8.06m-8.04 0h-8.04m-8.04 0h-8.04m-8.05 0h-8.04m-8.05 0h-8.04m-8.03 0h-8.05m-8.04 0h-8.04m-8.04 0h-8.04m-8.05 0h-8.03m-8.04 0h-8.04m-8.05 0H596m-8.04 0h-8.04m-8.04 0h-8.04m-8.05 0h-8.05m-8.04 0h-8.03m-8.05 0h-8.04m-8.04 0h-8.04m-8.04 0h-8.05m-8.03 0h-8.04m-8.04 0h-8.05m-8.05 0h-8.04m-8.04 0h-8.04m-8.04 0H403m-8.05 0h-8.04m-8.03 0h-8.04m-8.05 0h-8.04m-8.04 0h-8.04m-8.04 0h-8.05m-8.04 0h-8.04m-8.05 0h-8.04m-8.04 0h-8.04m-8.04 0h-8.04m-8.04 0h-8.05m-8.04 0h-8.03m-8.04 0H210m-8.06 0h-8.04m-8.04 0h-8.04m-8.04 0h-8.05m-8.04 0h-8.05m-8.04 0h-8.04m-8.04 0h-8.04m-8.04 0H97.4m-8.05 0H81.3m-8.03 0h-8.04m-8.04 0h-8.06m-8.04 0h-8.04m-8.04 0h-8.04m-8.05 0H.9m-8.05 0h-8.04m-8.03 0h-8.05m-8.04 0h-8.04m-8.04 0h-8.04m-8.05 0h-8.03m-8.04 0h-8.04m-8.05 0h-8.05m-8.04 0h-8.04m-8.04 0h-8.04m-8.05 0h-8.05m-8.04 0h-8.03m-8.04 0h-8.05m-8.04 0h-4.02M1114.72 1497.42h-4.03m-8.05 0h-8.04m-8.03 0h-8.04m-8.05 0h-8.04m-8.04 0h-8.04m-8.04 0h-8.05m-8.04 0h-8.04m-8.05 0h-8.04m-8.04 0h-8.04m-8.04 0h-8.04m-8.04 0h-8.05m-8.04 0h-8.03m-8.04 0h-8.04m-8.06 0h-8.04m-8.04 0h-8.04m-8.05 0h-8.04m-8.04 0h-8.05m-8.04 0h-8.04m-8.04 0h-8.04m-8.04 0h-8.04m-8.05 0H789m-8.03 0h-8.04m-8.04 0h-8.06m-8.04 0h-8.04m-8.04 0h-8.04m-8.05 0h-8.04m-8.05 0h-8.04m-8.03 0h-8.05m-8.04 0h-8.04m-8.04 0h-8.04m-8.05 0h-8.03m-8.04 0h-8.04m-8.05 0H596m-8.04 0h-8.04m-8.04 0h-8.04m-8.05 0h-8.05m-8.04 0h-8.03m-8.05 0h-8.04m-8.04 0h-8.04m-8.04 0h-8.05m-8.03 0h-8.04m-8.04 0h-8.05m-8.05 0h-8.04m-8.04 0h-8.04m-8.04 0H403m-8.05 0h-8.04m-8.03 0h-8.04m-8.05 0h-8.04m-8.04 0h-8.04m-8.04 0h-8.05m-8.04 0h-8.04m-8.05 0h-8.04m-8.04 0h-8.04m-8.04 0h-8.04m-8.04 0h-8.05m-8.04 0h-8.03m-8.04 0H210m-8.06 0h-8.04m-8.04 0h-8.04m-8.04 0h-8.05m-8.04 0h-8.05m-8.04 0h-8.04m-8.04 0h-8.04m-8.04 0H97.4m-8.05 0H81.3m-8.03 0h-8.04m-8.04 0h-8.06m-8.04 0h-8.04m-8.04 0h-8.04m-8.05 0H.9m-8.05 0h-8.04m-8.03 0h-8.05m-8.04 0h-8.04m-8.04 0h-8.04m-8.05 0h-8.03m-8.04 0h-8.04m-8.05 0h-8.05m-8.04 0h-8.04m-8.04 0h-8.04m-8.05 0h-8.05m-8.04 0h-8.03m-8.04 0h-8.05m-8.04 0h-4.02" stroke="#ced4db" stroke-width="2" stroke-linecap="round" fill="none"/><g><path d="M851.55 1047.3v4.02m0 8.03v8.03m0 8.03v8.04m0 8.03v8.03m0 8.03v8.04m0 8.03v8.03m0 8.03v8.03m0 8.02v8.03m0 8.03v8.03m0 8.04v8.03m0 8.03v8.03m0 8.03v8.03m0 8.02v8.03m0 8.04v8.02m0 8.03v8.03m0 8.03v4.02" stroke="#ced4db" stroke-width="2" stroke-linecap="round" fill="none"/></g><path d="M868.16 1081.9a6 6 0 0 1 6-6h103.8a6 6 0 0 1 6 6v198.26a6 6 0 0 1-6 6h-103.8a6 6 0 0 1-6-6z" stroke="#ba23f6" stroke-width="4" fill-opacity="0"/><g><use xlink:href="#D" transform="matrix(1,0,0,1,873.1573296866187,1080.8980060816446) translate(21.209092881944443 92.77430555555556)"/><use xlink:href="#E" transform="matrix(1,0,0,1,873.1573296866187,1080.8980060816446) translate(28.20941840277778 128.26649305555554)"/></g><path d="M1000.42 1081.9a6 6 0 0 1 6-6h106.98a6 6 0 0 1 6 6v309.48a6 6 0 0 1-6 6h-106.98a6 6 0 0 1-6-6z" stroke="#00c2a8" stroke-width="4" fill-opacity="0"/><g><use xlink:href="#F" transform="matrix(1,0,0,1,1005.4167274261266,1080.8980060816443) translate(30.10329861111111 165.05555555555554)"/></g><defs><path fill="#fff" d="M659 0H135v-1490h529c448 0 721 280 721 744 0 466-273 746-726 746zM440-263h204c287 0 437-148 437-483 0-333-150-481-435-481H440v964" id="G"/><path fill="#fff" d="M128 0v-1118h300V0H128zm150-1264c-91 0-165-68-165-154 0-85 74-154 165-154 90 0 165 69 165 154 0 86-75 154-165 154" id="H"/><path fill="#fff" d="M440 22C227 22 68-92 68-313c0-250 202-322 422-343 195-21 271-24 271-105 0-95-63-149-175-149-116 0-187 57-211 129l-275-46c57-194 237-305 487-305 240 0 474 108 474 379V0H777v-155h-10C713-51 605 22 440 22zm85-211c140 0 238-93 238-211v-121c-37 26-156 42-222 51-111 16-185 59-185 149 0 87 70 132 169 132" id="I"/><path fill="#fff" d="M625 442c-280 0-454-114-503-274l258-72c28 63 97 128 243 128 153 0 246-69 246-216v-206h-23C805-108 717-16 536-16 284-16 81-191 81-561c0-378 208-571 456-571 188 0 280 113 321 202h13v-188h295V-9c0 303-226 451-541 451zm5-686c153 0 240-119 240-319 0-198-86-329-240-329-158 0-241 137-241 329 0 195 85 319 241 319" id="J"/><path fill="#fff" d="M128 0v-1118h290v195h12c54-169 184-238 367-200v268c-27-8-86-15-130-15-138 0-239 95-239 234V0H128" id="K"/><path fill="#fff" d="M128 0v-1118h278l12 217c60-163 185-234 319-234 143 0 236 81 288 251 63-172 205-251 359-251 205 0 357 138 357 381V0h-301v-697c0-126-76-187-177-187-114 0-184 79-184 196V0H789v-705c0-109-72-179-174-179-106 0-187 74-187 208V0H128" id="L"/><g id="a"><use transform="matrix(0.01193576388888889,0,0,0.01193576388888889,0,0)" xlink:href="#G"/><use transform="matrix(0.01193576388888889,0,0,0.01193576388888889,17.652994791666668,0)" xlink:href="#H"/><use transform="matrix(0.01193576388888889,0,0,0.01193576388888889,24.27734375,0)" xlink:href="#I"/><use transform="matrix(0.01193576388888889,0,0,0.01193576388888889,38.468967013888886,0)" xlink:href="#J"/><use transform="matrix(0.01193576388888889,0,0,0.01193576388888889,53.91384548611111,0)" xlink:href="#K"/><use transform="matrix(0.01193576388888889,0,0,0.01193576388888889,63.53407118055556,0)" xlink:href="#I"/><use transform="matrix(0.01193576388888889,0,0,0.01193576388888889,77.72569444444444,0)" xlink:href="#L"/></g><path fill="#fff" d="M128 0v-1490h300v802h17l366-430h347L740-633 1179 0H826L514-456l-86 97V0H128" id="M"/><path fill="#fff" d="M633 22C291 22 81-200 81-553c0-345 210-579 537-579 292 0 525 185 525 567v84H378c7 183 109 277 260 277 105 0 184-46 216-132l272 51C1071-99 893 22 633 22zM380-669h474c-15-146-94-237-233-237-143 0-229 99-241 237" id="N"/><path fill="#fff" d="M120 396l69-226c123 42 245 23 254-107l8-60L31-1118h319c87 288 199 559 259 872 72-308 185-583 277-872h315L726 132c-68 181-186 294-410 294-79 0-153-13-196-30" id="O"/><g id="b"><use transform="matrix(0.01193576388888889,0,0,0.01193576388888889,0,0)" xlink:href="#M"/><use transform="matrix(0.01193576388888889,0,0,0.01193576388888889,13.630642361111112,0)" xlink:href="#N"/><use transform="matrix(0.01193576388888889,0,0,0.01193576388888889,27.750651041666668,0)" xlink:href="#O"/></g><path fill="#fff" d="M545 20c-263 0-445-160-445-446v-80h190v80c0 182 102 279 255 279 152 0 254-97 254-279v-1064h190v1064c0 286-181 446-444 446" id="P"/><path fill="#fff" d="M52 0l541-1490h220L1361 0h-200l-149-416H398L254 0H52zm404-582h497c-103-290-145-390-251-756-108 377-145 460-246 756" id="Q"/><path fill="#fff" d="M57 0l534-763-501-727h220c122 187 296 416 391 605 94-191 272-419 396-605h215L811-770 1340 0h-219C986-204 811-426 699-640 588-430 407-202 273 0H57" id="R"/><g id="c"><use transform="matrix(0.01193576388888889,0,0,0.01193576388888889,0,0)" xlink:href="#P"/><use transform="matrix(0.01193576388888889,0,0,0.01193576388888889,13.475477430555557,0)" xlink:href="#Q"/><use transform="matrix(0.01193576388888889,0,0,0.01193576388888889,30.340711805555557,0)" xlink:href="#R"/></g><path fill="#fff" d="M370-1490V0H180v-1490h190" id="S"/><g id="d"><use transform="matrix(0.01193576388888889,0,0,0.01193576388888889,0,0)" xlink:href="#Q"/><use transform="matrix(0.01193576388888889,0,0,0.01193576388888889,16.865234375,0)" xlink:href="#S"/></g><path fill="#fff" d="M657 26c-323 0-524-166-541-416h195c15 169 171 246 346 246 202 0 356-106 356-265 5-203-294-238-475-293-239-73-380-191-380-389 0-252 224-419 512-419 294 0 499 171 508 396H992c-17-145-151-228-328-228-193 0-321 102-321 242 0 156 175 211 284 241l149 41c160 44 422 134 422 412 0 244-197 432-541 432" id="T"/><path fill="#fff" d="M598-1118v154H368v674c0 100 37 144 132 144 23 0 62-6 92-12L629-6c-37 13-88 20-134 20-193 0-307-107-307-290v-688H20v-154h168v-266h180v266h230" id="U"/><path fill="#fff" d="M471 26C259 26 90-98 90-318c0-256 228-303 435-329 202-27 287-16 287-108 0-139-79-219-234-219-161 0-248 86-283 164l-173-57c86-203 278-265 451-265 150 0 419 46 419 395V0H815v-152h-12C765-73 660 26 471 26zm31-159c199 0 310-134 310-271v-155c-30 35-226 55-295 64-131 17-246 59-246 186 0 116 97 176 231 176" id="V"/><path fill="#fff" d="M613 24c-304 0-509-231-509-576 0-350 205-580 509-580 216 0 392 114 453 309l-173 49c-33-115-133-197-280-197-223 0-326 196-326 419 0 220 103 415 326 415 150 0 252-85 285-206l172 49C1010-95 832 24 613 24" id="W"/><path fill="#fff" d="M158 0v-1490h180v865h22l478-493h223L593-638 1096 0H865L456-523 338-412V0H158" id="X"/><g id="e"><use transform="matrix(0.01193576388888889,0,0,0.01193576388888889,0,0)" xlink:href="#T"/><use transform="matrix(0.01193576388888889,0,0,0.01193576388888889,15.683593750000002,0)" xlink:href="#U"/><use transform="matrix(0.01193576388888889,0,0,0.01193576388888889,23.799913194444446,0)" xlink:href="#V"/><use transform="matrix(0.01193576388888889,0,0,0.01193576388888889,37.52604166666667,0)" xlink:href="#W"/><use transform="matrix(0.01193576388888889,0,0,0.01193576388888889,51.49088541666667,0)" xlink:href="#X"/></g><g id="f"><use transform="matrix(0.01193576388888889,0,0,0.01193576388888889,0,0)" xlink:href="#P"/><use transform="matrix(0.01193576388888889,0,0,0.01193576388888889,13.475477430555557,0)" xlink:href="#Q"/><use transform="matrix(0.01193576388888889,0,0,0.01193576388888889,30.340711805555557,0)" xlink:href="#R"/></g><path fill="#fff" d="M180 0v-1490h908v168H370v486h669v168H370v500h727V0H180" id="Y"/><path fill="#fff" d="M613 24c-304 0-509-231-509-576 0-350 205-580 509-580 305 0 511 230 511 580 0 345-206 576-511 576zm0-161c226 0 329-195 329-415 0-222-103-419-329-419-223 0-326 196-326 419 0 220 103 415 326 415" id="Z"/><path fill="#fff" d="M538 24C308 24 148-78 108-271l171-41c32 123 123 178 257 178 156 0 256-77 256-169 0-77-54-128-164-154l-186-44c-203-48-300-148-300-305 0-192 176-326 414-326 230 0 351 112 402 269l-163 42c-31-80-94-158-238-158-133 0-233 69-233 162 0 83 57 129 188 160l169 40c203 48 298 149 298 302 0 196-179 339-441 339" id="aa"/><path fill="#fff" d="M140 405l46-156c120 36 205 19 263-150l32-93L54-1118h197c107 313 237 620 324 950 87-331 219-637 326-950h196L606 167c-68 178-176 259-334 259-64 0-113-12-132-21" id="ab"/><path fill="#fff" d="M628 24c-324 0-524-230-524-574 0-343 198-582 503-582 237 0 487 146 487 559v75H286c9 234 145 362 343 362 132 0 231-58 273-172l174 48C1024-91 857 24 628 24zM287-650h624c-17-190-120-322-304-322-192 0-309 151-320 322" id="ac"/><path fill="#fff" d="M158 0v-1118h175l1 205c55-151 181-225 313-225 147 0 245 90 285 228 53-141 190-228 352-228 194 0 352 125 352 384V0h-181v-749c0-161-105-225-225-225-151 0-243 103-243 244V0H807v-767c0-124-93-207-219-207-131 0-250 92-250 270V0H158" id="ad"/><g id="g"><use transform="matrix(0.01193576388888889,0,0,0.01193576388888889,0,0)" xlink:href="#Y"/><use transform="matrix(0.01193576388888889,0,0,0.01193576388888889,14.692925347222223,0)" xlink:href="#W"/><use transform="matrix(0.01193576388888889,0,0,0.01193576388888889,28.657769097222225,0)" xlink:href="#Z"/><use transform="matrix(0.01193576388888889,0,0,0.01193576388888889,43.314887152777786,0)" xlink:href="#aa"/><use transform="matrix(0.01193576388888889,0,0,0.01193576388888889,56.21744791666667,0)" xlink:href="#ab"/><use transform="matrix(0.01193576388888889,0,0,0.01193576388888889,69.95551215277779,0)" xlink:href="#aa"/><use transform="matrix(0.01193576388888889,0,0,0.01193576388888889,82.85807291666667,0)" xlink:href="#U"/><use transform="matrix(0.01193576388888889,0,0,0.01193576388888889,90.61631944444446,0)" xlink:href="#ac"/><use transform="matrix(0.01193576388888889,0,0,0.01193576388888889,104.86762152777779,0)" xlink:href="#ad"/></g><path fill="#fff" d="M180 0v-1490h190v644h782v-644h190V0h-190v-678H370V0H180" id="ae"/><path fill="#fff" d="M158 0v-1118h174v172h12c41-113 157-188 290-188 26 0 70 2 91 3v181c-11-2-60-10-108-10-161 0-279 109-279 260V0H158" id="af"/><path fill="#fff" d="M577 24c-279 0-473-224-473-580 0-354 195-576 474-576 218 0 287 134 324 193h14v-551h180V0H922v-173h-20C865-111 790 24 577 24zm27-161c203 0 314-172 314-421 0-247-108-413-314-413-212 0-317 181-317 413 0 235 108 421 317 421" id="ag"/><path fill="#fff" d="M409 0L70-1118h191c89 329 165 560 243 925 75-353 154-601 240-925h192c85 325 161 564 235 922 77-354 157-598 244-922h191L1267 0h-179c-86-307-176-590-250-913C763-588 675-308 588 0H409" id="ah"/><g id="h"><use transform="matrix(0.01193576388888889,0,0,0.01193576388888889,0,0)" xlink:href="#ae"/><use transform="matrix(0.01193576388888889,0,0,0.01193576388888889,18.16623263888889,0)" xlink:href="#V"/><use transform="matrix(0.01193576388888889,0,0,0.01193576388888889,31.892361111111114,0)" xlink:href="#af"/><use transform="matrix(0.01193576388888889,0,0,0.01193576388888889,40.68901909722223,0)" xlink:href="#ag"/><use transform="matrix(0.01193576388888889,0,0,0.01193576388888889,55.65646701388891,0)" xlink:href="#ah"/><use transform="matrix(0.01193576388888889,0,0,0.01193576388888889,75.66080729166669,0)" xlink:href="#V"/><use transform="matrix(0.01193576388888889,0,0,0.01193576388888889,89.38693576388891,0)" xlink:href="#af"/><use transform="matrix(0.01193576388888889,0,0,0.01193576388888889,98.18359375000001,0)" xlink:href="#ac"/></g><path fill="#fff" d="M783 20c-382 0-661-292-661-764 0-473 279-766 661-766 302 0 548 182 601 489h-190c-42-204-217-313-411-313-268 0-476 208-476 590 0 381 209 588 476 588 195 0 369-110 411-313h190c-52 303-296 489-601 489" id="ai"/><path fill="#fff" d="M158 0v-1118h180V0H158zm91-1301c-68 0-125-53-125-119s57-119 125-119c69 0 126 53 126 119s-57 119-126 119" id="aj"/><path fill="#fff" d="M338-670V0H158v-1118h173l1 207c72-158 192-221 342-221 226 0 378 139 378 422V0H872v-695c0-172-96-275-252-275-161 0-282 109-282 300" id="ak"/><path fill="#fff" d="M611 442c-248 0-391-105-460-228l146-94c47 65 117 165 314 165 178 0 307-82 307-266v-224h-17C863-141 792-18 576-18c-268 0-472-195-472-546 0-346 197-568 476-568 216 0 288 133 326 193h17v-179h175V29c0 289-215 413-487 413zm-5-620c203 0 314-146 314-390 0-237-108-403-314-403-213 0-319 180-319 403 0 230 109 390 319 390" id="al"/><g id="i"><use transform="matrix(0.01193576388888889,0,0,0.01193576388888889,0,0)" xlink:href="#ai"/><use transform="matrix(0.01193576388888889,0,0,0.01193576388888889,17.85590277777778,0)" xlink:href="#Z"/><use transform="matrix(0.01193576388888889,0,0,0.01193576388888889,32.513020833333336,0)" xlink:href="#ad"/><use transform="matrix(0.01193576388888889,0,0,0.01193576388888889,53.92578125000001,0)" xlink:href="#aj"/><use transform="matrix(0.01193576388888889,0,0,0.01193576388888889,59.845920138888886,0)" xlink:href="#ak"/><use transform="matrix(0.01193576388888889,0,0,0.01193576388888889,74.28819444444444,0)" xlink:href="#al"/></g><g id="j"><use transform="matrix(0.01193576388888889,0,0,0.01193576388888889,0,0)" xlink:href="#T"/><use transform="matrix(0.01193576388888889,0,0,0.01193576388888889,15.683593750000002,0)" xlink:href="#Z"/><use transform="matrix(0.01193576388888889,0,0,0.01193576388888889,30.340711805555557,0)" xlink:href="#Z"/><use transform="matrix(0.01193576388888889,0,0,0.01193576388888889,44.997829861111114,0)" xlink:href="#ak"/></g><path fill="#fff" d="M180 0v-1490h510c348 0 508 209 508 474 0 266-160 477-507 477H370V0H180zm190-706h312c236 0 327-133 327-310 0-176-91-307-329-307H370v617" id="am"/><path fill="#fff" d="M678-1118v154H420V0H240v-964H20v-154h220v-149c0-194 155-293 318-293 85 0 141 18 168 30l-50 154c-19-6-47-17-97-17-111 0-159 58-159 166v109h258" id="an"/><g id="k"><use transform="matrix(0.01193576388888889,0,0,0.01193576388888889,0,0)" xlink:href="#R"/><use transform="matrix(0.01193576388888889,0,0,0.01193576388888889,16.67426215277778,0)" xlink:href="#am"/><use transform="matrix(0.01193576388888889,0,0,0.01193576388888889,32.28624131944444,0)" xlink:href="#af"/><use transform="matrix(0.01193576388888889,0,0,0.01193576388888889,41.08289930555556,0)" xlink:href="#Z"/><use transform="matrix(0.01193576388888889,0,0,0.01193576388888889,55.740017361111114,0)" xlink:href="#an"/></g><path fill="#fff" d="M180 0v-1490h270l367 940c28 72 75 218 110 339 35-117 81-264 110-339l362-940h271V0h-187c2-448-5-837 7-1287-157 497-311 829-483 1287H842C666-458 514-784 354-1284c12 438 5 843 7 1284H180" id="ao"/><path fill="#fff" d="M65 0l393-574-370-544h210c88 136 192 297 267 435 67-142 176-302 264-435h206L661-564 1053 0H844c-94-144-206-310-287-458C484-308 366-142 273 0H65" id="ap"/><path fill="#fff" d="M98-1322v-168h1126v168H757V0H567v-1322H98" id="aq"/><path fill="#fff" d="M692-1560L212 224H46l480-1784h166" id="ar"/><g id="l"><use transform="matrix(0.01193576388888889,0,0,0.01193576388888889,0,0)" xlink:href="#ao"/><use transform="matrix(0.01193576388888889,0,0,0.01193576388888889,22.081163194444446,0)" xlink:href="#V"/><use transform="matrix(0.01193576388888889,0,0,0.01193576388888889,35.80729166666667,0)" xlink:href="#ap"/><use transform="matrix(0.01193576388888889,0,0,0.01193576388888889,47.62369791666667,0)" xlink:href="#aq"/><use transform="matrix(0.01193576388888889,0,0,0.01193576388888889,61.49305555555556,0)" xlink:href="#ac"/><use transform="matrix(0.01193576388888889,0,0,0.01193576388888889,75.19531250000001,0)" xlink:href="#ap"/><use transform="matrix(0.01193576388888889,0,0,0.01193576388888889,89.01692708333334,0)" xlink:href="#U"/><use transform="matrix(0.01193576388888889,0,0,0.01193576388888889,97.0138888888889,0)" xlink:href="#ar"/></g><path fill="#fff" d="M645 0H180v-1490h484c435 0 692 280 692 742 0 466-257 748-711 748zM370-168h263c363 0 539-218 539-580 0-358-176-574-521-574H370v1154" id="as"/><path fill="#fff" d="M537 14c-226 0-379-139-379-422v-710h180v695c0 172 97 275 253 275 160 0 281-109 281-300v-670h181V0H879v-209C806-46 684 14 537 14" id="at"/><g id="m"><use transform="matrix(0.01193576388888889,0,0,0.01193576388888889,0,0)" xlink:href="#ao"/><use transform="matrix(0.01193576388888889,0,0,0.01193576388888889,22.081163194444446,0)" xlink:href="#V"/><use transform="matrix(0.01193576388888889,0,0,0.01193576388888889,35.80729166666667,0)" xlink:href="#ap"/><use transform="matrix(0.01193576388888889,0,0,0.01193576388888889,49.15147569444445,0)" xlink:href="#as"/><use transform="matrix(0.01193576388888889,0,0,0.01193576388888889,66.79253472222223,0)" xlink:href="#aj"/><use transform="matrix(0.01193576388888889,0,0,0.01193576388888889,72.71267361111111,0)" xlink:href="#an"/><use transform="matrix(0.01193576388888889,0,0,0.01193576388888889,81.75998263888889,0)" xlink:href="#at"/><use transform="matrix(0.01193576388888889,0,0,0.01193576388888889,96.21419270833333,0)" xlink:href="#aa"/><use transform="matrix(0.01193576388888889,0,0,0.01193576388888889,109.11675347222221,0)" xlink:href="#aa"/><use transform="matrix(0.01193576388888889,0,0,0.01193576388888889,122.0193142361111,0)" xlink:href="#aj"/><use transform="matrix(0.01193576388888889,0,0,0.01193576388888889,127.93945312499999,0)" xlink:href="#Z"/><use transform="matrix(0.01193576388888889,0,0,0.01193576388888889,142.59657118055554,0)" xlink:href="#ak"/></g><path fill="#fff" d="M784 20c-382 0-662-292-662-764 0-473 280-766 662-766s660 293 660 766c0 282-99 499-260 629l192 255h-198L1049-33C969 2 880 20 784 20zm-62-486h198l156 205c112-98 183-261 183-483 0-383-209-590-475-590-268 0-477 208-477 590 0 380 209 588 477 588 54 0 106-9 154-25" id="au"/><g id="n"><use transform="matrix(0.01193576388888889,0,0,0.01193576388888889,0,0)" xlink:href="#au"/><use transform="matrix(0.01193576388888889,0,0,0.01193576388888889,18.69140625,0)" xlink:href="#ah"/><use transform="matrix(0.01193576388888889,0,0,0.01193576388888889,38.69574652777778,0)" xlink:href="#aj"/><use transform="matrix(0.01193576388888889,0,0,0.01193576388888889,44.61588541666667,0)" xlink:href="#ap"/></g><g id="o"><use transform="matrix(0.01193576388888889,0,0,0.01193576388888889,0,0)" xlink:href="#aq"/><use transform="matrix(0.01193576388888889,0,0,0.01193576388888889,13.97677951388889,0)" xlink:href="#at"/><use transform="matrix(0.01193576388888889,0,0,0.01193576388888889,28.430989583333336,0)" xlink:href="#ak"/><use transform="matrix(0.01193576388888889,0,0,0.01193576388888889,42.87326388888889,0)" xlink:href="#aj"/><use transform="matrix(0.01193576388888889,0,0,0.01193576388888889,48.793402777777786,0)" xlink:href="#ap"/></g><path fill="#fff" d="M180 0v-1490h901v168H370v510h643v168H370V0H180" id="av"/><path fill="#fff" d="M338-1490V0H158v-1490h180" id="aw"/><g id="p"><use transform="matrix(0.01193576388888889,0,0,0.01193576388888889,0,0)" xlink:href="#av"/><use transform="matrix(0.01193576388888889,0,0,0.01193576388888889,14.430338541666668,0)" xlink:href="#aw"/><use transform="matrix(0.01193576388888889,0,0,0.01193576388888889,20.350477430555557,0)" xlink:href="#V"/><use transform="matrix(0.01193576388888889,0,0,0.01193576388888889,34.07660590277778,0)" xlink:href="#ap"/></g><path fill="#fff" d="M784 20c-382 0-662-292-662-764 0-473 280-766 662-766s660 293 660 766c0 472-278 764-660 764zm0-176c266 0 475-207 475-588 0-383-209-590-475-590-268 0-477 208-477 590 0 380 209 588 477 588" id="ax"/><path fill="#fff" d="M158 418v-1536h174v179h20c37-59 106-193 324-193 279 0 474 222 474 576 0 356-194 580-473 580-213 0-288-135-325-197h-14v591H158zm492-555c209 0 317-186 317-421 0-232-105-413-317-413-206 0-314 166-314 413 0 249 111 421 314 421" id="ay"/><g id="q"><use transform="matrix(0.01193576388888889,0,0,0.01193576388888889,0,0)" xlink:href="#ax"/><use transform="matrix(0.01193576388888889,0,0,0.01193576388888889,18.69140625,0)" xlink:href="#ay"/><use transform="matrix(0.01193576388888889,0,0,0.01193576388888889,33.65885416666667,0)" xlink:href="#U"/><use transform="matrix(0.01193576388888889,0,0,0.01193576388888889,41.775173611111114,0)" xlink:href="#V"/><use transform="matrix(0.01193576388888889,0,0,0.01193576388888889,55.501302083333336,0)" xlink:href="#ap"/></g><path fill="#fff" d="M789 20c-398 0-667-293-667-764 0-473 273-766 655-766 315 0 558 198 612 487h-196c-61-191-204-311-415-311-262 0-471 207-471 590 0 380 208 588 482 588 249 0 420-165 425-427H828v-166h572v163c0 370-256 606-611 606" id="az"/><g id="r"><use transform="matrix(0.01193576388888889,0,0,0.01193576388888889,0,0)" xlink:href="#az"/><use transform="matrix(0.01193576388888889,0,0,0.01193576388888889,18.237847222222225,0)" xlink:href="#af"/><use transform="matrix(0.01193576388888889,0,0,0.01193576388888889,27.440321180555557,0)" xlink:href="#V"/><use transform="matrix(0.01193576388888889,0,0,0.01193576388888889,41.16644965277778,0)" xlink:href="#aj"/><use transform="matrix(0.01193576388888889,0,0,0.01193576388888889,47.08658854166667,0)" xlink:href="#ak"/></g><path fill="#fff" d="M677 24c-213 0-288-135-325-197h-20V0H158v-1490h180v551h14c37-59 106-193 324-193 279 0 474 222 474 576 0 356-194 580-473 580zm-27-161c209 0 317-186 317-421 0-232-105-413-317-413-206 0-314 166-314 413 0 249 111 421 314 421" id="aA"/><g id="s"><use transform="matrix(0.01193576388888889,0,0,0.01193576388888889,0,0)" xlink:href="#ax"/><use transform="matrix(0.01193576388888889,0,0,0.01193576388888889,18.69140625,0)" xlink:href="#af"/><use transform="matrix(0.01193576388888889,0,0,0.01193576388888889,28.27582465277778,0)" xlink:href="#aA"/><use transform="matrix(0.01193576388888889,0,0,0.01193576388888889,43.48198784722223,0)" xlink:href="#V"/><use transform="matrix(0.01193576388888889,0,0,0.01193576388888889,57.20811631944445,0)" xlink:href="#ap"/></g><g id="t"><use transform="matrix(0.01193576388888889,0,0,0.01193576388888889,0,0)" xlink:href="#aq"/><use transform="matrix(0.01193576388888889,0,0,0.01193576388888889,13.86935763888889,0)" xlink:href="#Z"/><use transform="matrix(0.01193576388888889,0,0,0.01193576388888889,28.526475694444446,0)" xlink:href="#X"/><use transform="matrix(0.01193576388888889,0,0,0.01193576388888889,41.94227430555556,0)" xlink:href="#V"/><use transform="matrix(0.01193576388888889,0,0,0.01193576388888889,55.668402777777786,0)" xlink:href="#ad"/><use transform="matrix(0.01193576388888889,0,0,0.01193576388888889,77.08116319444444,0)" xlink:href="#V"/><use transform="matrix(0.01193576388888889,0,0,0.01193576388888889,90.80729166666667,0)" xlink:href="#ap"/></g><g id="u"><use transform="matrix(0.01193576388888889,0,0,0.01193576388888889,0,0)" xlink:href="#P"/><use transform="matrix(0.01193576388888889,0,0,0.01193576388888889,13.475477430555557,0)" xlink:href="#Q"/><use transform="matrix(0.01193576388888889,0,0,0.01193576388888889,30.340711805555557,0)" xlink:href="#R"/></g><path fill="#fff" d="M180 0v-1490h190v1322h690V0H180" id="aB"/><g id="v"><use transform="matrix(0.01193576388888889,0,0,0.01193576388888889,0,0)" xlink:href="#R"/><use transform="matrix(0.01193576388888889,0,0,0.01193576388888889,16.67426215277778,0)" xlink:href="#aB"/><use transform="matrix(0.01193576388888889,0,0,0.01193576388888889,30.495876736111114,0)" xlink:href="#Q"/></g><path fill="#fff" d="M338-670V0H158v-1490h180v566c73-149 190-208 336-208 226 0 379 139 379 422V0H872v-695c0-172-96-275-252-275-161 0-282 109-282 300" id="aC"/><g id="w"><use transform="matrix(0.01193576388888889,0,0,0.01193576388888889,0,0)" xlink:href="#am"/><use transform="matrix(0.01193576388888889,0,0,0.01193576388888889,15.611979166666668,0)" xlink:href="#V"/><use transform="matrix(0.01193576388888889,0,0,0.01193576388888889,29.338107638888893,0)" xlink:href="#U"/><use transform="matrix(0.01193576388888889,0,0,0.01193576388888889,37.33506944444445,0)" xlink:href="#aC"/><use transform="matrix(0.01193576388888889,0,0,0.01193576388888889,51.78927951388891,0)" xlink:href="#ah"/><use transform="matrix(0.01193576388888889,0,0,0.01193576388888889,71.79361979166669,0)" xlink:href="#V"/><use transform="matrix(0.01193576388888889,0,0,0.01193576388888889,85.16167534722224,0)" xlink:href="#ab"/><use transform="matrix(0.01193576388888889,0,0,0.01193576388888889,98.89973958333336,0)" xlink:href="#aa"/></g><path fill="#fff" d="M763 24c-353 0-583-224-583-531v-983h190v968c0 214 149 370 393 370 243 0 391-156 391-370v-968h190v983c0 307-230 531-581 531" id="aD"/><g id="x"><use transform="matrix(0.01193576388888889,0,0,0.01193576388888889,0,0)" xlink:href="#aq"/><use transform="matrix(0.01193576388888889,0,0,0.01193576388888889,15.779079861111112,0)" xlink:href="#am"/><use transform="matrix(0.01193576388888889,0,0,0.01193576388888889,31.39105902777778,0)" xlink:href="#aD"/></g><g id="y"><use transform="matrix(0.01193576388888889,0,0,0.01193576388888889,0,0)" xlink:href="#ai"/><use transform="matrix(0.01193576388888889,0,0,0.01193576388888889,17.85590277777778,0)" xlink:href="#am"/><use transform="matrix(0.01193576388888889,0,0,0.01193576388888889,33.46788194444444,0)" xlink:href="#aD"/></g><g id="z"><use transform="matrix(0.01193576388888889,0,0,0.01193576388888889,0,0)" xlink:href="#az"/><use transform="matrix(0.01193576388888889,0,0,0.01193576388888889,18.237847222222225,0)" xlink:href="#am"/><use transform="matrix(0.01193576388888889,0,0,0.01193576388888889,33.84982638888889,0)" xlink:href="#aD"/></g><path fill="#fff" d="M75-1237v-253h1217v253H837V0H531v-1237H75" id="aE"/><path fill="#fff" d="M628 22C291 22 81-210 81-554c0-346 210-578 547-578 336 0 547 232 547 578 0 344-211 576-547 576zm0-236c160 0 242-146 242-341 0-197-82-341-242-341S387-753 387-555c0 195 81 341 241 341" id="aF"/><path fill="#fff" d="M428-1490V0H128v-1490h300" id="aG"/><path fill="#fff" d="M428-647V0H128v-1118h283l4 231c63-156 176-245 348-245 232 0 384 159 384 421V0H847v-659c0-139-76-222-202-222-128 0-217 86-217 234" id="aH"/><g id="A"><use transform="matrix(0.01193576388888889,0,0,0.01193576388888889,0,0)" xlink:href="#aE"/><use transform="matrix(0.01193576388888889,0,0,0.01193576388888889,14.40646701388889,0)" xlink:href="#aF"/><use transform="matrix(0.01193576388888889,0,0,0.01193576388888889,29.397786458333336,0)" xlink:href="#aF"/><use transform="matrix(0.01193576388888889,0,0,0.01193576388888889,44.389105902777786,0)" xlink:href="#aG"/><use transform="matrix(0.01193576388888889,0,0,0.01193576388888889,51.01345486111113,0)" xlink:href="#H"/><use transform="matrix(0.01193576388888889,0,0,0.01193576388888889,57.63780381944446,0)" xlink:href="#aH"/><use transform="matrix(0.01193576388888889,0,0,0.01193576388888889,72.85590277777779,0)" xlink:href="#J"/></g><g id="B"><use transform="matrix(0.01193576388888889,0,0,0.01193576388888889,0,0)" xlink:href="#aE"/><use transform="matrix(0.01193576388888889,0,0,0.01193576388888889,14.931640625000002,0)" xlink:href="#K"/><use transform="matrix(0.01193576388888889,0,0,0.01193576388888889,24.55186631944444,0)" xlink:href="#I"/><use transform="matrix(0.01193576388888889,0,0,0.01193576388888889,38.74348958333333,0)" xlink:href="#H"/><use transform="matrix(0.01193576388888889,0,0,0.01193576388888889,45.367838541666664,0)" xlink:href="#aH"/><use transform="matrix(0.01193576388888889,0,0,0.01193576388888889,60.58593750000001,0)" xlink:href="#H"/><use transform="matrix(0.01193576388888889,0,0,0.01193576388888889,67.21028645833333,0)" xlink:href="#aH"/><use transform="matrix(0.01193576388888889,0,0,0.01193576388888889,82.42838541666666,0)" xlink:href="#J"/></g><path fill="#fff" d="M440-1490V0H135v-1490h305" id="aI"/><path fill="#fff" d="M750-1118v229H516V0H217v-889H20v-229h197v-86c0-238 156-356 363-356 94 0 178 20 215 31l-54 226c-25-7-61-15-100-15-123-3-131 84-125 200h234" id="aJ"/><path fill="#fff" d="M628 22C291 22 81-210 81-554c0-346 210-578 547-578 265 0 455 142 497 372l-279 52c-25-116-99-188-215-188-160 0-244 139-244 341 0 200 84 341 244 341 116 0 193-74 217-195l279 51C1085-123 896 22 628 22" id="aK"/><g id="C"><use transform="matrix(0.01193576388888889,0,0,0.01193576388888889,0,0)" xlink:href="#aI"/><use transform="matrix(0.01193576388888889,0,0,0.01193576388888889,6.863064236111112,0)" xlink:href="#aH"/><use transform="matrix(0.01193576388888889,0,0,0.01193576388888889,22.081163194444446,0)" xlink:href="#aJ"/><use transform="matrix(0.01193576388888889,0,0,0.01193576388888889,31.28363715277778,0)" xlink:href="#N"/><use transform="matrix(0.01193576388888889,0,0,0.01193576388888889,45.84526909722223,0)" xlink:href="#K"/><use transform="matrix(0.01193576388888889,0,0,0.01193576388888889,55.20290798611113,0)" xlink:href="#N"/><use transform="matrix(0.01193576388888889,0,0,0.01193576388888889,69.76453993055557,0)" xlink:href="#aH"/><use transform="matrix(0.01193576388888889,0,0,0.01193576388888889,84.9826388888889,0)" xlink:href="#aK"/><use transform="matrix(0.01193576388888889,0,0,0.01193576388888889,99.36523437500001,0)" xlink:href="#N"/></g><path fill="#fff" d="M481 0L54-1118h197c107 314 236 620 325 951 87-331 217-637 324-951h197L670 0H481" id="aL"/><g id="D"><use transform="matrix(0.01193576388888889,0,0,0.01193576388888889,0,0)" xlink:href="#aL"/><use transform="matrix(0.01193576388888889,0,0,0.01193576388888889,13.857421875000002,0)" xlink:href="#aB"/><use transform="matrix(0.01193576388888889,0,0,0.01193576388888889,27.679036458333336,0)" xlink:href="#aB"/><use transform="matrix(0.01193576388888889,0,0,0.01193576388888889,41.50065104166667,0)" xlink:href="#ao"/></g><g id="E"><use transform="matrix(0.01193576388888889,0,0,0.01193576388888889,0,0)" xlink:href="#aq"/><use transform="matrix(0.01193576388888889,0,0,0.01193576388888889,15.779079861111112,0)" xlink:href="#am"/><use transform="matrix(0.01193576388888889,0,0,0.01193576388888889,31.39105902777778,0)" xlink:href="#aD"/></g><path fill="#fff" d="M180 0v-1490h224l606 953c40 63 108 177 176 312-27-437-7-821-13-1265h190V0h-226C860-448 622-778 356-1262c27 476 11 792 15 1262H180" id="aM"/><g id="F"><use transform="matrix(0.01193576388888889,0,0,0.01193576388888889,0,0)" xlink:href="#aM"/><use transform="matrix(0.01193576388888889,0,0,0.01193576388888889,18.416883680555557,0)" xlink:href="#T"/><use transform="matrix(0.01193576388888889,0,0,0.01193576388888889,34.10047743055556,0)" xlink:href="#Y"/></g></defs></g></svg>
