<svg width="598" height="340" viewBox="0 0 598 340" fill="none" xmlns="http://www.w3.org/2000/svg">
<g clip-path="url(#clip0_491_351)">
<rect width="598" height="340" rx="24" fill="#202124"/>
<circle cx="529.5" cy="60.5" r="469.5" fill="url(#paint0_radial_491_351)" fill-opacity="0.2"/>
<path d="M511.516 142.112L520.739 137H375.74L366.516 142.007H511.516V142.112Z" fill="#EB80FC"/>
<path d="M520.739 137L511.516 142.112V203.007L520.74 198V137H520.739Z" fill="#6A1B9A"/>
<path d="M511.52 142H366.52V203H511.52V142Z" fill="#F3E8FD"/>
<path d="M393.91 158.047H395.441L398.319 165.724L401.19 158.047H402.721L398.921 168H397.704L393.91 158.047ZM393.213 158.047H394.669L394.922 164.691V168H393.213V158.047ZM401.963 158.047H403.426V168H401.71V164.691L401.963 158.047ZM409.669 166.517V162.989C409.669 162.725 409.621 162.497 409.525 162.306C409.429 162.114 409.283 161.966 409.088 161.861C408.896 161.757 408.655 161.704 408.363 161.704C408.094 161.704 407.862 161.75 407.666 161.841C407.47 161.932 407.317 162.055 407.208 162.21C407.098 162.365 407.044 162.54 407.044 162.736H405.403C405.403 162.445 405.474 162.162 405.615 161.889C405.756 161.615 405.961 161.371 406.23 161.157C406.499 160.943 406.82 160.774 407.194 160.651C407.568 160.528 407.987 160.467 408.452 160.467C409.008 160.467 409.5 160.56 409.928 160.747C410.361 160.934 410.701 161.216 410.947 161.595C411.198 161.968 411.323 162.438 411.323 163.003V166.291C411.323 166.628 411.346 166.931 411.391 167.2C411.441 167.465 411.512 167.695 411.603 167.891V168H409.915C409.837 167.822 409.776 167.597 409.73 167.323C409.689 167.045 409.669 166.776 409.669 166.517ZM409.908 163.502L409.921 164.521H408.739C408.434 164.521 408.165 164.55 407.932 164.609C407.7 164.664 407.506 164.746 407.351 164.855C407.196 164.965 407.08 165.097 407.003 165.252C406.925 165.407 406.886 165.582 406.886 165.778C406.886 165.974 406.932 166.154 407.023 166.318C407.114 166.478 407.246 166.603 407.42 166.694C407.597 166.785 407.811 166.831 408.062 166.831C408.399 166.831 408.693 166.763 408.944 166.626C409.199 166.485 409.4 166.314 409.546 166.113C409.691 165.908 409.769 165.715 409.778 165.532L410.311 166.264C410.256 166.451 410.163 166.651 410.031 166.865C409.899 167.079 409.726 167.285 409.511 167.48C409.302 167.672 409.049 167.829 408.753 167.952C408.461 168.075 408.124 168.137 407.741 168.137C407.258 168.137 406.827 168.041 406.449 167.85C406.071 167.654 405.774 167.392 405.56 167.063C405.346 166.731 405.239 166.355 405.239 165.936C405.239 165.544 405.312 165.197 405.458 164.896C405.608 164.591 405.827 164.336 406.114 164.131C406.406 163.926 406.761 163.771 407.18 163.666C407.6 163.557 408.078 163.502 408.616 163.502H409.908ZM414.503 160.604L415.912 163.058L417.347 160.604H419.159L416.916 164.233L419.247 168H417.436L415.932 165.443L414.428 168H412.61L414.934 164.233L412.699 160.604H414.503ZM423.542 168H421.416L421.43 166.64H423.542C424.157 166.64 424.672 166.505 425.087 166.236C425.506 165.967 425.821 165.582 426.03 165.081C426.245 164.58 426.352 163.983 426.352 163.29V162.75C426.352 162.212 426.29 161.736 426.167 161.321C426.049 160.907 425.871 160.558 425.634 160.275C425.402 159.993 425.114 159.779 424.773 159.633C424.435 159.487 424.046 159.414 423.604 159.414H421.375V158.047H423.604C424.265 158.047 424.868 158.159 425.415 158.382C425.962 158.601 426.434 158.917 426.83 159.332C427.231 159.747 427.539 160.243 427.753 160.822C427.967 161.401 428.074 162.048 428.074 162.764V163.29C428.074 164.006 427.967 164.653 427.753 165.231C427.539 165.81 427.231 166.307 426.83 166.722C426.429 167.132 425.951 167.449 425.395 167.672C424.843 167.891 424.226 168 423.542 168ZM422.366 158.047V168H420.651V158.047H422.366ZM431.597 160.604V168H429.942V160.604H431.597ZM429.833 158.662C429.833 158.411 429.915 158.204 430.079 158.04C430.248 157.871 430.48 157.787 430.776 157.787C431.068 157.787 431.298 157.871 431.467 158.04C431.635 158.204 431.72 158.411 431.72 158.662C431.72 158.908 431.635 159.113 431.467 159.277C431.298 159.441 431.068 159.523 430.776 159.523C430.48 159.523 430.248 159.441 430.079 159.277C429.915 159.113 429.833 158.908 429.833 158.662ZM435.83 168H434.182V159.893C434.182 159.341 434.285 158.879 434.49 158.505C434.7 158.127 434.998 157.842 435.386 157.65C435.773 157.454 436.231 157.356 436.76 157.356C436.924 157.356 437.085 157.368 437.245 157.391C437.404 157.409 437.559 157.438 437.71 157.479L437.669 158.751C437.578 158.728 437.477 158.712 437.368 158.703C437.263 158.694 437.149 158.689 437.026 158.689C436.776 158.689 436.559 158.737 436.377 158.833C436.199 158.924 436.062 159.059 435.967 159.236C435.875 159.414 435.83 159.633 435.83 159.893V168ZM437.354 160.604V161.807H433.048V160.604H437.354ZM440.979 168H439.332V159.893C439.332 159.341 439.434 158.879 439.639 158.505C439.849 158.127 440.147 157.842 440.535 157.65C440.922 157.454 441.38 157.356 441.909 157.356C442.073 157.356 442.235 157.368 442.394 157.391C442.554 157.409 442.709 157.438 442.859 157.479L442.818 158.751C442.727 158.728 442.627 158.712 442.517 158.703C442.412 158.694 442.298 158.689 442.175 158.689C441.925 158.689 441.708 158.737 441.526 158.833C441.348 158.924 441.212 159.059 441.116 159.236C441.025 159.414 440.979 159.633 440.979 159.893V168ZM442.504 160.604V161.807H438.197V160.604H442.504ZM448.35 166.257V160.604H450.004V168H448.446L448.35 166.257ZM448.582 164.719L449.136 164.705C449.136 165.202 449.081 165.66 448.972 166.079C448.863 166.494 448.694 166.856 448.466 167.166C448.238 167.471 447.947 167.711 447.591 167.884C447.236 168.052 446.81 168.137 446.313 168.137C445.953 168.137 445.622 168.084 445.322 167.979C445.021 167.875 444.761 167.713 444.542 167.494C444.328 167.275 444.162 166.991 444.043 166.64C443.925 166.289 443.866 165.869 443.866 165.382V160.604H445.513V165.396C445.513 165.664 445.545 165.89 445.609 166.072C445.673 166.25 445.759 166.394 445.869 166.503C445.978 166.612 446.106 166.69 446.251 166.735C446.397 166.781 446.552 166.804 446.716 166.804C447.186 166.804 447.555 166.713 447.824 166.53C448.097 166.343 448.291 166.093 448.405 165.778C448.523 165.464 448.582 165.111 448.582 164.719ZM456.042 165.997C456.042 165.833 456.001 165.685 455.919 165.553C455.837 165.416 455.68 165.293 455.447 165.184C455.22 165.074 454.882 164.974 454.436 164.883C454.044 164.796 453.684 164.694 453.356 164.575C453.032 164.452 452.754 164.304 452.522 164.131C452.289 163.958 452.109 163.753 451.982 163.516C451.854 163.279 451.79 163.005 451.79 162.695C451.79 162.395 451.856 162.11 451.988 161.841C452.121 161.572 452.31 161.335 452.556 161.13C452.802 160.925 453.1 160.763 453.451 160.645C453.807 160.526 454.203 160.467 454.641 160.467C455.261 160.467 455.792 160.572 456.234 160.781C456.68 160.986 457.022 161.267 457.259 161.622C457.496 161.973 457.614 162.369 457.614 162.812H455.967C455.967 162.616 455.917 162.433 455.817 162.265C455.721 162.091 455.575 161.952 455.379 161.848C455.183 161.738 454.937 161.684 454.641 161.684C454.358 161.684 454.124 161.729 453.937 161.82C453.754 161.907 453.618 162.021 453.527 162.162C453.44 162.303 453.397 162.458 453.397 162.627C453.397 162.75 453.419 162.862 453.465 162.962C453.515 163.058 453.597 163.146 453.711 163.229C453.825 163.306 453.98 163.379 454.176 163.447C454.377 163.516 454.627 163.582 454.928 163.646C455.493 163.764 455.978 163.917 456.384 164.104C456.794 164.286 457.109 164.523 457.327 164.814C457.546 165.102 457.655 165.466 457.655 165.908C457.655 166.236 457.585 166.537 457.444 166.811C457.307 167.079 457.106 167.314 456.842 167.515C456.578 167.711 456.261 167.863 455.892 167.973C455.527 168.082 455.117 168.137 454.661 168.137C453.991 168.137 453.424 168.018 452.959 167.781C452.494 167.54 452.141 167.232 451.9 166.858C451.663 166.48 451.544 166.088 451.544 165.683H453.137C453.155 165.988 453.239 166.232 453.39 166.414C453.545 166.592 453.736 166.722 453.964 166.804C454.196 166.881 454.436 166.92 454.682 166.92C454.978 166.92 455.226 166.881 455.427 166.804C455.627 166.722 455.78 166.612 455.885 166.476C455.99 166.334 456.042 166.175 456.042 165.997ZM461.062 160.604V168H459.407V160.604H461.062ZM459.298 158.662C459.298 158.411 459.38 158.204 459.544 158.04C459.713 157.871 459.945 157.787 460.241 157.787C460.533 157.787 460.763 157.871 460.932 158.04C461.1 158.204 461.185 158.411 461.185 158.662C461.185 158.908 461.1 159.113 460.932 159.277C460.763 159.441 460.533 159.523 460.241 159.523C459.945 159.523 459.713 159.441 459.544 159.277C459.38 159.113 459.298 158.908 459.298 158.662ZM462.752 164.384V164.227C462.752 163.693 462.829 163.199 462.984 162.743C463.139 162.283 463.362 161.884 463.654 161.547C463.95 161.205 464.31 160.941 464.734 160.754C465.163 160.562 465.646 160.467 466.183 160.467C466.726 160.467 467.209 160.562 467.633 160.754C468.061 160.941 468.423 161.205 468.72 161.547C469.016 161.884 469.241 162.283 469.396 162.743C469.551 163.199 469.629 163.693 469.629 164.227V164.384C469.629 164.917 469.551 165.411 469.396 165.867C469.241 166.323 469.016 166.722 468.72 167.063C468.423 167.401 468.063 167.665 467.639 167.856C467.216 168.043 466.735 168.137 466.197 168.137C465.655 168.137 465.169 168.043 464.741 167.856C464.317 167.665 463.957 167.401 463.661 167.063C463.365 166.722 463.139 166.323 462.984 165.867C462.829 165.411 462.752 164.917 462.752 164.384ZM464.399 164.227V164.384C464.399 164.716 464.433 165.031 464.502 165.327C464.57 165.623 464.677 165.883 464.823 166.106C464.969 166.33 465.156 166.505 465.384 166.633C465.611 166.76 465.883 166.824 466.197 166.824C466.502 166.824 466.767 166.76 466.99 166.633C467.218 166.505 467.405 166.33 467.551 166.106C467.696 165.883 467.804 165.623 467.872 165.327C467.945 165.031 467.981 164.716 467.981 164.384V164.227C467.981 163.898 467.945 163.589 467.872 163.297C467.804 163.001 467.694 162.739 467.544 162.511C467.398 162.283 467.211 162.105 466.983 161.978C466.76 161.845 466.493 161.779 466.183 161.779C465.873 161.779 465.605 161.845 465.377 161.978C465.153 162.105 464.969 162.283 464.823 162.511C464.677 162.739 464.57 163.001 464.502 163.297C464.433 163.589 464.399 163.898 464.399 164.227ZM472.843 162.183V168H471.196V160.604H472.748L472.843 162.183ZM472.549 164.028L472.016 164.021C472.021 163.497 472.094 163.017 472.235 162.579C472.381 162.142 472.581 161.766 472.837 161.451C473.096 161.137 473.406 160.895 473.766 160.727C474.126 160.553 474.527 160.467 474.969 160.467C475.325 160.467 475.646 160.517 475.933 160.617C476.225 160.713 476.473 160.87 476.678 161.089C476.888 161.308 477.047 161.592 477.157 161.943C477.266 162.29 477.321 162.716 477.321 163.222V168H475.667V163.215C475.667 162.859 475.614 162.579 475.509 162.374C475.409 162.164 475.261 162.016 475.065 161.93C474.874 161.839 474.634 161.793 474.347 161.793C474.065 161.793 473.812 161.852 473.588 161.971C473.365 162.089 473.176 162.251 473.021 162.456C472.871 162.661 472.754 162.898 472.672 163.167C472.59 163.436 472.549 163.723 472.549 164.028ZM482.518 163.092V164.404H478.902V163.092H482.518ZM411.91 185.437C411.91 185.231 411.878 185.049 411.814 184.89C411.755 184.73 411.648 184.584 411.493 184.452C411.338 184.32 411.119 184.192 410.837 184.069C410.559 183.942 410.203 183.812 409.77 183.68C409.296 183.534 408.859 183.372 408.458 183.194C408.061 183.012 407.715 182.802 407.419 182.565C407.123 182.324 406.892 182.048 406.728 181.738C406.564 181.424 406.482 181.062 406.482 180.651C406.482 180.246 406.567 179.877 406.735 179.544C406.908 179.211 407.152 178.924 407.467 178.683C407.786 178.437 408.162 178.247 408.595 178.115C409.027 177.979 409.506 177.91 410.03 177.91C410.768 177.91 411.404 178.047 411.937 178.32C412.475 178.594 412.888 178.961 413.175 179.421C413.466 179.881 413.612 180.389 413.612 180.945H411.91C411.91 180.617 411.839 180.328 411.698 180.077C411.561 179.822 411.352 179.621 411.069 179.476C410.791 179.33 410.438 179.257 410.01 179.257C409.604 179.257 409.267 179.318 408.998 179.441C408.729 179.564 408.528 179.731 408.396 179.94C408.264 180.15 408.198 180.387 408.198 180.651C408.198 180.838 408.241 181.009 408.328 181.164C408.415 181.314 408.547 181.456 408.724 181.588C408.902 181.715 409.125 181.836 409.394 181.95C409.663 182.064 409.98 182.174 410.345 182.278C410.896 182.442 411.377 182.625 411.787 182.825C412.197 183.021 412.539 183.244 412.812 183.495C413.086 183.746 413.291 184.031 413.428 184.35C413.564 184.664 413.633 185.022 413.633 185.423C413.633 185.842 413.548 186.22 413.38 186.558C413.211 186.89 412.97 187.175 412.655 187.412C412.345 187.645 411.971 187.825 411.534 187.952C411.101 188.075 410.618 188.137 410.085 188.137C409.606 188.137 409.135 188.073 408.67 187.945C408.209 187.818 407.79 187.624 407.412 187.364C407.034 187.1 406.733 186.772 406.51 186.38C406.286 185.983 406.175 185.521 406.175 184.992H407.89C407.89 185.316 407.945 185.591 408.054 185.819C408.168 186.047 408.326 186.234 408.526 186.38C408.727 186.521 408.959 186.626 409.223 186.694C409.492 186.763 409.779 186.797 410.085 186.797C410.486 186.797 410.821 186.74 411.09 186.626C411.363 186.512 411.568 186.353 411.705 186.147C411.842 185.942 411.91 185.705 411.91 185.437ZM418.242 188H416.116L416.129 186.64H418.242C418.857 186.64 419.372 186.505 419.787 186.236C420.206 185.967 420.52 185.582 420.73 185.081C420.944 184.58 421.051 183.983 421.051 183.29V182.75C421.051 182.212 420.99 181.736 420.867 181.321C420.748 180.907 420.571 180.558 420.334 180.275C420.101 179.993 419.814 179.779 419.472 179.633C419.135 179.487 418.745 179.414 418.303 179.414H416.075V178.047H418.303C418.964 178.047 419.568 178.159 420.115 178.382C420.662 178.601 421.133 178.917 421.53 179.332C421.931 179.747 422.239 180.243 422.453 180.822C422.667 181.401 422.774 182.048 422.774 182.764V183.29C422.774 184.006 422.667 184.653 422.453 185.231C422.239 185.81 421.931 186.307 421.53 186.722C421.129 187.132 420.65 187.449 420.094 187.672C419.543 187.891 418.925 188 418.242 188ZM417.066 178.047V188H415.35V178.047H417.066ZM431.109 186.688V188H424.437V186.872L427.677 183.338C428.033 182.937 428.313 182.59 428.518 182.299C428.723 182.007 428.867 181.745 428.949 181.513C429.035 181.276 429.079 181.046 429.079 180.822C429.079 180.508 429.019 180.232 428.901 179.995C428.787 179.754 428.618 179.564 428.395 179.428C428.172 179.286 427.9 179.216 427.581 179.216C427.212 179.216 426.902 179.296 426.652 179.455C426.401 179.615 426.212 179.836 426.084 180.118C425.957 180.396 425.893 180.715 425.893 181.075H424.246C424.246 180.496 424.378 179.968 424.642 179.489C424.906 179.006 425.289 178.623 425.79 178.341C426.292 178.054 426.896 177.91 427.602 177.91C428.267 177.91 428.832 178.022 429.297 178.245C429.762 178.468 430.115 178.785 430.357 179.195C430.603 179.605 430.726 180.091 430.726 180.651C430.726 180.961 430.676 181.269 430.576 181.574C430.475 181.88 430.332 182.185 430.145 182.49C429.963 182.791 429.746 183.094 429.496 183.399C429.245 183.7 428.969 184.006 428.668 184.315L426.515 186.688H431.109ZM434.235 186.414L434.228 187.59C434.228 188.055 434.112 188.533 433.879 189.025C433.647 189.518 433.339 189.923 432.956 190.242L432.074 189.729C432.202 189.524 432.318 189.317 432.423 189.107C432.528 188.898 432.612 188.674 432.676 188.438C432.74 188.201 432.772 187.938 432.772 187.651V186.414H434.235ZM445.107 185.437C445.107 185.231 445.075 185.049 445.012 184.89C444.952 184.73 444.845 184.584 444.69 184.452C444.535 184.32 444.317 184.192 444.034 184.069C443.756 183.942 443.401 183.812 442.968 183.68C442.494 183.534 442.056 183.372 441.655 183.194C441.259 183.012 440.912 182.802 440.616 182.565C440.32 182.324 440.09 182.048 439.926 181.738C439.762 181.424 439.679 181.062 439.679 180.651C439.679 180.246 439.764 179.877 439.932 179.544C440.106 179.211 440.349 178.924 440.664 178.683C440.983 178.437 441.359 178.247 441.792 178.115C442.225 177.979 442.703 177.91 443.227 177.91C443.966 177.91 444.601 178.047 445.135 178.32C445.672 178.594 446.085 178.961 446.372 179.421C446.664 179.881 446.809 180.389 446.809 180.945H445.107C445.107 180.617 445.037 180.328 444.895 180.077C444.759 179.822 444.549 179.621 444.266 179.476C443.988 179.33 443.635 179.257 443.207 179.257C442.801 179.257 442.464 179.318 442.195 179.441C441.926 179.564 441.726 179.731 441.594 179.94C441.461 180.15 441.395 180.387 441.395 180.651C441.395 180.838 441.439 181.009 441.525 181.164C441.612 181.314 441.744 181.456 441.922 181.588C442.099 181.715 442.323 181.836 442.592 181.95C442.86 182.064 443.177 182.174 443.542 182.278C444.093 182.442 444.574 182.625 444.984 182.825C445.394 183.021 445.736 183.244 446.01 183.495C446.283 183.746 446.488 184.031 446.625 184.35C446.762 184.664 446.83 185.022 446.83 185.423C446.83 185.842 446.746 186.22 446.577 186.558C446.408 186.89 446.167 187.175 445.852 187.412C445.542 187.645 445.169 187.825 444.731 187.952C444.298 188.075 443.815 188.137 443.282 188.137C442.804 188.137 442.332 188.073 441.867 187.945C441.407 187.818 440.987 187.624 440.609 187.364C440.231 187.1 439.93 186.772 439.707 186.38C439.484 185.983 439.372 185.521 439.372 184.992H441.088C441.088 185.316 441.142 185.591 441.252 185.819C441.366 186.047 441.523 186.234 441.723 186.38C441.924 186.521 442.156 186.626 442.421 186.694C442.69 186.763 442.977 186.797 443.282 186.797C443.683 186.797 444.018 186.74 444.287 186.626C444.56 186.512 444.765 186.353 444.902 186.147C445.039 185.942 445.107 185.705 445.107 185.437ZM451.439 188H449.313L449.327 186.64H451.439C452.054 186.64 452.569 186.505 452.984 186.236C453.403 185.967 453.718 185.582 453.927 185.081C454.142 184.58 454.249 183.983 454.249 183.29V182.75C454.249 182.212 454.187 181.736 454.064 181.321C453.946 180.907 453.768 180.558 453.531 180.275C453.298 179.993 453.011 179.779 452.67 179.633C452.332 179.487 451.943 179.414 451.501 179.414H449.272V178.047H451.501C452.161 178.047 452.765 178.159 453.312 178.382C453.859 178.601 454.331 178.917 454.727 179.332C455.128 179.747 455.436 180.243 455.65 180.822C455.864 181.401 455.971 182.048 455.971 182.764V183.29C455.971 184.006 455.864 184.653 455.65 185.231C455.436 185.81 455.128 186.307 454.727 186.722C454.326 187.132 453.848 187.449 453.292 187.672C452.74 187.891 452.123 188 451.439 188ZM450.263 178.047V188H448.547V178.047H450.263ZM459.049 178.047L461.162 181.677L463.274 178.047H465.249L462.242 182.976L465.325 188H463.329L461.162 184.302L458.995 188H456.992L460.081 182.976L457.067 178.047H459.049ZM473.024 186.64V188H468.027V186.64H473.024ZM468.505 178.047V188H466.789V178.047H468.505Z" fill="#202124"/>
<path d="M355.516 142.112L364.739 137H219.74L210.516 142.007H355.516V142.112Z" fill="#EB80FC"/>
<path d="M364.739 137L355.516 142.112V203.007L364.74 198V137H364.739Z" fill="#6A1B9A"/>
<path d="M355.52 142H210.52V203H355.52V142Z" fill="#F3E8FD"/>
<path d="M224.724 158.047H226.255L229.133 165.724L232.004 158.047H233.536L229.735 168H228.518L224.724 158.047ZM224.027 158.047H225.483L225.736 164.691V168H224.027V158.047ZM232.777 158.047H234.24V168H232.524V164.691L232.777 158.047ZM240.483 166.517V162.989C240.483 162.725 240.435 162.497 240.339 162.306C240.244 162.114 240.098 161.966 239.902 161.861C239.71 161.757 239.469 161.704 239.177 161.704C238.908 161.704 238.676 161.75 238.48 161.841C238.284 161.932 238.131 162.055 238.022 162.21C237.913 162.365 237.858 162.54 237.858 162.736H236.217C236.217 162.445 236.288 162.162 236.429 161.889C236.57 161.615 236.775 161.371 237.044 161.157C237.313 160.943 237.635 160.774 238.008 160.651C238.382 160.528 238.801 160.467 239.266 160.467C239.822 160.467 240.314 160.56 240.743 160.747C241.176 160.934 241.515 161.216 241.761 161.595C242.012 161.968 242.137 162.438 242.137 163.003V166.291C242.137 166.628 242.16 166.931 242.205 167.2C242.256 167.465 242.326 167.695 242.417 167.891V168H240.729C240.651 167.822 240.59 167.597 240.544 167.323C240.503 167.045 240.483 166.776 240.483 166.517ZM240.722 163.502L240.736 164.521H239.553C239.248 164.521 238.979 164.55 238.746 164.609C238.514 164.664 238.32 164.746 238.165 164.855C238.01 164.965 237.894 165.097 237.817 165.252C237.739 165.407 237.701 165.582 237.701 165.778C237.701 165.974 237.746 166.154 237.837 166.318C237.928 166.478 238.061 166.603 238.234 166.694C238.412 166.785 238.626 166.831 238.876 166.831C239.214 166.831 239.508 166.763 239.758 166.626C240.013 166.485 240.214 166.314 240.36 166.113C240.506 165.908 240.583 165.715 240.592 165.532L241.125 166.264C241.071 166.451 240.977 166.651 240.845 166.865C240.713 167.079 240.54 167.285 240.326 167.48C240.116 167.672 239.863 167.829 239.567 167.952C239.275 168.075 238.938 168.137 238.555 168.137C238.072 168.137 237.641 168.041 237.263 167.85C236.885 167.654 236.589 167.392 236.374 167.063C236.16 166.731 236.053 166.355 236.053 165.936C236.053 165.544 236.126 165.197 236.272 164.896C236.422 164.591 236.641 164.336 236.928 164.131C237.22 163.926 237.575 163.771 237.995 163.666C238.414 163.557 238.892 163.502 239.43 163.502H240.722ZM245.318 160.604L246.726 163.058L248.161 160.604H249.973L247.731 164.233L250.062 168H248.25L246.746 165.443L245.242 168H243.424L245.748 164.233L243.513 160.604H245.318ZM255.56 158.047V168H253.857V158.047H255.56ZM258.684 158.047V159.414H250.761V158.047H258.684ZM262.637 168.137C262.09 168.137 261.595 168.048 261.153 167.87C260.716 167.688 260.342 167.435 260.032 167.111C259.727 166.788 259.492 166.407 259.328 165.97C259.164 165.532 259.082 165.061 259.082 164.555V164.281C259.082 163.702 259.166 163.178 259.335 162.709C259.503 162.24 259.738 161.839 260.039 161.506C260.34 161.169 260.695 160.911 261.105 160.733C261.515 160.556 261.96 160.467 262.438 160.467C262.967 160.467 263.429 160.556 263.826 160.733C264.222 160.911 264.551 161.162 264.81 161.485C265.075 161.804 265.271 162.185 265.398 162.627C265.53 163.069 265.596 163.557 265.596 164.09V164.794H259.882V163.611H263.97V163.481C263.96 163.185 263.901 162.907 263.792 162.647C263.687 162.388 263.525 162.178 263.306 162.019C263.088 161.859 262.796 161.779 262.431 161.779C262.158 161.779 261.914 161.839 261.7 161.957C261.49 162.071 261.315 162.237 261.174 162.456C261.032 162.675 260.923 162.939 260.846 163.249C260.773 163.554 260.736 163.898 260.736 164.281V164.555C260.736 164.878 260.779 165.179 260.866 165.457C260.957 165.73 261.089 165.97 261.263 166.175C261.436 166.38 261.645 166.542 261.891 166.66C262.138 166.774 262.418 166.831 262.732 166.831C263.129 166.831 263.482 166.751 263.792 166.592C264.102 166.432 264.371 166.207 264.598 165.915L265.467 166.756C265.307 166.988 265.1 167.212 264.845 167.426C264.589 167.635 264.277 167.806 263.908 167.938C263.543 168.071 263.12 168.137 262.637 168.137ZM268.339 160.604L269.748 163.058L271.183 160.604H272.995L270.753 164.233L273.084 168H271.272L269.768 165.443L268.264 168H266.446L268.77 164.233L266.535 160.604H268.339ZM277.713 160.604V161.807H273.543V160.604H277.713ZM274.746 158.792H276.394V165.956C276.394 166.184 276.426 166.359 276.49 166.482C276.558 166.601 276.651 166.681 276.77 166.722C276.888 166.763 277.027 166.783 277.187 166.783C277.301 166.783 277.41 166.776 277.515 166.763C277.62 166.749 277.704 166.735 277.768 166.722L277.775 167.979C277.638 168.021 277.479 168.057 277.296 168.089C277.119 168.121 276.913 168.137 276.681 168.137C276.303 168.137 275.968 168.071 275.676 167.938C275.385 167.802 275.157 167.581 274.993 167.275C274.829 166.97 274.746 166.564 274.746 166.059V158.792ZM286.187 163.092V164.404H282.57V163.092H286.187ZM299.322 162.914V166.715C299.181 166.902 298.96 167.107 298.659 167.33C298.363 167.549 297.968 167.738 297.476 167.897C296.984 168.057 296.371 168.137 295.637 168.137C295.013 168.137 294.441 168.032 293.921 167.822C293.402 167.608 292.953 167.296 292.575 166.886C292.201 166.476 291.912 165.977 291.707 165.389C291.502 164.796 291.399 164.122 291.399 163.365V162.675C291.399 161.923 291.492 161.253 291.679 160.665C291.871 160.073 292.144 159.571 292.5 159.161C292.855 158.751 293.283 158.441 293.785 158.231C294.291 158.017 294.863 157.91 295.501 157.91C296.316 157.91 296.991 158.047 297.524 158.32C298.062 158.589 298.476 158.963 298.768 159.441C299.06 159.92 299.244 160.467 299.322 161.082H297.64C297.586 160.736 297.478 160.426 297.319 160.152C297.164 159.879 296.941 159.665 296.649 159.51C296.362 159.35 295.988 159.271 295.528 159.271C295.131 159.271 294.783 159.346 294.482 159.496C294.181 159.646 293.931 159.868 293.73 160.159C293.534 160.451 293.386 160.806 293.286 161.226C293.185 161.645 293.135 162.123 293.135 162.661V163.365C293.135 163.912 293.192 164.397 293.306 164.821C293.425 165.245 293.593 165.603 293.812 165.895C294.035 166.186 294.307 166.407 294.626 166.558C294.945 166.703 295.305 166.776 295.706 166.776C296.098 166.776 296.419 166.744 296.67 166.681C296.92 166.612 297.118 166.533 297.264 166.441C297.415 166.346 297.531 166.255 297.613 166.168V164.192H295.542V162.914H299.322ZM304.519 168.137C303.972 168.137 303.478 168.048 303.036 167.87C302.598 167.688 302.224 167.435 301.914 167.111C301.609 166.788 301.374 166.407 301.21 165.97C301.046 165.532 300.964 165.061 300.964 164.555V164.281C300.964 163.702 301.049 163.178 301.217 162.709C301.386 162.24 301.621 161.839 301.921 161.506C302.222 161.169 302.578 160.911 302.988 160.733C303.398 160.556 303.842 160.467 304.321 160.467C304.849 160.467 305.312 160.556 305.708 160.733C306.105 160.911 306.433 161.162 306.693 161.485C306.957 161.804 307.153 162.185 307.281 162.627C307.413 163.069 307.479 163.557 307.479 164.09V164.794H301.764V163.611H305.852V163.481C305.843 163.185 305.784 162.907 305.674 162.647C305.569 162.388 305.408 162.178 305.189 162.019C304.97 161.859 304.678 161.779 304.314 161.779C304.04 161.779 303.797 161.839 303.582 161.957C303.373 162.071 303.197 162.237 303.056 162.456C302.915 162.675 302.805 162.939 302.728 163.249C302.655 163.554 302.619 163.898 302.619 164.281V164.555C302.619 164.878 302.662 165.179 302.748 165.457C302.84 165.73 302.972 165.97 303.145 166.175C303.318 166.38 303.528 166.542 303.774 166.66C304.02 166.774 304.3 166.831 304.615 166.831C305.011 166.831 305.364 166.751 305.674 166.592C305.984 166.432 306.253 166.207 306.481 165.915L307.349 166.756C307.19 166.988 306.982 167.212 306.727 167.426C306.472 167.635 306.16 167.806 305.79 167.938C305.426 168.071 305.002 168.137 304.519 168.137ZM310.612 162.107V168H308.964V160.604H310.516L310.612 162.107ZM310.345 164.028L309.784 164.021C309.784 163.511 309.848 163.039 309.976 162.606C310.103 162.174 310.29 161.798 310.536 161.479C310.782 161.155 311.088 160.907 311.452 160.733C311.821 160.556 312.248 160.467 312.731 160.467C313.068 160.467 313.376 160.517 313.654 160.617C313.936 160.713 314.18 160.866 314.385 161.075C314.595 161.285 314.754 161.554 314.863 161.882C314.977 162.21 315.034 162.606 315.034 163.071V168H313.387V163.215C313.387 162.855 313.332 162.572 313.223 162.367C313.118 162.162 312.965 162.016 312.765 161.93C312.569 161.839 312.334 161.793 312.061 161.793C311.751 161.793 311.487 161.852 311.268 161.971C311.054 162.089 310.878 162.251 310.741 162.456C310.605 162.661 310.504 162.898 310.441 163.167C310.377 163.436 310.345 163.723 310.345 164.028ZM314.932 163.591L314.159 163.762C314.159 163.315 314.221 162.894 314.344 162.497C314.472 162.096 314.656 161.745 314.898 161.444C315.144 161.139 315.447 160.9 315.807 160.727C316.167 160.553 316.579 160.467 317.044 160.467C317.422 160.467 317.76 160.519 318.056 160.624C318.357 160.724 318.612 160.884 318.821 161.103C319.031 161.321 319.191 161.606 319.3 161.957C319.409 162.303 319.464 162.723 319.464 163.215V168H317.81V163.208C317.81 162.834 317.755 162.545 317.646 162.34C317.541 162.135 317.39 161.993 317.195 161.916C316.999 161.834 316.764 161.793 316.49 161.793C316.235 161.793 316.01 161.841 315.814 161.937C315.622 162.028 315.46 162.158 315.328 162.326C315.196 162.49 315.096 162.679 315.028 162.894C314.964 163.108 314.932 163.34 314.932 163.591ZM323.007 162.107V168H321.359V160.604H322.911L323.007 162.107ZM322.74 164.028L322.18 164.021C322.18 163.511 322.243 163.039 322.371 162.606C322.499 162.174 322.686 161.798 322.932 161.479C323.178 161.155 323.483 160.907 323.848 160.733C324.217 160.556 324.643 160.467 325.126 160.467C325.463 160.467 325.771 160.517 326.049 160.617C326.331 160.713 326.575 160.866 326.78 161.075C326.99 161.285 327.149 161.554 327.259 161.882C327.373 162.21 327.43 162.606 327.43 163.071V168H325.782V163.215C325.782 162.855 325.728 162.572 325.618 162.367C325.513 162.162 325.361 162.016 325.16 161.93C324.964 161.839 324.729 161.793 324.456 161.793C324.146 161.793 323.882 161.852 323.663 161.971C323.449 162.089 323.273 162.251 323.137 162.456C323 162.661 322.9 162.898 322.836 163.167C322.772 163.436 322.74 163.723 322.74 164.028ZM327.327 163.591L326.555 163.762C326.555 163.315 326.616 162.894 326.739 162.497C326.867 162.096 327.051 161.745 327.293 161.444C327.539 161.139 327.842 160.9 328.202 160.727C328.562 160.553 328.975 160.467 329.439 160.467C329.818 160.467 330.155 160.519 330.451 160.624C330.752 160.724 331.007 160.884 331.217 161.103C331.426 161.321 331.586 161.606 331.695 161.957C331.805 162.303 331.859 162.723 331.859 163.215V168H330.205V163.208C330.205 162.834 330.15 162.545 330.041 162.34C329.936 162.135 329.786 161.993 329.59 161.916C329.394 161.834 329.159 161.793 328.886 161.793C328.631 161.793 328.405 161.841 328.209 161.937C328.018 162.028 327.856 162.158 327.724 162.326C327.591 162.49 327.491 162.679 327.423 162.894C327.359 163.108 327.327 163.34 327.327 163.591ZM337.925 166.517V162.989C337.925 162.725 337.877 162.497 337.781 162.306C337.685 162.114 337.54 161.966 337.344 161.861C337.152 161.757 336.911 161.704 336.619 161.704C336.35 161.704 336.118 161.75 335.922 161.841C335.726 161.932 335.573 162.055 335.464 162.21C335.354 162.365 335.3 162.54 335.3 162.736H333.659C333.659 162.445 333.73 162.162 333.871 161.889C334.012 161.615 334.217 161.371 334.486 161.157C334.755 160.943 335.076 160.774 335.45 160.651C335.824 160.528 336.243 160.467 336.708 160.467C337.264 160.467 337.756 160.56 338.184 160.747C338.617 160.934 338.957 161.216 339.203 161.595C339.454 161.968 339.579 162.438 339.579 163.003V166.291C339.579 166.628 339.602 166.931 339.647 167.2C339.697 167.465 339.768 167.695 339.859 167.891V168H338.171C338.093 167.822 338.032 167.597 337.986 167.323C337.945 167.045 337.925 166.776 337.925 166.517ZM338.164 163.502L338.178 164.521H336.995C336.69 164.521 336.421 164.55 336.188 164.609C335.956 164.664 335.762 164.746 335.607 164.855C335.452 164.965 335.336 165.097 335.259 165.252C335.181 165.407 335.142 165.582 335.142 165.778C335.142 165.974 335.188 166.154 335.279 166.318C335.37 166.478 335.502 166.603 335.676 166.694C335.853 166.785 336.068 166.831 336.318 166.831C336.655 166.831 336.949 166.763 337.2 166.626C337.455 166.485 337.656 166.314 337.802 166.113C337.947 165.908 338.025 165.715 338.034 165.532L338.567 166.264C338.513 166.451 338.419 166.651 338.287 166.865C338.155 167.079 337.982 167.285 337.767 167.48C337.558 167.672 337.305 167.829 337.009 167.952C336.717 168.075 336.38 168.137 335.997 168.137C335.514 168.137 335.083 168.041 334.705 167.85C334.327 167.654 334.03 167.392 333.816 167.063C333.602 166.731 333.495 166.355 333.495 165.936C333.495 165.544 333.568 165.197 333.714 164.896C333.864 164.591 334.083 164.336 334.37 164.131C334.662 163.926 335.017 163.771 335.436 163.666C335.856 163.557 336.334 163.502 336.872 163.502H338.164ZM343.046 166.414L343.04 167.59C343.04 168.055 342.923 168.533 342.691 169.025C342.459 169.518 342.151 169.923 341.768 170.242L340.886 169.729C341.014 169.524 341.13 169.317 341.235 169.107C341.34 168.898 341.424 168.674 341.488 168.438C341.552 168.201 341.584 167.938 341.584 167.651V166.414H343.046ZM237.208 186.64V188H232.211V186.64H237.208ZM232.69 178.047V188H230.974V178.047H232.69ZM244.969 186.64V188H239.972V186.64H244.969ZM240.45 178.047V188H238.735V178.047H240.45ZM250.508 179.373L247.534 188H245.736L249.482 178.047H250.631L250.508 179.373ZM252.996 188L250.016 179.373L249.886 178.047H251.041L254.801 188H252.996ZM252.853 184.309V185.669H247.438V184.309H252.853ZM256.812 178.047H258.344L261.221 185.724L264.093 178.047H265.624L261.823 188H260.606L256.812 178.047ZM256.115 178.047H257.571L257.824 184.691V188H256.115V178.047ZM264.865 178.047H266.328V188H264.612V184.691L264.865 178.047ZM272.564 179.373L269.59 188H267.793L271.539 178.047H272.687L272.564 179.373ZM275.052 188L272.072 179.373L271.942 178.047H273.097L276.857 188H275.052ZM274.909 184.309V185.669H269.495V184.309H274.909ZM284.583 186.688V188H277.912V186.872L281.152 183.338C281.507 182.937 281.787 182.59 281.993 182.299C282.198 182.007 282.341 181.745 282.423 181.513C282.51 181.276 282.553 181.046 282.553 180.822C282.553 180.508 282.494 180.232 282.375 179.995C282.261 179.754 282.093 179.564 281.87 179.428C281.646 179.286 281.375 179.216 281.056 179.216C280.687 179.216 280.377 179.296 280.126 179.455C279.876 179.615 279.687 179.836 279.559 180.118C279.431 180.396 279.368 180.715 279.368 181.075H277.72C277.72 180.496 277.852 179.968 278.117 179.489C278.381 179.006 278.764 178.623 279.265 178.341C279.766 178.054 280.37 177.91 281.077 177.91C281.742 177.91 282.307 178.022 282.772 178.245C283.237 178.468 283.59 178.785 283.831 179.195C284.078 179.605 284.201 180.091 284.201 180.651C284.201 180.961 284.15 181.269 284.05 181.574C283.95 181.88 283.806 182.185 283.62 182.49C283.437 182.791 283.221 183.094 282.97 183.399C282.719 183.7 282.444 184.006 282.143 184.315L279.99 186.688H284.583ZM287.709 186.414L287.702 187.59C287.702 188.055 287.586 188.533 287.354 189.025C287.121 189.518 286.814 189.923 286.431 190.242L285.549 189.729C285.677 189.524 285.793 189.317 285.898 189.107C286.002 188.898 286.087 188.674 286.151 188.438C286.214 188.201 286.246 187.938 286.246 187.651V186.414H287.709ZM294.043 178.047H295.574L298.452 185.724L301.323 178.047H302.854L299.054 188H297.837L294.043 178.047ZM293.346 178.047H294.802L295.054 184.691V188H293.346V178.047ZM302.096 178.047H303.558V188H301.843V184.691L302.096 178.047ZM307.395 180.604V188H305.741V180.604H307.395ZM305.631 178.662C305.631 178.411 305.713 178.204 305.878 178.04C306.046 177.871 306.279 177.787 306.575 177.787C306.866 177.787 307.097 177.871 307.265 178.04C307.434 178.204 307.518 178.411 307.518 178.662C307.518 178.908 307.434 179.113 307.265 179.277C307.097 179.441 306.866 179.523 306.575 179.523C306.279 179.523 306.046 179.441 305.878 179.277C305.713 179.113 305.631 178.908 305.631 178.662ZM313.549 185.997C313.549 185.833 313.508 185.685 313.426 185.553C313.344 185.416 313.187 185.293 312.954 185.184C312.727 185.074 312.389 184.974 311.943 184.883C311.551 184.796 311.191 184.694 310.863 184.575C310.539 184.452 310.261 184.304 310.029 184.131C309.796 183.958 309.616 183.753 309.489 183.516C309.361 183.279 309.297 183.005 309.297 182.695C309.297 182.395 309.363 182.11 309.496 181.841C309.628 181.572 309.817 181.335 310.063 181.13C310.309 180.925 310.607 180.763 310.958 180.645C311.314 180.526 311.71 180.467 312.148 180.467C312.768 180.467 313.299 180.572 313.741 180.781C314.187 180.986 314.529 181.267 314.766 181.622C315.003 181.973 315.121 182.369 315.121 182.812H313.474C313.474 182.616 313.424 182.433 313.324 182.265C313.228 182.091 313.082 181.952 312.886 181.848C312.69 181.738 312.444 181.684 312.148 181.684C311.865 181.684 311.631 181.729 311.444 181.82C311.261 181.907 311.125 182.021 311.034 182.162C310.947 182.303 310.904 182.458 310.904 182.627C310.904 182.75 310.926 182.862 310.972 182.962C311.022 183.058 311.104 183.146 311.218 183.229C311.332 183.306 311.487 183.379 311.683 183.447C311.884 183.516 312.134 183.582 312.435 183.646C313 183.764 313.485 183.917 313.891 184.104C314.301 184.286 314.616 184.523 314.834 184.814C315.053 185.102 315.162 185.466 315.162 185.908C315.162 186.236 315.092 186.537 314.951 186.811C314.814 187.079 314.613 187.314 314.349 187.515C314.085 187.711 313.768 187.863 313.399 187.973C313.034 188.082 312.624 188.137 312.168 188.137C311.498 188.137 310.931 188.018 310.466 187.781C310.001 187.54 309.648 187.232 309.407 186.858C309.17 186.48 309.051 186.088 309.051 185.683H310.644C310.662 185.988 310.746 186.232 310.897 186.414C311.052 186.592 311.243 186.722 311.471 186.804C311.704 186.881 311.943 186.92 312.189 186.92C312.485 186.92 312.733 186.881 312.934 186.804C313.135 186.722 313.287 186.612 313.392 186.476C313.497 186.334 313.549 186.175 313.549 185.997ZM320.196 180.604V181.807H316.026V180.604H320.196ZM317.229 178.792H318.876V185.956C318.876 186.184 318.908 186.359 318.972 186.482C319.04 186.601 319.134 186.681 319.252 186.722C319.371 186.763 319.51 186.783 319.669 186.783C319.783 186.783 319.892 186.776 319.997 186.763C320.102 186.749 320.186 186.735 320.25 186.722L320.257 187.979C320.12 188.021 319.961 188.057 319.779 188.089C319.601 188.121 319.396 188.137 319.163 188.137C318.785 188.137 318.45 188.071 318.158 187.938C317.867 187.802 317.639 187.581 317.475 187.275C317.311 186.97 317.229 186.564 317.229 186.059V178.792ZM323.321 182.012V188H321.674V180.604H323.246L323.321 182.012ZM325.584 180.556L325.57 182.087C325.47 182.069 325.361 182.055 325.242 182.046C325.128 182.037 325.014 182.032 324.9 182.032C324.618 182.032 324.369 182.073 324.155 182.155C323.941 182.233 323.761 182.347 323.615 182.497C323.474 182.643 323.365 182.821 323.287 183.03C323.21 183.24 323.164 183.475 323.15 183.734L322.774 183.762C322.774 183.297 322.82 182.866 322.911 182.47C323.002 182.073 323.139 181.725 323.321 181.424C323.508 181.123 323.741 180.888 324.019 180.72C324.301 180.551 324.627 180.467 324.996 180.467C325.096 180.467 325.203 180.476 325.317 180.494C325.436 180.512 325.525 180.533 325.584 180.556ZM330.74 186.517V182.989C330.74 182.725 330.692 182.497 330.596 182.306C330.501 182.114 330.355 181.966 330.159 181.861C329.968 181.757 329.726 181.704 329.434 181.704C329.165 181.704 328.933 181.75 328.737 181.841C328.541 181.932 328.388 182.055 328.279 182.21C328.17 182.365 328.115 182.54 328.115 182.736H326.474C326.474 182.445 326.545 182.162 326.686 181.889C326.828 181.615 327.033 181.371 327.302 181.157C327.57 180.943 327.892 180.774 328.265 180.651C328.639 180.528 329.058 180.467 329.523 180.467C330.079 180.467 330.571 180.56 331 180.747C331.433 180.934 331.772 181.216 332.018 181.595C332.269 181.968 332.394 182.438 332.394 183.003V186.291C332.394 186.628 332.417 186.931 332.463 187.2C332.513 187.465 332.583 187.695 332.675 187.891V188H330.986C330.909 187.822 330.847 187.597 330.802 187.323C330.761 187.045 330.74 186.776 330.74 186.517ZM330.979 183.502L330.993 184.521H329.81C329.505 184.521 329.236 184.55 329.004 184.609C328.771 184.664 328.578 184.746 328.423 184.855C328.268 184.965 328.151 185.097 328.074 185.252C327.997 185.407 327.958 185.582 327.958 185.778C327.958 185.974 328.003 186.154 328.095 186.318C328.186 186.478 328.318 186.603 328.491 186.694C328.669 186.785 328.883 186.831 329.134 186.831C329.471 186.831 329.765 186.763 330.015 186.626C330.271 186.485 330.471 186.314 330.617 186.113C330.763 185.908 330.84 185.715 330.849 185.532L331.383 186.264C331.328 186.451 331.235 186.651 331.102 186.865C330.97 187.079 330.797 187.285 330.583 187.48C330.373 187.672 330.12 187.829 329.824 187.952C329.532 188.075 329.195 188.137 328.812 188.137C328.329 188.137 327.899 188.041 327.52 187.85C327.142 187.654 326.846 187.392 326.632 187.063C326.417 186.731 326.31 186.355 326.31 185.936C326.31 185.544 326.383 185.197 326.529 184.896C326.679 184.591 326.898 184.336 327.185 184.131C327.477 183.926 327.832 183.771 328.252 183.666C328.671 183.557 329.15 183.502 329.687 183.502H330.979ZM336.081 177.5V188H334.426V177.5H336.081Z" fill="#202124"/>
<g filter="url(#filter0_dd_491_351)">
<path d="M115.665 158.047H119.185C119.942 158.047 120.587 158.161 121.12 158.389C121.653 158.617 122.061 158.954 122.344 159.4C122.631 159.842 122.774 160.389 122.774 161.041C122.774 161.538 122.683 161.975 122.501 162.354C122.318 162.732 122.061 163.051 121.728 163.311C121.396 163.566 120.999 163.764 120.539 163.905L120.019 164.158H116.854L116.841 162.798H119.213C119.623 162.798 119.965 162.725 120.238 162.579C120.512 162.433 120.717 162.235 120.853 161.984C120.995 161.729 121.065 161.442 121.065 161.123C121.065 160.777 120.997 160.476 120.86 160.221C120.728 159.961 120.523 159.763 120.245 159.626C119.967 159.485 119.614 159.414 119.185 159.414H117.381V168H115.665V158.047ZM121.346 168L119.008 163.529L120.805 163.522L123.178 167.911V168H121.346ZM127.78 168.137C127.233 168.137 126.739 168.048 126.296 167.87C125.859 167.688 125.485 167.435 125.175 167.111C124.87 166.788 124.635 166.407 124.471 165.97C124.307 165.532 124.225 165.061 124.225 164.555V164.281C124.225 163.702 124.31 163.178 124.478 162.709C124.647 162.24 124.881 161.839 125.182 161.506C125.483 161.169 125.838 160.911 126.249 160.733C126.659 160.556 127.103 160.467 127.582 160.467C128.11 160.467 128.573 160.556 128.969 160.733C129.366 160.911 129.694 161.162 129.954 161.485C130.218 161.804 130.414 162.185 130.542 162.627C130.674 163.069 130.74 163.557 130.74 164.09V164.794H125.025V163.611H129.113V163.481C129.104 163.185 129.045 162.907 128.935 162.647C128.83 162.388 128.669 162.178 128.45 162.019C128.231 161.859 127.939 161.779 127.575 161.779C127.301 161.779 127.058 161.839 126.843 161.957C126.634 162.071 126.458 162.237 126.317 162.456C126.176 162.675 126.066 162.939 125.989 163.249C125.916 163.554 125.879 163.898 125.879 164.281V164.555C125.879 164.878 125.923 165.179 126.009 165.457C126.101 165.73 126.233 165.97 126.406 166.175C126.579 166.38 126.789 166.542 127.035 166.66C127.281 166.774 127.561 166.831 127.876 166.831C128.272 166.831 128.625 166.751 128.935 166.592C129.245 166.432 129.514 166.207 129.742 165.915L130.61 166.756C130.45 166.988 130.243 167.212 129.988 167.426C129.733 167.635 129.421 167.806 129.051 167.938C128.687 168.071 128.263 168.137 127.78 168.137ZM134.454 168H132.806V159.893C132.806 159.341 132.909 158.879 133.114 158.505C133.323 158.127 133.622 157.842 134.009 157.65C134.397 157.454 134.855 157.356 135.383 157.356C135.547 157.356 135.709 157.368 135.869 157.391C136.028 157.409 136.183 157.438 136.333 157.479L136.292 158.751C136.201 158.728 136.101 158.712 135.992 158.703C135.887 158.694 135.773 158.689 135.65 158.689C135.399 158.689 135.183 158.737 135 158.833C134.823 158.924 134.686 159.059 134.59 159.236C134.499 159.414 134.454 159.633 134.454 159.893V168ZM135.978 160.604V161.807H131.671V160.604H135.978ZM140.471 168.137C139.924 168.137 139.43 168.048 138.987 167.87C138.55 167.688 138.176 167.435 137.866 167.111C137.561 166.788 137.326 166.407 137.162 165.97C136.998 165.532 136.916 165.061 136.916 164.555V164.281C136.916 163.702 137.001 163.178 137.169 162.709C137.338 162.24 137.572 161.839 137.873 161.506C138.174 161.169 138.529 160.911 138.94 160.733C139.35 160.556 139.794 160.467 140.273 160.467C140.801 160.467 141.264 160.556 141.66 160.733C142.057 160.911 142.385 161.162 142.645 161.485C142.909 161.804 143.105 162.185 143.233 162.627C143.365 163.069 143.431 163.557 143.431 164.09V164.794H137.716V163.611H141.804V163.481C141.795 163.185 141.736 162.907 141.626 162.647C141.521 162.388 141.36 162.178 141.141 162.019C140.922 161.859 140.63 161.779 140.266 161.779C139.992 161.779 139.749 161.839 139.534 161.957C139.325 162.071 139.149 162.237 139.008 162.456C138.867 162.675 138.757 162.939 138.68 163.249C138.607 163.554 138.571 163.898 138.571 164.281V164.555C138.571 164.878 138.614 165.179 138.7 165.457C138.792 165.73 138.924 165.97 139.097 166.175C139.27 166.38 139.48 166.542 139.726 166.66C139.972 166.774 140.252 166.831 140.567 166.831C140.963 166.831 141.316 166.751 141.626 166.592C141.936 166.432 142.205 166.207 142.433 165.915L143.301 166.756C143.141 166.988 142.934 167.212 142.679 167.426C142.424 167.635 142.112 167.806 141.742 167.938C141.378 168.071 140.954 168.137 140.471 168.137ZM146.57 162.012V168H144.923V160.604H146.495L146.57 162.012ZM148.833 160.556L148.819 162.087C148.719 162.069 148.61 162.055 148.491 162.046C148.377 162.037 148.263 162.032 148.149 162.032C147.867 162.032 147.618 162.073 147.404 162.155C147.19 162.233 147.01 162.347 146.864 162.497C146.723 162.643 146.614 162.821 146.536 163.03C146.459 163.24 146.413 163.475 146.399 163.734L146.023 163.762C146.023 163.297 146.069 162.866 146.16 162.47C146.251 162.073 146.388 161.725 146.57 161.424C146.757 161.123 146.99 160.888 147.268 160.72C147.55 160.551 147.876 160.467 148.245 160.467C148.345 160.467 148.452 160.476 148.566 160.494C148.685 160.512 148.774 160.533 148.833 160.556ZM153.189 168.137C152.642 168.137 152.148 168.048 151.706 167.87C151.268 167.688 150.895 167.435 150.585 167.111C150.279 166.788 150.045 166.407 149.881 165.97C149.717 165.532 149.635 165.061 149.635 164.555V164.281C149.635 163.702 149.719 163.178 149.887 162.709C150.056 162.24 150.291 161.839 150.592 161.506C150.892 161.169 151.248 160.911 151.658 160.733C152.068 160.556 152.512 160.467 152.991 160.467C153.52 160.467 153.982 160.556 154.379 160.733C154.775 160.911 155.103 161.162 155.363 161.485C155.627 161.804 155.823 162.185 155.951 162.627C156.083 163.069 156.149 163.557 156.149 164.09V164.794H150.434V163.611H154.522V163.481C154.513 163.185 154.454 162.907 154.345 162.647C154.24 162.388 154.078 162.178 153.859 162.019C153.64 161.859 153.349 161.779 152.984 161.779C152.711 161.779 152.467 161.839 152.253 161.957C152.043 162.071 151.868 162.237 151.726 162.456C151.585 162.675 151.476 162.939 151.398 163.249C151.325 163.554 151.289 163.898 151.289 164.281V164.555C151.289 164.878 151.332 165.179 151.419 165.457C151.51 165.73 151.642 165.97 151.815 166.175C151.988 166.38 152.198 166.542 152.444 166.66C152.69 166.774 152.971 166.831 153.285 166.831C153.681 166.831 154.035 166.751 154.345 166.592C154.654 166.432 154.923 166.207 155.151 165.915L156.019 166.756C155.86 166.988 155.652 167.212 155.397 167.426C155.142 167.635 154.83 167.806 154.461 167.938C154.096 168.071 153.672 168.137 153.189 168.137ZM159.268 162.183V168H157.621V160.604H159.172L159.268 162.183ZM158.974 164.028L158.441 164.021C158.446 163.497 158.518 163.017 158.66 162.579C158.806 162.142 159.006 161.766 159.261 161.451C159.521 161.137 159.831 160.895 160.191 160.727C160.551 160.553 160.952 160.467 161.394 160.467C161.75 160.467 162.071 160.517 162.358 160.617C162.65 160.713 162.898 160.87 163.103 161.089C163.313 161.308 163.472 161.592 163.582 161.943C163.691 162.29 163.746 162.716 163.746 163.222V168H162.091V163.215C162.091 162.859 162.039 162.579 161.934 162.374C161.834 162.164 161.686 162.016 161.49 161.93C161.298 161.839 161.059 161.793 160.772 161.793C160.49 161.793 160.237 161.852 160.013 161.971C159.79 162.089 159.601 162.251 159.446 162.456C159.296 162.661 159.179 162.898 159.097 163.167C159.015 163.436 158.974 163.723 158.974 164.028ZM168.649 166.824C168.918 166.824 169.159 166.772 169.373 166.667C169.592 166.558 169.768 166.407 169.9 166.216C170.037 166.024 170.112 165.803 170.125 165.553H171.677C171.668 166.031 171.527 166.466 171.253 166.858C170.98 167.25 170.618 167.562 170.166 167.795C169.715 168.023 169.216 168.137 168.669 168.137C168.104 168.137 167.612 168.041 167.193 167.85C166.774 167.654 166.425 167.385 166.147 167.043C165.869 166.701 165.659 166.307 165.518 165.86C165.381 165.414 165.313 164.935 165.313 164.425V164.186C165.313 163.675 165.381 163.197 165.518 162.75C165.659 162.299 165.869 161.902 166.147 161.561C166.425 161.219 166.774 160.952 167.193 160.761C167.612 160.565 168.102 160.467 168.662 160.467C169.255 160.467 169.774 160.585 170.221 160.822C170.668 161.055 171.019 161.381 171.274 161.8C171.534 162.215 171.668 162.698 171.677 163.249H170.125C170.112 162.976 170.043 162.729 169.92 162.511C169.802 162.287 169.633 162.11 169.414 161.978C169.2 161.845 168.943 161.779 168.642 161.779C168.309 161.779 168.034 161.848 167.815 161.984C167.596 162.117 167.425 162.299 167.302 162.531C167.179 162.759 167.09 163.017 167.036 163.304C166.985 163.586 166.96 163.88 166.96 164.186V164.425C166.96 164.73 166.985 165.026 167.036 165.313C167.086 165.601 167.172 165.858 167.295 166.086C167.423 166.309 167.596 166.489 167.815 166.626C168.034 166.758 168.312 166.824 168.649 166.824ZM176.403 168.137C175.856 168.137 175.361 168.048 174.919 167.87C174.482 167.688 174.108 167.435 173.798 167.111C173.493 166.788 173.258 166.407 173.094 165.97C172.93 165.532 172.848 165.061 172.848 164.555V164.281C172.848 163.702 172.932 163.178 173.101 162.709C173.269 162.24 173.504 161.839 173.805 161.506C174.106 161.169 174.461 160.911 174.871 160.733C175.281 160.556 175.726 160.467 176.204 160.467C176.733 160.467 177.196 160.556 177.592 160.733C177.988 160.911 178.317 161.162 178.576 161.485C178.841 161.804 179.037 162.185 179.164 162.627C179.296 163.069 179.362 163.557 179.362 164.09V164.794H173.648V163.611H177.736V163.481C177.726 163.185 177.667 162.907 177.558 162.647C177.453 162.388 177.291 162.178 177.072 162.019C176.854 161.859 176.562 161.779 176.197 161.779C175.924 161.779 175.68 161.839 175.466 161.957C175.256 162.071 175.081 162.237 174.94 162.456C174.798 162.675 174.689 162.939 174.612 163.249C174.539 163.554 174.502 163.898 174.502 164.281V164.555C174.502 164.878 174.545 165.179 174.632 165.457C174.723 165.73 174.855 165.97 175.029 166.175C175.202 166.38 175.411 166.542 175.657 166.66C175.904 166.774 176.184 166.831 176.498 166.831C176.895 166.831 177.248 166.751 177.558 166.592C177.868 166.432 178.137 166.207 178.364 165.915L179.233 166.756C179.073 166.988 178.866 167.212 178.611 167.426C178.355 167.635 178.043 167.806 177.674 167.938C177.309 168.071 176.886 168.137 176.403 168.137ZM81.4645 178.047V188H79.7486V178.047H81.4645ZM85.2807 182.107V188H83.6332V180.604H85.185L85.2807 182.107ZM85.0141 184.028L84.4535 184.021C84.4535 183.511 84.5173 183.039 84.6449 182.606C84.7725 182.174 84.9594 181.798 85.2055 181.479C85.4516 181.155 85.7569 180.907 86.1215 180.733C86.4906 180.556 86.9167 180.467 87.3998 180.467C87.737 180.467 88.0447 180.517 88.3227 180.617C88.6052 180.713 88.849 180.866 89.0541 181.075C89.2637 181.285 89.4232 181.554 89.5326 181.882C89.6466 182.21 89.7035 182.606 89.7035 183.071V188H88.0561V183.215C88.0561 182.855 88.0014 182.572 87.892 182.367C87.7872 182.162 87.6345 182.016 87.434 181.93C87.238 181.839 87.0033 181.793 86.7299 181.793C86.42 181.793 86.1557 181.852 85.9369 181.971C85.7227 182.089 85.5473 182.251 85.4105 182.456C85.2738 182.661 85.1736 182.898 85.1098 183.167C85.046 183.436 85.0141 183.723 85.0141 184.028ZM89.601 183.591L88.8285 183.762C88.8285 183.315 88.89 182.894 89.0131 182.497C89.1407 182.096 89.3253 181.745 89.5668 181.444C89.8129 181.139 90.116 180.9 90.476 180.727C90.836 180.553 91.2484 180.467 91.7133 180.467C92.0915 180.467 92.4288 180.519 92.725 180.624C93.0258 180.724 93.281 180.884 93.4906 181.103C93.7003 181.321 93.8598 181.606 93.9691 181.957C94.0785 182.303 94.1332 182.723 94.1332 183.215V188H92.4789V183.208C92.4789 182.834 92.4242 182.545 92.3148 182.34C92.21 182.135 92.0596 181.993 91.8637 181.916C91.6677 181.834 91.433 181.793 91.1596 181.793C90.9044 181.793 90.6788 181.841 90.4828 181.937C90.2914 182.028 90.1296 182.158 89.9975 182.326C89.8653 182.49 89.765 182.679 89.6967 182.894C89.6329 183.108 89.601 183.34 89.601 183.591ZM97.6828 182.025V190.844H96.0354V180.604H97.5529L97.6828 182.025ZM102.502 184.233V184.377C102.502 184.915 102.438 185.414 102.311 185.874C102.188 186.33 102.003 186.729 101.757 187.07C101.515 187.408 101.217 187.67 100.862 187.856C100.506 188.043 100.096 188.137 99.6311 188.137C99.1708 188.137 98.7674 188.052 98.4211 187.884C98.0793 187.711 97.7899 187.467 97.5529 187.152C97.316 186.838 97.1245 186.469 96.9787 186.045C96.8374 185.617 96.7372 185.147 96.6779 184.637V184.083C96.7372 183.541 96.8374 183.049 96.9787 182.606C97.1245 182.164 97.316 181.784 97.5529 181.465C97.7899 181.146 98.0793 180.9 98.4211 180.727C98.7629 180.553 99.1617 180.467 99.6174 180.467C100.082 180.467 100.495 180.558 100.855 180.74C101.215 180.918 101.518 181.173 101.764 181.506C102.01 181.834 102.195 182.23 102.318 182.695C102.441 183.156 102.502 183.668 102.502 184.233ZM100.855 184.377V184.233C100.855 183.892 100.823 183.575 100.759 183.283C100.695 182.987 100.595 182.727 100.458 182.504C100.321 182.281 100.146 182.107 99.9318 181.984C99.7222 181.857 99.4693 181.793 99.173 181.793C98.8814 181.793 98.6307 181.843 98.4211 181.943C98.2115 182.039 98.036 182.174 97.8947 182.347C97.7535 182.52 97.6441 182.723 97.5666 182.955C97.4891 183.183 97.4344 183.431 97.4025 183.7V185.026C97.4572 185.354 97.5507 185.655 97.6828 185.929C97.815 186.202 98.0018 186.421 98.2434 186.585C98.4895 186.744 98.8039 186.824 99.1867 186.824C99.4829 186.824 99.7359 186.76 99.9455 186.633C100.155 186.505 100.326 186.33 100.458 186.106C100.595 185.879 100.695 185.617 100.759 185.32C100.823 185.024 100.855 184.71 100.855 184.377ZM105.867 177.5V188H104.213V177.5H105.867ZM111.133 188.137C110.586 188.137 110.091 188.048 109.649 187.87C109.212 187.688 108.838 187.435 108.528 187.111C108.223 186.788 107.988 186.407 107.824 185.97C107.66 185.532 107.578 185.061 107.578 184.555V184.281C107.578 183.702 107.662 183.178 107.831 182.709C107.999 182.24 108.234 181.839 108.535 181.506C108.836 181.169 109.191 180.911 109.601 180.733C110.012 180.556 110.456 180.467 110.934 180.467C111.463 180.467 111.926 180.556 112.322 180.733C112.719 180.911 113.047 181.162 113.306 181.485C113.571 181.804 113.767 182.185 113.894 182.627C114.026 183.069 114.093 183.557 114.093 184.09V184.794H108.378V183.611H112.466V183.481C112.457 183.185 112.397 182.907 112.288 182.647C112.183 182.388 112.021 182.178 111.803 182.019C111.584 181.859 111.292 181.779 110.928 181.779C110.654 181.779 110.41 181.839 110.196 181.957C109.986 182.071 109.811 182.237 109.67 182.456C109.528 182.675 109.419 182.939 109.342 183.249C109.269 183.554 109.232 183.898 109.232 184.281V184.555C109.232 184.878 109.276 185.179 109.362 185.457C109.453 185.73 109.585 185.97 109.759 186.175C109.932 186.38 110.141 186.542 110.388 186.66C110.634 186.774 110.914 186.831 111.228 186.831C111.625 186.831 111.978 186.751 112.288 186.592C112.598 186.432 112.867 186.207 113.095 185.915L113.963 186.756C113.803 186.988 113.596 187.212 113.341 187.426C113.085 187.635 112.773 187.806 112.404 187.938C112.04 188.071 111.616 188.137 111.133 188.137ZM117.225 182.107V188H115.578V180.604H117.129L117.225 182.107ZM116.959 184.028L116.398 184.021C116.398 183.511 116.462 183.039 116.589 182.606C116.717 182.174 116.904 181.798 117.15 181.479C117.396 181.155 117.701 180.907 118.066 180.733C118.435 180.556 118.861 180.467 119.344 180.467C119.682 180.467 119.989 180.517 120.267 180.617C120.55 180.713 120.794 180.866 120.999 181.075C121.208 181.285 121.368 181.554 121.477 181.882C121.591 182.21 121.648 182.606 121.648 183.071V188H120.001V183.215C120.001 182.855 119.946 182.572 119.837 182.367C119.732 182.162 119.579 182.016 119.379 181.93C119.183 181.839 118.948 181.793 118.674 181.793C118.365 181.793 118.1 181.852 117.881 181.971C117.667 182.089 117.492 182.251 117.355 182.456C117.218 182.661 117.118 182.898 117.054 183.167C116.99 183.436 116.959 183.723 116.959 184.028ZM121.546 183.591L120.773 183.762C120.773 183.315 120.835 182.894 120.958 182.497C121.085 182.096 121.27 181.745 121.511 181.444C121.757 181.139 122.06 180.9 122.421 180.727C122.781 180.553 123.193 180.467 123.658 180.467C124.036 180.467 124.373 180.519 124.67 180.624C124.97 180.724 125.226 180.884 125.435 181.103C125.645 181.321 125.804 181.606 125.914 181.957C126.023 182.303 126.078 182.723 126.078 183.215V188H124.423V183.208C124.423 182.834 124.369 182.545 124.259 182.34C124.155 182.135 124.004 181.993 123.808 181.916C123.612 181.834 123.378 181.793 123.104 181.793C122.849 181.793 122.623 181.841 122.427 181.937C122.236 182.028 122.074 182.158 121.942 182.326C121.81 182.49 121.71 182.679 121.641 182.894C121.577 183.108 121.546 183.34 121.546 183.591ZM131.234 188.137C130.687 188.137 130.192 188.048 129.75 187.87C129.313 187.688 128.939 187.435 128.629 187.111C128.324 186.788 128.089 186.407 127.925 185.97C127.761 185.532 127.679 185.061 127.679 184.555V184.281C127.679 183.702 127.763 183.178 127.932 182.709C128.101 182.24 128.335 181.839 128.636 181.506C128.937 181.169 129.292 180.911 129.703 180.733C130.113 180.556 130.557 180.467 131.036 180.467C131.564 180.467 132.027 180.556 132.423 180.733C132.82 180.911 133.148 181.162 133.408 181.485C133.672 181.804 133.868 182.185 133.996 182.627C134.128 183.069 134.194 183.557 134.194 184.09V184.794H128.479V183.611H132.567V183.481C132.558 183.185 132.498 182.907 132.389 182.647C132.284 182.388 132.122 182.178 131.904 182.019C131.685 181.859 131.393 181.779 131.029 181.779C130.755 181.779 130.511 181.839 130.297 181.957C130.088 182.071 129.912 182.237 129.771 182.456C129.63 182.675 129.52 182.939 129.443 183.249C129.37 183.554 129.333 183.898 129.333 184.281V184.555C129.333 184.878 129.377 185.179 129.463 185.457C129.554 185.73 129.687 185.97 129.86 186.175C130.033 186.38 130.243 186.542 130.489 186.66C130.735 186.774 131.015 186.831 131.329 186.831C131.726 186.831 132.079 186.751 132.389 186.592C132.699 186.432 132.968 186.207 133.196 185.915L134.064 186.756C133.904 186.988 133.697 187.212 133.442 187.426C133.187 187.635 132.874 187.806 132.505 187.938C132.141 188.071 131.717 188.137 131.234 188.137ZM137.313 182.183V188H135.665V180.604H137.217L137.313 182.183ZM137.019 184.028L136.486 184.021C136.49 183.497 136.563 183.017 136.704 182.579C136.85 182.142 137.051 181.766 137.306 181.451C137.566 181.137 137.876 180.895 138.236 180.727C138.596 180.553 138.997 180.467 139.439 180.467C139.794 180.467 140.115 180.517 140.403 180.617C140.694 180.713 140.943 180.87 141.148 181.089C141.357 181.308 141.517 181.592 141.626 181.943C141.736 182.29 141.79 182.716 141.79 183.222V188H140.136V183.215C140.136 182.859 140.084 182.579 139.979 182.374C139.878 182.164 139.73 182.016 139.534 181.93C139.343 181.839 139.104 181.793 138.817 181.793C138.534 181.793 138.281 181.852 138.058 181.971C137.835 182.089 137.645 182.251 137.49 182.456C137.34 182.661 137.224 182.898 137.142 183.167C137.06 183.436 137.019 183.723 137.019 184.028ZM147.062 180.604V181.807H142.893V180.604H147.062ZM144.096 178.792H145.743V185.956C145.743 186.184 145.775 186.359 145.839 186.482C145.907 186.601 146.001 186.681 146.119 186.722C146.238 186.763 146.377 186.783 146.536 186.783C146.65 186.783 146.759 186.776 146.864 186.763C146.969 186.749 147.053 186.735 147.117 186.722L147.124 187.979C146.987 188.021 146.828 188.057 146.646 188.089C146.468 188.121 146.263 188.137 146.03 188.137C145.652 188.137 145.317 188.071 145.025 187.938C144.734 187.802 144.506 187.581 144.342 187.275C144.178 186.97 144.096 186.564 144.096 186.059V178.792ZM152.704 186.517V182.989C152.704 182.725 152.656 182.497 152.56 182.306C152.465 182.114 152.319 181.966 152.123 181.861C151.931 181.757 151.69 181.704 151.398 181.704C151.129 181.704 150.897 181.75 150.701 181.841C150.505 181.932 150.352 182.055 150.243 182.21C150.134 182.365 150.079 182.54 150.079 182.736H148.438C148.438 182.445 148.509 182.162 148.65 181.889C148.791 181.615 148.997 181.371 149.265 181.157C149.534 180.943 149.856 180.774 150.229 180.651C150.603 180.528 151.022 180.467 151.487 180.467C152.043 180.467 152.535 180.56 152.964 180.747C153.397 180.934 153.736 181.216 153.982 181.595C154.233 181.968 154.358 182.438 154.358 183.003V186.291C154.358 186.628 154.381 186.931 154.427 187.2C154.477 187.465 154.547 187.695 154.638 187.891V188H152.95C152.873 187.822 152.811 187.597 152.765 187.323C152.724 187.045 152.704 186.776 152.704 186.517ZM152.943 183.502L152.957 184.521H151.774C151.469 184.521 151.2 184.55 150.968 184.609C150.735 184.664 150.541 184.746 150.387 184.855C150.232 184.965 150.115 185.097 150.038 185.252C149.96 185.407 149.922 185.582 149.922 185.778C149.922 185.974 149.967 186.154 150.058 186.318C150.15 186.478 150.282 186.603 150.455 186.694C150.633 186.785 150.847 186.831 151.097 186.831C151.435 186.831 151.729 186.763 151.979 186.626C152.235 186.485 152.435 186.314 152.581 186.113C152.727 185.908 152.804 185.715 152.813 185.532L153.346 186.264C153.292 186.451 153.198 186.651 153.066 186.865C152.934 187.079 152.761 187.285 152.547 187.48C152.337 187.672 152.084 187.829 151.788 187.952C151.496 188.075 151.159 188.137 150.776 188.137C150.293 188.137 149.862 188.041 149.484 187.85C149.106 187.654 148.81 187.392 148.596 187.063C148.381 186.731 148.274 186.355 148.274 185.936C148.274 185.544 148.347 185.197 148.493 184.896C148.643 184.591 148.862 184.336 149.149 184.131C149.441 183.926 149.796 183.771 150.216 183.666C150.635 183.557 151.113 183.502 151.651 183.502H152.943ZM159.671 180.604V181.807H155.502V180.604H159.671ZM156.705 178.792H158.352V185.956C158.352 186.184 158.384 186.359 158.448 186.482C158.516 186.601 158.61 186.681 158.728 186.722C158.847 186.763 158.986 186.783 159.145 186.783C159.259 186.783 159.368 186.776 159.473 186.763C159.578 186.749 159.662 186.735 159.726 186.722L159.733 187.979C159.596 188.021 159.437 188.057 159.254 188.089C159.077 188.121 158.872 188.137 158.639 188.137C158.261 188.137 157.926 188.071 157.634 187.938C157.343 187.802 157.115 187.581 156.951 187.275C156.787 186.97 156.705 186.564 156.705 186.059V178.792ZM162.907 180.604V188H161.252V180.604H162.907ZM161.143 178.662C161.143 178.411 161.225 178.204 161.389 178.04C161.558 177.871 161.79 177.787 162.086 177.787C162.378 177.787 162.608 177.871 162.777 178.04C162.945 178.204 163.03 178.411 163.03 178.662C163.03 178.908 162.945 179.113 162.777 179.277C162.608 179.441 162.378 179.523 162.086 179.523C161.79 179.523 161.558 179.441 161.389 179.277C161.225 179.113 161.143 178.908 161.143 178.662ZM164.597 184.384V184.227C164.597 183.693 164.674 183.199 164.829 182.743C164.984 182.283 165.208 181.884 165.499 181.547C165.795 181.205 166.155 180.941 166.579 180.754C167.008 180.562 167.491 180.467 168.029 180.467C168.571 180.467 169.054 180.562 169.478 180.754C169.906 180.941 170.268 181.205 170.565 181.547C170.861 181.884 171.086 182.283 171.241 182.743C171.396 183.199 171.474 183.693 171.474 184.227V184.384C171.474 184.917 171.396 185.411 171.241 185.867C171.086 186.323 170.861 186.722 170.565 187.063C170.268 187.401 169.908 187.665 169.485 187.856C169.061 188.043 168.58 188.137 168.042 188.137C167.5 188.137 167.015 188.043 166.586 187.856C166.162 187.665 165.802 187.401 165.506 187.063C165.21 186.722 164.984 186.323 164.829 185.867C164.674 185.411 164.597 184.917 164.597 184.384ZM166.244 184.227V184.384C166.244 184.716 166.279 185.031 166.347 185.327C166.415 185.623 166.522 185.883 166.668 186.106C166.814 186.33 167.001 186.505 167.229 186.633C167.457 186.76 167.728 186.824 168.042 186.824C168.348 186.824 168.612 186.76 168.835 186.633C169.063 186.505 169.25 186.33 169.396 186.106C169.542 185.883 169.649 185.623 169.717 185.327C169.79 185.031 169.826 184.716 169.826 184.384V184.227C169.826 183.898 169.79 183.589 169.717 183.297C169.649 183.001 169.539 182.739 169.389 182.511C169.243 182.283 169.056 182.105 168.828 181.978C168.605 181.845 168.338 181.779 168.029 181.779C167.719 181.779 167.45 181.845 167.222 181.978C166.999 182.105 166.814 182.283 166.668 182.511C166.522 182.739 166.415 183.001 166.347 183.297C166.279 183.589 166.244 183.898 166.244 184.227ZM174.688 182.183V188H173.041V180.604H174.593L174.688 182.183ZM174.395 184.028L173.861 184.021C173.866 183.497 173.939 183.017 174.08 182.579C174.226 182.142 174.426 181.766 174.682 181.451C174.941 181.137 175.251 180.895 175.611 180.727C175.971 180.553 176.372 180.467 176.814 180.467C177.17 180.467 177.491 180.517 177.778 180.617C178.07 180.713 178.318 180.87 178.523 181.089C178.733 181.308 178.893 181.592 179.002 181.943C179.111 182.29 179.166 182.716 179.166 183.222V188H177.512V183.215C177.512 182.859 177.459 182.579 177.354 182.374C177.254 182.164 177.106 182.016 176.91 181.93C176.719 181.839 176.479 181.793 176.192 181.793C175.91 181.793 175.657 181.852 175.434 181.971C175.21 182.089 175.021 182.251 174.866 182.456C174.716 182.661 174.6 182.898 174.518 183.167C174.436 183.436 174.395 183.723 174.395 184.028Z" fill="white"/>
</g>
</g>
<defs>
<filter id="filter0_dd_491_351" x="75.7486" y="154.356" width="107.614" height="41.4873" filterUnits="userSpaceOnUse" color-interpolation-filters="sRGB">
<feFlood flood-opacity="0" result="BackgroundImageFix"/>
<feColorMatrix in="SourceAlpha" type="matrix" values="0 0 0 0 0 0 0 0 0 0 0 0 0 0 0 0 0 0 127 0" result="hardAlpha"/>
<feOffset dy="1"/>
<feGaussianBlur stdDeviation="1"/>
<feColorMatrix type="matrix" values="0 0 0 0 0 0 0 0 0 0 0 0 0 0 0 0 0 0 0.3 0"/>
<feBlend mode="normal" in2="BackgroundImageFix" result="effect1_dropShadow_491_351"/>
<feColorMatrix in="SourceAlpha" type="matrix" values="0 0 0 0 0 0 0 0 0 0 0 0 0 0 0 0 0 0 127 0" result="hardAlpha"/>
<feMorphology radius="1" operator="dilate" in="SourceAlpha" result="effect2_dropShadow_491_351"/>
<feOffset dy="1"/>
<feGaussianBlur stdDeviation="1.5"/>
<feColorMatrix type="matrix" values="0 0 0 0 0 0 0 0 0 0 0 0 0 0 0 0 0 0 0.15 0"/>
<feBlend mode="normal" in2="effect1_dropShadow_491_351" result="effect2_dropShadow_491_351"/>
<feBlend mode="normal" in="SourceGraphic" in2="effect2_dropShadow_491_351" result="shape"/>
</filter>
<radialGradient id="paint0_radial_491_351" cx="0" cy="0" r="1" gradientUnits="userSpaceOnUse" gradientTransform="translate(529.5 60.5) rotate(90) scale(469.5)">
<stop stop-color="#5E97F6"/>
<stop offset="1" stop-color="#5E97F6" stop-opacity="0"/>
</radialGradient>
<clipPath id="clip0_491_351">
<rect width="598" height="340" rx="24" fill="white"/>
</clipPath>
</defs>
</svg>
