<svg width="598" height="340" viewBox="0 0 598 340" fill="none" xmlns="http://www.w3.org/2000/svg">
<g clip-path="url(#clip0_671_30)">
<rect width="598" height="340" rx="24" fill="#202124"/>
<circle cx="529.5" cy="60.5" r="469.5" fill="url(#paint0_radial_671_30)" fill-opacity="0.2"/>
<g filter="url(#filter0_dd_671_30)">
<path d="M135.665 155.047H139.185C139.942 155.047 140.587 155.161 141.12 155.389C141.653 155.617 142.061 155.954 142.344 156.4C142.631 156.842 142.774 157.389 142.774 158.041C142.774 158.538 142.683 158.975 142.501 159.354C142.318 159.732 142.061 160.051 141.728 160.311C141.396 160.566 140.999 160.764 140.539 160.905L140.019 161.158H136.854L136.841 159.798H139.213C139.623 159.798 139.965 159.725 140.238 159.579C140.512 159.433 140.717 159.235 140.853 158.984C140.995 158.729 141.065 158.442 141.065 158.123C141.065 157.777 140.997 157.476 140.86 157.221C140.728 156.961 140.523 156.763 140.245 156.626C139.967 156.485 139.614 156.414 139.185 156.414H137.381V165H135.665V155.047ZM141.346 165L139.008 160.529L140.805 160.522L143.178 164.911V165H141.346ZM147.78 165.137C147.233 165.137 146.739 165.048 146.296 164.87C145.859 164.688 145.485 164.435 145.175 164.111C144.87 163.788 144.635 163.407 144.471 162.97C144.307 162.532 144.225 162.061 144.225 161.555V161.281C144.225 160.702 144.309 160.178 144.478 159.709C144.647 159.24 144.881 158.839 145.182 158.506C145.483 158.169 145.838 157.911 146.249 157.733C146.659 157.556 147.103 157.467 147.582 157.467C148.11 157.467 148.573 157.556 148.969 157.733C149.366 157.911 149.694 158.162 149.954 158.485C150.218 158.804 150.414 159.185 150.542 159.627C150.674 160.069 150.74 160.557 150.74 161.09V161.794H145.025V160.611H149.113V160.481C149.104 160.185 149.045 159.907 148.935 159.647C148.83 159.388 148.669 159.178 148.45 159.019C148.231 158.859 147.939 158.779 147.575 158.779C147.301 158.779 147.058 158.839 146.843 158.957C146.634 159.071 146.458 159.237 146.317 159.456C146.176 159.675 146.066 159.939 145.989 160.249C145.916 160.554 145.879 160.898 145.879 161.281V161.555C145.879 161.878 145.923 162.179 146.009 162.457C146.101 162.73 146.233 162.97 146.406 163.175C146.579 163.38 146.789 163.542 147.035 163.66C147.281 163.774 147.561 163.831 147.876 163.831C148.272 163.831 148.625 163.751 148.935 163.592C149.245 163.432 149.514 163.207 149.742 162.915L150.61 163.756C150.45 163.988 150.243 164.212 149.988 164.426C149.733 164.635 149.421 164.806 149.051 164.938C148.687 165.071 148.263 165.137 147.78 165.137ZM154.454 165H152.806V156.893C152.806 156.341 152.909 155.879 153.114 155.505C153.323 155.127 153.622 154.842 154.009 154.65C154.397 154.454 154.855 154.356 155.383 154.356C155.547 154.356 155.709 154.368 155.869 154.391C156.028 154.409 156.183 154.438 156.333 154.479L156.292 155.751C156.201 155.728 156.101 155.712 155.992 155.703C155.887 155.694 155.773 155.689 155.65 155.689C155.399 155.689 155.183 155.737 155 155.833C154.823 155.924 154.686 156.059 154.59 156.236C154.499 156.414 154.454 156.633 154.454 156.893V165ZM155.978 157.604V158.807H151.671V157.604H155.978ZM160.471 165.137C159.924 165.137 159.43 165.048 158.987 164.87C158.55 164.688 158.176 164.435 157.866 164.111C157.561 163.788 157.326 163.407 157.162 162.97C156.998 162.532 156.916 162.061 156.916 161.555V161.281C156.916 160.702 157.001 160.178 157.169 159.709C157.338 159.24 157.572 158.839 157.873 158.506C158.174 158.169 158.529 157.911 158.94 157.733C159.35 157.556 159.794 157.467 160.273 157.467C160.801 157.467 161.264 157.556 161.66 157.733C162.057 157.911 162.385 158.162 162.645 158.485C162.909 158.804 163.105 159.185 163.233 159.627C163.365 160.069 163.431 160.557 163.431 161.09V161.794H157.716V160.611H161.804V160.481C161.795 160.185 161.736 159.907 161.626 159.647C161.521 159.388 161.36 159.178 161.141 159.019C160.922 158.859 160.63 158.779 160.266 158.779C159.992 158.779 159.749 158.839 159.534 158.957C159.325 159.071 159.149 159.237 159.008 159.456C158.867 159.675 158.757 159.939 158.68 160.249C158.607 160.554 158.571 160.898 158.571 161.281V161.555C158.571 161.878 158.614 162.179 158.7 162.457C158.792 162.73 158.924 162.97 159.097 163.175C159.27 163.38 159.48 163.542 159.726 163.66C159.972 163.774 160.252 163.831 160.567 163.831C160.963 163.831 161.316 163.751 161.626 163.592C161.936 163.432 162.205 163.207 162.433 162.915L163.301 163.756C163.141 163.988 162.934 164.212 162.679 164.426C162.424 164.635 162.112 164.806 161.742 164.938C161.378 165.071 160.954 165.137 160.471 165.137ZM166.57 159.012V165H164.923V157.604H166.495L166.57 159.012ZM168.833 157.556L168.819 159.087C168.719 159.069 168.61 159.055 168.491 159.046C168.377 159.037 168.263 159.032 168.149 159.032C167.867 159.032 167.618 159.073 167.404 159.155C167.19 159.233 167.01 159.347 166.864 159.497C166.723 159.643 166.614 159.821 166.536 160.03C166.459 160.24 166.413 160.475 166.399 160.734L166.023 160.762C166.023 160.297 166.069 159.866 166.16 159.47C166.251 159.073 166.388 158.725 166.57 158.424C166.757 158.123 166.99 157.888 167.268 157.72C167.55 157.551 167.876 157.467 168.245 157.467C168.345 157.467 168.452 157.476 168.566 157.494C168.685 157.512 168.774 157.533 168.833 157.556ZM173.189 165.137C172.642 165.137 172.148 165.048 171.706 164.87C171.268 164.688 170.895 164.435 170.585 164.111C170.279 163.788 170.045 163.407 169.881 162.97C169.717 162.532 169.635 162.061 169.635 161.555V161.281C169.635 160.702 169.719 160.178 169.887 159.709C170.056 159.24 170.291 158.839 170.592 158.506C170.892 158.169 171.248 157.911 171.658 157.733C172.068 157.556 172.512 157.467 172.991 157.467C173.52 157.467 173.982 157.556 174.379 157.733C174.775 157.911 175.103 158.162 175.363 158.485C175.627 158.804 175.823 159.185 175.951 159.627C176.083 160.069 176.149 160.557 176.149 161.09V161.794H170.434V160.611H174.522V160.481C174.513 160.185 174.454 159.907 174.345 159.647C174.24 159.388 174.078 159.178 173.859 159.019C173.64 158.859 173.349 158.779 172.984 158.779C172.711 158.779 172.467 158.839 172.253 158.957C172.043 159.071 171.868 159.237 171.726 159.456C171.585 159.675 171.476 159.939 171.398 160.249C171.325 160.554 171.289 160.898 171.289 161.281V161.555C171.289 161.878 171.332 162.179 171.419 162.457C171.51 162.73 171.642 162.97 171.815 163.175C171.988 163.38 172.198 163.542 172.444 163.66C172.69 163.774 172.971 163.831 173.285 163.831C173.681 163.831 174.035 163.751 174.345 163.592C174.654 163.432 174.923 163.207 175.151 162.915L176.019 163.756C175.86 163.988 175.652 164.212 175.397 164.426C175.142 164.635 174.83 164.806 174.461 164.938C174.096 165.071 173.672 165.137 173.189 165.137ZM179.268 159.183V165H177.621V157.604H179.172L179.268 159.183ZM178.974 161.028L178.441 161.021C178.446 160.497 178.518 160.017 178.66 159.579C178.806 159.142 179.006 158.766 179.261 158.451C179.521 158.137 179.831 157.895 180.191 157.727C180.551 157.553 180.952 157.467 181.394 157.467C181.75 157.467 182.071 157.517 182.358 157.617C182.65 157.713 182.898 157.87 183.103 158.089C183.313 158.308 183.472 158.592 183.582 158.943C183.691 159.29 183.746 159.716 183.746 160.222V165H182.091V160.215C182.091 159.859 182.039 159.579 181.934 159.374C181.834 159.164 181.686 159.016 181.49 158.93C181.298 158.839 181.059 158.793 180.772 158.793C180.49 158.793 180.237 158.852 180.013 158.971C179.79 159.089 179.601 159.251 179.446 159.456C179.296 159.661 179.179 159.898 179.097 160.167C179.015 160.436 178.974 160.723 178.974 161.028ZM188.649 163.824C188.918 163.824 189.159 163.772 189.373 163.667C189.592 163.558 189.768 163.407 189.9 163.216C190.037 163.024 190.112 162.803 190.125 162.553H191.677C191.668 163.031 191.527 163.466 191.253 163.858C190.98 164.25 190.618 164.562 190.166 164.795C189.715 165.023 189.216 165.137 188.669 165.137C188.104 165.137 187.612 165.041 187.193 164.85C186.774 164.654 186.425 164.385 186.147 164.043C185.869 163.701 185.659 163.307 185.518 162.86C185.381 162.414 185.313 161.935 185.313 161.425V161.186C185.313 160.675 185.381 160.197 185.518 159.75C185.659 159.299 185.869 158.902 186.147 158.561C186.425 158.219 186.774 157.952 187.193 157.761C187.612 157.565 188.102 157.467 188.662 157.467C189.255 157.467 189.774 157.585 190.221 157.822C190.668 158.055 191.019 158.381 191.274 158.8C191.534 159.215 191.668 159.698 191.677 160.249H190.125C190.112 159.976 190.043 159.729 189.92 159.511C189.802 159.287 189.633 159.11 189.414 158.978C189.2 158.845 188.943 158.779 188.642 158.779C188.309 158.779 188.034 158.848 187.815 158.984C187.596 159.117 187.425 159.299 187.302 159.531C187.179 159.759 187.09 160.017 187.036 160.304C186.985 160.586 186.96 160.88 186.96 161.186V161.425C186.96 161.73 186.985 162.026 187.036 162.313C187.086 162.601 187.172 162.858 187.295 163.086C187.423 163.309 187.596 163.489 187.815 163.626C188.034 163.758 188.312 163.824 188.649 163.824ZM196.403 165.137C195.856 165.137 195.361 165.048 194.919 164.87C194.482 164.688 194.108 164.435 193.798 164.111C193.493 163.788 193.258 163.407 193.094 162.97C192.93 162.532 192.848 162.061 192.848 161.555V161.281C192.848 160.702 192.932 160.178 193.101 159.709C193.269 159.24 193.504 158.839 193.805 158.506C194.106 158.169 194.461 157.911 194.871 157.733C195.281 157.556 195.726 157.467 196.204 157.467C196.733 157.467 197.196 157.556 197.592 157.733C197.988 157.911 198.317 158.162 198.576 158.485C198.841 158.804 199.037 159.185 199.164 159.627C199.296 160.069 199.362 160.557 199.362 161.09V161.794H193.648V160.611H197.736V160.481C197.726 160.185 197.667 159.907 197.558 159.647C197.453 159.388 197.291 159.178 197.072 159.019C196.854 158.859 196.562 158.779 196.197 158.779C195.924 158.779 195.68 158.839 195.466 158.957C195.256 159.071 195.081 159.237 194.94 159.456C194.798 159.675 194.689 159.939 194.612 160.249C194.539 160.554 194.502 160.898 194.502 161.281V161.555C194.502 161.878 194.545 162.179 194.632 162.457C194.723 162.73 194.855 162.97 195.029 163.175C195.202 163.38 195.411 163.542 195.657 163.66C195.904 163.774 196.184 163.831 196.498 163.831C196.895 163.831 197.248 163.751 197.558 163.592C197.868 163.432 198.137 163.207 198.364 162.915L199.233 163.756C199.073 163.988 198.866 164.212 198.611 164.426C198.355 164.635 198.043 164.806 197.674 164.938C197.309 165.071 196.886 165.137 196.403 165.137ZM101.464 175.047V185H99.7486V175.047H101.464ZM105.281 179.107V185H103.633V177.604H105.185L105.281 179.107ZM105.014 181.028L104.454 181.021C104.454 180.511 104.517 180.039 104.645 179.606C104.773 179.174 104.959 178.798 105.205 178.479C105.452 178.155 105.757 177.907 106.121 177.733C106.491 177.556 106.917 177.467 107.4 177.467C107.737 177.467 108.045 177.517 108.323 177.617C108.605 177.713 108.849 177.866 109.054 178.075C109.264 178.285 109.423 178.554 109.533 178.882C109.647 179.21 109.704 179.606 109.704 180.071V185H108.056V180.215C108.056 179.855 108.001 179.572 107.892 179.367C107.787 179.162 107.635 179.016 107.434 178.93C107.238 178.839 107.003 178.793 106.73 178.793C106.42 178.793 106.156 178.852 105.937 178.971C105.723 179.089 105.547 179.251 105.411 179.456C105.274 179.661 105.174 179.898 105.11 180.167C105.046 180.436 105.014 180.723 105.014 181.028ZM109.601 180.591L108.829 180.762C108.829 180.315 108.89 179.894 109.013 179.497C109.141 179.096 109.325 178.745 109.567 178.444C109.813 178.139 110.116 177.9 110.476 177.727C110.836 177.553 111.248 177.467 111.713 177.467C112.092 177.467 112.429 177.519 112.725 177.624C113.026 177.724 113.281 177.884 113.491 178.103C113.7 178.321 113.86 178.606 113.969 178.957C114.079 179.303 114.133 179.723 114.133 180.215V185H112.479V180.208C112.479 179.834 112.424 179.545 112.315 179.34C112.21 179.135 112.06 178.993 111.864 178.916C111.668 178.834 111.433 178.793 111.16 178.793C110.904 178.793 110.679 178.841 110.483 178.937C110.291 179.028 110.13 179.158 109.997 179.326C109.865 179.49 109.765 179.679 109.697 179.894C109.633 180.108 109.601 180.34 109.601 180.591ZM117.683 179.025V187.844H116.035V177.604H117.553L117.683 179.025ZM122.502 181.233V181.377C122.502 181.915 122.438 182.414 122.311 182.874C122.188 183.33 122.003 183.729 121.757 184.07C121.515 184.408 121.217 184.67 120.862 184.856C120.506 185.043 120.096 185.137 119.631 185.137C119.171 185.137 118.767 185.052 118.421 184.884C118.079 184.711 117.79 184.467 117.553 184.152C117.316 183.838 117.125 183.469 116.979 183.045C116.837 182.617 116.737 182.147 116.678 181.637V181.083C116.737 180.541 116.837 180.049 116.979 179.606C117.125 179.164 117.316 178.784 117.553 178.465C117.79 178.146 118.079 177.9 118.421 177.727C118.763 177.553 119.162 177.467 119.617 177.467C120.082 177.467 120.495 177.558 120.855 177.74C121.215 177.918 121.518 178.173 121.764 178.506C122.01 178.834 122.195 179.23 122.318 179.695C122.441 180.156 122.502 180.668 122.502 181.233ZM120.855 181.377V181.233C120.855 180.892 120.823 180.575 120.759 180.283C120.695 179.987 120.595 179.727 120.458 179.504C120.321 179.281 120.146 179.107 119.932 178.984C119.722 178.857 119.469 178.793 119.173 178.793C118.881 178.793 118.631 178.843 118.421 178.943C118.211 179.039 118.036 179.174 117.895 179.347C117.753 179.52 117.644 179.723 117.567 179.955C117.489 180.183 117.434 180.431 117.403 180.7V182.026C117.457 182.354 117.551 182.655 117.683 182.929C117.815 183.202 118.002 183.421 118.243 183.585C118.489 183.744 118.804 183.824 119.187 183.824C119.483 183.824 119.736 183.76 119.946 183.633C120.155 183.505 120.326 183.33 120.458 183.106C120.595 182.879 120.695 182.617 120.759 182.32C120.823 182.024 120.855 181.71 120.855 181.377ZM125.867 174.5V185H124.213V174.5H125.867ZM131.133 185.137C130.586 185.137 130.091 185.048 129.649 184.87C129.212 184.688 128.838 184.435 128.528 184.111C128.223 183.788 127.988 183.407 127.824 182.97C127.66 182.532 127.578 182.061 127.578 181.555V181.281C127.578 180.702 127.662 180.178 127.831 179.709C127.999 179.24 128.234 178.839 128.535 178.506C128.836 178.169 129.191 177.911 129.601 177.733C130.012 177.556 130.456 177.467 130.934 177.467C131.463 177.467 131.926 177.556 132.322 177.733C132.719 177.911 133.047 178.162 133.306 178.485C133.571 178.804 133.767 179.185 133.894 179.627C134.026 180.069 134.093 180.557 134.093 181.09V181.794H128.378V180.611H132.466V180.481C132.457 180.185 132.397 179.907 132.288 179.647C132.183 179.388 132.021 179.178 131.803 179.019C131.584 178.859 131.292 178.779 130.928 178.779C130.654 178.779 130.41 178.839 130.196 178.957C129.986 179.071 129.811 179.237 129.67 179.456C129.528 179.675 129.419 179.939 129.342 180.249C129.269 180.554 129.232 180.898 129.232 181.281V181.555C129.232 181.878 129.276 182.179 129.362 182.457C129.453 182.73 129.585 182.97 129.759 183.175C129.932 183.38 130.141 183.542 130.388 183.66C130.634 183.774 130.914 183.831 131.228 183.831C131.625 183.831 131.978 183.751 132.288 183.592C132.598 183.432 132.867 183.207 133.095 182.915L133.963 183.756C133.803 183.988 133.596 184.212 133.341 184.426C133.085 184.635 132.773 184.806 132.404 184.938C132.04 185.071 131.616 185.137 131.133 185.137ZM137.225 179.107V185H135.578V177.604H137.129L137.225 179.107ZM136.959 181.028L136.398 181.021C136.398 180.511 136.462 180.039 136.589 179.606C136.717 179.174 136.904 178.798 137.15 178.479C137.396 178.155 137.701 177.907 138.066 177.733C138.435 177.556 138.861 177.467 139.344 177.467C139.682 177.467 139.989 177.517 140.267 177.617C140.55 177.713 140.794 177.866 140.999 178.075C141.208 178.285 141.368 178.554 141.477 178.882C141.591 179.21 141.648 179.606 141.648 180.071V185H140.001V180.215C140.001 179.855 139.946 179.572 139.837 179.367C139.732 179.162 139.579 179.016 139.379 178.93C139.183 178.839 138.948 178.793 138.674 178.793C138.365 178.793 138.1 178.852 137.881 178.971C137.667 179.089 137.492 179.251 137.355 179.456C137.218 179.661 137.118 179.898 137.054 180.167C136.99 180.436 136.959 180.723 136.959 181.028ZM141.546 180.591L140.773 180.762C140.773 180.315 140.835 179.894 140.958 179.497C141.085 179.096 141.27 178.745 141.511 178.444C141.757 178.139 142.06 177.9 142.421 177.727C142.781 177.553 143.193 177.467 143.658 177.467C144.036 177.467 144.373 177.519 144.67 177.624C144.97 177.724 145.226 177.884 145.435 178.103C145.645 178.321 145.804 178.606 145.914 178.957C146.023 179.303 146.078 179.723 146.078 180.215V185H144.423V180.208C144.423 179.834 144.369 179.545 144.259 179.34C144.155 179.135 144.004 178.993 143.808 178.916C143.612 178.834 143.378 178.793 143.104 178.793C142.849 178.793 142.623 178.841 142.427 178.937C142.236 179.028 142.074 179.158 141.942 179.326C141.81 179.49 141.71 179.679 141.641 179.894C141.577 180.108 141.546 180.34 141.546 180.591ZM151.234 185.137C150.687 185.137 150.192 185.048 149.75 184.87C149.313 184.688 148.939 184.435 148.629 184.111C148.324 183.788 148.089 183.407 147.925 182.97C147.761 182.532 147.679 182.061 147.679 181.555V181.281C147.679 180.702 147.763 180.178 147.932 179.709C148.101 179.24 148.335 178.839 148.636 178.506C148.937 178.169 149.292 177.911 149.703 177.733C150.113 177.556 150.557 177.467 151.036 177.467C151.564 177.467 152.027 177.556 152.423 177.733C152.82 177.911 153.148 178.162 153.408 178.485C153.672 178.804 153.868 179.185 153.996 179.627C154.128 180.069 154.194 180.557 154.194 181.09V181.794H148.479V180.611H152.567V180.481C152.558 180.185 152.498 179.907 152.389 179.647C152.284 179.388 152.122 179.178 151.904 179.019C151.685 178.859 151.393 178.779 151.029 178.779C150.755 178.779 150.511 178.839 150.297 178.957C150.088 179.071 149.912 179.237 149.771 179.456C149.63 179.675 149.52 179.939 149.443 180.249C149.37 180.554 149.333 180.898 149.333 181.281V181.555C149.333 181.878 149.377 182.179 149.463 182.457C149.554 182.73 149.687 182.97 149.86 183.175C150.033 183.38 150.243 183.542 150.489 183.66C150.735 183.774 151.015 183.831 151.329 183.831C151.726 183.831 152.079 183.751 152.389 183.592C152.699 183.432 152.968 183.207 153.196 182.915L154.064 183.756C153.904 183.988 153.697 184.212 153.442 184.426C153.187 184.635 152.874 184.806 152.505 184.938C152.141 185.071 151.717 185.137 151.234 185.137ZM157.313 179.183V185H155.665V177.604H157.217L157.313 179.183ZM157.019 181.028L156.486 181.021C156.49 180.497 156.563 180.017 156.704 179.579C156.85 179.142 157.051 178.766 157.306 178.451C157.566 178.137 157.876 177.895 158.236 177.727C158.596 177.553 158.997 177.467 159.439 177.467C159.794 177.467 160.115 177.517 160.403 177.617C160.694 177.713 160.943 177.87 161.148 178.089C161.357 178.308 161.517 178.592 161.626 178.943C161.736 179.29 161.79 179.716 161.79 180.222V185H160.136V180.215C160.136 179.859 160.084 179.579 159.979 179.374C159.878 179.164 159.73 179.016 159.534 178.93C159.343 178.839 159.104 178.793 158.817 178.793C158.534 178.793 158.281 178.852 158.058 178.971C157.835 179.089 157.645 179.251 157.49 179.456C157.34 179.661 157.224 179.898 157.142 180.167C157.06 180.436 157.019 180.723 157.019 181.028ZM167.062 177.604V178.807H162.893V177.604H167.062ZM164.096 175.792H165.743V182.956C165.743 183.184 165.775 183.359 165.839 183.482C165.907 183.601 166.001 183.681 166.119 183.722C166.238 183.763 166.377 183.783 166.536 183.783C166.65 183.783 166.759 183.776 166.864 183.763C166.969 183.749 167.053 183.735 167.117 183.722L167.124 184.979C166.987 185.021 166.828 185.057 166.646 185.089C166.468 185.121 166.263 185.137 166.03 185.137C165.652 185.137 165.317 185.071 165.025 184.938C164.734 184.802 164.506 184.581 164.342 184.275C164.178 183.97 164.096 183.564 164.096 183.059V175.792ZM172.704 183.517V179.989C172.704 179.725 172.656 179.497 172.56 179.306C172.465 179.114 172.319 178.966 172.123 178.861C171.931 178.757 171.69 178.704 171.398 178.704C171.129 178.704 170.897 178.75 170.701 178.841C170.505 178.932 170.352 179.055 170.243 179.21C170.134 179.365 170.079 179.54 170.079 179.736H168.438C168.438 179.445 168.509 179.162 168.65 178.889C168.791 178.615 168.997 178.371 169.265 178.157C169.534 177.943 169.856 177.774 170.229 177.651C170.603 177.528 171.022 177.467 171.487 177.467C172.043 177.467 172.535 177.56 172.964 177.747C173.397 177.934 173.736 178.216 173.982 178.595C174.233 178.968 174.358 179.438 174.358 180.003V183.291C174.358 183.628 174.381 183.931 174.427 184.2C174.477 184.465 174.547 184.695 174.638 184.891V185H172.95C172.873 184.822 172.811 184.597 172.765 184.323C172.724 184.045 172.704 183.776 172.704 183.517ZM172.943 180.502L172.957 181.521H171.774C171.469 181.521 171.2 181.55 170.968 181.609C170.735 181.664 170.541 181.746 170.387 181.855C170.232 181.965 170.115 182.097 170.038 182.252C169.96 182.407 169.922 182.582 169.922 182.778C169.922 182.974 169.967 183.154 170.058 183.318C170.15 183.478 170.282 183.603 170.455 183.694C170.633 183.785 170.847 183.831 171.097 183.831C171.435 183.831 171.729 183.763 171.979 183.626C172.235 183.485 172.435 183.314 172.581 183.113C172.727 182.908 172.804 182.715 172.813 182.532L173.346 183.264C173.292 183.451 173.198 183.651 173.066 183.865C172.934 184.079 172.761 184.285 172.547 184.48C172.337 184.672 172.084 184.829 171.788 184.952C171.496 185.075 171.159 185.137 170.776 185.137C170.293 185.137 169.862 185.041 169.484 184.85C169.106 184.654 168.81 184.392 168.596 184.063C168.381 183.731 168.274 183.355 168.274 182.936C168.274 182.544 168.347 182.197 168.493 181.896C168.643 181.591 168.862 181.336 169.149 181.131C169.441 180.926 169.796 180.771 170.216 180.666C170.635 180.557 171.113 180.502 171.651 180.502H172.943ZM179.671 177.604V178.807H175.502V177.604H179.671ZM176.705 175.792H178.352V182.956C178.352 183.184 178.384 183.359 178.448 183.482C178.516 183.601 178.61 183.681 178.728 183.722C178.847 183.763 178.986 183.783 179.145 183.783C179.259 183.783 179.368 183.776 179.473 183.763C179.578 183.749 179.662 183.735 179.726 183.722L179.733 184.979C179.596 185.021 179.437 185.057 179.254 185.089C179.077 185.121 178.872 185.137 178.639 185.137C178.261 185.137 177.926 185.071 177.634 184.938C177.343 184.802 177.115 184.581 176.951 184.275C176.787 183.97 176.705 183.564 176.705 183.059V175.792ZM182.907 177.604V185H181.252V177.604H182.907ZM181.143 175.662C181.143 175.411 181.225 175.204 181.389 175.04C181.558 174.871 181.79 174.787 182.086 174.787C182.378 174.787 182.608 174.871 182.777 175.04C182.945 175.204 183.03 175.411 183.03 175.662C183.03 175.908 182.945 176.113 182.777 176.277C182.608 176.441 182.378 176.523 182.086 176.523C181.79 176.523 181.558 176.441 181.389 176.277C181.225 176.113 181.143 175.908 181.143 175.662ZM184.597 181.384V181.227C184.597 180.693 184.674 180.199 184.829 179.743C184.984 179.283 185.208 178.884 185.499 178.547C185.795 178.205 186.155 177.941 186.579 177.754C187.008 177.562 187.491 177.467 188.029 177.467C188.571 177.467 189.054 177.562 189.478 177.754C189.906 177.941 190.268 178.205 190.565 178.547C190.861 178.884 191.086 179.283 191.241 179.743C191.396 180.199 191.474 180.693 191.474 181.227V181.384C191.474 181.917 191.396 182.411 191.241 182.867C191.086 183.323 190.861 183.722 190.565 184.063C190.268 184.401 189.908 184.665 189.485 184.856C189.061 185.043 188.58 185.137 188.042 185.137C187.5 185.137 187.015 185.043 186.586 184.856C186.162 184.665 185.802 184.401 185.506 184.063C185.21 183.722 184.984 183.323 184.829 182.867C184.674 182.411 184.597 181.917 184.597 181.384ZM186.244 181.227V181.384C186.244 181.716 186.279 182.031 186.347 182.327C186.415 182.623 186.522 182.883 186.668 183.106C186.814 183.33 187.001 183.505 187.229 183.633C187.457 183.76 187.728 183.824 188.042 183.824C188.348 183.824 188.612 183.76 188.835 183.633C189.063 183.505 189.25 183.33 189.396 183.106C189.542 182.883 189.649 182.623 189.717 182.327C189.79 182.031 189.826 181.716 189.826 181.384V181.227C189.826 180.898 189.79 180.589 189.717 180.297C189.649 180.001 189.539 179.739 189.389 179.511C189.243 179.283 189.056 179.105 188.828 178.978C188.605 178.845 188.338 178.779 188.029 178.779C187.719 178.779 187.45 178.845 187.222 178.978C186.999 179.105 186.814 179.283 186.668 179.511C186.522 179.739 186.415 180.001 186.347 180.297C186.279 180.589 186.244 180.898 186.244 181.227ZM194.688 179.183V185H193.041V177.604H194.593L194.688 179.183ZM194.395 181.028L193.861 181.021C193.866 180.497 193.939 180.017 194.08 179.579C194.226 179.142 194.426 178.766 194.682 178.451C194.941 178.137 195.251 177.895 195.611 177.727C195.971 177.553 196.372 177.467 196.814 177.467C197.17 177.467 197.491 177.517 197.778 177.617C198.07 177.713 198.318 177.87 198.523 178.089C198.733 178.308 198.893 178.592 199.002 178.943C199.111 179.29 199.166 179.716 199.166 180.222V185H197.512V180.215C197.512 179.859 197.459 179.579 197.354 179.374C197.254 179.164 197.106 179.016 196.91 178.93C196.719 178.839 196.479 178.793 196.192 178.793C195.91 178.793 195.657 178.852 195.434 178.971C195.21 179.089 195.021 179.251 194.866 179.456C194.716 179.661 194.6 179.898 194.518 180.167C194.436 180.436 194.395 180.723 194.395 181.028Z" fill="white"/>
</g>
<rect x="387" y="141" width="144" height="58" rx="3" stroke="#AF5CF7" stroke-width="2"/>
<path d="M413.41 155.047H414.941L417.819 162.724L420.69 155.047H422.221L418.421 165H417.204L413.41 155.047ZM412.713 155.047H414.169L414.422 161.691V165H412.713V155.047ZM421.463 155.047H422.926V165H421.21V161.691L421.463 155.047ZM429.169 163.517V159.989C429.169 159.725 429.121 159.497 429.025 159.306C428.929 159.114 428.783 158.966 428.588 158.861C428.396 158.757 428.155 158.704 427.863 158.704C427.594 158.704 427.362 158.75 427.166 158.841C426.97 158.932 426.817 159.055 426.708 159.21C426.598 159.365 426.544 159.54 426.544 159.736H424.903C424.903 159.445 424.974 159.162 425.115 158.889C425.256 158.615 425.461 158.371 425.73 158.157C425.999 157.943 426.32 157.774 426.694 157.651C427.068 157.528 427.487 157.467 427.952 157.467C428.508 157.467 429 157.56 429.428 157.747C429.861 157.934 430.201 158.216 430.447 158.595C430.698 158.968 430.823 159.438 430.823 160.003V163.291C430.823 163.628 430.846 163.931 430.891 164.2C430.941 164.465 431.012 164.695 431.103 164.891V165H429.415C429.337 164.822 429.276 164.597 429.23 164.323C429.189 164.045 429.169 163.776 429.169 163.517ZM429.408 160.502L429.421 161.521H428.239C427.934 161.521 427.665 161.55 427.432 161.609C427.2 161.664 427.006 161.746 426.851 161.855C426.696 161.965 426.58 162.097 426.503 162.252C426.425 162.407 426.386 162.582 426.386 162.778C426.386 162.974 426.432 163.154 426.523 163.318C426.614 163.478 426.746 163.603 426.92 163.694C427.097 163.785 427.311 163.831 427.562 163.831C427.899 163.831 428.193 163.763 428.444 163.626C428.699 163.485 428.9 163.314 429.046 163.113C429.191 162.908 429.269 162.715 429.278 162.532L429.811 163.264C429.756 163.451 429.663 163.651 429.531 163.865C429.399 164.079 429.226 164.285 429.011 164.48C428.802 164.672 428.549 164.829 428.253 164.952C427.961 165.075 427.624 165.137 427.241 165.137C426.758 165.137 426.327 165.041 425.949 164.85C425.571 164.654 425.274 164.392 425.06 164.063C424.846 163.731 424.739 163.355 424.739 162.936C424.739 162.544 424.812 162.197 424.958 161.896C425.108 161.591 425.327 161.336 425.614 161.131C425.906 160.926 426.261 160.771 426.68 160.666C427.1 160.557 427.578 160.502 428.116 160.502H429.408ZM434.003 157.604L435.412 160.058L436.847 157.604H438.659L436.416 161.233L438.747 165H436.936L435.432 162.443L433.928 165H432.11L434.434 161.233L432.199 157.604H434.003ZM443.042 165H440.916L440.93 163.64H443.042C443.657 163.64 444.172 163.505 444.587 163.236C445.006 162.967 445.321 162.582 445.53 162.081C445.745 161.58 445.852 160.983 445.852 160.29V159.75C445.852 159.212 445.79 158.736 445.667 158.321C445.549 157.907 445.371 157.558 445.134 157.275C444.902 156.993 444.614 156.779 444.273 156.633C443.935 156.487 443.546 156.414 443.104 156.414H440.875V155.047H443.104C443.765 155.047 444.368 155.159 444.915 155.382C445.462 155.601 445.934 155.917 446.33 156.332C446.731 156.747 447.039 157.243 447.253 157.822C447.467 158.401 447.574 159.048 447.574 159.764V160.29C447.574 161.006 447.467 161.653 447.253 162.231C447.039 162.81 446.731 163.307 446.33 163.722C445.929 164.132 445.451 164.449 444.895 164.672C444.343 164.891 443.726 165 443.042 165ZM441.866 155.047V165H440.151V155.047H441.866ZM451.097 157.604V165H449.442V157.604H451.097ZM449.333 155.662C449.333 155.411 449.415 155.204 449.579 155.04C449.748 154.871 449.98 154.787 450.276 154.787C450.568 154.787 450.798 154.871 450.967 155.04C451.135 155.204 451.22 155.411 451.22 155.662C451.22 155.908 451.135 156.113 450.967 156.277C450.798 156.441 450.568 156.523 450.276 156.523C449.98 156.523 449.748 156.441 449.579 156.277C449.415 156.113 449.333 155.908 449.333 155.662ZM455.33 165H453.682V156.893C453.682 156.341 453.785 155.879 453.99 155.505C454.2 155.127 454.498 154.842 454.886 154.65C455.273 154.454 455.731 154.356 456.26 154.356C456.424 154.356 456.585 154.368 456.745 154.391C456.904 154.409 457.059 154.438 457.21 154.479L457.169 155.751C457.078 155.728 456.977 155.712 456.868 155.703C456.763 155.694 456.649 155.689 456.526 155.689C456.276 155.689 456.059 155.737 455.877 155.833C455.699 155.924 455.562 156.059 455.467 156.236C455.375 156.414 455.33 156.633 455.33 156.893V165ZM456.854 157.604V158.807H452.548V157.604H456.854ZM460.479 165H458.832V156.893C458.832 156.341 458.934 155.879 459.139 155.505C459.349 155.127 459.647 154.842 460.035 154.65C460.422 154.454 460.88 154.356 461.409 154.356C461.573 154.356 461.735 154.368 461.894 154.391C462.054 154.409 462.209 154.438 462.359 154.479L462.318 155.751C462.227 155.728 462.127 155.712 462.017 155.703C461.912 155.694 461.798 155.689 461.675 155.689C461.425 155.689 461.208 155.737 461.026 155.833C460.848 155.924 460.712 156.059 460.616 156.236C460.525 156.414 460.479 156.633 460.479 156.893V165ZM462.004 157.604V158.807H457.697V157.604H462.004ZM467.85 163.257V157.604H469.504V165H467.946L467.85 163.257ZM468.082 161.719L468.636 161.705C468.636 162.202 468.581 162.66 468.472 163.079C468.363 163.494 468.194 163.856 467.966 164.166C467.738 164.471 467.447 164.711 467.091 164.884C466.736 165.052 466.31 165.137 465.813 165.137C465.453 165.137 465.122 165.084 464.822 164.979C464.521 164.875 464.261 164.713 464.042 164.494C463.828 164.275 463.662 163.991 463.543 163.64C463.425 163.289 463.366 162.869 463.366 162.382V157.604H465.013V162.396C465.013 162.664 465.045 162.89 465.109 163.072C465.173 163.25 465.259 163.394 465.369 163.503C465.478 163.612 465.606 163.69 465.751 163.735C465.897 163.781 466.052 163.804 466.216 163.804C466.686 163.804 467.055 163.713 467.324 163.53C467.597 163.343 467.791 163.093 467.905 162.778C468.023 162.464 468.082 162.111 468.082 161.719ZM475.542 162.997C475.542 162.833 475.501 162.685 475.419 162.553C475.337 162.416 475.18 162.293 474.947 162.184C474.72 162.074 474.382 161.974 473.936 161.883C473.544 161.796 473.184 161.694 472.856 161.575C472.532 161.452 472.254 161.304 472.022 161.131C471.789 160.958 471.609 160.753 471.482 160.516C471.354 160.279 471.29 160.005 471.29 159.695C471.29 159.395 471.356 159.11 471.488 158.841C471.621 158.572 471.81 158.335 472.056 158.13C472.302 157.925 472.6 157.763 472.951 157.645C473.307 157.526 473.703 157.467 474.141 157.467C474.761 157.467 475.292 157.572 475.734 157.781C476.18 157.986 476.522 158.267 476.759 158.622C476.996 158.973 477.114 159.369 477.114 159.812H475.467C475.467 159.616 475.417 159.433 475.317 159.265C475.221 159.091 475.075 158.952 474.879 158.848C474.683 158.738 474.437 158.684 474.141 158.684C473.858 158.684 473.624 158.729 473.437 158.82C473.254 158.907 473.118 159.021 473.027 159.162C472.94 159.303 472.897 159.458 472.897 159.627C472.897 159.75 472.919 159.862 472.965 159.962C473.015 160.058 473.097 160.146 473.211 160.229C473.325 160.306 473.48 160.379 473.676 160.447C473.877 160.516 474.127 160.582 474.428 160.646C474.993 160.764 475.478 160.917 475.884 161.104C476.294 161.286 476.609 161.523 476.827 161.814C477.046 162.102 477.155 162.466 477.155 162.908C477.155 163.236 477.085 163.537 476.944 163.811C476.807 164.079 476.606 164.314 476.342 164.515C476.078 164.711 475.761 164.863 475.392 164.973C475.027 165.082 474.617 165.137 474.161 165.137C473.491 165.137 472.924 165.018 472.459 164.781C471.994 164.54 471.641 164.232 471.4 163.858C471.163 163.48 471.044 163.088 471.044 162.683H472.637C472.655 162.988 472.739 163.232 472.89 163.414C473.045 163.592 473.236 163.722 473.464 163.804C473.696 163.881 473.936 163.92 474.182 163.92C474.478 163.92 474.726 163.881 474.927 163.804C475.127 163.722 475.28 163.612 475.385 163.476C475.49 163.334 475.542 163.175 475.542 162.997ZM480.562 157.604V165H478.907V157.604H480.562ZM478.798 155.662C478.798 155.411 478.88 155.204 479.044 155.04C479.213 154.871 479.445 154.787 479.741 154.787C480.033 154.787 480.263 154.871 480.432 155.04C480.6 155.204 480.685 155.411 480.685 155.662C480.685 155.908 480.6 156.113 480.432 156.277C480.263 156.441 480.033 156.523 479.741 156.523C479.445 156.523 479.213 156.441 479.044 156.277C478.88 156.113 478.798 155.908 478.798 155.662ZM482.252 161.384V161.227C482.252 160.693 482.329 160.199 482.484 159.743C482.639 159.283 482.862 158.884 483.154 158.547C483.45 158.205 483.81 157.941 484.234 157.754C484.663 157.562 485.146 157.467 485.683 157.467C486.226 157.467 486.709 157.562 487.133 157.754C487.561 157.941 487.923 158.205 488.22 158.547C488.516 158.884 488.741 159.283 488.896 159.743C489.051 160.199 489.129 160.693 489.129 161.227V161.384C489.129 161.917 489.051 162.411 488.896 162.867C488.741 163.323 488.516 163.722 488.22 164.063C487.923 164.401 487.563 164.665 487.139 164.856C486.716 165.043 486.235 165.137 485.697 165.137C485.155 165.137 484.669 165.043 484.241 164.856C483.817 164.665 483.457 164.401 483.161 164.063C482.865 163.722 482.639 163.323 482.484 162.867C482.329 162.411 482.252 161.917 482.252 161.384ZM483.899 161.227V161.384C483.899 161.716 483.933 162.031 484.002 162.327C484.07 162.623 484.177 162.883 484.323 163.106C484.469 163.33 484.656 163.505 484.884 163.633C485.111 163.76 485.383 163.824 485.697 163.824C486.002 163.824 486.267 163.76 486.49 163.633C486.718 163.505 486.905 163.33 487.051 163.106C487.196 162.883 487.304 162.623 487.372 162.327C487.445 162.031 487.481 161.716 487.481 161.384V161.227C487.481 160.898 487.445 160.589 487.372 160.297C487.304 160.001 487.194 159.739 487.044 159.511C486.898 159.283 486.711 159.105 486.483 158.978C486.26 158.845 485.993 158.779 485.683 158.779C485.373 158.779 485.105 158.845 484.877 158.978C484.653 159.105 484.469 159.283 484.323 159.511C484.177 159.739 484.07 160.001 484.002 160.297C483.933 160.589 483.899 160.898 483.899 161.227ZM492.343 159.183V165H490.696V157.604H492.248L492.343 159.183ZM492.049 161.028L491.516 161.021C491.521 160.497 491.594 160.017 491.735 159.579C491.881 159.142 492.081 158.766 492.337 158.451C492.596 158.137 492.906 157.895 493.266 157.727C493.626 157.553 494.027 157.467 494.469 157.467C494.825 157.467 495.146 157.517 495.433 157.617C495.725 157.713 495.973 157.87 496.178 158.089C496.388 158.308 496.547 158.592 496.657 158.943C496.766 159.29 496.821 159.716 496.821 160.222V165H495.167V160.215C495.167 159.859 495.114 159.579 495.009 159.374C494.909 159.164 494.761 159.016 494.565 158.93C494.374 158.839 494.134 158.793 493.847 158.793C493.565 158.793 493.312 158.852 493.088 158.971C492.865 159.089 492.676 159.251 492.521 159.456C492.371 159.661 492.254 159.898 492.172 160.167C492.09 160.436 492.049 160.723 492.049 161.028ZM502.018 160.092V161.404H498.402V160.092H502.018ZM431.41 182.437C431.41 182.231 431.378 182.049 431.314 181.89C431.255 181.73 431.148 181.584 430.993 181.452C430.838 181.32 430.619 181.192 430.337 181.069C430.059 180.942 429.703 180.812 429.27 180.68C428.796 180.534 428.359 180.372 427.958 180.194C427.561 180.012 427.215 179.802 426.919 179.565C426.623 179.324 426.392 179.048 426.228 178.738C426.064 178.424 425.982 178.062 425.982 177.651C425.982 177.246 426.067 176.877 426.235 176.544C426.408 176.211 426.652 175.924 426.967 175.683C427.286 175.437 427.662 175.247 428.095 175.115C428.527 174.979 429.006 174.91 429.53 174.91C430.268 174.91 430.904 175.047 431.437 175.32C431.975 175.594 432.388 175.961 432.675 176.421C432.966 176.881 433.112 177.389 433.112 177.945H431.41C431.41 177.617 431.339 177.328 431.198 177.077C431.061 176.822 430.852 176.621 430.569 176.476C430.291 176.33 429.938 176.257 429.51 176.257C429.104 176.257 428.767 176.318 428.498 176.441C428.229 176.564 428.028 176.731 427.896 176.94C427.764 177.15 427.698 177.387 427.698 177.651C427.698 177.838 427.741 178.009 427.828 178.164C427.915 178.314 428.047 178.456 428.224 178.588C428.402 178.715 428.625 178.836 428.894 178.95C429.163 179.064 429.48 179.174 429.845 179.278C430.396 179.442 430.877 179.625 431.287 179.825C431.697 180.021 432.039 180.244 432.312 180.495C432.586 180.746 432.791 181.031 432.928 181.35C433.064 181.664 433.133 182.022 433.133 182.423C433.133 182.842 433.048 183.22 432.88 183.558C432.711 183.89 432.47 184.175 432.155 184.412C431.845 184.645 431.471 184.825 431.034 184.952C430.601 185.075 430.118 185.137 429.585 185.137C429.106 185.137 428.635 185.073 428.17 184.945C427.709 184.818 427.29 184.624 426.912 184.364C426.534 184.1 426.233 183.772 426.01 183.38C425.786 182.983 425.675 182.521 425.675 181.992H427.39C427.39 182.316 427.445 182.591 427.554 182.819C427.668 183.047 427.826 183.234 428.026 183.38C428.227 183.521 428.459 183.626 428.723 183.694C428.992 183.763 429.279 183.797 429.585 183.797C429.986 183.797 430.321 183.74 430.59 183.626C430.863 183.512 431.068 183.353 431.205 183.147C431.342 182.942 431.41 182.705 431.41 182.437ZM437.742 185H435.616L435.629 183.64H437.742C438.357 183.64 438.872 183.505 439.287 183.236C439.706 182.967 440.02 182.582 440.23 182.081C440.444 181.58 440.551 180.983 440.551 180.29V179.75C440.551 179.212 440.49 178.736 440.367 178.321C440.248 177.907 440.071 177.558 439.834 177.275C439.601 176.993 439.314 176.779 438.972 176.633C438.635 176.487 438.245 176.414 437.803 176.414H435.575V175.047H437.803C438.464 175.047 439.068 175.159 439.615 175.382C440.162 175.601 440.633 175.917 441.03 176.332C441.431 176.747 441.739 177.243 441.953 177.822C442.167 178.401 442.274 179.048 442.274 179.764V180.29C442.274 181.006 442.167 181.653 441.953 182.231C441.739 182.81 441.431 183.307 441.03 183.722C440.629 184.132 440.15 184.449 439.594 184.672C439.043 184.891 438.425 185 437.742 185ZM436.566 175.047V185H434.85V175.047H436.566ZM450.609 183.688V185H443.937V183.872L447.177 180.338C447.533 179.937 447.813 179.59 448.018 179.299C448.223 179.007 448.367 178.745 448.449 178.513C448.535 178.276 448.579 178.046 448.579 177.822C448.579 177.508 448.519 177.232 448.401 176.995C448.287 176.754 448.118 176.564 447.895 176.428C447.672 176.286 447.4 176.216 447.081 176.216C446.712 176.216 446.402 176.296 446.152 176.455C445.901 176.615 445.712 176.836 445.584 177.118C445.457 177.396 445.393 177.715 445.393 178.075H443.746C443.746 177.496 443.878 176.968 444.142 176.489C444.406 176.006 444.789 175.623 445.29 175.341C445.792 175.054 446.396 174.91 447.102 174.91C447.767 174.91 448.332 175.022 448.797 175.245C449.262 175.468 449.615 175.785 449.857 176.195C450.103 176.605 450.226 177.091 450.226 177.651C450.226 177.961 450.176 178.269 450.076 178.574C449.975 178.88 449.832 179.185 449.645 179.49C449.463 179.791 449.246 180.094 448.996 180.399C448.745 180.7 448.469 181.006 448.168 181.315L446.015 183.688H450.609ZM453.735 183.414L453.728 184.59C453.728 185.055 453.612 185.533 453.379 186.025C453.147 186.518 452.839 186.923 452.456 187.242L451.574 186.729C451.702 186.524 451.818 186.317 451.923 186.107C452.028 185.898 452.112 185.674 452.176 185.438C452.24 185.201 452.272 184.938 452.272 184.651V183.414H453.735ZM464.607 182.437C464.607 182.231 464.575 182.049 464.512 181.89C464.452 181.73 464.345 181.584 464.19 181.452C464.035 181.32 463.817 181.192 463.534 181.069C463.256 180.942 462.901 180.812 462.468 180.68C461.994 180.534 461.556 180.372 461.155 180.194C460.759 180.012 460.412 179.802 460.116 179.565C459.82 179.324 459.59 179.048 459.426 178.738C459.262 178.424 459.179 178.062 459.179 177.651C459.179 177.246 459.264 176.877 459.432 176.544C459.606 176.211 459.849 175.924 460.164 175.683C460.483 175.437 460.859 175.247 461.292 175.115C461.725 174.979 462.203 174.91 462.727 174.91C463.466 174.91 464.101 175.047 464.635 175.32C465.172 175.594 465.585 175.961 465.872 176.421C466.164 176.881 466.309 177.389 466.309 177.945H464.607C464.607 177.617 464.537 177.328 464.395 177.077C464.259 176.822 464.049 176.621 463.766 176.476C463.488 176.33 463.135 176.257 462.707 176.257C462.301 176.257 461.964 176.318 461.695 176.441C461.426 176.564 461.226 176.731 461.094 176.94C460.961 177.15 460.895 177.387 460.895 177.651C460.895 177.838 460.939 178.009 461.025 178.164C461.112 178.314 461.244 178.456 461.422 178.588C461.599 178.715 461.823 178.836 462.092 178.95C462.36 179.064 462.677 179.174 463.042 179.278C463.593 179.442 464.074 179.625 464.484 179.825C464.894 180.021 465.236 180.244 465.51 180.495C465.783 180.746 465.988 181.031 466.125 181.35C466.262 181.664 466.33 182.022 466.33 182.423C466.33 182.842 466.246 183.22 466.077 183.558C465.908 183.89 465.667 184.175 465.352 184.412C465.042 184.645 464.669 184.825 464.231 184.952C463.798 185.075 463.315 185.137 462.782 185.137C462.304 185.137 461.832 185.073 461.367 184.945C460.907 184.818 460.487 184.624 460.109 184.364C459.731 184.1 459.43 183.772 459.207 183.38C458.984 182.983 458.872 182.521 458.872 181.992H460.588C460.588 182.316 460.642 182.591 460.752 182.819C460.866 183.047 461.023 183.234 461.223 183.38C461.424 183.521 461.656 183.626 461.921 183.694C462.19 183.763 462.477 183.797 462.782 183.797C463.183 183.797 463.518 183.74 463.787 183.626C464.06 183.512 464.265 183.353 464.402 183.147C464.539 182.942 464.607 182.705 464.607 182.437ZM470.939 185H468.813L468.827 183.64H470.939C471.554 183.64 472.069 183.505 472.484 183.236C472.903 182.967 473.218 182.582 473.427 182.081C473.642 181.58 473.749 180.983 473.749 180.29V179.75C473.749 179.212 473.687 178.736 473.564 178.321C473.446 177.907 473.268 177.558 473.031 177.275C472.798 176.993 472.511 176.779 472.17 176.633C471.832 176.487 471.443 176.414 471.001 176.414H468.772V175.047H471.001C471.661 175.047 472.265 175.159 472.812 175.382C473.359 175.601 473.831 175.917 474.227 176.332C474.628 176.747 474.936 177.243 475.15 177.822C475.364 178.401 475.471 179.048 475.471 179.764V180.29C475.471 181.006 475.364 181.653 475.15 182.231C474.936 182.81 474.628 183.307 474.227 183.722C473.826 184.132 473.348 184.449 472.792 184.672C472.24 184.891 471.623 185 470.939 185ZM469.763 175.047V185H468.047V175.047H469.763ZM478.549 175.047L480.662 178.677L482.774 175.047H484.749L481.742 179.976L484.825 185H482.829L480.662 181.302L478.495 185H476.492L479.581 179.976L476.567 175.047H478.549ZM492.524 183.64V185H487.527V183.64H492.524ZM488.005 175.047V185H486.289V175.047H488.005Z" fill="white"/>
<rect x="231" y="141" width="144" height="58" rx="3" stroke="#AF5CF7" stroke-width="2"/>
<path d="M244.224 155.047H245.755L248.633 162.724L251.504 155.047H253.036L249.235 165H248.018L244.224 155.047ZM243.527 155.047H244.983L245.236 161.691V165H243.527V155.047ZM252.277 155.047H253.74V165H252.024V161.691L252.277 155.047ZM259.983 163.517V159.989C259.983 159.725 259.935 159.497 259.839 159.306C259.744 159.114 259.598 158.966 259.402 158.861C259.21 158.757 258.969 158.704 258.677 158.704C258.408 158.704 258.176 158.75 257.98 158.841C257.784 158.932 257.631 159.055 257.522 159.21C257.413 159.365 257.358 159.54 257.358 159.736H255.717C255.717 159.445 255.788 159.162 255.929 158.889C256.07 158.615 256.275 158.371 256.544 158.157C256.813 157.943 257.135 157.774 257.508 157.651C257.882 157.528 258.301 157.467 258.766 157.467C259.322 157.467 259.814 157.56 260.243 157.747C260.676 157.934 261.015 158.216 261.261 158.595C261.512 158.968 261.637 159.438 261.637 160.003V163.291C261.637 163.628 261.66 163.931 261.705 164.2C261.756 164.465 261.826 164.695 261.917 164.891V165H260.229C260.151 164.822 260.09 164.597 260.044 164.323C260.003 164.045 259.983 163.776 259.983 163.517ZM260.222 160.502L260.236 161.521H259.053C258.748 161.521 258.479 161.55 258.246 161.609C258.014 161.664 257.82 161.746 257.665 161.855C257.51 161.965 257.394 162.097 257.317 162.252C257.239 162.407 257.201 162.582 257.201 162.778C257.201 162.974 257.246 163.154 257.337 163.318C257.428 163.478 257.561 163.603 257.734 163.694C257.912 163.785 258.126 163.831 258.376 163.831C258.714 163.831 259.008 163.763 259.258 163.626C259.513 163.485 259.714 163.314 259.86 163.113C260.006 162.908 260.083 162.715 260.092 162.532L260.625 163.264C260.571 163.451 260.477 163.651 260.345 163.865C260.213 164.079 260.04 164.285 259.826 164.48C259.616 164.672 259.363 164.829 259.067 164.952C258.775 165.075 258.438 165.137 258.055 165.137C257.572 165.137 257.141 165.041 256.763 164.85C256.385 164.654 256.089 164.392 255.874 164.063C255.66 163.731 255.553 163.355 255.553 162.936C255.553 162.544 255.626 162.197 255.772 161.896C255.922 161.591 256.141 161.336 256.428 161.131C256.72 160.926 257.075 160.771 257.495 160.666C257.914 160.557 258.392 160.502 258.93 160.502H260.222ZM264.818 157.604L266.226 160.058L267.661 157.604H269.473L267.231 161.233L269.562 165H267.75L266.246 162.443L264.742 165H262.924L265.248 161.233L263.013 157.604H264.818ZM275.06 155.047V165H273.357V155.047H275.06ZM278.184 155.047V156.414H270.261V155.047H278.184ZM282.137 165.137C281.59 165.137 281.095 165.048 280.653 164.87C280.216 164.688 279.842 164.435 279.532 164.111C279.227 163.788 278.992 163.407 278.828 162.97C278.664 162.532 278.582 162.061 278.582 161.555V161.281C278.582 160.702 278.666 160.178 278.835 159.709C279.003 159.24 279.238 158.839 279.539 158.506C279.84 158.169 280.195 157.911 280.605 157.733C281.015 157.556 281.46 157.467 281.938 157.467C282.467 157.467 282.929 157.556 283.326 157.733C283.722 157.911 284.051 158.162 284.31 158.485C284.575 158.804 284.771 159.185 284.898 159.627C285.03 160.069 285.096 160.557 285.096 161.09V161.794H279.382V160.611H283.47V160.481C283.46 160.185 283.401 159.907 283.292 159.647C283.187 159.388 283.025 159.178 282.806 159.019C282.588 158.859 282.296 158.779 281.931 158.779C281.658 158.779 281.414 158.839 281.2 158.957C280.99 159.071 280.815 159.237 280.674 159.456C280.532 159.675 280.423 159.939 280.346 160.249C280.273 160.554 280.236 160.898 280.236 161.281V161.555C280.236 161.878 280.279 162.179 280.366 162.457C280.457 162.73 280.589 162.97 280.763 163.175C280.936 163.38 281.145 163.542 281.391 163.66C281.638 163.774 281.918 163.831 282.232 163.831C282.629 163.831 282.982 163.751 283.292 163.592C283.602 163.432 283.871 163.207 284.098 162.915L284.967 163.756C284.807 163.988 284.6 164.212 284.345 164.426C284.089 164.635 283.777 164.806 283.408 164.938C283.043 165.071 282.62 165.137 282.137 165.137ZM287.839 157.604L289.248 160.058L290.683 157.604H292.495L290.253 161.233L292.584 165H290.772L289.268 162.443L287.764 165H285.946L288.27 161.233L286.035 157.604H287.839ZM297.213 157.604V158.807H293.043V157.604H297.213ZM294.246 155.792H295.894V162.956C295.894 163.184 295.926 163.359 295.99 163.482C296.058 163.601 296.151 163.681 296.27 163.722C296.388 163.763 296.527 163.783 296.687 163.783C296.801 163.783 296.91 163.776 297.015 163.763C297.12 163.749 297.204 163.735 297.268 163.722L297.275 164.979C297.138 165.021 296.979 165.057 296.796 165.089C296.619 165.121 296.413 165.137 296.181 165.137C295.803 165.137 295.468 165.071 295.176 164.938C294.885 164.802 294.657 164.581 294.493 164.275C294.329 163.97 294.246 163.564 294.246 163.059V155.792ZM305.687 160.092V161.404H302.07V160.092H305.687ZM318.822 159.914V163.715C318.681 163.902 318.46 164.107 318.159 164.33C317.863 164.549 317.468 164.738 316.976 164.897C316.484 165.057 315.871 165.137 315.137 165.137C314.513 165.137 313.941 165.032 313.421 164.822C312.902 164.608 312.453 164.296 312.075 163.886C311.701 163.476 311.412 162.977 311.207 162.389C311.002 161.796 310.899 161.122 310.899 160.365V159.675C310.899 158.923 310.992 158.253 311.179 157.665C311.371 157.073 311.644 156.571 312 156.161C312.355 155.751 312.783 155.441 313.285 155.231C313.791 155.017 314.363 154.91 315.001 154.91C315.816 154.91 316.491 155.047 317.024 155.32C317.562 155.589 317.976 155.963 318.268 156.441C318.56 156.92 318.744 157.467 318.822 158.082H317.14C317.086 157.736 316.978 157.426 316.819 157.152C316.664 156.879 316.441 156.665 316.149 156.51C315.862 156.35 315.488 156.271 315.028 156.271C314.631 156.271 314.283 156.346 313.982 156.496C313.681 156.646 313.431 156.868 313.23 157.159C313.034 157.451 312.886 157.806 312.786 158.226C312.685 158.645 312.635 159.123 312.635 159.661V160.365C312.635 160.912 312.692 161.397 312.806 161.821C312.925 162.245 313.093 162.603 313.312 162.895C313.535 163.186 313.807 163.407 314.126 163.558C314.445 163.703 314.805 163.776 315.206 163.776C315.598 163.776 315.919 163.744 316.17 163.681C316.42 163.612 316.618 163.533 316.764 163.441C316.915 163.346 317.031 163.255 317.113 163.168V161.192H315.042V159.914H318.822ZM324.019 165.137C323.472 165.137 322.978 165.048 322.536 164.87C322.098 164.688 321.724 164.435 321.414 164.111C321.109 163.788 320.874 163.407 320.71 162.97C320.546 162.532 320.464 162.061 320.464 161.555V161.281C320.464 160.702 320.549 160.178 320.717 159.709C320.886 159.24 321.121 158.839 321.421 158.506C321.722 158.169 322.078 157.911 322.488 157.733C322.898 157.556 323.342 157.467 323.821 157.467C324.349 157.467 324.812 157.556 325.208 157.733C325.605 157.911 325.933 158.162 326.193 158.485C326.457 158.804 326.653 159.185 326.781 159.627C326.913 160.069 326.979 160.557 326.979 161.09V161.794H321.264V160.611H325.352V160.481C325.343 160.185 325.284 159.907 325.174 159.647C325.069 159.388 324.908 159.178 324.689 159.019C324.47 158.859 324.178 158.779 323.814 158.779C323.54 158.779 323.297 158.839 323.082 158.957C322.873 159.071 322.697 159.237 322.556 159.456C322.415 159.675 322.305 159.939 322.228 160.249C322.155 160.554 322.119 160.898 322.119 161.281V161.555C322.119 161.878 322.162 162.179 322.248 162.457C322.34 162.73 322.472 162.97 322.645 163.175C322.818 163.38 323.028 163.542 323.274 163.66C323.52 163.774 323.8 163.831 324.115 163.831C324.511 163.831 324.864 163.751 325.174 163.592C325.484 163.432 325.753 163.207 325.981 162.915L326.849 163.756C326.69 163.988 326.482 164.212 326.227 164.426C325.972 164.635 325.66 164.806 325.29 164.938C324.926 165.071 324.502 165.137 324.019 165.137ZM330.112 159.107V165H328.464V157.604H330.016L330.112 159.107ZM329.845 161.028L329.284 161.021C329.284 160.511 329.348 160.039 329.476 159.606C329.603 159.174 329.79 158.798 330.036 158.479C330.282 158.155 330.588 157.907 330.952 157.733C331.321 157.556 331.748 157.467 332.231 157.467C332.568 157.467 332.876 157.517 333.154 157.617C333.436 157.713 333.68 157.866 333.885 158.075C334.095 158.285 334.254 158.554 334.363 158.882C334.477 159.21 334.534 159.606 334.534 160.071V165H332.887V160.215C332.887 159.855 332.832 159.572 332.723 159.367C332.618 159.162 332.465 159.016 332.265 158.93C332.069 158.839 331.834 158.793 331.561 158.793C331.251 158.793 330.987 158.852 330.768 158.971C330.554 159.089 330.378 159.251 330.241 159.456C330.105 159.661 330.004 159.898 329.941 160.167C329.877 160.436 329.845 160.723 329.845 161.028ZM334.432 160.591L333.659 160.762C333.659 160.315 333.721 159.894 333.844 159.497C333.972 159.096 334.156 158.745 334.398 158.444C334.644 158.139 334.947 157.9 335.307 157.727C335.667 157.553 336.079 157.467 336.544 157.467C336.922 157.467 337.26 157.519 337.556 157.624C337.857 157.724 338.112 157.884 338.321 158.103C338.531 158.321 338.691 158.606 338.8 158.957C338.909 159.303 338.964 159.723 338.964 160.215V165H337.31V160.208C337.31 159.834 337.255 159.545 337.146 159.34C337.041 159.135 336.89 158.993 336.695 158.916C336.499 158.834 336.264 158.793 335.99 158.793C335.735 158.793 335.51 158.841 335.314 158.937C335.122 159.028 334.96 159.158 334.828 159.326C334.696 159.49 334.596 159.679 334.528 159.894C334.464 160.108 334.432 160.34 334.432 160.591ZM342.507 159.107V165H340.859V157.604H342.411L342.507 159.107ZM342.24 161.028L341.68 161.021C341.68 160.511 341.743 160.039 341.871 159.606C341.999 159.174 342.186 158.798 342.432 158.479C342.678 158.155 342.983 157.907 343.348 157.733C343.717 157.556 344.143 157.467 344.626 157.467C344.963 157.467 345.271 157.517 345.549 157.617C345.831 157.713 346.075 157.866 346.28 158.075C346.49 158.285 346.649 158.554 346.759 158.882C346.873 159.21 346.93 159.606 346.93 160.071V165H345.282V160.215C345.282 159.855 345.228 159.572 345.118 159.367C345.013 159.162 344.861 159.016 344.66 158.93C344.464 158.839 344.229 158.793 343.956 158.793C343.646 158.793 343.382 158.852 343.163 158.971C342.949 159.089 342.773 159.251 342.637 159.456C342.5 159.661 342.4 159.898 342.336 160.167C342.272 160.436 342.24 160.723 342.24 161.028ZM346.827 160.591L346.055 160.762C346.055 160.315 346.116 159.894 346.239 159.497C346.367 159.096 346.551 158.745 346.793 158.444C347.039 158.139 347.342 157.9 347.702 157.727C348.062 157.553 348.475 157.467 348.939 157.467C349.318 157.467 349.655 157.519 349.951 157.624C350.252 157.724 350.507 157.884 350.717 158.103C350.926 158.321 351.086 158.606 351.195 158.957C351.305 159.303 351.359 159.723 351.359 160.215V165H349.705V160.208C349.705 159.834 349.65 159.545 349.541 159.34C349.436 159.135 349.286 158.993 349.09 158.916C348.894 158.834 348.659 158.793 348.386 158.793C348.131 158.793 347.905 158.841 347.709 158.937C347.518 159.028 347.356 159.158 347.224 159.326C347.091 159.49 346.991 159.679 346.923 159.894C346.859 160.108 346.827 160.34 346.827 160.591ZM357.425 163.517V159.989C357.425 159.725 357.377 159.497 357.281 159.306C357.185 159.114 357.04 158.966 356.844 158.861C356.652 158.757 356.411 158.704 356.119 158.704C355.85 158.704 355.618 158.75 355.422 158.841C355.226 158.932 355.073 159.055 354.964 159.21C354.854 159.365 354.8 159.54 354.8 159.736H353.159C353.159 159.445 353.23 159.162 353.371 158.889C353.512 158.615 353.717 158.371 353.986 158.157C354.255 157.943 354.576 157.774 354.95 157.651C355.324 157.528 355.743 157.467 356.208 157.467C356.764 157.467 357.256 157.56 357.684 157.747C358.117 157.934 358.457 158.216 358.703 158.595C358.954 158.968 359.079 159.438 359.079 160.003V163.291C359.079 163.628 359.102 163.931 359.147 164.2C359.197 164.465 359.268 164.695 359.359 164.891V165H357.671C357.593 164.822 357.532 164.597 357.486 164.323C357.445 164.045 357.425 163.776 357.425 163.517ZM357.664 160.502L357.678 161.521H356.495C356.19 161.521 355.921 161.55 355.688 161.609C355.456 161.664 355.262 161.746 355.107 161.855C354.952 161.965 354.836 162.097 354.759 162.252C354.681 162.407 354.642 162.582 354.642 162.778C354.642 162.974 354.688 163.154 354.779 163.318C354.87 163.478 355.002 163.603 355.176 163.694C355.353 163.785 355.568 163.831 355.818 163.831C356.155 163.831 356.449 163.763 356.7 163.626C356.955 163.485 357.156 163.314 357.302 163.113C357.447 162.908 357.525 162.715 357.534 162.532L358.067 163.264C358.013 163.451 357.919 163.651 357.787 163.865C357.655 164.079 357.482 164.285 357.267 164.48C357.058 164.672 356.805 164.829 356.509 164.952C356.217 165.075 355.88 165.137 355.497 165.137C355.014 165.137 354.583 165.041 354.205 164.85C353.827 164.654 353.53 164.392 353.316 164.063C353.102 163.731 352.995 163.355 352.995 162.936C352.995 162.544 353.068 162.197 353.214 161.896C353.364 161.591 353.583 161.336 353.87 161.131C354.162 160.926 354.517 160.771 354.936 160.666C355.356 160.557 355.834 160.502 356.372 160.502H357.664ZM362.546 163.414L362.54 164.59C362.54 165.055 362.423 165.533 362.191 166.025C361.959 166.518 361.651 166.923 361.268 167.242L360.386 166.729C360.514 166.524 360.63 166.317 360.735 166.107C360.84 165.898 360.924 165.674 360.988 165.438C361.052 165.201 361.084 164.938 361.084 164.651V163.414H362.546ZM256.708 183.64V185H251.711V183.64H256.708ZM252.19 175.047V185H250.474V175.047H252.19ZM264.469 183.64V185H259.472V183.64H264.469ZM259.95 175.047V185H258.235V175.047H259.95ZM270.008 176.373L267.034 185H265.236L268.982 175.047H270.131L270.008 176.373ZM272.496 185L269.516 176.373L269.386 175.047H270.541L274.301 185H272.496ZM272.353 181.309V182.669H266.938V181.309H272.353ZM276.312 175.047H277.844L280.721 182.724L283.593 175.047H285.124L281.323 185H280.106L276.312 175.047ZM275.615 175.047H277.071L277.324 181.691V185H275.615V175.047ZM284.365 175.047H285.828V185H284.112V181.691L284.365 175.047ZM292.064 176.373L289.09 185H287.293L291.039 175.047H292.187L292.064 176.373ZM294.552 185L291.572 176.373L291.442 175.047H292.597L296.357 185H294.552ZM294.409 181.309V182.669H288.995V181.309H294.409ZM304.083 183.688V185H297.412V183.872L300.652 180.338C301.007 179.937 301.287 179.59 301.493 179.299C301.698 179.007 301.841 178.745 301.923 178.513C302.01 178.276 302.053 178.046 302.053 177.822C302.053 177.508 301.994 177.232 301.875 176.995C301.761 176.754 301.593 176.564 301.37 176.428C301.146 176.286 300.875 176.216 300.556 176.216C300.187 176.216 299.877 176.296 299.626 176.455C299.376 176.615 299.187 176.836 299.059 177.118C298.931 177.396 298.868 177.715 298.868 178.075H297.22C297.22 177.496 297.352 176.968 297.617 176.489C297.881 176.006 298.264 175.623 298.765 175.341C299.266 175.054 299.87 174.91 300.577 174.91C301.242 174.91 301.807 175.022 302.272 175.245C302.737 175.468 303.09 175.785 303.331 176.195C303.578 176.605 303.701 177.091 303.701 177.651C303.701 177.961 303.65 178.269 303.55 178.574C303.45 178.88 303.306 179.185 303.12 179.49C302.937 179.791 302.721 180.094 302.47 180.399C302.219 180.7 301.944 181.006 301.643 181.315L299.49 183.688H304.083ZM307.209 183.414L307.202 184.59C307.202 185.055 307.086 185.533 306.854 186.025C306.621 186.518 306.314 186.923 305.931 187.242L305.049 186.729C305.177 186.524 305.293 186.317 305.398 186.107C305.502 185.898 305.587 185.674 305.651 185.438C305.714 185.201 305.746 184.938 305.746 184.651V183.414H307.209ZM313.543 175.047H315.074L317.952 182.724L320.823 175.047H322.354L318.554 185H317.337L313.543 175.047ZM312.846 175.047H314.302L314.554 181.691V185H312.846V175.047ZM321.596 175.047H323.058V185H321.343V181.691L321.596 175.047ZM326.895 177.604V185H325.241V177.604H326.895ZM325.131 175.662C325.131 175.411 325.213 175.204 325.378 175.04C325.546 174.871 325.779 174.787 326.075 174.787C326.366 174.787 326.597 174.871 326.765 175.04C326.934 175.204 327.018 175.411 327.018 175.662C327.018 175.908 326.934 176.113 326.765 176.277C326.597 176.441 326.366 176.523 326.075 176.523C325.779 176.523 325.546 176.441 325.378 176.277C325.213 176.113 325.131 175.908 325.131 175.662ZM333.049 182.997C333.049 182.833 333.008 182.685 332.926 182.553C332.844 182.416 332.687 182.293 332.454 182.184C332.227 182.074 331.889 181.974 331.443 181.883C331.051 181.796 330.691 181.694 330.363 181.575C330.039 181.452 329.761 181.304 329.529 181.131C329.296 180.958 329.116 180.753 328.989 180.516C328.861 180.279 328.797 180.005 328.797 179.695C328.797 179.395 328.863 179.11 328.996 178.841C329.128 178.572 329.317 178.335 329.563 178.13C329.809 177.925 330.107 177.763 330.458 177.645C330.814 177.526 331.21 177.467 331.648 177.467C332.268 177.467 332.799 177.572 333.241 177.781C333.687 177.986 334.029 178.267 334.266 178.622C334.503 178.973 334.621 179.369 334.621 179.812H332.974C332.974 179.616 332.924 179.433 332.824 179.265C332.728 179.091 332.582 178.952 332.386 178.848C332.19 178.738 331.944 178.684 331.648 178.684C331.365 178.684 331.131 178.729 330.944 178.82C330.761 178.907 330.625 179.021 330.534 179.162C330.447 179.303 330.404 179.458 330.404 179.627C330.404 179.75 330.426 179.862 330.472 179.962C330.522 180.058 330.604 180.146 330.718 180.229C330.832 180.306 330.987 180.379 331.183 180.447C331.384 180.516 331.634 180.582 331.935 180.646C332.5 180.764 332.985 180.917 333.391 181.104C333.801 181.286 334.116 181.523 334.334 181.814C334.553 182.102 334.662 182.466 334.662 182.908C334.662 183.236 334.592 183.537 334.451 183.811C334.314 184.079 334.113 184.314 333.849 184.515C333.585 184.711 333.268 184.863 332.899 184.973C332.534 185.082 332.124 185.137 331.668 185.137C330.998 185.137 330.431 185.018 329.966 184.781C329.501 184.54 329.148 184.232 328.907 183.858C328.67 183.48 328.551 183.088 328.551 182.683H330.144C330.162 182.988 330.246 183.232 330.397 183.414C330.552 183.592 330.743 183.722 330.971 183.804C331.204 183.881 331.443 183.92 331.689 183.92C331.985 183.92 332.233 183.881 332.434 183.804C332.635 183.722 332.787 183.612 332.892 183.476C332.997 183.334 333.049 183.175 333.049 182.997ZM339.696 177.604V178.807H335.526V177.604H339.696ZM336.729 175.792H338.376V182.956C338.376 183.184 338.408 183.359 338.472 183.482C338.54 183.601 338.634 183.681 338.752 183.722C338.871 183.763 339.01 183.783 339.169 183.783C339.283 183.783 339.392 183.776 339.497 183.763C339.602 183.749 339.686 183.735 339.75 183.722L339.757 184.979C339.62 185.021 339.461 185.057 339.279 185.089C339.101 185.121 338.896 185.137 338.663 185.137C338.285 185.137 337.95 185.071 337.658 184.938C337.367 184.802 337.139 184.581 336.975 184.275C336.811 183.97 336.729 183.564 336.729 183.059V175.792ZM342.821 179.012V185H341.174V177.604H342.746L342.821 179.012ZM345.084 177.556L345.07 179.087C344.97 179.069 344.861 179.055 344.742 179.046C344.628 179.037 344.514 179.032 344.4 179.032C344.118 179.032 343.869 179.073 343.655 179.155C343.441 179.233 343.261 179.347 343.115 179.497C342.974 179.643 342.865 179.821 342.787 180.03C342.71 180.24 342.664 180.475 342.65 180.734L342.274 180.762C342.274 180.297 342.32 179.866 342.411 179.47C342.502 179.073 342.639 178.725 342.821 178.424C343.008 178.123 343.241 177.888 343.519 177.72C343.801 177.551 344.127 177.467 344.496 177.467C344.596 177.467 344.703 177.476 344.817 177.494C344.936 177.512 345.025 177.533 345.084 177.556ZM350.24 183.517V179.989C350.24 179.725 350.192 179.497 350.096 179.306C350.001 179.114 349.855 178.966 349.659 178.861C349.468 178.757 349.226 178.704 348.934 178.704C348.665 178.704 348.433 178.75 348.237 178.841C348.041 178.932 347.888 179.055 347.779 179.21C347.67 179.365 347.615 179.54 347.615 179.736H345.974C345.974 179.445 346.045 179.162 346.186 178.889C346.328 178.615 346.533 178.371 346.802 178.157C347.07 177.943 347.392 177.774 347.765 177.651C348.139 177.528 348.558 177.467 349.023 177.467C349.579 177.467 350.071 177.56 350.5 177.747C350.933 177.934 351.272 178.216 351.518 178.595C351.769 178.968 351.894 179.438 351.894 180.003V183.291C351.894 183.628 351.917 183.931 351.963 184.2C352.013 184.465 352.083 184.695 352.175 184.891V185H350.486C350.409 184.822 350.347 184.597 350.302 184.323C350.261 184.045 350.24 183.776 350.24 183.517ZM350.479 180.502L350.493 181.521H349.31C349.005 181.521 348.736 181.55 348.504 181.609C348.271 181.664 348.078 181.746 347.923 181.855C347.768 181.965 347.651 182.097 347.574 182.252C347.497 182.407 347.458 182.582 347.458 182.778C347.458 182.974 347.503 183.154 347.595 183.318C347.686 183.478 347.818 183.603 347.991 183.694C348.169 183.785 348.383 183.831 348.634 183.831C348.971 183.831 349.265 183.763 349.515 183.626C349.771 183.485 349.971 183.314 350.117 183.113C350.263 182.908 350.34 182.715 350.349 182.532L350.883 183.264C350.828 183.451 350.735 183.651 350.602 183.865C350.47 184.079 350.297 184.285 350.083 184.48C349.873 184.672 349.62 184.829 349.324 184.952C349.032 185.075 348.695 185.137 348.312 185.137C347.829 185.137 347.399 185.041 347.02 184.85C346.642 184.654 346.346 184.392 346.132 184.063C345.917 183.731 345.81 183.355 345.81 182.936C345.81 182.544 345.883 182.197 346.029 181.896C346.179 181.591 346.398 181.336 346.685 181.131C346.977 180.926 347.332 180.771 347.752 180.666C348.171 180.557 348.65 180.502 349.187 180.502H350.479ZM355.581 174.5V185H353.926V174.5H355.581Z" fill="white"/>
</g>
<defs>
<filter id="filter0_dd_671_30" x="95.7486" y="151.356" width="107.614" height="41.4873" filterUnits="userSpaceOnUse" color-interpolation-filters="sRGB">
<feFlood flood-opacity="0" result="BackgroundImageFix"/>
<feColorMatrix in="SourceAlpha" type="matrix" values="0 0 0 0 0 0 0 0 0 0 0 0 0 0 0 0 0 0 127 0" result="hardAlpha"/>
<feOffset dy="1"/>
<feGaussianBlur stdDeviation="1"/>
<feColorMatrix type="matrix" values="0 0 0 0 0 0 0 0 0 0 0 0 0 0 0 0 0 0 0.3 0"/>
<feBlend mode="normal" in2="BackgroundImageFix" result="effect1_dropShadow_671_30"/>
<feColorMatrix in="SourceAlpha" type="matrix" values="0 0 0 0 0 0 0 0 0 0 0 0 0 0 0 0 0 0 127 0" result="hardAlpha"/>
<feMorphology radius="1" operator="dilate" in="SourceAlpha" result="effect2_dropShadow_671_30"/>
<feOffset dy="1"/>
<feGaussianBlur stdDeviation="1.5"/>
<feColorMatrix type="matrix" values="0 0 0 0 0 0 0 0 0 0 0 0 0 0 0 0 0 0 0.15 0"/>
<feBlend mode="normal" in2="effect1_dropShadow_671_30" result="effect2_dropShadow_671_30"/>
<feBlend mode="normal" in="SourceGraphic" in2="effect2_dropShadow_671_30" result="shape"/>
</filter>
<radialGradient id="paint0_radial_671_30" cx="0" cy="0" r="1" gradientUnits="userSpaceOnUse" gradientTransform="translate(529.5 60.5) rotate(90) scale(469.5)">
<stop stop-color="#5E97F6"/>
<stop offset="1" stop-color="#5E97F6" stop-opacity="0"/>
</radialGradient>
<clipPath id="clip0_671_30">
<rect width="598" height="340" rx="24" fill="white"/>
</clipPath>
</defs>
</svg>
