<svg xmlns="http://www.w3.org/2000/svg" xmlns:xlink="http://www.w3.org/1999/xlink" xmlns:lucid="lucid" width="1662" height="542"><g transform="translate(-59 -1319)" lucid:page-tab-id="7qx6e3_~erhD"><path d="M60 1326a6 6 0 0 1 6-6h1648a6 6 0 0 1 6 6v528a6 6 0 0 1-6 6H66a6 6 0 0 1-6-6z" stroke="#000" stroke-opacity="0" stroke-width="2" fill="#193057"/><path d="M1228 1454.13a6 6 0 0 1 6-6h188a6 6 0 0 1 6 6v48a6 6 0 0 1-6 6h-188a6 6 0 0 1-6-6z" stroke="#ba23f6" stroke-width="4" fill-opacity="0"/><use xlink:href="#a" transform="matrix(1,0,0,1,1233.0000219970866,1453.134765625) translate(57.48914930555555 34.02777777777778)"/><path d="M892.8 1760.13c0 15.47-62.68 28-140 28s-140-12.53-140-28v-224c0-15.46 62.68-28 140-28s140 12.54 140 28z" stroke="#00c2a8" stroke-width="4" fill-opacity="0"/><path d="M892.8 1536.13c0 15.47-62.68 28-140 28s-140-12.53-140-28" stroke="#00c2a8" stroke-width="4" fill="none"/><use xlink:href="#b" transform="matrix(1,0,0,1,617.8,1569.134765625) translate(79.24913194444444 21.52777777777778)"/><path d="M832.8 1758.13c0 5.53-35.82 10-80 10s-80-4.47-80-10v-80c0-5.52 35.82-10 80-10s80 4.48 80 10z" stroke="#00c2a8" stroke-width="4" fill-opacity="0"/><path d="M832.8 1678.13c0 5.53-35.82 10-80 10s-80-4.47-80-10" stroke="#00c2a8" stroke-width="4" fill="none"/><use xlink:href="#c" transform="matrix(1,0,0,1,677.8000000000002,1693.134765625) translate(15.033637152777793 25.90277777777778)"/><use xlink:href="#d" transform="matrix(1,0,0,1,677.8000000000002,1693.134765625) translate(4.432508680555571 58.16840277777778)"/><path d="M605 1354.13a6 6 0 0 1 6-6h258a6 6 0 0 1 6 6v88a6 6 0 0 1-6 6H611a6 6 0 0 1-6-6z" stroke="#000" stroke-opacity="0" stroke-width="2" fill-opacity="0"/><use xlink:href="#e" transform="matrix(1,0,0,1,610,1353.134765625) translate(26.48980034722223 35.59027777777778)"/><use xlink:href="#f" transform="matrix(1,0,0,1,610,1353.134765625) translate(98.28884548611111 35.59027777777778)"/><use xlink:href="#g" transform="matrix(1,0,0,1,610,1353.134765625) translate(91.71875 67.85590277777777)"/><path d="M988 1646a6 6 0 0 1 6-6h188a6 6 0 0 1 6 6v57.15a6 6 0 0 1-6 6H994a6 6 0 0 1-6-6z" stroke="#ba23f6" stroke-width="4" fill-opacity="0"/><use xlink:href="#c" transform="matrix(1,0,0,1,993.0000219970866,1645) translate(35.03363715277779 25.27777777777778)"/><use xlink:href="#h" transform="matrix(1,0,0,1,993.0000219970866,1645) translate(61.83485243055556 57.54340277777778)"/><path d="M1228 1646a6 6 0 0 1 6-6h188a6 6 0 0 1 6 6v48a6 6 0 0 1-6 6h-188a6 6 0 0 1-6-6z" stroke="#ba23f6" stroke-width="4" fill-opacity="0"/><use xlink:href="#i" transform="matrix(1,0,0,1,1233.0000219970866,1645) translate(21.643880208333343 34.02777777777778)"/><use xlink:href="#j" transform="matrix(1,0,0,1,1233.0000219970866,1645) translate(76.73285590277779 34.02777777777778)"/><path d="M1468 1646a6 6 0 0 1 6-6h188a6 6 0 0 1 6 6v57.15a6 6 0 0 1-6 6h-188a6 6 0 0 1-6-6z" stroke="#ba23f6" stroke-width="4" fill-opacity="0"/><use xlink:href="#k" transform="matrix(1,0,0,1,1473.0000219970866,1645) translate(9.572482638888886 25.27777777777778)"/><use xlink:href="#l" transform="matrix(1,0,0,1,1473.0000219970866,1645) translate(87.90364583333333 25.27777777777778)"/><use xlink:href="#m" transform="matrix(1,0,0,1,1473.0000219970866,1645) translate(52.834201388888886 57.54340277777778)"/><use xlink:href="#n" transform="matrix(1,0,0,1,1473.0000219970866,1645) translate(89.43359375 57.54340277777778)"/><path d="M1328.97 1619.5h-1.94v-49.58h1.94zm0-102.82h-1.94v-5.55h1.94z" stroke="#ced4db" stroke-width=".05" fill="#ced4db"/><path d="M1328.97 1511.16h-1.94v-1.03h1.94z" fill="#ced4db"/><path stroke="#ced4db" stroke-width=".05" fill="#ced4db"/><path d="M1328 1634.76l-4.63-14.26h9.27z" fill="#ced4db"/><path d="M1328 1637.92l-5.98-18.4h11.96zm-3.3-16.45l3.3 10.14 3.3-10.13zM1328.9 1570.94l-.26 1.06-.42 1-.58.95-.7.83-.84.7-.93.58-1 .42-1.08.26-1.06.08h-228l-.83.07-.75.17-.73.3-.67.4-.6.53-.5.6-.42.67-.3.72-.2.76-.06.83v37.6h-1.94v-37.7l.08-1.04.26-1.07.42-1.02.58-.94.7-.83.84-.7.93-.57 1-.42 1.08-.25 1.06-.08h228l.83-.06.75-.18.73-.3.67-.4.6-.52.5-.6.42-.67.3-.73.2-.77.05-.7h1.95zm.07-54.26h-1.94v-5.55h1.94z" stroke="#ced4db" stroke-width=".05" fill="#ced4db"/><path d="M1328.97 1511.16h-1.94v-1.03h1.94z" fill="#ced4db"/><path stroke="#ced4db" stroke-width=".05" fill="#ced4db"/><path d="M1088 1634.76l-4.63-14.26h9.27z" fill="#ced4db"/><path d="M1088 1637.92l-5.98-18.4h11.96zm-3.3-16.45l3.3 10.14 3.3-10.13z" stroke="#ced4db" stroke-width=".05" fill="#ced4db"/><use xlink:href="#o" transform="matrix(1,0,0,1,1006.1194143567213,1523.654046885574) translate(0 19.375)"/><use xlink:href="#p" transform="matrix(1,0,0,1,1006.1194143567213,1523.654046885574) translate(0 48.4140625)"/><path d="M1329.04 1570.63l.18.77.3.73.42.67.5.6.6.5.68.42.73.3.76.2.84.05h228l1.05.08 1.06.26 1 .43.94.57.83.7.7.84.6.94.4 1 .26 1.08.07 1.05v37.7h-1.94v-37.62l-.07-.82-.18-.77-.3-.73-.42-.67-.5-.6-.6-.52-.68-.4-.73-.3-.76-.2-.84-.06h-228l-1.05-.08-1.06-.26-1-.42-.94-.57-.83-.72-.7-.83-.6-.94-.4-1-.26-1.06-.07-1.02h1.95zm-.07-53.95h-1.94v-5.55h1.94z" stroke="#ced4db" stroke-width=".05" fill="#ced4db"/><path d="M1328.97 1511.16h-1.94v-1.03h1.94z" fill="#ced4db"/><path stroke="#ced4db" stroke-width=".05" fill="#ced4db"/><path d="M1568 1634.76l-4.63-14.26h9.27z" fill="#ced4db"/><path d="M1568 1637.92l-5.98-18.4h11.96zm-3.3-16.45l3.3 10.14 3.3-10.13z" stroke="#ced4db" stroke-width=".05" fill="#ced4db"/><use xlink:href="#q" transform="matrix(1,0,0,1,1473.6670837807355,1518.6080729166667) translate(0 19.375)"/><use xlink:href="#r" transform="matrix(1,0,0,1,1473.6670837807355,1518.6080729166667) translate(0 48.4140625)"/><use xlink:href="#s" transform="matrix(1,0,0,1,1286.3301001220866,1516.6812049211267) translate(0 19.375)"/><use xlink:href="#t" transform="matrix(1,0,0,1,1286.3301001220866,1516.6812049211267) translate(0 48.4140625)"/><path d="M1568 1712.15v35.48" stroke="#ced4db" stroke-width="2" fill="none"/><path d="M1568.97 1712.18h-1.94v-1.03h1.94z" stroke="#ced4db" stroke-width=".05" fill="#ced4db"/><path d="M1568 1762.9l-4.63-14.27h9.27z" stroke="#ced4db" stroke-width="2" fill="#ced4db"/><path d="M1468 1774.13a6 6 0 0 1 6-6h188a6 6 0 0 1 6 6v57.16a6 6 0 0 1-6 6h-188a6 6 0 0 1-6-6z" stroke="#ba23f6" stroke-width="4" fill-opacity="0"/><use xlink:href="#u" transform="matrix(1,0,0,1,1473.0000219970866,1773.134765625) translate(14.363064236111114 36.52777777777778)"/><path d="M1080 1354.13a6 6 0 0 1 6-6h453a6 6 0 0 1 6 6v57.16a6 6 0 0 1-6 6h-453a6 6 0 0 1-6-6z" stroke="#000" stroke-opacity="0" stroke-width="2" fill-opacity="0"/><use xlink:href="#v" transform="matrix(1,0,0,1,1085,1353.134765625) translate(136.05034722222223 25.27777777777778)"/><use xlink:href="#w" transform="matrix(1,0,0,1,1085,1353.134765625) translate(234.54210069444446 25.27777777777778)"/><use xlink:href="#x" transform="matrix(1,0,0,1,1085,1353.134765625) translate(156.56358506944443 57.54340277777778)"/><use xlink:href="#y" transform="matrix(1,0,0,1,1085,1353.134765625) translate(236.29448784722223 57.54340277777778)"/><path d="M986.06 1479.1h-17.02l-.83.08-.75.18-.73.3-.67.4-.6.52-.5.6-.43.67-.3.73-.18.77-.06.82v158l-.1 1.06-.24 1.06-.42 1-.58.94-.7.83-.84.7-.93.58-1 .42-1.08.26-1.06.08H895.8v-1.94h61.16l.83-.07.75-.2.73-.3.67-.4.6-.5.5-.6.43-.68.3-.73.18-.78.06-.82v-158l.1-1.06.24-1.06.42-1 .58-.95.7-.83.84-.7.93-.58 1-.42 1.08-.26 1.06-.08h17.1zm221.44 0h-108.26v-1.94h108.26z" stroke="#ced4db" stroke-width=".05" fill="#ced4db"/><path d="M1222.76 1478.13l-14.26 4.64v-9.27z" fill="#ced4db"/><path d="M1225.92 1478.13l-18.4 5.98v-11.94zm-16.45 3.3l10.14-3.3-10.13-3.3z" stroke="#ced4db" stroke-width=".05" fill="#ced4db"/><path d="M895.83 1649.1h-1.03v-1.94h1.03z" fill="#ced4db"/><path stroke="#ced4db" stroke-width=".05" fill="#ced4db"/><use xlink:href="#z" transform="matrix(1,0,0,1,986.0596295045084,1466.03515625) translate(0 19.375)"/><use xlink:href="#A" transform="matrix(1,0,0,1,986.0596295045084,1466.03515625) translate(52.724609375 19.375)"/><path d="M835.8 1718.13H940a6 6 0 0 0 6-6v-31.55a6 6 0 0 1 6-6h15.5" stroke="#ced4db" stroke-width="2" fill="none"/><path d="M835.83 1719.1h-1.03v-1.94h1.03z" stroke="#ced4db" stroke-width=".05" fill="#ced4db"/><path d="M982.76 1674.58l-14.26 4.63v-9.26z" stroke="#ced4db" stroke-width="2" fill="#ced4db"/><path d="M484.33 1611.5H443v-1.94h41.33zm107.97 0h-23.83v-1.94h23.83z" stroke="#ced4db" stroke-width=".05" fill="#ced4db"/><path d="M443.03 1611.5H442v-1.94h1.03z" fill="#ced4db"/><path stroke="#ced4db" stroke-width=".05" fill="#ced4db"/><path d="M607.56 1610.54l-14.26 4.63v-9.27z" fill="#ced4db"/><path d="M610.72 1610.54l-18.4 5.97v-11.94zm-16.45 3.3l10.14-3.3-10.13-3.3z" stroke="#ced4db" stroke-width=".05" fill="#ced4db"/><use xlink:href="#B" transform="matrix(1,0,0,1,484.3296875,1583.917516252955) translate(0 19.375)"/><use xlink:href="#C" transform="matrix(1,0,0,1,484.3296875,1583.917516252955) translate(0 48.4140625)"/><path d="M652.3 1717.16v1.95h-53.53v-1.94zm-209.3 1.68v-1.94h46.2v1.94z" stroke="#ced4db" stroke-width=".05" fill="#ced4db"/><path d="M443.03 1718.85H442v-1.95h1.03z" fill="#ced4db"/><path stroke="#ced4db" stroke-width=".05" fill="#ced4db"/><path d="M667.56 1718.13l-14.26 4.64v-9.27z" fill="#ced4db"/><path d="M670.72 1718.13l-18.4 5.98v-11.94zm-16.45 3.3l10.14-3.3-10.13-3.3z" stroke="#ced4db" stroke-width=".05" fill="#ced4db"/><use xlink:href="#D" transform="matrix(1,0,0,1,489.1957415852122,1691.2508495862885) translate(0 19.375)"/><use xlink:href="#E" transform="matrix(1,0,0,1,489.1957415852122,1691.2508495862885) translate(0 48.4140625)"/><path d="M245 1354.13a6 6 0 0 1 6-6h258a6 6 0 0 1 6 6v88a6 6 0 0 1-6 6H251a6 6 0 0 1-6-6z" stroke="#000" stroke-opacity="0" stroke-width="2" fill-opacity="0"/><g><use xlink:href="#e" transform="matrix(1,0,0,1,249.99999999999994,1353.134765625) translate(26.48980034722223 35.59027777777778)"/><use xlink:href="#F" transform="matrix(1,0,0,1,249.99999999999994,1353.134765625) translate(98.28884548611111 35.59027777777778)"/><use xlink:href="#G" transform="matrix(1,0,0,1,249.99999999999994,1353.134765625) translate(91.49088541666667 67.85590277777777)"/></g><path d="M280 1581.96a6 6 0 0 1 6-6h148a6 6 0 0 1 6 6v57.15a6 6 0 0 1-6 6H286a6 6 0 0 1-6-6z" stroke="#9391ff" stroke-width="4" fill-opacity="0"/><g><use xlink:href="#H" transform="matrix(1,0,0,1,285,1580.9598339612883) translate(10.796440972222229 25.27777777777778)"/><use xlink:href="#I" transform="matrix(1,0,0,1,285,1580.9598339612883) translate(57.253689236111114 57.54340277777778)"/></g><path d="M280 1689.3a6 6 0 0 1 6-6h148a6 6 0 0 1 6 6v57.15a6 6 0 0 1-6 6H286a6 6 0 0 1-6-6z" stroke="#9391ff" stroke-width="4" fill-opacity="0"/><g><use xlink:href="#J" transform="matrix(1,0,0,1,285,1688.2931672946218) translate(15.033637152777793 25.27777777777778)"/><use xlink:href="#K" transform="matrix(1,0,0,1,285,1688.2931672946218) translate(45.10633680555556 57.54340277777778)"/></g><path d="M259.5 1610.54h-36.3" stroke="#dfe3e8" stroke-width="2" fill="none"/><path d="M274.76 1610.54l-14.26 4.63v-9.27z" stroke="#dfe3e8" stroke-width="2" fill="#dfe3e8"/><path d="M223.23 1611.5h-1.03v-1.94h1.03z" stroke="#dfe3e8" stroke-width=".05" fill="#dfe3e8"/><path d="M80.2 1581.96a6 6 0 0 1 6-6h128a6 6 0 0 1 6 6v57.15a6 6 0 0 1-6 6h-128a6 6 0 0 1-6-6z" stroke="#9391ff" stroke-width="4" fill-opacity="0"/><g><use xlink:href="#L" transform="matrix(1,0,0,1,85.19999999999993,1580.9598339612883) translate(43.62955729166667 25.27777777777778)"/><use xlink:href="#M" transform="matrix(1,0,0,1,85.19999999999993,1580.9598339612883) translate(32.32855902777778 57.54340277777778)"/></g><path d="M930.4 1339.47a6 6 0 0 1 6-6H1694a6 6 0 0 1 6 6v501.06a6 6 0 0 1-6 6H936.4a6 6 0 0 1-6-6z" fill-opacity="0"/><path d="M933.68 1334.12l.87-.36.9-.22.95-.07h3m3.98 0h5.98m4 0h5.97m4 0h5.97m3.98 0h5.98m4 0h5.97m4 0h5.97m4 0h5.97m4 0h5.97m4 0h5.97m4 0h5.98m3.98 0h5.98m4 0h5.97m4 0h5.98m4 0h5.97m4 0h5.97m3.98 0h5.98m4 0h5.97m4 0h5.97m4 0h5.97m3.98 0h5.98m4 0h5.97m3.98 0h6m3.98 0h5.98m4 0h5.97m4 0h5.97m4 0h5.97m4 0h5.97m4 0h5.97m4 0h5.97m4 0h5.97m4 0h5.97m4 0h5.98m4 0h5.97m4 0h5.97m3.98 0h6m3.97 0h5.98m4 0h5.97m4 0h5.97m3.98 0h5.98m4 0h5.97m3.98 0h6m3.98 0h5.98m4 0h5.97m4 0h5.97m4 0h5.97m4 0h5.97m3.98 0h6m3.97 0h5.97m4 0h5.97m4 0h5.97m4 0h5.98m4 0h5.97m4 0h5.97m3.98 0h5.98m4 0h5.97m4 0h5.97m4 0h5.97m3.98 0h5.98m4 0h5.97m4 0h5.97m3.98 0h5.98m4 0h5.97m4 0h5.97m4 0h5.97m4 0h5.97m4 0h5.97m4 0h5.98m3.98 0h5.98m4 0h5.97m4 0h5.98m4 0h5.97m4 0h5.97m3.98 0h6m3.97 0h5.98m4 0h5.97m4 0h2.98l.94.07.9.22.88.36m2.63 2.62l.36.87.23.93.07.94v3m0 4v6.02m0 4v6.02m0 4v6.02m0 4v6.02m0 4v6.02m0 4v6.02m0 4v6.02m0 4v6.02m0 4v6.02m0 4v6.03m0 4v6m0 4.02v6m0 4.02v6m0 4.02v6m0 4.02v6m0 4.02v6m0 4.02v6.02m0 4v6.02m0 4v6.02m0 4v6.02m0 4v6.02m0 4v6.02m0 4v6.02m0 4v6.02m0 4v6.03m0 4.02v6m0 4.02v6m0 4.02v6m0 4.02v6m0 4.02v6m0 4.02v6m0 4.02v6.02m0 4v6.02m0 4v6.02m0 4v6.02m0 4v6.02m0 4v6.02m0 4v6.02m0 4v6.03m0 4v6.03m0 4v6.02m0 4v6.02m0 4v6.02m0 4v6m0 4.02v6m0 4.02v6m0 4.02v6.02m0 4v6.02m0 4v6.02m0 4v3l-.07.95-.22.92-.35.86m-2.63 2.62l-.87.36-.9.22-.95.07h-3m-3.98 0h-5.98m-4 0h-5.97m-3.98 0h-6m-3.98 0h-5.98m-4 0h-5.97m-4 0h-5.97m-4 0h-5.97m-4 0h-5.97m-3.98 0h-6m-3.97 0h-5.97m-4 0h-5.97m-4 0h-5.97m-4 0h-5.98m-4 0h-5.97m-4 0h-5.97m-3.98 0h-5.98m-4 0h-5.97m-4 0h-5.97m-4 0h-5.97m-3.98 0h-5.98m-4 0h-5.97m-4 0h-5.97m-3.98 0h-5.98m-4 0h-5.97m-4 0h-5.97m-4 0h-5.97m-4 0h-5.97m-3.98 0h-6m-3.97 0h-5.98m-3.98 0h-5.98m-4 0H1382m-4 0h-5.98m-4 0h-5.97m-4 0h-5.97m-3.98 0h-5.98m-4 0h-5.97m-4 0h-5.97m-4 0h-5.97m-3.98 0h-5.98m-4 0h-5.97m-3.98 0h-6m-3.98 0h-5.98m-4 0h-5.97m-4 0h-5.97m-4 0h-5.97m-4 0h-5.97m-4 0h-5.97m-4 0h-5.97m-4 0h-5.97m-4 0h-5.97m-4 0h-5.98m-4 0h-5.97m-4 0h-5.97m-3.98 0h-6m-3.97 0h-5.98m-4 0h-5.97m-4 0h-5.97m-3.98 0h-5.98m-4 0h-5.97m-3.98 0h-6m-3.98 0h-5.98m-4 0h-5.97m-4 0H1063m-4 0h-5.97m-4 0h-5.97m-3.98 0h-6m-3.97 0h-5.97m-4 0h-5.97m-4 0h-5.97m-4 0h-5.98m-4 0h-5.97m-4 0h-5.97m-3.98 0h-5.98m-4 0h-5.97m-4 0h-5.97m-4 0h-2.98l-.94-.07-.9-.22-.88-.36m-2.63-2.62l-.36-.87-.23-.93-.07-.94v-3m0-4v-6.02m0-4v-6.02m0-4v-6.02m0-4v-6.02m0-4v-6.02m0-4v-6.02m0-4v-6.02m0-4v-6.02m0-4v-6.02m0-4v-6.03m0-4v-6m0-4.02v-6m0-4.02v-6m0-4.02v-6m0-4.02v-6m0-4.02v-6m0-4.02v-6.02m0-4v-6.02m0-4v-6.02m0-4v-6.02m0-4v-6.02m0-4v-6.02m0-4v-6.02m0-4V1597m0-4v-6.03m0-4.02v-6m0-4.02v-6m0-4.02v-6m0-4.02v-6m0-4.02v-6m0-4.02v-6m0-4.02v-6.02m0-4v-6.02m0-4v-6.02m0-4v-6.02m0-4v-6.02m0-4v-6.02m0-4v-6.02m0-4v-6.03m0-4v-6.03m0-4v-6.02m0-4v-6.02m0-4v-6.02m0-4v-6m0-4.02v-6m0-4.02v-6m0-4.02v-6.02m0-4v-6.02m0-4v-6.02m0-4v-3l.07-.95.22-.92.35-.86" stroke="#979ea8" stroke-width="2" fill="none"/><path d="M245 1339.47a6 6 0 0 1 6-6h318.2a6 6 0 0 1 6 6v501.06a6 6 0 0 1-6 6H251a6 6 0 0 1-6-6z" fill-opacity="0"/><path d="M248.28 1334.12l.87-.36.9-.22.95-.07h2.98m3.98 0h5.97m3.97 0h5.97m3.98 0h5.96m4 0h5.96m3.98 0h5.96m3.98 0h5.97m3.97 0h5.97m3.97 0h5.96m3.98 0h5.98m3.97 0h5.97m3.98 0h5.96m3.98 0h5.97m4 0h5.95m3.98 0h5.97m3.97 0h5.97m3.98 0h5.96m3.98 0h5.97m3.97 0h5.97m3.98 0h5.96m4 0h5.96m3.98 0h5.96m3.98 0h5.97m3.97 0h5.97m3.97 0h5.96m3.98 0h5.98m3.97 0h5.97m3.98 0h5.96m3.98 0h5.97m4 0h5.95m3.98 0h5.97m3.97 0h5.97m3.98 0h2.98l.94.07.9.22.88.36m2.63 2.62l.36.87.23.93.07.94v3m0 4v6.02m0 4v6.02m0 4v6.02m0 4v6.02m0 4v6.02m0 4v6.02m0 4v6.02m0 4v6.02m0 4v6.02m0 4v6.03m0 4v6m0 4.02v6m0 4.02v6m0 4.02v6m0 4.02v6m0 4.02v6m0 4.02v6.02m0 4v6.02m0 4v6.02m0 4v6.02m0 4v6.02m0 4v6.02m0 4v6.02m0 4v6.02m0 4v6.03m0 4.02v6m0 4.02v6m0 4.02v6m0 4.02v6m0 4.02v6m0 4.02v6m0 4.02v6.02m0 4v6.02m0 4v6.02m0 4v6.02m0 4v6.02m0 4v6.02m0 4v6.02m0 4v6.03m0 4v6.03m0 4v6.02m0 4v6.02m0 4v6.02m0 4v6m0 4.02v6m0 4.02v6m0 4.02v6.02m0 4v6.02m0 4v6.02m0 4v3l-.07.95-.22.92-.35.86m-2.63 2.62l-.87.36-.9.22-.95.07h-2.98m-3.98 0h-5.97m-3.97 0h-5.97m-3.98 0h-5.96m-4 0h-5.96m-3.98 0h-5.96m-3.98 0h-5.97m-3.97 0h-5.97m-3.97 0h-5.96m-3.98 0h-5.98m-3.97 0h-5.97m-3.98 0h-5.96m-3.98 0h-5.97m-4 0h-5.95m-3.98 0H427m-3.97 0h-5.97m-3.98 0h-5.96m-3.98 0h-5.97m-3.97 0h-5.97m-3.98 0h-5.96m-4 0h-5.96m-3.98 0h-5.96m-3.98 0h-5.97m-3.97 0h-5.97m-3.97 0h-5.96m-3.98 0h-5.98m-3.97 0h-5.97m-3.98 0h-5.96m-3.98 0h-5.97m-4 0h-5.95m-3.98 0h-5.97m-3.97 0h-5.97m-3.98 0H251l-.94-.07-.9-.22-.88-.36m-2.63-2.62l-.36-.87-.23-.93-.07-.94v-3m0-4v-6.02m0-4v-6.02m0-4v-6.02m0-4v-6.02m0-4v-6.02m0-4v-6.02m0-4v-6.02m0-4v-6.02m0-4v-6.02m0-4v-6.03m0-4v-6m0-4.02v-6m0-4.02v-6m0-4.02v-6m0-4.02v-6m0-4.02v-6m0-4.02v-6.02m0-4v-6.02m0-4v-6.02m0-4v-6.02m0-4v-6.02m0-4v-6.02m0-4v-6.02m0-4V1597m0-4v-6.03m0-4.02v-6m0-4.02v-6m0-4.02v-6m0-4.02v-6m0-4.02v-6m0-4.02v-6m0-4.02v-6.02m0-4v-6.02m0-4v-6.02m0-4v-6.02m0-4v-6.02m0-4v-6.02m0-4v-6.02m0-4v-6.03m0-4v-6.03m0-4v-6.02m0-4v-6.02m0-4v-6.02m0-4v-6m0-4.02v-6m0-4.02v-6m0-4.02v-6.02m0-4v-6.02m0-4v-6.02m0-4v-3l.07-.95.22-.92.35-.86" stroke="#979ea8" stroke-width="2" fill="none"/><path d="M573.9 1339.47a6 6 0 0 1 6-6h343.2a6 6 0 0 1 6 6v501.06a6 6 0 0 1-6 6H579.9a6 6 0 0 1-6-6z" fill-opacity="0"/><path d="M577.18 1334.12l.87-.36.9-.22.95-.07h3.03m4.04 0h6.05m4.04 0h6.06m4.03 0h6.06m4.05 0h6.05m4.04 0h6.06m4.04 0h6.05m4.03 0h6.06m4.02 0h6.06m4.04 0h6.05m4.04 0h6.07m4.04 0h6.06m4.04 0h6.06m4.04 0h6.05m4.04 0h6.05m4.03 0h6.06m4.04 0h6.05m4.04 0h6.06m4.04 0h6.05m4.04 0h6.06m4.03 0h6.06m4.05 0h6.05m4.04 0H805m4.04 0h6.05m4.03 0h6.06m4.02 0h6.06m4.04 0h6.05m4.04 0h6.07m4.04 0h6.06m4.04 0h6.06m4.04 0h6.05m4.04 0h6.05m4.03 0h6.06m4.04 0h6.05m4.04 0h3.03l.94.07.9.22.88.36m2.63 2.62l.36.87.23.93.07.94v3m0 4v6.02m0 4v6.02m0 4v6.02m0 4v6.02m0 4v6.02m0 4v6.02m0 4v6.02m0 4v6.02m0 4v6.02m0 4v6.03m0 4v6m0 4.02v6m0 4.02v6m0 4.02v6m0 4.02v6m0 4.02v6m0 4.02v6.02m0 4v6.02m0 4v6.02m0 4v6.02m0 4v6.02m0 4v6.02m0 4v6.02m0 4v6.02m0 4v6.03m0 4.02v6m0 4.02v6m0 4.02v6m0 4.02v6m0 4.02v6m0 4.02v6m0 4.02v6.02m0 4v6.02m0 4v6.02m0 4v6.02m0 4v6.02m0 4v6.02m0 4v6.02m0 4v6.03m0 4v6.03m0 4v6.02m0 4v6.02m0 4v6.02m0 4v6m0 4.02v6m0 4.02v6m0 4.02v6.02m0 4v6.02m0 4v6.02m0 4v3l-.07.95-.22.92-.35.86m-2.63 2.62l-.87.36-.9.22-.95.07h-3.03m-4.04 0h-6.05m-4.04 0h-6.06m-4.03 0h-6.06m-4.05 0h-6.05m-4.04 0h-6.06m-4.04 0h-6.05m-4.03 0h-6.06m-4.02 0h-6.06m-4.04 0h-6.05m-4.04 0h-6.07m-4.04 0h-6.06m-4.04 0h-6.06m-4.04 0h-6.05m-4.04 0h-6.05m-4.03 0h-6.06m-4.04 0h-6.05m-4.04 0h-6.06m-4.04 0h-6.05m-4.04 0h-6.06m-4.03 0h-6.06m-4.05 0h-6.05m-4.04 0H698m-4.04 0h-6.05m-4.03 0h-6.06m-4.02 0h-6.06m-4.04 0h-6.05m-4.04 0h-6.07m-4.04 0h-6.06m-4.04 0h-6.06m-4.04 0h-6.05m-4.04 0h-6.05m-4.03 0h-6.06m-4.04 0h-6.05m-4.04 0h-3.03l-.94-.07-.9-.22-.88-.36m-2.63-2.62l-.36-.87-.23-.93-.07-.94v-3m0-4v-6.02m0-4v-6.02m0-4v-6.02m0-4v-6.02m0-4v-6.02m0-4v-6.02m0-4v-6.02m0-4v-6.02m0-4v-6.02m0-4v-6.03m0-4v-6m0-4.02v-6m0-4.02v-6m0-4.02v-6m0-4.02v-6m0-4.02v-6m0-4.02v-6.02m0-4v-6.02m0-4v-6.02m0-4v-6.02m0-4v-6.02m0-4v-6.02m0-4v-6.02m0-4V1597m0-4v-6.03m0-4.02v-6m0-4.02v-6m0-4.02v-6m0-4.02v-6m0-4.02v-6m0-4.02v-6m0-4.02v-6.02m0-4v-6.02m0-4v-6.02m0-4v-6.02m0-4v-6.02m0-4v-6.02m0-4v-6.02m0-4v-6.03m0-4v-6.03m0-4v-6.02m0-4v-6.02m0-4v-6.02m0-4v-6m0-4.02v-6m0-4.02v-6m0-4.02v-6.02m0-4v-6.02m0-4v-6.02m0-4v-3l.07-.95.22-.92.35-.86" stroke="#979ea8" stroke-width="2" fill="none"/><defs><path fill="#fff" d="M180 0v-1490h510c348 0 508 194 508 460 0 198-88 351-276 417L1256 0h-220L726-579c-117 2-238 0-356 1V0H180zm190-747h312c235 0 327-108 327-283 0-177-92-293-329-293H370v576" id="N"/><path fill="#fff" d="M537 14c-226 0-379-139-379-422v-710h180v695c0 172 97 275 253 275 160 0 281-109 281-300v-670h181V0H879v-209C806-46 684 14 537 14" id="O"/><path fill="#fff" d="M338-670V0H158v-1118h173l1 207c72-158 192-221 342-221 226 0 378 139 378 422V0H872v-695c0-172-96-275-252-275-161 0-282 109-282 300" id="P"/><path fill="#fff" d="M628 24c-324 0-524-230-524-574 0-343 198-582 503-582 237 0 487 146 487 559v75H286c9 234 145 362 343 362 132 0 231-58 273-172l174 48C1024-91 857 24 628 24zM287-650h624c-17-190-120-322-304-322-192 0-309 151-320 322" id="Q"/><path fill="#fff" d="M158 0v-1118h174v172h12c41-113 157-188 290-188 26 0 70 2 91 3v181c-11-2-60-10-108-10-161 0-279 109-279 260V0H158" id="R"/><g id="a"><use transform="matrix(0.010850694444444444,0,0,0.010850694444444444,0,0)" xlink:href="#N"/><use transform="matrix(0.010850694444444444,0,0,0.010850694444444444,14.301215277777777,0)" xlink:href="#O"/><use transform="matrix(0.010850694444444444,0,0,0.010850694444444444,27.44140625,0)" xlink:href="#P"/><use transform="matrix(0.010850694444444444,0,0,0.010850694444444444,40.57074652777778,0)" xlink:href="#P"/><use transform="matrix(0.010850694444444444,0,0,0.010850694444444444,53.70008680555556,0)" xlink:href="#Q"/><use transform="matrix(0.010850694444444444,0,0,0.010850694444444444,66.65581597222223,0)" xlink:href="#R"/></g><path fill="#fff" d="M657 26c-323 0-524-166-541-416h195c15 169 171 246 346 246 202 0 356-106 356-265 5-203-294-238-475-293-239-73-380-191-380-389 0-252 224-419 512-419 294 0 499 171 508 396H992c-17-145-151-228-328-228-193 0-321 102-321 242 0 156 175 211 284 241l149 41c160 44 422 134 422 412 0 244-197 432-541 432" id="S"/><path fill="#fff" d="M598-1118v154H368v674c0 100 37 144 132 144 23 0 62-6 92-12L629-6c-37 13-88 20-134 20-193 0-307-107-307-290v-688H20v-154h168v-266h180v266h230" id="T"/><path fill="#fff" d="M471 26C259 26 90-98 90-318c0-256 228-303 435-329 202-27 287-16 287-108 0-139-79-219-234-219-161 0-248 86-283 164l-173-57c86-203 278-265 451-265 150 0 419 46 419 395V0H815v-152h-12C765-73 660 26 471 26zm31-159c199 0 310-134 310-271v-155c-30 35-226 55-295 64-131 17-246 59-246 186 0 116 97 176 231 176" id="U"/><path fill="#fff" d="M677 24c-213 0-288-135-325-197h-20V0H158v-1490h180v551h14c37-59 106-193 324-193 279 0 474 222 474 576 0 356-194 580-473 580zm-27-161c209 0 317-186 317-421 0-232-105-413-317-413-206 0-314 166-314 413 0 249 111 421 314 421" id="V"/><path fill="#fff" d="M338-1490V0H158v-1490h180" id="W"/><path fill="#fff" d="M180 0v-1490h190v644h782v-644h190V0h-190v-678H370V0H180" id="X"/><path fill="#fff" d="M180 0v-1490h190v1322h690V0H180" id="Y"/><path fill="#fff" d="M784 20c-382 0-662-292-662-764 0-473 280-766 662-766s660 293 660 766c0 472-278 764-660 764zm0-176c266 0 475-207 475-588 0-383-209-590-475-590-268 0-477 208-477 590 0 380 209 588 477 588" id="Z"/><g id="b"><use transform="matrix(0.010850694444444444,0,0,0.010850694444444444,0,0)" xlink:href="#S"/><use transform="matrix(0.010850694444444444,0,0,0.010850694444444444,14.2578125,0)" xlink:href="#T"/><use transform="matrix(0.010850694444444444,0,0,0.010850694444444444,21.63628472222222,0)" xlink:href="#U"/><use transform="matrix(0.010850694444444444,0,0,0.010850694444444444,34.11458333333333,0)" xlink:href="#V"/><use transform="matrix(0.010850694444444444,0,0,0.010850694444444444,47.72135416666666,0)" xlink:href="#W"/><use transform="matrix(0.010850694444444444,0,0,0.010850694444444444,53.1032986111111,0)" xlink:href="#Q"/><use transform="matrix(0.010850694444444444,0,0,0.010850694444444444,66.05902777777777,0)" xlink:href="#X"/><use transform="matrix(0.010850694444444444,0,0,0.010850694444444444,82.57378472222221,0)" xlink:href="#Y"/><use transform="matrix(0.010850694444444444,0,0,0.010850694444444444,94.50954861111111,0)" xlink:href="#Z"/></g><path fill="#fff" d="M783 20c-382 0-661-292-661-764 0-473 279-766 661-766 302 0 548 182 601 489h-190c-42-204-217-313-411-313-268 0-476 208-476 590 0 381 209 588 476 588 195 0 369-110 411-313h190c-52 303-296 489-601 489" id="aa"/><path fill="#fff" d="M338-670V0H158v-1490h180v566c73-149 190-208 336-208 226 0 379 139 379 422V0H872v-695c0-172-96-275-252-275-161 0-282 109-282 300" id="ab"/><path fill="#fff" d="M613 24c-304 0-509-231-509-576 0-350 205-580 509-580 216 0 392 114 453 309l-173 49c-33-115-133-197-280-197-223 0-326 196-326 419 0 220 103 415 326 415 150 0 252-85 285-206l172 49C1010-95 832 24 613 24" id="ac"/><path fill="#fff" d="M158 0v-1490h180v865h22l478-493h223L593-638 1096 0H865L456-523 338-412V0H158" id="ad"/><path fill="#fff" d="M158 418v-1536h174v179h20c37-59 106-193 324-193 279 0 474 222 474 576 0 356-194 580-473 580-213 0-288-135-325-197h-14v591H158zm492-555c209 0 317-186 317-421 0-232-105-413-317-413-206 0-314 166-314 413 0 249 111 421 314 421" id="ae"/><path fill="#fff" d="M613 24c-304 0-509-231-509-576 0-350 205-580 509-580 305 0 511 230 511 580 0 345-206 576-511 576zm0-161c226 0 329-195 329-415 0-222-103-419-329-419-223 0-326 196-326 419 0 220 103 415 326 415" id="af"/><path fill="#fff" d="M158 0v-1118h180V0H158zm91-1301c-68 0-125-53-125-119s57-119 125-119c69 0 126 53 126 119s-57 119-126 119" id="ag"/><g id="c"><use transform="matrix(0.010850694444444444,0,0,0.010850694444444444,0,0)" xlink:href="#aa"/><use transform="matrix(0.010850694444444444,0,0,0.010850694444444444,16.23263888888889,0)" xlink:href="#ab"/><use transform="matrix(0.010850694444444444,0,0,0.010850694444444444,29.37282986111111,0)" xlink:href="#Q"/><use transform="matrix(0.010850694444444444,0,0,0.010850694444444444,42.32855902777778,0)" xlink:href="#ac"/><use transform="matrix(0.010850694444444444,0,0,0.010850694444444444,55.02387152777778,0)" xlink:href="#ad"/><use transform="matrix(0.010850694444444444,0,0,0.010850694444444444,67.22005208333333,0)" xlink:href="#ae"/><use transform="matrix(0.010850694444444444,0,0,0.010850694444444444,80.82682291666666,0)" xlink:href="#af"/><use transform="matrix(0.010850694444444444,0,0,0.010850694444444444,94.15147569444441,0)" xlink:href="#ag"/><use transform="matrix(0.010850694444444444,0,0,0.010850694444444444,99.53342013888887,0)" xlink:href="#P"/><use transform="matrix(0.010850694444444444,0,0,0.010850694444444444,112.66276041666664,0)" xlink:href="#T"/></g><path fill="#fff" d="M218-607c0-325 108-727 258-974h175c-155 315-250 682-250 974 0 265 78 531 250 886H476C306-10 218-315 218-607" id="ah"/><path fill="#fff" d="M98-1322v-168h1126v168H757V0H567v-1322H98" id="ai"/><path fill="#fff" d="M538 24C308 24 148-78 108-271l171-41c32 123 123 178 257 178 156 0 256-77 256-169 0-77-54-128-164-154l-186-44c-203-48-300-148-300-305 0-192 176-326 414-326 230 0 351 112 402 269l-163 42c-31-80-94-158-238-158-133 0-233 69-233 162 0 83 57 129 188 160l169 40c203 48 298 149 298 302 0 196-179 339-441 339" id="aj"/><path fill="#fff" d="M96 279C273-86 346-350 346-607c0-292-95-659-250-974h175c150 246 258 650 258 974 0 297-91 602-258 886H96" id="ak"/><g id="d"><use transform="matrix(0.010850694444444444,0,0,0.010850694444444444,0,0)" xlink:href="#ah"/><use transform="matrix(0.010850694444444444,0,0,0.010850694444444444,8.10546875,0)" xlink:href="#ai"/><use transform="matrix(0.010850694444444444,0,0,0.010850694444444444,20.713975694444443,0)" xlink:href="#Q"/><use transform="matrix(0.010850694444444444,0,0,0.010850694444444444,33.66970486111111,0)" xlink:href="#P"/><use transform="matrix(0.010850694444444444,0,0,0.010850694444444444,46.799045138888886,0)" xlink:href="#aj"/><use transform="matrix(0.010850694444444444,0,0,0.010850694444444444,58.52864583333333,0)" xlink:href="#af"/><use transform="matrix(0.010850694444444444,0,0,0.010850694444444444,71.8532986111111,0)" xlink:href="#R"/><use transform="matrix(0.010850694444444444,0,0,0.010850694444444444,80.21918402777777,0)" xlink:href="#aj"/><use transform="matrix(0.010850694444444444,0,0,0.010850694444444444,91.94878472222221,0)" xlink:href="#T"/><use transform="matrix(0.010850694444444444,0,0,0.010850694444444444,99.00173611111111,0)" xlink:href="#af"/><use transform="matrix(0.010850694444444444,0,0,0.010850694444444444,112.32638888888887,0)" xlink:href="#R"/><use transform="matrix(0.010850694444444444,0,0,0.010850694444444444,120.32335069444441,0)" xlink:href="#Q"/><use transform="matrix(0.010850694444444444,0,0,0.010850694444444444,133.02951388888886,0)" xlink:href="#ak"/></g><path fill="#fff" d="M789 20C394 20 94-260 94-744c0-487 300-766 695-766s695 279 695 766c0 485-300 764-695 764zm0-271c231 0 385-174 385-493 0-321-154-495-385-495s-385 175-385 495c0 319 154 493 385 493" id="al"/><path fill="#fff" d="M128 0v-1118h290v195h12c54-169 184-238 367-200v268c-27-8-86-15-130-15-138 0-239 95-239 234V0H128" id="am"/><path fill="#fff" d="M754 19C571 19 479-89 437-179h-14V0H128v-1490h300v560h9c41-89 129-202 319-202 248 0 453 193 453 575 0 372-197 576-455 576zm-92-241c156 0 240-139 240-336 0-196-83-334-240-334-154 0-241 131-241 334 0 202 88 336 241 336" id="an"/><path fill="#fff" d="M440 22C227 22 68-92 68-313c0-250 202-322 422-343 195-21 271-24 271-105 0-95-63-149-175-149-116 0-187 57-211 129l-275-46c57-194 237-305 487-305 240 0 474 108 474 379V0H777v-155h-10C713-51 605 22 440 22zm85-211c140 0 238-93 238-211v-121c-37 26-156 42-222 51-111 16-185 59-185 149 0 87 70 132 169 132" id="ao"/><path fill="#fff" d="M42 0l360-574-338-544h324c72 124 151 261 209 394 58-134 140-271 215-394h318L785-570 1146 0H824c-79-136-169-280-234-425C528-278 439-134 360 0H42" id="ap"/><g id="e"><use transform="matrix(0.010850694444444444,0,0,0.010850694444444444,0,0)" xlink:href="#al"/><use transform="matrix(0.010850694444444444,0,0,0.010850694444444444,17.122395833333332,0)" xlink:href="#am"/><use transform="matrix(0.010850694444444444,0,0,0.010850694444444444,26.51909722222222,0)" xlink:href="#an"/><use transform="matrix(0.010850694444444444,0,0,0.010850694444444444,40.744357638888886,0)" xlink:href="#ao"/><use transform="matrix(0.010850694444444444,0,0,0.010850694444444444,53.64583333333333,0)" xlink:href="#ap"/></g><path fill="#fff" d="M681 22C323 22 94-145 85-462h297c10 151 131 226 296 226 163 0 271-77 271-190 0-102-95-149-257-189l-164-41c-252-61-403-188-403-405 0-269 236-449 560-449 330 0 546 183 551 445H941c-11-119-106-188-259-188-156 0-244 72-244 172-3 156 226 185 373 221 250 61 445 186 445 436 0 271-213 446-575 446" id="aq"/><path fill="#fff" d="M633 22C291 22 81-200 81-553c0-345 210-579 537-579 292 0 525 185 525 567v84H378c7 183 109 277 260 277 105 0 184-46 216-132l272 51C1071-99 893 22 633 22zM380-669h474c-15-146-94-237-233-237-143 0-229 99-241 237" id="ar"/><path fill="#fff" d="M128 0v-1118h300V0H128zm150-1264c-91 0-165-68-165-154 0-85 74-154 165-154 90 0 165 69 165 154 0 86-75 154-165 154" id="as"/><path fill="#fff" d="M428-1490V0H128v-1490h300" id="at"/><path fill="#fff" d="M120 0v-182l551-686v-8H137v-242h897v199L514-250v8h539V0H120" id="au"/><path fill="#fff" d="M683-1118v229H474v562c0 71 29 104 102 104 23 0 73-7 95-13l43 225C647 9 580 16 520 16 296 16 174-96 174-301v-588H20v-229h154v-266h300v266h209" id="av"/><path fill="#fff" d="M628 22C291 22 81-210 81-554c0-346 210-578 547-578 336 0 547 232 547 578 0 344-211 576-547 576zm0-236c160 0 242-146 242-341 0-197-82-341-242-341S387-753 387-555c0 195 81 341 241 341" id="aw"/><path fill="#fff" d="M428-647V0H128v-1118h283l4 231c63-156 176-245 348-245 232 0 384 159 384 421V0H847v-659c0-139-76-222-202-222-128 0-217 86-217 234" id="ax"/><g id="f"><use transform="matrix(0.010850694444444444,0,0,0.010850694444444444,0,0)" xlink:href="#aq"/><use transform="matrix(0.010850694444444444,0,0,0.010850694444444444,14.55078125,0)" xlink:href="#ar"/><use transform="matrix(0.010850694444444444,0,0,0.010850694444444444,27.78862847222222,0)" xlink:href="#am"/><use transform="matrix(0.010850694444444444,0,0,0.010850694444444444,37.00086805555556,0)" xlink:href="#as"/><use transform="matrix(0.010850694444444444,0,0,0.010850694444444444,43.02300347222222,0)" xlink:href="#ao"/><use transform="matrix(0.010850694444444444,0,0,0.010850694444444444,55.924479166666664,0)" xlink:href="#at"/><use transform="matrix(0.010850694444444444,0,0,0.010850694444444444,61.94661458333333,0)" xlink:href="#as"/><use transform="matrix(0.010850694444444444,0,0,0.010850694444444444,67.96875,0)" xlink:href="#au"/><use transform="matrix(0.010850694444444444,0,0,0.010850694444444444,80.69661458333333,0)" xlink:href="#ao"/><use transform="matrix(0.010850694444444444,0,0,0.010850694444444444,93.59809027777777,0)" xlink:href="#av"/><use transform="matrix(0.010850694444444444,0,0,0.010850694444444444,101.73611111111111,0)" xlink:href="#as"/><use transform="matrix(0.010850694444444444,0,0,0.010850694444444444,107.75824652777777,0)" xlink:href="#aw"/><use transform="matrix(0.010850694444444444,0,0,0.010850694444444444,121.38671875,0)" xlink:href="#ax"/></g><path fill="#fff" d="M135 0v-1490h980v253H440v416h609v249H440V0H135" id="ay"/><path fill="#fff" d="M128 0v-1118h278l12 217c60-163 185-234 319-234 143 0 236 81 288 251 63-172 205-251 359-251 205 0 357 138 357 381V0h-301v-697c0-126-76-187-177-187-114 0-184 79-184 196V0H789v-705c0-109-72-179-174-179-106 0-187 74-187 208V0H128" id="az"/><g id="g"><use transform="matrix(0.010850694444444444,0,0,0.010850694444444444,0,0)" xlink:href="#ay"/><use transform="matrix(0.010850694444444444,0,0,0.010850694444444444,12.40234375,0)" xlink:href="#aw"/><use transform="matrix(0.010850694444444444,0,0,0.010850694444444444,26.03081597222222,0)" xlink:href="#am"/><use transform="matrix(0.010850694444444444,0,0,0.010850694444444444,35.24305555555556,0)" xlink:href="#az"/><use transform="matrix(0.010850694444444444,0,0,0.010850694444444444,55.52300347222222,0)" xlink:href="#ao"/><use transform="matrix(0.010850694444444444,0,0,0.010850694444444444,68.42447916666667,0)" xlink:href="#av"/></g><path fill="#fff" d="M577 24c-279 0-473-224-473-580 0-354 195-576 474-576 218 0 287 134 324 193h14v-551h180V0H922v-173h-20C865-111 790 24 577 24zm27-161c203 0 314-172 314-421 0-247-108-413-314-413-212 0-317 181-317 413 0 235 108 421 317 421" id="aA"/><g id="h"><use transform="matrix(0.010850694444444444,0,0,0.010850694444444444,0,0)" xlink:href="#W"/><use transform="matrix(0.010850694444444444,0,0,0.010850694444444444,5.381944444444445,0)" xlink:href="#af"/><use transform="matrix(0.010850694444444444,0,0,0.010850694444444444,18.92361111111111,0)" xlink:href="#U"/><use transform="matrix(0.010850694444444444,0,0,0.010850694444444444,31.40190972222222,0)" xlink:href="#aA"/><use transform="matrix(0.010850694444444444,0,0,0.010850694444444444,45.00868055555556,0)" xlink:href="#Q"/><use transform="matrix(0.010850694444444444,0,0,0.010850694444444444,57.96440972222222,0)" xlink:href="#R"/></g><g id="i"><use transform="matrix(0.010850694444444444,0,0,0.010850694444444444,0,0)" xlink:href="#X"/><use transform="matrix(0.010850694444444444,0,0,0.010850694444444444,16.514756944444443,0)" xlink:href="#af"/><use transform="matrix(0.010850694444444444,0,0,0.010850694444444444,29.83940972222222,0)" xlink:href="#aj"/><use transform="matrix(0.010850694444444444,0,0,0.010850694444444444,41.569010416666664,0)" xlink:href="#T"/></g><path fill="#fff" d="M65 0l393-574-370-544h210c88 136 192 297 267 435 67-142 176-302 264-435h206L661-564 1053 0H844c-94-144-206-310-287-458C484-308 366-142 273 0H65" id="aB"/><g id="j"><use transform="matrix(0.010850694444444444,0,0,0.010850694444444444,0,0)" xlink:href="#Q"/><use transform="matrix(0.010850694444444444,0,0,0.010850694444444444,12.456597222222221,0)" xlink:href="#aB"/><use transform="matrix(0.010850694444444444,0,0,0.010850694444444444,24.088541666666664,0)" xlink:href="#Q"/><use transform="matrix(0.010850694444444444,0,0,0.010850694444444444,37.04427083333333,0)" xlink:href="#ac"/><use transform="matrix(0.010850694444444444,0,0,0.010850694444444444,49.73958333333333,0)" xlink:href="#O"/><use transform="matrix(0.010850694444444444,0,0,0.010850694444444444,62.87977430555555,0)" xlink:href="#T"/><use transform="matrix(0.010850694444444444,0,0,0.010850694444444444,69.93272569444444,0)" xlink:href="#af"/><use transform="matrix(0.010850694444444444,0,0,0.010850694444444444,83.25737847222221,0)" xlink:href="#R"/></g><path fill="#fff" d="M645 0H180v-1490h484c435 0 692 280 692 742 0 466-257 748-711 748zM370-168h263c363 0 539-218 539-580 0-358-176-574-521-574H370v1154" id="aC"/><path fill="#fff" d="M481 0L54-1118h197c107 314 236 620 325 951 87-331 217-637 324-951h197L670 0H481" id="aD"/><g id="k"><use transform="matrix(0.010850694444444444,0,0,0.010850694444444444,0,0)" xlink:href="#aC"/><use transform="matrix(0.010850694444444444,0,0,0.010850694444444444,16.03732638888889,0)" xlink:href="#Q"/><use transform="matrix(0.010850694444444444,0,0,0.010850694444444444,28.559027777777775,0)" xlink:href="#aD"/><use transform="matrix(0.010850694444444444,0,0,0.010850694444444444,41.048177083333336,0)" xlink:href="#ag"/><use transform="matrix(0.010850694444444444,0,0,0.010850694444444444,46.43012152777778,0)" xlink:href="#ac"/><use transform="matrix(0.010850694444444444,0,0,0.010850694444444444,59.12543402777778,0)" xlink:href="#Q"/></g><path fill="#fff" d="M180 0v-1490h908v168H370v486h669v168H370v500h727V0H180" id="aE"/><g id="l"><use transform="matrix(0.010850694444444444,0,0,0.010850694444444444,0,0)" xlink:href="#aE"/><use transform="matrix(0.010850694444444444,0,0,0.010850694444444444,13.35720486111111,0)" xlink:href="#aB"/><use transform="matrix(0.010850694444444444,0,0,0.010850694444444444,24.989149305555554,0)" xlink:href="#Q"/><use transform="matrix(0.010850694444444444,0,0,0.010850694444444444,37.94487847222222,0)" xlink:href="#ac"/><use transform="matrix(0.010850694444444444,0,0,0.010850694444444444,50.64019097222222,0)" xlink:href="#O"/><use transform="matrix(0.010850694444444444,0,0,0.010850694444444444,63.78038194444444,0)" xlink:href="#T"/><use transform="matrix(0.010850694444444444,0,0,0.010850694444444444,70.83333333333333,0)" xlink:href="#af"/><use transform="matrix(0.010850694444444444,0,0,0.010850694444444444,84.1579861111111,0)" xlink:href="#R"/></g><g id="m"><use transform="matrix(0.010850694444444444,0,0,0.010850694444444444,0,0)" xlink:href="#aD"/><use transform="matrix(0.010850694444444444,0,0,0.010850694444444444,12.489149305555555,0)" xlink:href="#ag"/><use transform="matrix(0.010850694444444444,0,0,0.010850694444444444,17.87109375,0)" xlink:href="#U"/></g><path fill="#fff" d="M370-1490V0H180v-1490h190" id="aF"/><path fill="#fff" d="M180 0v-1490h901v168H370v510h643v168H370V0H180" id="aG"/><g id="n"><use transform="matrix(0.010850694444444444,0,0,0.010850694444444444,0,0)" xlink:href="#aF"/><use transform="matrix(0.010850694444444444,0,0,0.010850694444444444,5.967881944444445,0)" xlink:href="#aG"/><use transform="matrix(0.010850694444444444,0,0,0.010850694444444444,19.08637152777778,0)" xlink:href="#N"/><use transform="matrix(0.010850694444444444,0,0,0.010850694444444444,33.38758680555556,0)" xlink:href="#ai"/></g><path fill="#fff" d="M135 0v-1490h305v1237h643V0H135" id="aH"/><path fill="#fff" d="M537 19C279 19 81-185 81-557c0-382 206-575 454-575 190 0 278 113 318 202h10v-560h300V0H868v-179h-15C812-89 719 19 537 19zm92-241c153 0 240-134 240-336 0-203-86-334-240-334-158 0-240 138-240 334 0 197 84 336 240 336" id="aI"/><g id="o"><use transform="matrix(0.009765625,0,0,0.009765625,0,0)" xlink:href="#aH"/><use transform="matrix(0.009765625,0,0,0.009765625,11.30859375,0)" xlink:href="#aw"/><use transform="matrix(0.009765625,0,0,0.009765625,23.76953125,0)" xlink:href="#ao"/><use transform="matrix(0.009765625,0,0,0.009765625,35.380859375,0)" xlink:href="#aI"/></g><path fill="#fff" d="M786 20C389 20 94-260 94-744c0-487 299-766 692-766 339 0 597 194 641 529h-309c-28-162-156-258-326-258-233 0-388 179-388 495 0 323 157 493 387 493 170 0 298-97 328-259h309c-34 277-266 530-642 530" id="aJ"/><path fill="#fff" d="M428-647V0H128v-1490h294v586c65-146 175-228 341-228 232 0 385 159 385 421V0H847v-659c0-139-76-222-202-222-128 0-217 86-217 234" id="aK"/><path fill="#fff" d="M628 22C291 22 81-210 81-554c0-346 210-578 547-578 265 0 455 142 497 372l-279 52c-25-116-99-188-215-188-160 0-244 139-244 341 0 200 84 341 244 341 116 0 193-74 217-195l279 51C1085-123 896 22 628 22" id="aL"/><path fill="#fff" d="M128 0v-1490h300v802h17l366-430h347L740-633 1179 0H826L514-456l-86 97V0H128" id="aM"/><path fill="#fff" d="M128 418v-1536h295v188h14c41-89 129-202 319-202 248 0 453 193 453 575 0 372-197 576-455 576-183 0-275-108-317-198h-9v597H128zm534-640c156 0 240-139 240-336 0-196-83-334-240-334-154 0-241 131-241 334 0 202 88 336 241 336" id="aN"/><g id="p"><use transform="matrix(0.009765625,0,0,0.009765625,0,0)" xlink:href="#aJ"/><use transform="matrix(0.009765625,0,0,0.009765625,14.794921875,0)" xlink:href="#aK"/><use transform="matrix(0.009765625,0,0,0.009765625,27.24609375,0)" xlink:href="#ar"/><use transform="matrix(0.009765625,0,0,0.009765625,39.16015625,0)" xlink:href="#aL"/><use transform="matrix(0.009765625,0,0,0.009765625,50.927734375,0)" xlink:href="#aM"/><use transform="matrix(0.009765625,0,0,0.009765625,62.529296875,0)" xlink:href="#aN"/><use transform="matrix(0.009765625,0,0,0.009765625,75.13671875,0)" xlink:href="#aw"/><use transform="matrix(0.009765625,0,0,0.009765625,87.40234375,0)" xlink:href="#as"/><use transform="matrix(0.009765625,0,0,0.009765625,92.822265625,0)" xlink:href="#ax"/><use transform="matrix(0.009765625,0,0,0.009765625,105.2734375,0)" xlink:href="#av"/></g><path fill="#fff" d="M768-1560L288 224H28l480-1784h260" id="aO"/><path fill="#fff" d="M135 0v-1490h997v253H440v360h640v249H440v375h694V0H135" id="aP"/><path fill="#fff" d="M513 14c-232 0-385-159-385-421v-711h300v659c0 139 76 222 202 222 127 0 217-86 217-234v-647h301V0H864l-4-232C797-74 683 14 513 14" id="aQ"/><g id="q"><use transform="matrix(0.009765625,0,0,0.009765625,0,0)" xlink:href="#aJ"/><use transform="matrix(0.009765625,0,0,0.009765625,14.794921875,0)" xlink:href="#aw"/><use transform="matrix(0.009765625,0,0,0.009765625,27.060546875,0)" xlink:href="#az"/><use transform="matrix(0.009765625,0,0,0.009765625,45.3125,0)" xlink:href="#aN"/><use transform="matrix(0.009765625,0,0,0.009765625,57.919921875,0)" xlink:href="#as"/><use transform="matrix(0.009765625,0,0,0.009765625,63.33984375,0)" xlink:href="#at"/><use transform="matrix(0.009765625,0,0,0.009765625,68.759765625,0)" xlink:href="#ar"/><use transform="matrix(0.009765625,0,0,0.009765625,80.673828125,0)" xlink:href="#aO"/><use transform="matrix(0.009765625,0,0,0.009765625,88.4375,0)" xlink:href="#aP"/><use transform="matrix(0.009765625,0,0,0.009765625,100.5859375,0)" xlink:href="#ap"/><use transform="matrix(0.009765625,0,0,0.009765625,111.787109375,0)" xlink:href="#ar"/><use transform="matrix(0.009765625,0,0,0.009765625,123.701171875,0)" xlink:href="#aL"/><use transform="matrix(0.009765625,0,0,0.009765625,135.46875,0)" xlink:href="#aQ"/><use transform="matrix(0.009765625,0,0,0.009765625,147.919921875,0)" xlink:href="#av"/><use transform="matrix(0.009765625,0,0,0.009765625,155.048828125,0)" xlink:href="#ar"/></g><path fill="#fff" d="M135 0v-1490h305v602h649v-602h306V0h-306v-635H440V0H135" id="aR"/><g id="r"><use transform="matrix(0.009765625,0,0,0.009765625,0,0)" xlink:href="#aq"/><use transform="matrix(0.009765625,0,0,0.009765625,13.095703125,0)" xlink:href="#av"/><use transform="matrix(0.009765625,0,0,0.009765625,20.517578125,0)" xlink:href="#ao"/><use transform="matrix(0.009765625,0,0,0.009765625,32.12890625,0)" xlink:href="#an"/><use transform="matrix(0.009765625,0,0,0.009765625,44.736328125,0)" xlink:href="#at"/><use transform="matrix(0.009765625,0,0,0.009765625,50.15625,0)" xlink:href="#ar"/><use transform="matrix(0.009765625,0,0,0.009765625,62.0703125,0)" xlink:href="#aR"/><use transform="matrix(0.009765625,0,0,0.009765625,77.01171875,0)" xlink:href="#aH"/><use transform="matrix(0.009765625,0,0,0.009765625,87.75390625,0)" xlink:href="#al"/></g><g id="s"><use transform="matrix(0.009765625,0,0,0.009765625,0,0)" xlink:href="#aP"/><use transform="matrix(0.009765625,0,0,0.009765625,12.1484375,0)" xlink:href="#ap"/><use transform="matrix(0.009765625,0,0,0.009765625,23.349609375,0)" xlink:href="#ar"/><use transform="matrix(0.009765625,0,0,0.009765625,35.263671875,0)" xlink:href="#aL"/><use transform="matrix(0.009765625,0,0,0.009765625,47.03125,0)" xlink:href="#aQ"/><use transform="matrix(0.009765625,0,0,0.009765625,59.482421875,0)" xlink:href="#av"/><use transform="matrix(0.009765625,0,0,0.009765625,66.611328125,0)" xlink:href="#ar"/></g><path fill="#fff" d="M572 22C302 22 117-98 78-306l279-48c29 105 101 156 224 156 114 0 185-48 185-115 0-118-228-130-337-155-215-49-322-150-322-317 0-215 187-347 470-347 265 0 424 116 466 298l-266 47c-24-76-87-130-196-130-98 0-174 46-174 113 0 56 38 95 144 117l201 40c216 44 320 143 320 302 0 220-207 367-500 367" id="aS"/><g id="t"><use transform="matrix(0.009765625,0,0,0.009765625,0,0)" xlink:href="#aN"/><use transform="matrix(0.009765625,0,0,0.009765625,12.607421875,0)" xlink:href="#am"/><use transform="matrix(0.009765625,0,0,0.009765625,20.263671875,0)" xlink:href="#ar"/><use transform="matrix(0.009765625,0,0,0.009765625,32.177734375,0)" xlink:href="#aO"/><use transform="matrix(0.009765625,0,0,0.009765625,39.94140625,0)" xlink:href="#aN"/><use transform="matrix(0.009765625,0,0,0.009765625,52.548828125,0)" xlink:href="#aw"/><use transform="matrix(0.009765625,0,0,0.009765625,64.814453125,0)" xlink:href="#aS"/><use transform="matrix(0.009765625,0,0,0.009765625,76.015625,0)" xlink:href="#av"/></g><path fill="#fff" d="M180 0v-1490h510c348 0 508 209 508 474 0 266-160 477-507 477H370V0H180zm190-706h312c236 0 327-133 327-310 0-176-91-307-329-307H370v617" id="aT"/><path fill="#fff" d="M545 20c-263 0-445-160-445-446v-80h190v80c0 182 102 279 255 279 152 0 254-97 254-279v-1064h190v1064c0 286-181 446-444 446" id="aU"/><path fill="#fff" d="M692-1560L212 224H46l480-1784h166" id="aV"/><path fill="#fff" d="M409 0L70-1118h191c89 329 165 560 243 925 75-353 154-601 240-925h192c85 325 161 564 235 922 77-354 157-598 244-922h191L1267 0h-179c-86-307-176-590-250-913C763-588 675-308 588 0H409" id="aW"/><path fill="#fff" d="M140 405l46-156c120 36 205 19 263-150l32-93L54-1118h197c107 313 237 620 324 950 87-331 219-637 326-950h196L606 167c-68 178-176 259-334 259-64 0-113-12-132-21" id="aX"/><g id="u"><use transform="matrix(0.010850694444444444,0,0,0.010850694444444444,0,0)" xlink:href="#aT"/><use transform="matrix(0.010850694444444444,0,0,0.010850694444444444,12.055121527777777,0)" xlink:href="#aU"/><use transform="matrix(0.010850694444444444,0,0,0.010850694444444444,24.739583333333332,0)" xlink:href="#N"/><use transform="matrix(0.010850694444444444,0,0,0.010850694444444444,39.04079861111111,0)" xlink:href="#ai"/><use transform="matrix(0.010850694444444444,0,0,0.010850694444444444,51.627604166666664,0)" xlink:href="#aV"/><use transform="matrix(0.010850694444444444,0,0,0.010850694444444444,59.635416666666664,0)" xlink:href="#aT"/><use transform="matrix(0.010850694444444444,0,0,0.010850694444444444,73.828125,0)" xlink:href="#U"/><use transform="matrix(0.010850694444444444,0,0,0.010850694444444444,86.30642361111111,0)" xlink:href="#T"/><use transform="matrix(0.010850694444444444,0,0,0.010850694444444444,93.57638888888889,0)" xlink:href="#ab"/><use transform="matrix(0.010850694444444444,0,0,0.010850694444444444,106.71657986111111,0)" xlink:href="#aW"/><use transform="matrix(0.010850694444444444,0,0,0.010850694444444444,124.90234375,0)" xlink:href="#U"/><use transform="matrix(0.010850694444444444,0,0,0.010850694444444444,137.05512152777777,0)" xlink:href="#aX"/><use transform="matrix(0.010850694444444444,0,0,0.010850694444444444,149.54427083333331,0)" xlink:href="#aj"/></g><path fill="#fff" d="M135 0v-1490h340l471 754c59 97 122 210 187 365-32-387-14-721-19-1119h312V0h-341C855-382 627-689 427-1113c32 420 16 695 20 1113H135" id="aY"/><g id="v"><use transform="matrix(0.010850694444444444,0,0,0.010850694444444444,0,0)" xlink:href="#aY"/><use transform="matrix(0.010850694444444444,0,0,0.010850694444444444,16.93793402777778,0)" xlink:href="#ar"/><use transform="matrix(0.010850694444444444,0,0,0.010850694444444444,30.17578125,0)" xlink:href="#aN"/><use transform="matrix(0.010850694444444444,0,0,0.010850694444444444,44.18402777777778,0)" xlink:href="#av"/><use transform="matrix(0.010850694444444444,0,0,0.010850694444444444,52.32204861111112,0)" xlink:href="#aQ"/><use transform="matrix(0.010850694444444444,0,0,0.010850694444444444,66.15668402777779,0)" xlink:href="#ax"/><use transform="matrix(0.010850694444444444,0,0,0.010850694444444444,79.99131944444446,0)" xlink:href="#ar"/></g><path fill="#fff" d="M443 0L31-1118h319c90 293 199 572 268 885 66-313 175-593 264-885h315L784 0H443" id="aZ"/><path fill="#fff" d="M625 442c-280 0-454-114-503-274l258-72c28 63 97 128 243 128 153 0 246-69 246-216v-206h-23C805-108 717-16 536-16 284-16 81-191 81-561c0-378 208-571 456-571 188 0 280 113 321 202h13v-188h295V-9c0 303-226 451-541 451zm5-686c153 0 240-119 240-319 0-198-86-329-240-329-158 0-241 137-241 329 0 195 85 319 241 319" id="ba"/><g id="w"><use transform="matrix(0.010850694444444444,0,0,0.010850694444444444,0,0)" xlink:href="#aq"/><use transform="matrix(0.010850694444444444,0,0,0.010850694444444444,14.55078125,0)" xlink:href="#ar"/><use transform="matrix(0.010850694444444444,0,0,0.010850694444444444,27.78862847222222,0)" xlink:href="#am"/><use transform="matrix(0.010850694444444444,0,0,0.010850694444444444,37.18532986111111,0)" xlink:href="#aZ"/><use transform="matrix(0.010850694444444444,0,0,0.010850694444444444,50.509982638888886,0)" xlink:href="#as"/><use transform="matrix(0.010850694444444444,0,0,0.010850694444444444,56.53211805555555,0)" xlink:href="#ax"/><use transform="matrix(0.010850694444444444,0,0,0.010850694444444444,70.36675347222221,0)" xlink:href="#ba"/></g><g id="x"><use transform="matrix(0.010850694444444444,0,0,0.010850694444444444,0,0)" xlink:href="#aP"/><use transform="matrix(0.010850694444444444,0,0,0.010850694444444444,13.49826388888889,0)" xlink:href="#ax"/><use transform="matrix(0.010850694444444444,0,0,0.010850694444444444,27.33289930555556,0)" xlink:href="#ba"/><use transform="matrix(0.010850694444444444,0,0,0.010850694444444444,41.37369791666667,0)" xlink:href="#as"/><use transform="matrix(0.010850694444444444,0,0,0.010850694444444444,47.39583333333333,0)" xlink:href="#ax"/><use transform="matrix(0.010850694444444444,0,0,0.010850694444444444,61.23046875,0)" xlink:href="#ar"/></g><path fill="#fff" d="M169-607c0-330 107-732 258-974h279c-145 311-231 674-231 974 0 262 67 512 231 886H427C258-1 169-307 169-607" id="bb"/><path fill="#fff" d="M67 279c166-379 230-627 230-886 0-300-86-663-230-974h278c151 241 258 644 258 974 0 302-90 608-258 886H67" id="bc"/><g id="y"><use transform="matrix(0.010850694444444444,0,0,0.010850694444444444,0,0)" xlink:href="#bb"/><use transform="matrix(0.010850694444444444,0,0,0.010850694444444444,8.778211805555555,0)" xlink:href="#aY"/><use transform="matrix(0.010850694444444444,0,0,0.010850694444444444,25.716145833333336,0)" xlink:href="#aq"/><use transform="matrix(0.010850694444444444,0,0,0.010850694444444444,40.266927083333336,0)" xlink:href="#aP"/><use transform="matrix(0.010850694444444444,0,0,0.010850694444444444,53.76519097222223,0)" xlink:href="#bc"/></g><g id="z"><use transform="matrix(0.009765625,0,0,0.009765625,0,0)" xlink:href="#aH"/><use transform="matrix(0.009765625,0,0,0.009765625,11.30859375,0)" xlink:href="#aw"/><use transform="matrix(0.009765625,0,0,0.009765625,23.76953125,0)" xlink:href="#ao"/><use transform="matrix(0.009765625,0,0,0.009765625,35.380859375,0)" xlink:href="#aI"/></g><g id="A"><use transform="matrix(0.009765625,0,0,0.009765625,0,0)" xlink:href="#az"/><use transform="matrix(0.009765625,0,0,0.009765625,18.251953125,0)" xlink:href="#aw"/><use transform="matrix(0.009765625,0,0,0.009765625,30.517578125,0)" xlink:href="#aI"/><use transform="matrix(0.009765625,0,0,0.009765625,43.125,0)" xlink:href="#ar"/><use transform="matrix(0.009765625,0,0,0.009765625,55.0390625,0)" xlink:href="#at"/></g><g id="B"><use transform="matrix(0.009765625,0,0,0.009765625,0,0)" xlink:href="#aq"/><use transform="matrix(0.009765625,0,0,0.009765625,13.095703125,0)" xlink:href="#ar"/><use transform="matrix(0.009765625,0,0,0.009765625,25.009765625,0)" xlink:href="#am"/><use transform="matrix(0.009765625,0,0,0.009765625,33.30078125,0)" xlink:href="#as"/><use transform="matrix(0.009765625,0,0,0.009765625,38.720703125,0)" xlink:href="#ao"/><use transform="matrix(0.009765625,0,0,0.009765625,50.33203125,0)" xlink:href="#at"/><use transform="matrix(0.009765625,0,0,0.009765625,55.751953125,0)" xlink:href="#as"/><use transform="matrix(0.009765625,0,0,0.009765625,61.171875,0)" xlink:href="#au"/><use transform="matrix(0.009765625,0,0,0.009765625,72.2265625,0)" xlink:href="#ar"/></g><g id="C"><use transform="matrix(0.009765625,0,0,0.009765625,0,0)" xlink:href="#av"/><use transform="matrix(0.009765625,0,0,0.009765625,7.12890625,0)" xlink:href="#aw"/></g><g id="D"><use transform="matrix(0.009765625,0,0,0.009765625,0,0)" xlink:href="#aq"/><use transform="matrix(0.009765625,0,0,0.009765625,13.095703125,0)" xlink:href="#ao"/><use transform="matrix(0.009765625,0,0,0.009765625,24.365234375,0)" xlink:href="#aZ"/><use transform="matrix(0.009765625,0,0,0.009765625,35.99609375,0)" xlink:href="#ar"/></g><g id="E"><use transform="matrix(0.009765625,0,0,0.009765625,0,0)" xlink:href="#aL"/><use transform="matrix(0.009765625,0,0,0.009765625,11.767578125,0)" xlink:href="#aK"/><use transform="matrix(0.009765625,0,0,0.009765625,24.21875,0)" xlink:href="#ar"/><use transform="matrix(0.009765625,0,0,0.009765625,36.1328125,0)" xlink:href="#aL"/><use transform="matrix(0.009765625,0,0,0.009765625,47.900390625,0)" xlink:href="#aM"/><use transform="matrix(0.009765625,0,0,0.009765625,59.501953125,0)" xlink:href="#aN"/><use transform="matrix(0.009765625,0,0,0.009765625,72.109375,0)" xlink:href="#aw"/><use transform="matrix(0.009765625,0,0,0.009765625,84.375,0)" xlink:href="#as"/><use transform="matrix(0.009765625,0,0,0.009765625,89.794921875,0)" xlink:href="#ax"/><use transform="matrix(0.009765625,0,0,0.009765625,102.24609375,0)" xlink:href="#av"/></g><g id="F"><use transform="matrix(0.010850694444444444,0,0,0.010850694444444444,0,0)" xlink:href="#aq"/><use transform="matrix(0.010850694444444444,0,0,0.010850694444444444,14.55078125,0)" xlink:href="#ar"/><use transform="matrix(0.010850694444444444,0,0,0.010850694444444444,27.78862847222222,0)" xlink:href="#am"/><use transform="matrix(0.010850694444444444,0,0,0.010850694444444444,37.00086805555556,0)" xlink:href="#as"/><use transform="matrix(0.010850694444444444,0,0,0.010850694444444444,43.02300347222222,0)" xlink:href="#ao"/><use transform="matrix(0.010850694444444444,0,0,0.010850694444444444,55.924479166666664,0)" xlink:href="#at"/><use transform="matrix(0.010850694444444444,0,0,0.010850694444444444,61.94661458333333,0)" xlink:href="#as"/><use transform="matrix(0.010850694444444444,0,0,0.010850694444444444,67.96875,0)" xlink:href="#au"/><use transform="matrix(0.010850694444444444,0,0,0.010850694444444444,80.69661458333333,0)" xlink:href="#ao"/><use transform="matrix(0.010850694444444444,0,0,0.010850694444444444,93.59809027777777,0)" xlink:href="#av"/><use transform="matrix(0.010850694444444444,0,0,0.010850694444444444,101.73611111111111,0)" xlink:href="#as"/><use transform="matrix(0.010850694444444444,0,0,0.010850694444444444,107.75824652777777,0)" xlink:href="#aw"/><use transform="matrix(0.010850694444444444,0,0,0.010850694444444444,121.38671875,0)" xlink:href="#ax"/></g><path fill="#fff" d="M120 396l69-226c123 42 245 23 254-107l8-60L31-1118h319c87 288 199 559 259 872 72-308 185-583 277-872h315L726 132c-68 181-186 294-410 294-79 0-153-13-196-30" id="bd"/><g id="G"><use transform="matrix(0.010850694444444444,0,0,0.010850694444444444,0,0)" xlink:href="#aH"/><use transform="matrix(0.010850694444444444,0,0,0.010850694444444444,12.565104166666666,0)" xlink:href="#as"/><use transform="matrix(0.010850694444444444,0,0,0.010850694444444444,18.587239583333332,0)" xlink:href="#an"/><use transform="matrix(0.010850694444444444,0,0,0.010850694444444444,32.59548611111111,0)" xlink:href="#am"/><use transform="matrix(0.010850694444444444,0,0,0.010850694444444444,41.34114583333333,0)" xlink:href="#ao"/><use transform="matrix(0.010850694444444444,0,0,0.010850694444444444,54.24262152777778,0)" xlink:href="#am"/><use transform="matrix(0.010850694444444444,0,0,0.010850694444444444,63.63932291666666,0)" xlink:href="#bd"/></g><path fill="#fff" d="M126 0v-134l627-806v-11H146v-167h839v143L376-178v11h629V0H126" id="be"/><g id="H"><use transform="matrix(0.010850694444444444,0,0,0.010850694444444444,0,0)" xlink:href="#S"/><use transform="matrix(0.010850694444444444,0,0,0.010850694444444444,14.2578125,0)" xlink:href="#Q"/><use transform="matrix(0.010850694444444444,0,0,0.010850694444444444,27.213541666666664,0)" xlink:href="#R"/><use transform="matrix(0.010850694444444444,0,0,0.010850694444444444,35.92664930555555,0)" xlink:href="#ag"/><use transform="matrix(0.010850694444444444,0,0,0.010850694444444444,41.30859374999999,0)" xlink:href="#U"/><use transform="matrix(0.010850694444444444,0,0,0.010850694444444444,53.7868923611111,0)" xlink:href="#W"/><use transform="matrix(0.010850694444444444,0,0,0.010850694444444444,59.16883680555554,0)" xlink:href="#ag"/><use transform="matrix(0.010850694444444444,0,0,0.010850694444444444,64.55078124999999,0)" xlink:href="#be"/><use transform="matrix(0.010850694444444444,0,0,0.010850694444444444,76.82291666666666,0)" xlink:href="#U"/><use transform="matrix(0.010850694444444444,0,0,0.010850694444444444,89.30121527777777,0)" xlink:href="#T"/><use transform="matrix(0.010850694444444444,0,0,0.010850694444444444,96.57118055555556,0)" xlink:href="#ag"/><use transform="matrix(0.010850694444444444,0,0,0.010850694444444444,101.95312499999997,0)" xlink:href="#af"/><use transform="matrix(0.010850694444444444,0,0,0.010850694444444444,115.27777777777776,0)" xlink:href="#P"/></g><path fill="#fff" d="M52 0l541-1490h220L1361 0h-200l-149-416H398L254 0H52zm404-582h497c-103-290-145-390-251-756-108 377-145 460-246 756" id="bf"/><g id="I"><use transform="matrix(0.010850694444444444,0,0,0.010850694444444444,0,0)" xlink:href="#bf"/><use transform="matrix(0.010850694444444444,0,0,0.010850694444444444,15.33203125,0)" xlink:href="#aT"/><use transform="matrix(0.010850694444444444,0,0,0.010850694444444444,29.524739583333332,0)" xlink:href="#aF"/></g><g id="J"><use transform="matrix(0.010850694444444444,0,0,0.010850694444444444,0,0)" xlink:href="#aa"/><use transform="matrix(0.010850694444444444,0,0,0.010850694444444444,16.23263888888889,0)" xlink:href="#ab"/><use transform="matrix(0.010850694444444444,0,0,0.010850694444444444,29.37282986111111,0)" xlink:href="#Q"/><use transform="matrix(0.010850694444444444,0,0,0.010850694444444444,42.32855902777778,0)" xlink:href="#ac"/><use transform="matrix(0.010850694444444444,0,0,0.010850694444444444,55.02387152777778,0)" xlink:href="#ad"/><use transform="matrix(0.010850694444444444,0,0,0.010850694444444444,67.22005208333333,0)" xlink:href="#ae"/><use transform="matrix(0.010850694444444444,0,0,0.010850694444444444,80.82682291666666,0)" xlink:href="#af"/><use transform="matrix(0.010850694444444444,0,0,0.010850694444444444,94.15147569444441,0)" xlink:href="#ag"/><use transform="matrix(0.010850694444444444,0,0,0.010850694444444444,99.53342013888887,0)" xlink:href="#P"/><use transform="matrix(0.010850694444444444,0,0,0.010850694444444444,112.66276041666664,0)" xlink:href="#T"/></g><g id="K"><use transform="matrix(0.010850694444444444,0,0,0.010850694444444444,0,0)" xlink:href="#S"/><use transform="matrix(0.010850694444444444,0,0,0.010850694444444444,14.2578125,0)" xlink:href="#U"/><use transform="matrix(0.010850694444444444,0,0,0.010850694444444444,26.41059027777778,0)" xlink:href="#aD"/><use transform="matrix(0.010850694444444444,0,0,0.010850694444444444,38.46571180555556,0)" xlink:href="#Q"/><use transform="matrix(0.010850694444444444,0,0,0.010850694444444444,51.42144097222222,0)" xlink:href="#R"/></g><path fill="#fff" d="M57 0l534-763-501-727h220c122 187 296 416 391 605 94-191 272-419 396-605h215L811-770 1340 0h-219C986-204 811-426 699-640 588-430 407-202 273 0H57" id="bg"/><g id="L"><use transform="matrix(0.010850694444444444,0,0,0.010850694444444444,0,0)" xlink:href="#aU"/><use transform="matrix(0.010850694444444444,0,0,0.010850694444444444,12.250434027777777,0)" xlink:href="#bf"/><use transform="matrix(0.010850694444444444,0,0,0.010850694444444444,27.58246527777778,0)" xlink:href="#bg"/></g><path fill="#fff" d="M180 0v-1490h270l367 940c28 72 75 218 110 339 35-117 81-264 110-339l362-940h271V0h-187c2-448-5-837 7-1287-157 497-311 829-483 1287H842C666-458 514-784 354-1284c12 438 5 843 7 1284H180" id="bh"/><g id="M"><use transform="matrix(0.010850694444444444,0,0,0.010850694444444444,0,0)" xlink:href="#bh"/><use transform="matrix(0.010850694444444444,0,0,0.010850694444444444,20.07378472222222,0)" xlink:href="#af"/><use transform="matrix(0.010850694444444444,0,0,0.010850694444444444,33.3984375,0)" xlink:href="#aA"/><use transform="matrix(0.010850694444444444,0,0,0.010850694444444444,47.00520833333333,0)" xlink:href="#Q"/><use transform="matrix(0.010850694444444444,0,0,0.010850694444444444,59.960937499999986,0)" xlink:href="#W"/></g></defs></g></svg>