<svg width="598" height="340" viewBox="0 0 598 340" fill="none" xmlns="http://www.w3.org/2000/svg">
<g clip-path="url(#clip0_829_1756)">
<rect width="598" height="340" rx="24" fill="#202124"/>
<circle cx="529.5" cy="60.5" r="469.5" fill="url(#paint0_radial_829_1756)" fill-opacity="0.2"/>
<circle cx="163.5" cy="307.5" r="469.5" fill="url(#paint1_radial_829_1756)" fill-opacity="0.2"/>
<path d="M237.616 112.384C236.368 112.384 235.272 112.04 234.328 111.352C233.384 110.664 232.712 109.68 232.312 108.4L234.232 107.608C234.552 108.68 235.008 109.424 235.6 109.84C236.208 110.24 236.88 110.44 237.616 110.44C238.576 110.44 239.336 110.112 239.896 109.456C240.456 108.784 240.736 107.92 240.736 106.864V94.816H242.776V106.696C242.776 107.912 242.552 108.944 242.104 109.792C241.672 110.64 241.064 111.288 240.28 111.736C239.512 112.168 238.624 112.384 237.616 112.384ZM244.54 112L251.068 94.816H253.372L259.9 112H257.668L255.916 107.272H248.524L246.772 112H244.54ZM255.22 105.352L252.94 99.16L252.268 97.312H252.172L251.5 99.16L249.22 105.352H255.22ZM261.026 94.816H263.474L267.794 101.512H267.89L272.21 94.816H274.634L269.162 103.12L274.97 112H272.57L267.89 104.824H267.794L263.09 112H260.69L266.498 103.12L261.026 94.816ZM280.61 112L287.138 94.816H289.442L295.97 112H293.738L291.986 107.272H284.594L282.842 112H280.61ZM291.29 105.352L289.01 99.16L288.338 97.312H288.242L287.57 99.16L285.29 105.352H291.29ZM298.248 112V94.816H300.288V112H298.248ZM313.783 112.384C312.951 112.384 312.127 112.208 311.311 111.856C310.495 111.504 309.775 110.984 309.151 110.296C308.527 109.608 308.071 108.752 307.783 107.728L309.727 106.936C309.999 107.928 310.495 108.76 311.215 109.432C311.935 110.104 312.807 110.44 313.831 110.44C314.471 110.44 315.055 110.328 315.583 110.104C316.127 109.864 316.559 109.52 316.879 109.072C317.215 108.624 317.383 108.08 317.383 107.44C317.383 106.864 317.239 106.376 316.951 105.976C316.679 105.576 316.263 105.224 315.703 104.92C315.143 104.6 314.455 104.296 313.639 104.008L312.559 103.624C312.079 103.448 311.591 103.24 311.095 103C310.615 102.744 310.167 102.44 309.751 102.088C309.351 101.72 309.031 101.288 308.791 100.792C308.551 100.28 308.431 99.68 308.431 98.992C308.431 98.16 308.655 97.4 309.103 96.712C309.551 96.024 310.167 95.472 310.951 95.056C311.735 94.64 312.639 94.432 313.663 94.432C314.735 94.432 315.631 94.632 316.351 95.032C317.087 95.416 317.663 95.88 318.079 96.424C318.511 96.952 318.799 97.44 318.943 97.888L317.047 98.704C316.951 98.368 316.767 98.024 316.495 97.672C316.223 97.304 315.855 97 315.391 96.76C314.943 96.504 314.375 96.376 313.687 96.376C313.127 96.376 312.599 96.488 312.103 96.712C311.623 96.936 311.231 97.248 310.927 97.648C310.639 98.032 310.495 98.48 310.495 98.992C310.495 99.712 310.783 100.28 311.359 100.696C311.935 101.112 312.711 101.488 313.687 101.824L314.815 102.208C315.327 102.384 315.847 102.6 316.375 102.856C316.919 103.112 317.423 103.44 317.887 103.84C318.351 104.24 318.727 104.736 319.015 105.328C319.303 105.904 319.447 106.6 319.447 107.416C319.447 108.296 319.271 109.056 318.919 109.696C318.583 110.32 318.135 110.832 317.575 111.232C317.015 111.632 316.399 111.92 315.727 112.096C315.071 112.288 314.423 112.384 313.783 112.384ZM320.602 99.76H322.738V96.304H324.778V99.76H327.778V101.608H324.778V108.28C324.778 108.92 324.906 109.416 325.162 109.768C325.434 110.12 325.874 110.296 326.482 110.296C326.754 110.296 327.002 110.256 327.226 110.176C327.45 110.096 327.65 110 327.826 109.888V111.88C327.618 111.976 327.386 112.048 327.13 112.096C326.89 112.16 326.562 112.192 326.146 112.192C325.122 112.192 324.298 111.896 323.674 111.304C323.05 110.696 322.738 109.856 322.738 108.784V101.608H320.602V99.76ZM333.885 112.384C332.973 112.384 332.173 112.208 331.485 111.856C330.797 111.504 330.253 111.024 329.853 110.416C329.469 109.792 329.277 109.088 329.277 108.304C329.277 107.408 329.509 106.656 329.973 106.048C330.437 105.424 331.061 104.96 331.845 104.656C332.629 104.336 333.493 104.176 334.437 104.176C334.981 104.176 335.485 104.224 335.949 104.32C336.413 104.4 336.813 104.504 337.149 104.632C337.501 104.744 337.765 104.856 337.941 104.968V104.224C337.941 103.296 337.613 102.56 336.957 102.016C336.301 101.472 335.501 101.2 334.557 101.2C333.885 101.2 333.253 101.352 332.661 101.656C332.085 101.944 331.629 102.352 331.293 102.88L329.757 101.728C330.077 101.248 330.477 100.832 330.957 100.48C331.437 100.128 331.981 99.856 332.589 99.664C333.213 99.472 333.869 99.376 334.557 99.376C336.221 99.376 337.525 99.816 338.469 100.696C339.413 101.576 339.885 102.76 339.885 104.248V112H337.941V110.248H337.845C337.637 110.6 337.341 110.944 336.957 111.28C336.573 111.6 336.117 111.864 335.589 112.072C335.077 112.28 334.509 112.384 333.885 112.384ZM334.077 110.584C334.781 110.584 335.421 110.408 335.997 110.056C336.589 109.704 337.061 109.232 337.413 108.64C337.765 108.048 337.941 107.4 337.941 106.696C337.573 106.44 337.109 106.232 336.549 106.072C336.005 105.912 335.405 105.832 334.749 105.832C333.581 105.832 332.725 106.072 332.181 106.552C331.637 107.032 331.365 107.624 331.365 108.328C331.365 109 331.621 109.544 332.133 109.96C332.645 110.376 333.293 110.584 334.077 110.584ZM348.15 112.384C346.95 112.384 345.878 112.104 344.934 111.544C344.006 110.968 343.278 110.192 342.75 109.216C342.222 108.224 341.958 107.112 341.958 105.88C341.958 104.632 342.222 103.52 342.75 102.544C343.278 101.568 344.006 100.8 344.934 100.24C345.878 99.664 346.95 99.376 348.15 99.376C349.526 99.376 350.654 99.696 351.534 100.336C352.43 100.96 353.062 101.768 353.43 102.76L351.582 103.528C351.278 102.776 350.822 102.208 350.214 101.824C349.622 101.424 348.902 101.224 348.054 101.224C347.334 101.224 346.662 101.416 346.038 101.8C345.43 102.184 344.934 102.728 344.55 103.432C344.166 104.12 343.974 104.936 343.974 105.88C343.974 106.808 344.166 107.624 344.55 108.328C344.934 109.032 345.43 109.576 346.038 109.96C346.662 110.344 347.334 110.536 348.054 110.536C348.918 110.536 349.662 110.336 350.286 109.936C350.91 109.536 351.374 108.968 351.678 108.232L353.502 109C353.102 109.944 352.454 110.744 351.558 111.4C350.662 112.056 349.526 112.384 348.15 112.384ZM355.707 112V94.816H357.747V105.592L363.507 99.76H366.099V99.856L361.275 104.68L366.243 111.904V112H363.795L359.859 106.12L357.747 108.232V112H355.707Z" fill="white"/>
<rect x="69" y="137" width="109" height="44" rx="3" stroke="#AF5CF7" stroke-width="2"/>
<path d="M112.994 154.047V164H111.278V154.047H112.994ZM117.054 158.401V159.762H112.556V158.401H117.054ZM117.622 154.047V155.414H112.556V154.047H117.622ZM120.789 153.5V164H119.134V153.5H120.789ZM126.963 162.517V158.989C126.963 158.725 126.915 158.497 126.82 158.306C126.724 158.114 126.578 157.966 126.382 157.861C126.191 157.757 125.949 157.704 125.658 157.704C125.389 157.704 125.156 157.75 124.96 157.841C124.764 157.932 124.612 158.055 124.502 158.21C124.393 158.365 124.338 158.54 124.338 158.736H122.698C122.698 158.445 122.768 158.162 122.91 157.889C123.051 157.615 123.256 157.371 123.525 157.157C123.794 156.943 124.115 156.774 124.489 156.651C124.862 156.528 125.282 156.467 125.746 156.467C126.302 156.467 126.795 156.56 127.223 156.747C127.656 156.934 127.996 157.216 128.242 157.595C128.492 157.968 128.618 158.438 128.618 159.003V162.291C128.618 162.628 128.64 162.931 128.686 163.2C128.736 163.465 128.807 163.695 128.898 163.891V164H127.209C127.132 163.822 127.07 163.597 127.025 163.323C126.984 163.045 126.963 162.776 126.963 162.517ZM127.203 159.502L127.216 160.521H126.034C125.728 160.521 125.459 160.55 125.227 160.609C124.995 160.664 124.801 160.746 124.646 160.855C124.491 160.965 124.375 161.097 124.297 161.252C124.22 161.407 124.181 161.582 124.181 161.778C124.181 161.974 124.227 162.154 124.318 162.318C124.409 162.478 124.541 162.603 124.714 162.694C124.892 162.785 125.106 162.831 125.357 162.831C125.694 162.831 125.988 162.763 126.239 162.626C126.494 162.485 126.694 162.314 126.84 162.113C126.986 161.908 127.064 161.715 127.073 161.532L127.606 162.264C127.551 162.451 127.458 162.651 127.326 162.865C127.193 163.079 127.02 163.285 126.806 163.48C126.596 163.672 126.343 163.829 126.047 163.952C125.756 164.075 125.418 164.137 125.036 164.137C124.552 164.137 124.122 164.041 123.744 163.85C123.365 163.654 123.069 163.392 122.855 163.063C122.641 162.731 122.534 162.355 122.534 161.936C122.534 161.544 122.607 161.197 122.752 160.896C122.903 160.591 123.121 160.336 123.409 160.131C123.7 159.926 124.056 159.771 124.475 159.666C124.894 159.557 125.373 159.502 125.911 159.502H127.203ZM131.798 156.604L133.206 159.058L134.642 156.604H136.453L134.211 160.233L136.542 164H134.731L133.227 161.443L131.723 164H129.904L132.229 160.233L129.993 156.604H131.798Z" fill="white"/>
<rect x="69" y="207" width="460" height="44" rx="3" stroke="#5BB974" stroke-width="2"/>
<path d="M291.028 231.013V224.047H292.737V231.013C292.737 231.674 292.595 232.236 292.313 232.701C292.03 233.166 291.645 233.521 291.157 233.768C290.67 234.014 290.116 234.137 289.496 234.137C288.863 234.137 288.3 234.03 287.808 233.815C287.32 233.601 286.937 233.273 286.659 232.831C286.381 232.389 286.242 231.828 286.242 231.149H287.965C287.965 231.541 288.027 231.858 288.15 232.1C288.277 232.337 288.455 232.51 288.683 232.619C288.915 232.724 289.186 232.776 289.496 232.776C289.793 232.776 290.055 232.71 290.282 232.578C290.515 232.441 290.697 232.243 290.829 231.983C290.961 231.719 291.028 231.396 291.028 231.013ZM298.638 225.373L295.664 234H293.866L297.612 224.047H298.761L298.638 225.373ZM301.126 234L298.146 225.373L298.016 224.047H299.171L302.931 234H301.126ZM300.982 230.309V231.669H295.568V230.309H300.982ZM305.551 224.047L307.663 227.677L309.775 224.047H311.751L308.743 228.976L311.826 234H309.83L307.663 230.302L305.496 234H303.493L306.583 228.976L303.568 224.047H305.551Z" fill="white"/>
<rect x="186" y="137" width="109" height="44" rx="3" stroke="#AF5CF7" stroke-width="2"/>
<path d="M230.66 158.75V159.297C230.66 160.049 230.562 160.723 230.366 161.32C230.17 161.917 229.889 162.425 229.525 162.845C229.165 163.264 228.732 163.585 228.226 163.809C227.72 164.027 227.16 164.137 226.544 164.137C225.934 164.137 225.375 164.027 224.87 163.809C224.368 163.585 223.933 163.264 223.564 162.845C223.195 162.425 222.908 161.917 222.703 161.32C222.502 160.723 222.402 160.049 222.402 159.297V158.75C222.402 157.998 222.502 157.326 222.703 156.733C222.903 156.136 223.186 155.628 223.55 155.209C223.919 154.785 224.355 154.464 224.856 154.245C225.362 154.022 225.92 153.91 226.531 153.91C227.146 153.91 227.706 154.022 228.212 154.245C228.718 154.464 229.153 154.785 229.518 155.209C229.883 155.628 230.163 156.136 230.359 156.733C230.559 157.326 230.66 157.998 230.66 158.75ZM228.944 159.297V158.736C228.944 158.18 228.889 157.69 228.78 157.267C228.675 156.838 228.518 156.48 228.308 156.193C228.103 155.902 227.85 155.683 227.549 155.537C227.248 155.387 226.909 155.312 226.531 155.312C226.152 155.312 225.815 155.387 225.519 155.537C225.223 155.683 224.97 155.902 224.76 156.193C224.555 156.48 224.398 156.838 224.288 157.267C224.179 157.69 224.124 158.18 224.124 158.736V159.297C224.124 159.853 224.179 160.345 224.288 160.773C224.398 161.202 224.557 161.564 224.767 161.86C224.981 162.152 225.236 162.373 225.533 162.523C225.829 162.669 226.166 162.742 226.544 162.742C226.927 162.742 227.267 162.669 227.563 162.523C227.859 162.373 228.11 162.152 228.315 161.86C228.52 161.564 228.675 161.202 228.78 160.773C228.889 160.345 228.944 159.853 228.944 159.297ZM234.066 158.025V166.844H232.418V156.604H233.936L234.066 158.025ZM238.885 160.233V160.377C238.885 160.915 238.821 161.414 238.694 161.874C238.571 162.33 238.386 162.729 238.14 163.07C237.898 163.408 237.6 163.67 237.244 163.856C236.889 164.043 236.479 164.137 236.014 164.137C235.554 164.137 235.15 164.052 234.804 163.884C234.462 163.711 234.173 163.467 233.936 163.152C233.699 162.838 233.507 162.469 233.362 162.045C233.22 161.617 233.12 161.147 233.061 160.637V160.083C233.12 159.541 233.22 159.049 233.362 158.606C233.507 158.164 233.699 157.784 233.936 157.465C234.173 157.146 234.462 156.9 234.804 156.727C235.146 156.553 235.544 156.467 236 156.467C236.465 156.467 236.877 156.558 237.238 156.74C237.598 156.918 237.901 157.173 238.147 157.506C238.393 157.834 238.577 158.23 238.7 158.695C238.823 159.156 238.885 159.668 238.885 160.233ZM237.238 160.377V160.233C237.238 159.892 237.206 159.575 237.142 159.283C237.078 158.987 236.978 158.727 236.841 158.504C236.704 158.281 236.529 158.107 236.315 157.984C236.105 157.857 235.852 157.793 235.556 157.793C235.264 157.793 235.014 157.843 234.804 157.943C234.594 158.039 234.419 158.174 234.278 158.347C234.136 158.52 234.027 158.723 233.949 158.955C233.872 159.183 233.817 159.431 233.785 159.7V161.026C233.84 161.354 233.933 161.655 234.066 161.929C234.198 162.202 234.385 162.421 234.626 162.585C234.872 162.744 235.187 162.824 235.57 162.824C235.866 162.824 236.119 162.76 236.328 162.633C236.538 162.505 236.709 162.33 236.841 162.106C236.978 161.879 237.078 161.617 237.142 161.32C237.206 161.024 237.238 160.71 237.238 160.377ZM243.877 156.604V157.807H239.707V156.604H243.877ZM240.91 154.792H242.558V161.956C242.558 162.184 242.59 162.359 242.653 162.482C242.722 162.601 242.815 162.681 242.934 162.722C243.052 162.763 243.191 162.783 243.351 162.783C243.465 162.783 243.574 162.776 243.679 162.763C243.784 162.749 243.868 162.735 243.932 162.722L243.938 163.979C243.802 164.021 243.642 164.057 243.46 164.089C243.282 164.121 243.077 164.137 242.845 164.137C242.466 164.137 242.132 164.071 241.84 163.938C241.548 163.802 241.32 163.581 241.156 163.275C240.992 162.97 240.91 162.564 240.91 162.059V154.792ZM249.518 162.517V158.989C249.518 158.725 249.471 158.497 249.375 158.306C249.279 158.114 249.133 157.966 248.937 157.861C248.746 157.757 248.504 157.704 248.213 157.704C247.944 157.704 247.711 157.75 247.515 157.841C247.319 157.932 247.167 158.055 247.057 158.21C246.948 158.365 246.893 158.54 246.893 158.736H245.253C245.253 158.445 245.323 158.162 245.465 157.889C245.606 157.615 245.811 157.371 246.08 157.157C246.349 156.943 246.67 156.774 247.044 156.651C247.417 156.528 247.837 156.467 248.302 156.467C248.858 156.467 249.35 156.56 249.778 156.747C250.211 156.934 250.551 157.216 250.797 157.595C251.047 157.968 251.173 158.438 251.173 159.003V162.291C251.173 162.628 251.195 162.931 251.241 163.2C251.291 163.465 251.362 163.695 251.453 163.891V164H249.764C249.687 163.822 249.625 163.597 249.58 163.323C249.539 163.045 249.518 162.776 249.518 162.517ZM249.758 159.502L249.771 160.521H248.589C248.283 160.521 248.014 160.55 247.782 160.609C247.55 160.664 247.356 160.746 247.201 160.855C247.046 160.965 246.93 161.097 246.852 161.252C246.775 161.407 246.736 161.582 246.736 161.778C246.736 161.974 246.782 162.154 246.873 162.318C246.964 162.478 247.096 162.603 247.269 162.694C247.447 162.785 247.661 162.831 247.912 162.831C248.249 162.831 248.543 162.763 248.794 162.626C249.049 162.485 249.249 162.314 249.395 162.113C249.541 161.908 249.619 161.715 249.628 161.532L250.161 162.264C250.106 162.451 250.013 162.651 249.881 162.865C249.749 163.079 249.575 163.285 249.361 163.48C249.151 163.672 248.899 163.829 248.602 163.952C248.311 164.075 247.973 164.137 247.591 164.137C247.108 164.137 246.677 164.041 246.299 163.85C245.92 163.654 245.624 163.392 245.41 163.063C245.196 162.731 245.089 162.355 245.089 161.936C245.089 161.544 245.162 161.197 245.307 160.896C245.458 160.591 245.677 160.336 245.964 160.131C246.255 159.926 246.611 159.771 247.03 159.666C247.449 159.557 247.928 159.502 248.466 159.502H249.758ZM254.353 156.604L255.761 159.058L257.197 156.604H259.008L256.766 160.233L259.097 164H257.286L255.782 161.443L254.278 164H252.46L254.784 160.233L252.548 156.604H254.353Z" fill="white"/>
<rect x="303" y="137" width="109" height="44" rx="3" stroke="#AF5CF7" stroke-width="2"/>
<path d="M347.516 158.75V159.297C347.516 160.049 347.418 160.723 347.222 161.32C347.026 161.917 346.746 162.425 346.381 162.845C346.021 163.264 345.588 163.585 345.082 163.809C344.577 164.027 344.016 164.137 343.401 164.137C342.79 164.137 342.232 164.027 341.726 163.809C341.225 163.585 340.789 163.264 340.42 162.845C340.051 162.425 339.764 161.917 339.559 161.32C339.358 160.723 339.258 160.049 339.258 159.297V158.75C339.258 157.998 339.358 157.326 339.559 156.733C339.76 156.136 340.042 155.628 340.407 155.209C340.776 154.785 341.211 154.464 341.712 154.245C342.218 154.022 342.776 153.91 343.387 153.91C344.002 153.91 344.563 154.022 345.069 154.245C345.575 154.464 346.01 154.785 346.374 155.209C346.739 155.628 347.019 156.136 347.215 156.733C347.416 157.326 347.516 157.998 347.516 158.75ZM345.8 159.297V158.736C345.8 158.18 345.746 157.69 345.636 157.267C345.531 156.838 345.374 156.48 345.164 156.193C344.959 155.902 344.706 155.683 344.406 155.537C344.105 155.387 343.765 155.312 343.387 155.312C343.009 155.312 342.672 155.387 342.375 155.537C342.079 155.683 341.826 155.902 341.617 156.193C341.412 156.48 341.254 156.838 341.145 157.267C341.036 157.69 340.981 158.18 340.981 158.736V159.297C340.981 159.853 341.036 160.345 341.145 160.773C341.254 161.202 341.414 161.564 341.623 161.86C341.838 162.152 342.093 162.373 342.389 162.523C342.685 162.669 343.023 162.742 343.401 162.742C343.784 162.742 344.123 162.669 344.419 162.523C344.716 162.373 344.966 162.152 345.171 161.86C345.376 161.564 345.531 161.202 345.636 160.773C345.746 160.345 345.8 159.853 345.8 159.297ZM350.922 158.012V164H349.275V156.604H350.847L350.922 158.012ZM353.185 156.556L353.171 158.087C353.071 158.069 352.961 158.055 352.843 158.046C352.729 158.037 352.615 158.032 352.501 158.032C352.219 158.032 351.97 158.073 351.756 158.155C351.542 158.233 351.362 158.347 351.216 158.497C351.075 158.643 350.965 158.821 350.888 159.03C350.81 159.24 350.765 159.475 350.751 159.734L350.375 159.762C350.375 159.297 350.421 158.866 350.512 158.47C350.603 158.073 350.74 157.725 350.922 157.424C351.109 157.123 351.341 156.888 351.619 156.72C351.902 156.551 352.228 156.467 352.597 156.467C352.697 156.467 352.804 156.476 352.918 156.494C353.037 156.512 353.126 156.533 353.185 156.556ZM354.424 153.5H356.071V162.421L355.914 164H354.424V153.5ZM360.897 160.233V160.377C360.897 160.924 360.836 161.427 360.713 161.888C360.594 162.343 360.412 162.74 360.166 163.077C359.924 163.414 359.624 163.676 359.264 163.863C358.908 164.046 358.496 164.137 358.026 164.137C357.566 164.137 357.165 164.05 356.823 163.877C356.481 163.704 356.194 163.458 355.962 163.139C355.734 162.82 355.549 162.439 355.408 161.997C355.267 161.555 355.167 161.067 355.107 160.534V160.076C355.167 159.538 355.267 159.051 355.408 158.613C355.549 158.171 355.734 157.791 355.962 157.472C356.194 157.148 356.479 156.9 356.816 156.727C357.158 156.553 357.557 156.467 358.013 156.467C358.487 156.467 358.904 156.558 359.264 156.74C359.628 156.923 359.931 157.182 360.173 157.52C360.414 157.852 360.594 158.249 360.713 158.709C360.836 159.169 360.897 159.677 360.897 160.233ZM359.25 160.377V160.233C359.25 159.901 359.223 159.589 359.168 159.297C359.113 159.001 359.022 158.741 358.895 158.518C358.771 158.294 358.603 158.119 358.389 157.991C358.179 157.859 357.917 157.793 357.603 157.793C357.311 157.793 357.06 157.843 356.851 157.943C356.641 158.044 356.465 158.18 356.324 158.354C356.183 158.527 356.071 158.727 355.989 158.955C355.912 159.183 355.859 159.429 355.832 159.693V160.931C355.873 161.272 355.96 161.587 356.092 161.874C356.229 162.157 356.42 162.384 356.666 162.558C356.912 162.726 357.229 162.811 357.616 162.811C357.922 162.811 358.179 162.749 358.389 162.626C358.598 162.503 358.765 162.332 358.888 162.113C359.015 161.89 359.106 161.63 359.161 161.334C359.22 161.038 359.25 160.719 359.25 160.377ZM366.662 162.517V158.989C366.662 158.725 366.614 158.497 366.518 158.306C366.423 158.114 366.277 157.966 366.081 157.861C365.889 157.757 365.648 157.704 365.356 157.704C365.087 157.704 364.855 157.75 364.659 157.841C364.463 157.932 364.31 158.055 364.201 158.21C364.092 158.365 364.037 158.54 364.037 158.736H362.396C362.396 158.445 362.467 158.162 362.608 157.889C362.749 157.615 362.955 157.371 363.223 157.157C363.492 156.943 363.814 156.774 364.187 156.651C364.561 156.528 364.98 156.467 365.445 156.467C366.001 156.467 366.493 156.56 366.922 156.747C367.355 156.934 367.694 157.216 367.94 157.595C368.191 157.968 368.316 158.438 368.316 159.003V162.291C368.316 162.628 368.339 162.931 368.385 163.2C368.435 163.465 368.505 163.695 368.596 163.891V164H366.908C366.831 163.822 366.769 163.597 366.723 163.323C366.682 163.045 366.662 162.776 366.662 162.517ZM366.901 159.502L366.915 160.521H365.732C365.427 160.521 365.158 160.55 364.926 160.609C364.693 160.664 364.499 160.746 364.345 160.855C364.19 160.965 364.073 161.097 363.996 161.252C363.918 161.407 363.88 161.582 363.88 161.778C363.88 161.974 363.925 162.154 364.016 162.318C364.108 162.478 364.24 162.603 364.413 162.694C364.591 162.785 364.805 162.831 365.055 162.831C365.393 162.831 365.687 162.763 365.937 162.626C366.193 162.485 366.393 162.314 366.539 162.113C366.685 161.908 366.762 161.715 366.771 161.532L367.304 162.264C367.25 162.451 367.156 162.651 367.024 162.865C366.892 163.079 366.719 163.285 366.505 163.48C366.295 163.672 366.042 163.829 365.746 163.952C365.454 164.075 365.117 164.137 364.734 164.137C364.251 164.137 363.82 164.041 363.442 163.85C363.064 163.654 362.768 163.392 362.554 163.063C362.339 162.731 362.232 162.355 362.232 161.936C362.232 161.544 362.305 161.197 362.451 160.896C362.601 160.591 362.82 160.336 363.107 160.131C363.399 159.926 363.754 159.771 364.174 159.666C364.593 159.557 365.071 159.502 365.609 159.502H366.901ZM371.497 156.604L372.905 159.058L374.34 156.604H376.152L373.91 160.233L376.241 164H374.429L372.925 161.443L371.421 164H369.603L371.927 160.233L369.692 156.604H371.497Z" fill="white"/>
<rect x="420" y="137" width="109" height="44" rx="3" stroke="#AF5CF7" stroke-width="2"/>
<path d="M469.371 163.18C469.371 162.924 469.458 162.71 469.631 162.537C469.804 162.359 470.039 162.271 470.335 162.271C470.636 162.271 470.871 162.359 471.039 162.537C471.212 162.71 471.299 162.924 471.299 163.18C471.299 163.435 471.212 163.649 471.039 163.822C470.871 163.995 470.636 164.082 470.335 164.082C470.039 164.082 469.804 163.995 469.631 163.822C469.458 163.649 469.371 163.435 469.371 163.18ZM473.468 163.18C473.468 162.924 473.554 162.71 473.728 162.537C473.901 162.359 474.135 162.271 474.432 162.271C474.732 162.271 474.967 162.359 475.136 162.537C475.309 162.71 475.396 162.924 475.396 163.18C475.396 163.435 475.309 163.649 475.136 163.822C474.967 163.995 474.732 164.082 474.432 164.082C474.135 164.082 473.901 163.995 473.728 163.822C473.554 163.649 473.468 163.435 473.468 163.18ZM477.564 163.18C477.564 162.924 477.651 162.71 477.824 162.537C477.997 162.359 478.232 162.271 478.528 162.271C478.829 162.271 479.064 162.359 479.232 162.537C479.405 162.71 479.492 162.924 479.492 163.18C479.492 163.435 479.405 163.649 479.232 163.822C479.064 163.995 478.829 164.082 478.528 164.082C478.232 164.082 477.997 163.995 477.824 163.822C477.651 163.649 477.564 163.435 477.564 163.18Z" fill="white"/>
</g>
<defs>
<radialGradient id="paint0_radial_829_1756" cx="0" cy="0" r="1" gradientUnits="userSpaceOnUse" gradientTransform="translate(529.5 60.5) rotate(90) scale(469.5)">
<stop stop-color="#5E97F6"/>
<stop offset="1" stop-color="#5E97F6" stop-opacity="0"/>
</radialGradient>
<radialGradient id="paint1_radial_829_1756" cx="0" cy="0" r="1" gradientUnits="userSpaceOnUse" gradientTransform="translate(163.5 307.5) rotate(90) scale(469.5)">
<stop stop-color="#5E97F6"/>
<stop offset="1" stop-color="#5E97F6" stop-opacity="0"/>
</radialGradient>
<clipPath id="clip0_829_1756">
<rect width="598" height="340" rx="24" fill="white"/>
</clipPath>
</defs>
</svg>
